<?xml version="1.0" standalone="no"?>
<!DOCTYPE svg PUBLIC "-//W3C//DTD SVG 20010904//EN"
 "http://www.w3.org/TR/2001/REC-SVG-20010904/DTD/svg10.dtd">
<svg version="1.0" xmlns="http://www.w3.org/2000/svg"
 width="768.000000pt" height="768.000000pt" viewBox="0 0 768.000000 768.000000"
 preserveAspectRatio="xMidYMid meet">
<metadata>
Created by potrace 1.14, written by Peter Selinger 2001-2017
</metadata>
<g transform="translate(0.000000,768.000000) scale(0.100000,-0.100000)"
fill="#000000" stroke="none">
<path d="M164 7493 c4 -7 3 -13 -3 -13 -11 0 -9 -49 3 -69 6 -8 5 -12 0 -8
-12 7 -12 -333 0 -352 6 -9 5 -12 -1 -8 -13 8 -11 -92 1 -112 6 -8 5 -12 0 -8
-12 7 -12 -383 0 -402 5 -8 5 -12 0 -8 -12 7 -12 -403 0 -422 6 -9 5 -12 -1
-8 -13 8 -11 -92 1 -112 6 -8 5 -12 0 -8 -12 7 -12 -383 0 -402 5 -8 5 -12 0
-8 -12 7 -12 -403 0 -422 6 -9 5 -12 -1 -8 -13 8 -11 -92 1 -112 6 -8 5 -12 0
-8 -12 7 -12 -383 0 -402 5 -8 5 -12 0 -8 -12 7 -12 -403 0 -422 6 -9 5 -12
-1 -8 -13 8 -11 -92 1 -112 6 -9 5 -12 -2 -7 -7 4 -10 -1 -9 -14 1 -11 5 -20
10 -20 4 0 5 -5 2 -10 -3 -5 -1 -10 4 -10 6 0 11 6 11 13 0 8 4 7 11 -3 8 -12
12 -12 16 -2 4 10 8 9 17 -4 11 -15 14 -15 27 -2 12 14 15 14 25 0 9 -12 13
-12 19 -2 6 9 4 11 -5 5 -8 -5 -11 -4 -6 3 9 15 38 3 29 -12 -3 -6 4 -2 17 9
17 15 22 16 18 5 -4 -10 0 -16 12 -16 11 0 16 6 12 14 -4 11 2 10 22 -3 25
-17 26 -17 20 0 -7 16 -5 16 22 -1 20 -13 25 -14 17 -4 -9 13 -7 15 17 15 16
1 26 -3 24 -7 -8 -12 10 -10 23 3 8 8 13 7 18 -2 6 -8 4 -10 -5 -4 -8 5 -11 4
-6 -3 9 -15 38 -3 29 12 -3 6 2 3 13 -6 19 -17 21 -17 38 0 18 16 19 16 13 0
-4 -10 -4 -18 0 -18 3 0 12 8 20 18 8 9 12 11 8 5 -8 -17 7 -17 24 0 11 9 13
9 7 0 -9 -16 6 -17 21 -2 8 8 13 7 18 -2 6 -8 4 -10 -5 -4 -8 5 -11 4 -6 -3 9
-15 38 -3 29 12 -3 6 3 3 14 -7 14 -12 23 -15 28 -8 9 15 28 14 19 -1 -4 -7 3
-4 16 7 17 15 22 16 18 5 -4 -10 0 -16 12 -16 11 0 16 6 12 14 -4 11 2 10 22
-3 25 -17 26 -17 20 0 -7 16 -5 16 22 -1 22 -14 26 -15 17 -3 -11 13 -10 15 5
14 9 0 23 -4 30 -9 7 -4 12 -2 12 5 0 7 6 5 13 -6 11 -14 16 -15 22 -5 6 9 4
11 -5 5 -8 -5 -11 -4 -6 3 4 6 13 9 21 6 8 -4 12 -10 9 -15 -3 -5 0 -9 5 -9 6
0 11 8 11 18 0 14 2 15 10 2 8 -12 11 -13 19 -1 7 11 9 11 14 0 5 -12 7 -12
15 0 8 11 10 11 15 0 5 -12 7 -12 15 0 8 11 10 11 15 0 5 -12 7 -12 15 -1 7
11 10 11 15 -2 4 -9 13 -13 22 -10 8 3 12 11 8 18 -3 6 3 3 14 -7 15 -13 23
-15 28 -7 4 7 16 10 26 7 11 -3 19 0 19 6 0 6 6 3 13 -8 11 -14 16 -15 22 -5
6 9 4 11 -5 5 -8 -5 -11 -4 -6 3 4 6 13 9 21 6 8 -4 12 -10 9 -15 -3 -5 0 -9
5 -9 6 0 11 8 11 18 0 14 2 15 10 2 8 -12 11 -13 19 -1 7 11 9 11 14 0 5 -12
7 -12 15 0 8 11 10 11 15 0 5 -12 7 -12 15 0 8 11 10 11 15 0 5 -12 7 -12 15
-1 7 11 10 11 15 -2 4 -9 13 -13 22 -10 8 3 12 11 8 18 -3 6 3 3 14 -7 14 -12
23 -15 28 -8 9 15 28 14 19 -1 -4 -7 3 -4 16 7 17 15 22 16 18 5 -4 -10 0 -16
12 -16 11 0 16 6 12 14 -4 11 2 10 22 -3 25 -17 26 -17 20 0 -7 16 -5 16 22
-1 20 -13 25 -14 17 -4 -9 13 -7 15 17 15 16 1 26 -3 24 -7 -8 -12 10 -10 23
3 8 8 13 7 18 -2 6 -8 4 -10 -5 -4 -8 5 -11 4 -6 -3 9 -15 38 -3 29 12 -3 6 2
3 13 -6 19 -17 21 -17 38 0 18 16 19 16 13 0 -8 -23 2 -23 20 0 8 9 12 11 8 5
-8 -17 7 -17 24 0 11 10 13 10 7 0 -9 -16 6 -17 21 -2 8 8 13 7 18 -2 6 -8 4
-10 -5 -4 -8 5 -11 4 -6 -3 9 -15 38 -3 29 12 -3 6 3 3 14 -7 14 -12 23 -15
28 -8 9 15 28 14 19 -1 -4 -7 3 -4 16 7 17 15 22 16 18 5 -4 -10 0 -16 12 -16
11 0 16 6 12 14 -4 11 2 10 22 -3 25 -17 26 -17 20 0 -7 16 -5 16 22 -1 22
-14 26 -15 17 -3 -11 13 -10 15 5 14 9 0 23 -4 30 -9 7 -4 12 -2 12 5 0 7 6 5
13 -6 11 -14 16 -15 22 -5 6 9 4 11 -5 5 -8 -5 -11 -4 -6 3 4 6 13 9 21 6 8
-4 12 -10 9 -15 -3 -5 0 -9 5 -9 6 0 11 8 11 18 0 14 2 15 10 2 8 -12 11 -13
19 -1 7 11 9 11 14 0 5 -12 7 -12 15 0 8 11 10 11 15 0 5 -12 7 -12 15 0 8 11
10 11 15 0 5 -12 7 -12 15 -1 7 11 10 11 15 -2 4 -9 13 -13 22 -10 8 3 12 11
8 18 -3 6 3 3 14 -7 12 -10 24 -14 27 -9 9 15 45 21 53 10 4 -7 1 -8 -7 -3 -9
6 -11 4 -5 -5 6 -10 11 -9 22 5 12 17 18 14 14 -7 0 -5 4 -8 9 -8 6 0 10 8 10
18 0 14 2 15 10 2 8 -12 11 -13 19 -1 7 11 9 11 14 0 5 -12 7 -12 15 -1 7 11
10 11 15 -2 7 -18 27 -22 27 -5 0 5 -5 7 -12 3 -7 -5 -8 -3 -3 5 5 9 10 10 18
2 15 -15 30 -14 21 2 -6 10 -4 10 7 0 7 -7 17 -13 22 -13 4 0 5 6 1 13 -6 10
-4 10 7 0 7 -7 17 -13 22 -13 4 0 5 6 1 13 -6 10 -4 10 7 0 7 -7 17 -13 22
-13 4 0 5 6 1 13 -4 6 3 3 16 -8 13 -11 20 -15 17 -9 -9 15 20 27 29 12 5 -7
2 -8 -6 -3 -9 6 -11 4 -5 -5 6 -10 11 -9 22 5 12 17 18 14 14 -7 0 -5 4 -8 9
-8 6 0 10 8 10 18 0 14 2 15 10 2 8 -12 11 -13 19 -1 7 11 9 11 14 0 5 -12 7
-12 15 -1 7 11 10 11 15 -2 7 -18 27 -22 27 -5 0 5 -5 7 -12 3 -7 -5 -8 -3 -3
5 5 9 10 10 18 2 15 -15 30 -14 21 2 -6 9 -4 9 7 0 17 -17 32 -17 23 0 -6 9
-4 9 7 0 7 -7 17 -13 22 -13 4 0 5 6 1 13 -6 10 -4 10 7 0 7 -7 17 -13 22 -13
4 0 5 6 1 13 -4 6 3 3 16 -8 13 -11 20 -15 17 -9 -9 15 20 27 29 12 5 -7 2 -8
-6 -3 -9 6 -11 4 -5 -5 6 -10 11 -9 22 5 12 17 18 14 14 -7 0 -5 4 -8 9 -8 6
0 10 8 10 18 0 14 2 15 10 2 8 -12 11 -13 19 -1 7 11 9 11 14 0 5 -12 7 -12
15 -1 7 11 10 11 15 -2 7 -18 27 -22 27 -5 0 5 -5 7 -12 3 -7 -5 -8 -3 -3 5 5
9 10 10 18 2 15 -15 30 -14 21 2 -6 9 -4 9 7 -1 17 -16 32 -16 23 1 -6 9 -4 9
7 -1 17 -16 32 -16 23 1 -6 9 -4 9 7 -1 17 -16 32 -16 23 1 -4 6 2 4 13 -6 16
-14 23 -15 29 -6 5 8 3 10 -6 4 -9 -6 -11 -4 -6 4 6 9 12 8 26 -4 16 -15 19
-15 34 0 9 9 16 12 16 6 0 -6 7 -11 16 -11 9 0 12 5 8 12 -5 7 -3 8 7 2 21
-13 38 -13 46 -1 3 7 3 9 -2 5 -9 -8 -35 16 -35 32 0 7 -7 10 -14 7 -11 -4
-13 -1 -9 10 4 11 2 14 -5 9 -7 -4 -12 -1 -12 9 0 9 -4 13 -10 10 -5 -3 -10 1
-10 9 0 9 -7 16 -16 16 -8 0 -13 4 -10 9 3 4 -6 13 -20 20 -17 7 -24 17 -20
26 3 8 2 14 -2 14 -23 -4 -34 3 -28 17 3 8 2 12 -3 9 -14 -8 -59 38 -53 55 5
13 3 13 -13 0 -11 -9 -16 -10 -11 -2 4 7 2 12 -4 12 -7 0 -10 7 -6 15 3 8 2
14 -2 14 -21 -3 -32 3 -32 17 0 8 -4 12 -10 9 -6 -3 -10 1 -10 9 0 9 -7 16
-16 16 -8 0 -12 5 -9 10 3 6 2 10 -2 10 -5 0 -18 7 -29 16 -10 8 -12 12 -4 9
8 -4 2 4 -14 19 -16 14 -33 23 -39 19 -6 -3 -7 -1 -3 5 3 6 -3 16 -14 22 -12
7 -19 18 -16 26 3 7 2 13 -2 13 -20 -3 -32 3 -32 16 0 8 -6 15 -13 15 -18 0
-44 34 -39 50 5 13 3 13 -13 0 -11 -9 -16 -10 -11 -2 4 7 2 12 -4 12 -7 0 -9
7 -6 16 3 8 2 13 -2 10 -13 -8 -52 23 -52 40 0 8 -4 14 -9 14 -18 0 -63 49
-56 60 3 6 3 10 -2 9 -20 -4 -33 2 -33 15 0 7 -9 16 -20 19 -11 3 -20 13 -20
22 0 9 -4 13 -10 10 -6 -3 -10 1 -10 9 0 9 -7 16 -16 16 -8 0 -12 5 -9 10 3 6
2 10 -2 10 -5 0 -18 7 -29 16 -10 8 -12 12 -4 9 8 -4 2 4 -14 19 -16 14 -33
23 -39 19 -6 -3 -7 -1 -3 5 3 6 -3 16 -14 22 -12 7 -19 18 -16 26 3 7 2 13 -2
13 -20 -3 -32 3 -32 16 0 8 -6 15 -13 15 -18 0 -44 34 -39 50 5 13 3 13 -13 0
-11 -9 -16 -10 -11 -2 4 7 2 12 -4 12 -7 0 -9 7 -6 16 3 8 2 13 -2 10 -13 -8
-52 23 -52 40 0 8 -4 14 -9 14 -6 0 -23 12 -38 27 -15 14 -21 23 -13 18 8 -4
2 4 -14 19 -16 14 -33 23 -39 19 -6 -3 -7 -1 -3 5 3 6 -3 16 -14 22 -12 7 -19
18 -16 26 3 7 2 13 -2 13 -20 -3 -32 2 -32 15 0 7 -9 16 -20 19 -11 3 -20 13
-20 22 0 9 -5 13 -10 10 -6 -3 -10 1 -10 9 0 9 -4 16 -9 16 -18 0 -63 49 -56
60 3 6 3 10 -2 9 -21 -4 -33 2 -33 16 0 8 -6 15 -13 15 -18 0 -44 34 -39 50 5
13 3 13 -13 0 -11 -9 -16 -10 -11 -2 4 7 2 12 -4 12 -7 0 -9 7 -6 16 3 8 2 13
-2 10 -13 -8 -52 23 -52 41 0 10 -6 13 -16 9 -8 -3 -12 -2 -9 4 6 9 -18 41
-30 40 -3 0 -5 3 -4 6 1 11 -44 44 -53 38 -4 -3 -7 -2 -6 3 4 12 -77 93 -93
93 -12 0 -12 2 0 9 11 7 9 10 -7 15 -15 5 -19 12 -15 24 6 15 5 16 -12 2 -11
-9 -16 -10 -11 -2 4 7 2 12 -4 12 -7 0 -10 7 -6 15 3 8 2 14 -2 14 -21 -3 -32
3 -32 17 0 8 -4 12 -10 9 -5 -3 -10 1 -10 9 0 9 -7 16 -16 16 -8 0 -13 4 -10
9 3 4 -6 13 -20 20 -17 7 -24 17 -20 26 3 8 2 14 -2 14 -19 -3 -32 2 -32 14 0
7 -10 17 -22 22 -13 6 -27 20 -33 33 -5 12 -13 22 -17 22 -4 0 -20 12 -35 27
-15 14 -21 23 -13 18 8 -4 2 4 -14 19 -16 14 -33 23 -38 20 -4 -3 -7 -1 -6 5
2 5 -6 17 -17 26 -11 9 -13 14 -5 10 8 -3 6 0 -4 7 -10 7 -26 21 -35 31 -8 9
-22 17 -31 17 -10 0 -11 3 -4 8 9 5 8 10 -1 19 -11 10 -15 10 -18 0 -3 -7 -6
-2 -6 11 -1 12 -5 22 -10 22 -18 0 -63 49 -56 60 3 6 3 10 -2 9 -21 -4 -33 2
-33 16 0 8 -6 15 -14 15 -7 0 -21 11 -30 25 -9 14 -21 23 -26 20 -6 -4 -7 1
-3 11 5 13 3 15 -7 9 -10 -6 -12 -4 -7 9 4 9 3 15 -1 12 -13 -8 -52 23 -52 41
0 13 -3 13 -15 3 -13 -11 -14 -10 -9 3 5 15 -14 45 -33 50 -4 1 -7 7 -7 14 1
7 -1 12 -5 11 -19 -2 -31 3 -31 15 0 7 -10 17 -22 22 -13 6 -28 20 -34 32 -8
17 -14 19 -22 11 -8 -8 -9 -5 -5 11 3 11 1 21 -4 21 -5 0 -18 7 -29 16 -10 8
-12 12 -4 9 8 -4 2 4 -14 19 -16 14 -33 23 -39 19 -6 -3 -7 -1 -3 5 3 6 -3 16
-14 22 -12 7 -19 18 -16 26 3 7 2 13 -2 13 -20 -3 -32 3 -32 16 0 8 -6 15 -13
15 -18 0 -44 34 -39 50 5 13 3 13 -13 0 -11 -9 -16 -10 -11 -2 4 7 2 12 -4 12
-7 0 -9 7 -6 16 3 8 2 13 -2 10 -13 -8 -52 23 -52 40 0 9 -5 12 -12 8 -8 -5
-9 -2 -5 9 3 9 3 16 -1 15 -11 -3 -54 23 -48 29 8 9 -35 44 -46 37 -4 -3 -7
-2 -6 3 3 10 -72 88 -92 96 -10 4 -11 6 -2 6 11 1 11 3 0 14 -7 7 -21 16 -30
20 -10 3 -18 11 -18 17 0 15 -26 41 -34 33 -3 -4 -6 -1 -6 6 0 7 -5 9 -12 5
-8 -5 -8 -2 1 10 8 9 10 16 5 15 -21 -4 -34 2 -34 15 0 7 -9 16 -20 19 -11 3
-20 13 -20 22 0 10 -5 13 -12 9 -8 -5 -9 -2 -4 11 6 16 4 16 -11 4 -9 -8 -14
-9 -11 -4 3 6 -4 19 -15 30 -11 11 -17 14 -13 8z"/>
<path d="M7495 7480 c3 -5 -1 -10 -9 -10 -8 0 -18 -9 -21 -20 -4 -11 -11 -18
-16 -15 -5 4 -9 1 -9 -5 0 -6 -4 -9 -9 -5 -6 3 -8 -4 -6 -15 2 -11 0 -18 -5
-15 -6 3 -30 -15 -55 -40 -25 -26 -49 -43 -56 -40 -7 5 -7 0 1 -15 8 -15 8
-20 1 -16 -6 4 -11 2 -11 -4 0 -6 -4 -8 -10 -5 -5 3 -10 1 -10 -5 0 -6 -5 -8
-12 -4 -7 4 -8 3 -4 -5 4 -6 0 -14 -8 -17 -9 -3 -14 -9 -11 -14 2 -4 -7 -12
-20 -18 -14 -7 -25 -16 -25 -22 0 -6 -4 -9 -9 -5 -6 3 -8 -3 -6 -14 2 -14 -1
-18 -11 -14 -8 3 -14 0 -14 -6 0 -6 -11 -16 -25 -23 -13 -6 -22 -15 -19 -20 3
-4 -2 -11 -11 -14 -9 -4 -14 -13 -11 -20 3 -9 0 -11 -11 -7 -10 4 -14 2 -10
-4 4 -6 -3 -13 -14 -16 -12 -3 -18 -10 -14 -16 3 -6 2 -11 -3 -11 -19 0 -54
-39 -46 -52 6 -10 3 -9 -9 1 -15 12 -17 12 -11 -4 5 -13 4 -16 -4 -11 -7 4
-12 2 -12 -4 0 -6 -4 -9 -9 -5 -6 3 -8 -4 -6 -15 2 -11 0 -18 -5 -15 -5 3 -21
-6 -36 -20 -14 -13 -31 -22 -36 -19 -6 4 -5 -4 2 -16 7 -13 8 -20 2 -16 -6 3
-13 2 -17 -4 -4 -6 -11 -8 -16 -5 -5 3 -6 -1 -3 -10 4 -9 3 -15 -2 -13 -14 4
-66 -50 -59 -61 4 -7 0 -8 -10 -5 -11 5 -18 0 -22 -15 -3 -11 -9 -18 -14 -15
-5 3 -9 0 -9 -6 0 -6 -4 -9 -9 -5 -6 3 -8 -3 -6 -14 2 -14 -1 -18 -11 -14 -8
3 -14 0 -14 -6 0 -6 -11 -16 -25 -23 -13 -6 -22 -15 -19 -20 3 -4 -2 -11 -11
-14 -9 -4 -14 -13 -11 -21 4 -8 1 -11 -5 -8 -12 8 -51 -24 -43 -36 3 -5 1 -9
-4 -9 -16 0 -52 -37 -44 -45 4 -5 -1 -5 -10 -2 -13 4 -15 2 -11 -10 4 -11 2
-14 -5 -9 -7 4 -12 2 -12 -4 0 -6 -4 -9 -9 -5 -6 3 -8 -4 -6 -15 2 -11 0 -18
-5 -15 -14 9 -112 -93 -103 -108 4 -7 0 -7 -10 2 -15 12 -17 12 -11 -4 5 -13
4 -16 -4 -11 -7 4 -12 2 -12 -4 0 -6 -5 -8 -10 -5 -6 4 -9 2 -8 -3 4 -11 -69
-82 -76 -75 -3 3 -3 -4 -1 -16 2 -12 0 -19 -5 -16 -12 7 -93 -73 -85 -85 3 -5
0 -7 -8 -4 -8 3 -23 -6 -34 -20 -11 -14 -23 -23 -26 -19 -4 3 -5 -4 -2 -15 2
-15 0 -19 -11 -15 -8 3 -14 0 -14 -6 0 -6 -11 -16 -24 -22 -15 -7 -22 -17 -19
-26 3 -8 0 -13 -8 -11 -8 2 -13 -4 -13 -14 1 -10 -3 -15 -8 -12 -12 8 -49 -26
-42 -37 3 -5 1 -9 -4 -9 -19 0 -54 -39 -46 -52 6 -10 3 -9 -9 1 -15 12 -17 12
-11 -4 5 -13 4 -16 -4 -11 -7 4 -12 2 -12 -4 0 -6 -4 -9 -9 -5 -6 3 -8 -4 -6
-15 2 -11 0 -18 -5 -15 -6 3 -23 -7 -39 -24 -16 -16 -32 -27 -35 -24 -3 3 -3
-4 -1 -16 2 -12 0 -19 -5 -16 -13 8 -92 -73 -84 -86 5 -8 3 -9 -5 -5 -14 9
-53 -22 -45 -35 3 -5 1 -9 -4 -9 -16 0 -52 -37 -44 -45 4 -5 -1 -5 -10 -2 -13
4 -15 2 -11 -10 4 -11 2 -14 -5 -9 -7 4 -12 2 -12 -4 0 -6 -5 -8 -10 -5 -6 4
-9 2 -8 -3 2 -5 -23 -35 -55 -66 -36 -35 -55 -61 -50 -69 4 -7 0 -7 -10 2 -15
12 -17 12 -11 -4 5 -13 4 -16 -4 -11 -7 4 -12 2 -12 -4 0 -6 -4 -9 -9 -5 -6 3
-8 -4 -6 -15 2 -11 0 -18 -5 -15 -6 3 -23 -7 -39 -24 -16 -16 -32 -27 -35 -24
-3 3 -3 -4 -1 -16 2 -12 0 -19 -5 -16 -13 8 -92 -73 -84 -86 5 -8 3 -9 -5 -4
-14 8 -94 -71 -86 -85 3 -5 -4 -7 -15 -5 -11 2 -18 0 -15 -6 4 -5 1 -9 -5 -9
-6 0 -8 -5 -4 -12 5 -8 2 -9 -11 -4 -16 6 -16 4 -4 -11 8 -9 9 -14 2 -10 -14
9 -107 -78 -99 -92 3 -5 -2 -8 -12 -7 -10 0 -16 -5 -14 -13 2 -9 -3 -11 -15
-7 -9 4 -14 4 -11 0 9 -9 -53 -70 -66 -66 -6 2 -8 0 -4 -3 4 -4 -4 -17 -18
-28 -14 -10 -23 -25 -20 -32 2 -7 -3 -12 -12 -11 -10 0 -16 -5 -14 -13 2 -8
-3 -11 -11 -8 -9 3 -19 -4 -26 -19 -6 -13 -16 -24 -22 -24 -6 0 -9 -6 -6 -14
4 -10 0 -14 -13 -11 -11 2 -19 0 -17 -4 1 -5 -11 -20 -26 -35 -15 -14 -26 -30
-22 -36 3 -5 -4 -7 -15 -5 -11 2 -18 0 -15 -6 4 -5 1 -9 -5 -9 -6 0 -8 -5 -4
-12 5 -8 2 -9 -11 -4 -16 6 -16 4 -4 -11 9 -11 10 -14 2 -9 -14 8 -77 -50 -68
-63 2 -5 -3 -8 -13 -7 -10 0 -17 -6 -16 -15 1 -9 -6 -16 -15 -15 -9 0 -15 -5
-13 -13 2 -9 -3 -11 -13 -7 -9 3 -13 2 -10 -4 3 -6 2 -10 -4 -10 -5 0 -13 -9
-16 -20 -4 -11 -10 -18 -15 -15 -4 3 -11 -2 -14 -11 -3 -8 -11 -12 -16 -9 -6
4 -9 2 -8 -3 2 -5 -10 -21 -25 -36 -15 -14 -26 -30 -22 -36 3 -5 -4 -7 -15 -5
-11 2 -18 0 -15 -6 4 -5 1 -9 -5 -9 -6 0 -8 -5 -4 -12 5 -7 2 -9 -9 -5 -11 4
-14 2 -10 -9 3 -8 1 -14 -4 -12 -12 4 -104 -92 -98 -102 3 -5 -4 -7 -15 -5
-11 2 -19 1 -16 -3 6 -11 -21 -32 -30 -24 -5 4 -3 0 4 -9 11 -14 10 -17 -4
-15 -21 1 -39 -27 -30 -49 6 -17 8 -17 28 1 19 17 21 17 15 2 -4 -10 -4 -18 0
-18 3 0 12 8 20 18 8 9 12 11 8 5 -8 -17 7 -17 24 -1 11 10 13 10 7 1 -9 -17
6 -17 23 -1 11 10 13 10 7 1 -9 -17 6 -17 23 -1 11 10 13 10 7 1 -9 -16 6 -17
21 -2 8 8 13 7 18 -2 6 -8 4 -10 -5 -4 -8 5 -11 4 -6 -3 9 -15 38 -3 29 12 -3
6 3 3 14 -7 14 -12 23 -15 28 -8 9 15 28 14 19 -1 -4 -7 3 -4 16 7 17 15 22
16 18 5 -4 -10 0 -16 12 -16 11 0 16 6 12 14 -4 11 2 10 22 -3 25 -17 26 -17
20 0 -7 16 -5 16 22 -1 22 -14 26 -15 17 -3 -11 13 -10 15 5 14 9 0 23 -4 30
-9 7 -4 12 -2 12 5 0 7 6 5 13 -6 11 -14 16 -15 22 -5 6 9 4 11 -5 5 -8 -5
-11 -4 -6 3 4 6 13 9 21 6 8 -4 12 -10 9 -15 -3 -5 0 -9 5 -9 6 0 11 8 11 18
0 14 2 15 10 2 8 -12 11 -13 19 -1 7 11 9 11 14 0 5 -12 7 -12 15 0 8 11 10
11 15 0 5 -12 7 -12 15 0 8 11 10 11 15 0 5 -12 7 -12 15 -1 7 11 10 11 15 -2
4 -9 13 -13 22 -10 8 3 12 11 8 18 -3 6 3 3 14 -7 14 -12 23 -15 28 -8 9 15
28 14 19 -1 -4 -7 3 -4 16 7 17 15 22 16 18 5 -4 -10 0 -16 12 -16 11 0 16 6
12 14 -4 11 2 10 22 -3 25 -17 26 -17 20 0 -7 16 -5 16 22 -1 20 -13 25 -14
17 -4 -9 13 -7 15 17 15 16 1 26 -3 24 -7 -8 -12 10 -10 23 3 8 8 13 7 18 -2
6 -8 4 -10 -5 -4 -8 5 -11 4 -6 -3 9 -15 38 -3 29 12 -3 6 2 3 13 -6 19 -17
21 -17 38 0 18 16 19 16 13 0 -8 -23 2 -23 20 0 8 9 12 11 8 5 -8 -17 7 -17
24 0 11 9 13 9 7 0 -9 -16 6 -17 21 -2 8 8 13 7 18 -2 6 -8 4 -10 -5 -4 -8 5
-11 4 -6 -3 9 -15 38 -3 29 12 -3 6 3 3 14 -7 14 -12 23 -15 28 -8 9 15 28 14
19 -1 -4 -7 3 -4 16 7 17 15 22 16 18 5 -4 -10 0 -16 12 -16 11 0 16 6 12 14
-4 11 2 10 22 -3 25 -17 26 -17 20 0 -7 16 -5 16 22 -1 22 -14 26 -15 17 -3
-11 13 -10 15 5 14 9 0 23 -4 30 -9 7 -4 12 -2 12 5 0 7 6 5 13 -6 11 -14 16
-15 22 -5 6 9 4 11 -5 5 -8 -5 -11 -4 -6 3 4 6 13 9 21 6 8 -4 12 -10 9 -15
-3 -5 0 -9 5 -9 6 0 11 8 11 18 0 14 2 15 10 2 8 -12 11 -13 19 -1 7 11 9 11
14 0 5 -12 7 -12 15 0 8 11 10 11 15 0 5 -12 7 -12 15 0 8 11 10 11 15 0 5
-12 7 -12 15 -1 7 11 10 11 15 -2 4 -9 13 -13 22 -10 8 3 12 11 8 18 -3 6 3 3
14 -7 14 -12 23 -15 28 -8 9 15 28 14 19 -1 -4 -7 3 -4 16 7 17 15 22 16 18 5
-4 -10 0 -16 12 -16 11 0 16 6 12 14 -4 11 2 10 22 -3 25 -17 26 -17 20 0 -7
16 -5 16 22 -1 20 -13 25 -14 17 -4 -9 13 -7 15 17 15 16 1 26 -3 24 -7 -8
-12 10 -10 23 3 8 8 13 7 18 -2 6 -8 4 -10 -5 -4 -8 5 -11 4 -6 -3 9 -15 38
-3 29 12 -3 6 2 3 13 -6 19 -17 21 -17 38 0 18 16 19 16 13 0 -8 -23 2 -23 20
0 8 9 12 11 8 5 -3 -7 -2 -13 2 -13 5 0 15 6 22 13 11 10 13 10 7 0 -9 -16 6
-17 21 -2 8 8 13 7 18 -2 6 -8 4 -10 -5 -4 -8 5 -11 4 -6 -3 9 -15 38 -3 29
12 -3 6 3 3 14 -7 14 -12 23 -15 28 -8 9 15 28 14 19 -1 -4 -7 3 -4 16 7 17
15 22 16 18 5 -4 -10 0 -16 12 -16 11 0 16 6 12 14 -4 11 2 10 22 -3 25 -17
26 -17 20 0 -7 16 -5 16 22 -1 21 -13 26 -14 17 -3 -10 12 -8 15 17 14 16 0
33 -5 37 -9 5 -5 2 -6 -6 -1 -10 6 -12 4 -6 -5 6 -10 11 -9 22 5 12 17 18 14
14 -7 0 -5 4 -8 9 -8 6 0 10 8 10 18 0 14 2 15 10 2 8 -12 11 -13 19 -1 7 11
9 11 14 0 5 -12 7 -12 15 -1 7 11 10 11 15 -2 7 -18 27 -22 27 -5 0 5 -5 7
-12 3 -7 -5 -8 -3 -3 5 5 9 10 10 18 2 15 -15 30 -14 21 2 -6 9 -4 9 7 0 7 -7
17 -13 22 -13 4 0 5 6 1 13 -6 10 -4 10 7 0 7 -7 17 -13 22 -13 4 0 5 6 1 13
-6 10 -4 10 7 0 17 -17 32 -17 23 0 -4 6 3 3 16 -8 13 -11 20 -15 17 -9 -9 15
20 27 29 12 5 -7 2 -8 -6 -3 -9 6 -11 4 -5 -5 6 -10 11 -9 22 5 12 17 18 14
14 -7 0 -5 4 -8 9 -8 6 0 10 8 10 18 0 14 2 15 10 2 8 -12 11 -13 19 -1 7 11
9 11 14 0 5 -12 7 -12 15 -1 7 11 10 11 15 -2 7 -18 27 -22 27 -5 0 5 -5 7
-12 3 -7 -5 -8 -3 -3 5 5 9 10 10 18 2 15 -15 30 -14 21 2 -6 10 -4 10 7 0 17
-17 32 -17 23 0 -6 9 -4 9 7 -1 17 -16 32 -16 23 1 -6 9 -4 9 7 -1 17 -16 32
-16 23 1 -4 6 3 3 16 -8 13 -11 20 -15 17 -9 -9 15 20 27 29 12 5 -7 2 -8 -6
-3 -9 6 -11 4 -5 -5 6 -10 11 -9 22 5 12 17 18 14 14 -7 0 -5 4 -8 9 -8 6 0
10 8 10 18 0 14 2 15 10 2 8 -12 11 -13 19 -1 7 11 9 11 14 0 5 -12 7 -12 15
-1 7 11 10 11 15 -2 7 -18 27 -22 27 -5 0 5 -5 7 -12 3 -7 -5 -8 -3 -3 5 5 9
10 10 18 2 15 -15 30 -14 21 2 -6 10 -4 10 7 0 7 -7 17 -13 22 -13 4 0 5 6 1
13 -6 9 -4 9 7 -1 17 -16 32 -16 23 1 -6 10 -4 10 7 0 17 -17 32 -17 23 0 -4
6 3 3 16 -8 13 -11 20 -15 17 -9 -9 15 20 27 29 12 5 -7 2 -8 -6 -3 -9 6 -11
4 -5 -5 6 -10 11 -9 22 5 12 17 18 14 14 -7 0 -5 4 -8 9 -8 6 0 10 8 10 18 0
14 2 15 10 2 8 -12 11 -13 19 -1 7 11 9 11 14 0 4 -11 9 -9 22 6 9 11 13 13 9
5 -7 -13 -5 -13 9 -2 14 12 15 16 2 29 -19 19 -19 24 1 16 15 -5 15 -3 -1 21
-17 25 -17 26 0 20 16 -7 16 -5 -1 22 -13 20 -14 25 -4 17 13 -9 15 -7 15 17
1 16 -3 26 -7 24 -13 -8 -9 21 5 35 10 11 10 13 0 7 -7 -4 -13 -3 -13 1 0 5 6
15 13 22 10 11 10 13 0 7 -7 -4 -13 -2 -13 3 0 6 6 11 13 11 8 0 7 4 -3 11
-12 8 -12 12 -2 16 10 4 9 8 -5 18 -17 13 -17 14 0 20 16 7 16 8 1 19 -15 11
-15 14 1 29 9 9 12 17 6 17 -6 0 -11 7 -11 16 0 9 5 12 13 8 7 -5 7 -1 -2 10
-12 14 -12 19 -2 26 11 6 11 8 1 12 -8 2 -14 12 -16 21 -1 9 2 15 6 12 5 -3
11 -1 15 5 3 5 2 10 -3 10 -6 0 -12 7 -15 14 -4 11 -1 13 10 9 13 -5 12 -1 -3
23 -13 21 -14 26 -3 17 12 -10 15 -8 15 7 0 10 -3 17 -7 14 -4 -2 -10 3 -13
12 -3 8 -2 12 3 9 5 -3 12 -1 16 5 3 5 1 10 -6 10 -8 0 -7 5 2 17 12 14 12 16
0 8 -11 -6 -13 -4 -7 11 11 27 14 84 4 78 -12 -8 -10 10 3 23 8 8 8 13 0 17
-16 10 -14 39 2 30 10 -6 10 -4 0 7 -15 15 -17 33 -4 25 11 -7 8 21 -4 31 -4
4 -5 2 0 -6 5 -9 4 -12 -3 -7 -15 9 -3 38 12 29 6 -3 6 -1 -1 8 -16 16 -17 43
-2 33 6 -3 3 6 -7 22 -11 15 -14 25 -7 21 6 -4 14 -3 18 3 3 5 2 10 -3 10 -6
0 -12 7 -15 14 -4 11 -1 13 10 9 13 -5 12 -1 -3 23 -13 21 -14 26 -3 17 12
-10 15 -8 15 7 0 10 -3 17 -7 14 -4 -2 -10 3 -13 12 -3 8 -2 12 3 9 5 -3 12
-1 16 5 3 5 2 10 -3 10 -6 0 -13 7 -16 16 -3 8 -2 12 3 9 5 -3 12 -1 16 5 3 5
2 10 -3 10 -6 0 -12 7 -15 14 -4 11 -1 13 10 9 13 -5 12 -1 -3 23 -13 21 -14
26 -3 17 12 -10 15 -8 15 7 0 10 -3 17 -7 14 -4 -2 -10 3 -13 12 -3 8 -2 12 3
9 5 -3 12 -1 16 5 3 5 1 10 -6 10 -8 0 -7 5 2 17 12 14 12 16 0 8 -11 -6 -13
-4 -7 11 11 27 14 84 4 78 -12 -8 -10 10 3 23 8 8 8 13 0 17 -16 10 -14 39 2
30 10 -6 10 -4 0 7 -15 15 -17 33 -4 25 11 -7 8 21 -4 31 -4 4 -5 2 0 -6 5 -9
4 -12 -3 -7 -15 9 -3 38 12 29 6 -3 6 -1 -1 8 -16 16 -17 43 -2 33 6 -3 3 6
-7 22 -11 15 -14 25 -7 21 6 -4 14 -3 18 3 3 5 2 10 -3 10 -6 0 -12 7 -15 14
-4 11 -1 13 10 9 13 -5 12 -1 -3 23 -13 21 -14 26 -3 17 12 -10 15 -8 15 7 0
10 -3 17 -7 14 -4 -2 -10 3 -13 12 -3 8 -2 12 3 9 5 -3 12 -1 16 5 3 5 1 10
-6 10 -8 0 -7 5 2 17 10 11 10 14 2 9 -8 -4 -13 -2 -13 6 0 8 6 20 13 27 10
11 10 13 0 7 -7 -4 -13 -3 -13 1 0 5 6 15 13 22 10 11 10 13 0 7 -7 -4 -13 -2
-13 3 0 6 6 11 13 11 8 0 7 4 -3 11 -12 8 -12 12 -2 16 10 4 9 8 -5 18 -17 13
-17 14 0 20 16 7 16 8 1 19 -15 11 -15 14 1 29 9 9 12 17 6 17 -6 0 -11 7 -11
16 0 9 5 12 13 8 7 -5 7 -1 -2 10 -12 14 -12 19 -2 26 11 6 11 8 1 12 -8 2
-14 12 -16 21 -1 9 2 15 6 12 5 -3 11 -1 15 5 3 5 2 10 -3 10 -6 0 -12 7 -15
14 -4 11 -1 13 10 9 13 -5 12 -1 -3 23 -13 21 -14 26 -3 17 12 -10 15 -8 15 7
0 10 -3 17 -7 14 -4 -2 -10 3 -13 12 -3 8 -2 12 3 9 5 -3 12 -1 16 5 3 5 1 10
-6 10 -8 0 -7 5 2 17 12 14 12 16 0 8 -11 -6 -13 -4 -7 11 11 27 14 84 4 78
-12 -8 -10 10 3 23 8 8 8 13 0 17 -16 10 -14 39 2 30 10 -6 10 -4 0 7 -15 15
-17 33 -4 25 11 -7 8 21 -4 31 -4 4 -5 2 0 -6 5 -9 4 -12 -3 -7 -15 9 -3 38
12 29 6 -3 6 -1 -1 8 -16 16 -17 43 -2 33 6 -3 3 6 -7 22 -11 15 -14 25 -7 21
6 -4 14 -3 18 3 3 5 2 10 -3 10 -6 0 -12 7 -15 14 -4 11 -1 13 10 9 13 -5 12
-1 -3 23 -13 21 -14 26 -3 17 12 -10 15 -8 15 7 0 10 -3 17 -7 14 -4 -2 -10 3
-13 12 -3 8 -2 12 3 9 5 -3 12 -1 16 5 3 5 1 10 -6 10 -8 0 -7 5 2 17 10 11
10 14 2 9 -8 -4 -13 -2 -13 6 0 8 6 20 13 27 10 11 10 13 0 7 -7 -4 -13 -3
-13 1 0 5 6 15 13 22 10 11 10 13 0 7 -7 -4 -13 -2 -13 3 0 6 6 11 13 11 8 0
7 4 -3 11 -12 8 -12 12 -2 16 10 4 9 8 -5 18 -17 13 -17 14 0 20 16 7 16 8 1
19 -15 11 -15 14 1 29 9 9 12 17 6 17 -6 0 -11 7 -11 16 0 9 5 12 13 8 7 -5 7
-1 -2 10 -12 14 -12 19 -2 26 11 6 11 8 1 12 -8 2 -14 12 -16 21 -1 9 2 15 6
12 5 -3 11 -1 15 5 3 5 2 10 -3 10 -6 0 -12 7 -15 14 -4 11 -1 13 10 9 13 -5
12 -1 -3 23 -13 21 -14 26 -3 17 12 -10 15 -8 15 7 0 10 -3 17 -7 14 -4 -2
-10 3 -13 12 -3 8 -2 12 3 9 5 -3 12 -1 16 5 3 5 1 10 -6 10 -8 0 -7 5 2 17
12 14 12 16 0 8 -11 -6 -13 -4 -7 11 11 27 14 84 4 78 -4 -3 -8 -1 -8 5 0 5 5
13 11 16 7 5 5 13 -5 24 -11 12 -12 21 -6 27 16 16 20 53 8 60 -7 5 -8 2 -3
-6 5 -8 4 -11 -3 -6 -6 4 -9 13 -6 21 4 8 10 12 16 9 5 -3 4 3 -4 15 -7 12
-16 21 -21 21 -4 0 -5 -4 -2 -10z m25 -194 c0 -3 -4 -8 -10 -11 -5 -3 -10 -1
-10 4 0 6 5 11 10 11 6 0 10 -2 10 -4z m0 -960 c0 -3 -4 -8 -10 -11 -5 -3 -10
-1 -10 4 0 6 5 11 10 11 6 0 10 -2 10 -4z m-1400 -230 c0 -2 -8 -10 -17 -17
-16 -13 -17 -12 -4 4 13 16 21 21 21 13z m1400 -730 c0 -3 -4 -8 -10 -11 -5
-3 -10 -1 -10 4 0 6 5 11 10 11 6 0 10 -2 10 -4z m-2710 -580 c0 -2 -8 -10
-17 -17 -16 -13 -17 -12 -4 4 13 16 21 21 21 13z m2710 -60 c0 -3 -4 -8 -10
-11 -5 -3 -10 -1 -10 4 0 6 5 11 10 11 6 0 10 -2 10 -4z"/>
<path d="M2215 7121 c-3 -6 -23 -9 -45 -8 -29 2 -39 -1 -36 -10 3 -7 -1 -10
-9 -6 -8 3 -12 9 -9 14 3 5 -2 6 -10 3 -9 -3 -13 -11 -9 -18 4 -6 -2 -4 -12 4
-17 14 -18 13 -12 -3 5 -13 3 -16 -6 -10 -19 12 -40 10 -66 -5 -19 -12 -22
-12 -16 -1 5 9 1 8 -11 -2 -10 -9 -25 -14 -32 -12 -7 3 -20 -1 -29 -9 -14 -11
-16 -11 -9 2 4 9 1 8 -7 -2 -16 -21 -31 -24 -22 -5 4 6 0 4 -8 -6 -11 -14 -16
-15 -20 -5 -4 9 -6 8 -6 -3 -1 -11 -9 -15 -27 -13 -18 2 -24 -2 -20 -11 3 -10
-2 -12 -20 -9 -18 3 -27 -1 -34 -18 -5 -13 -9 -17 -9 -9 -1 11 -4 11 -16 1 -8
-7 -15 -9 -15 -4 0 4 -6 0 -13 -11 -9 -11 -19 -15 -27 -10 -9 5 -11 4 -6 -3 4
-7 1 -12 -9 -12 -9 0 -13 -5 -10 -10 4 -6 3 -10 -2 -9 -4 1 -16 1 -27 0 -16
-1 -17 -3 -5 -18 13 -15 12 -15 -11 -3 -14 7 -22 9 -18 5 8 -9 -10 -28 -35
-38 -11 -4 -15 -12 -11 -19 5 -8 2 -9 -9 -5 -11 4 -17 1 -17 -8 0 -9 -6 -12
-15 -9 -10 4 -15 0 -15 -12 0 -9 -3 -15 -6 -12 -7 7 -54 -39 -54 -53 0 -6 -4
-7 -10 -4 -5 3 -10 -3 -10 -14 0 -12 5 -21 11 -21 5 0 7 -4 4 -10 -3 -5 1 -10
9 -10 9 0 16 -7 16 -16 0 -8 3 -13 8 -11 8 5 33 -18 26 -25 -2 -3 7 -11 21
-18 14 -7 25 -20 25 -29 0 -14 2 -14 10 -1 7 12 10 8 10 -15 0 -19 3 -25 8
-17 6 9 14 6 30 -13 12 -14 19 -25 14 -26 -4 0 3 -4 16 -10 13 -5 21 -13 17
-19 -3 -5 6 -12 20 -16 16 -4 25 -13 25 -25 0 -10 5 -19 11 -19 14 0 39 -26
39 -40 0 -7 7 -9 16 -6 8 3 13 2 10 -2 -3 -5 6 -16 19 -26 14 -10 22 -22 19
-27 -2 -5 6 -11 20 -15 17 -4 23 -11 21 -25 -2 -11 0 -17 4 -14 11 6 51 -29
51 -45 0 -7 3 -11 6 -7 8 8 54 -34 54 -50 0 -7 12 -18 26 -23 14 -6 23 -13 21
-17 -3 -5 1 -14 9 -21 8 -7 14 -10 14 -6 0 3 13 -8 29 -25 15 -16 32 -27 37
-23 5 4 2 -1 -5 -10 -12 -16 -11 -18 3 -18 10 0 24 -7 32 -15 9 -8 13 -15 9
-15 -3 0 0 -6 7 -14 7 -8 16 -12 21 -9 4 2 11 -7 17 -21 5 -14 16 -26 23 -26
17 0 59 -48 52 -59 -2 -5 3 -8 13 -7 9 0 16 -5 15 -11 -2 -7 8 -15 21 -19 17
-4 23 -11 21 -25 -2 -11 0 -17 5 -14 9 6 70 -48 70 -63 0 -6 5 -14 12 -18 7
-5 8 -2 3 7 -4 8 4 3 17 -11 14 -14 24 -27 23 -30 -5 -9 23 -29 29 -22 4 3 9
-4 13 -17 4 -17 8 -19 14 -9 6 9 9 3 9 -17 0 -19 3 -25 8 -17 6 9 14 6 29 -12
12 -13 19 -27 16 -30 -4 -3 -1 -6 6 -6 7 0 19 -7 27 -15 9 -8 13 -15 9 -15 -3
0 0 -6 7 -14 7 -8 16 -12 21 -9 4 2 11 -7 17 -21 5 -14 16 -26 23 -26 16 0 58
-46 50 -54 -4 -3 0 -6 7 -6 16 0 51 -40 45 -51 -3 -4 3 -6 14 -4 14 2 21 -4
25 -21 4 -14 10 -22 15 -20 5 3 17 -5 27 -19 10 -13 21 -22 26 -19 4 3 5 -2 2
-10 -3 -9 -1 -16 6 -16 14 0 40 -25 40 -39 0 -10 13 -15 31 -13 4 1 10 -10 13
-25 4 -14 10 -23 13 -19 9 8 34 -14 27 -25 -3 -5 -1 -9 4 -9 12 0 57 -40 55
-49 0 -3 5 -12 13 -19 8 -7 14 -10 14 -7 0 3 6 0 14 -7 8 -7 12 -16 9 -20 -2
-5 3 -8 11 -8 9 0 16 -4 16 -10 0 -5 10 -10 23 -10 18 0 19 2 7 10 -13 8 -12
10 3 10 9 0 17 7 17 15 0 8 4 14 9 13 5 -2 23 16 40 40 17 23 36 42 42 42 5 0
7 5 4 10 -3 6 1 10 10 10 9 0 13 5 10 10 -4 6 -11 7 -17 4 -7 -4 -8 -2 -4 4 4
6 14 8 24 5 9 -3 14 -3 10 2 -4 4 0 15 10 24 9 9 18 23 20 31 2 8 8 17 13 18
5 2 6 9 2 15 -4 6 0 8 11 4 14 -6 15 -3 6 13 -8 16 -8 20 2 18 7 -2 12 3 10
10 -1 6 3 12 9 12 6 0 9 7 5 15 -3 8 0 14 7 12 7 -1 11 4 9 11 -1 6 4 12 10
12 9 0 8 4 -2 10 -12 8 -12 10 5 11 l20 0 -20 9 c-19 8 -19 9 -1 9 11 1 16 4
12 8 -3 4 4 13 16 21 13 7 15 11 6 8 -15 -4 -16 -2 -6 19 6 13 16 22 22 18 6
-3 5 0 -1 8 -16 16 -17 33 -2 23 8 -5 10 3 7 24 -3 23 -1 29 7 22 8 -6 12 -6
13 3 1 6 4 32 7 57 3 25 6 53 6 63 0 9 5 15 10 11 12 -7 7 19 -6 28 -6 5 -5 8
2 8 7 0 10 7 6 17 -5 11 -3 14 6 8 10 -6 11 -3 2 12 -6 11 -8 22 -6 24 2 3 6
28 9 56 2 29 8 58 12 65 5 8 1 7 -11 -2 -17 -13 -18 -13 -10 0 10 16 14 90 5
90 -3 0 -5 20 -4 45 1 25 -3 45 -8 45 -5 0 -4 10 3 21 6 12 7 19 1 15 -5 -3
-13 1 -16 10 -9 22 -8 26 5 18 8 -5 8 -1 0 13 -6 11 -7 23 -4 27 3 3 1 6 -6 6
-9 0 -11 8 -8 21 4 16 2 19 -10 15 -12 -5 -13 -3 -5 6 15 19 15 27 -3 44 -8 9
-13 20 -9 25 3 6 0 16 -6 24 -7 8 -9 15 -4 15 4 0 -1 7 -12 16 -10 8 -13 12
-5 9 9 -6 9 -1 -3 17 -9 14 -13 28 -9 31 3 4 1 7 -5 7 -6 0 -9 7 -5 15 3 10 0
15 -8 13 -9 -2 -15 8 -17 25 -2 15 -8 25 -13 22 -8 -6 -14 16 -10 38 1 5 -3 6
-9 2 -5 -3 -10 -1 -10 5 0 6 -5 8 -12 4 -9 -5 -9 -2 1 9 9 11 10 17 2 17 -6 0
-11 7 -11 16 0 11 -5 14 -16 10 -12 -5 -14 -1 -9 15 5 15 4 19 -4 15 -6 -4
-11 -2 -11 4 0 16 -26 40 -34 32 -4 -3 -4 1 0 11 4 12 1 17 -10 17 -9 0 -16 6
-16 13 0 6 -13 25 -30 40 -16 16 -30 33 -30 38 0 5 -6 9 -14 9 -7 0 -21 12
-31 26 -9 14 -23 23 -30 20 -9 -3 -12 2 -10 15 4 18 2 19 -12 7 -12 -9 -15 -9
-9 0 4 7 1 15 -8 18 -9 3 -13 10 -10 15 3 5 -2 6 -10 3 -9 -3 -16 -1 -16 5 0
6 -6 11 -13 11 -7 0 -18 9 -25 21 -7 12 -16 18 -19 15 -3 -3 -12 2 -20 12 -8
9 -11 11 -8 4 6 -11 3 -11 -14 0 -12 7 -21 16 -21 20 0 5 -6 8 -14 8 -8 0 -17
6 -19 13 -4 8 -6 7 -7 -3 0 -10 -6 -6 -16 10 -9 15 -13 18 -9 6 4 -16 3 -17
-9 -7 -22 18 -87 50 -80 40 3 -5 -2 -6 -10 -3 -9 3 -13 10 -10 15 4 8 -33 14
-58 10 -5 0 -8 4 -8 10 0 7 -10 9 -25 7 -17 -4 -25 -1 -25 8 0 8 -3 13 -7 13
-5 -1 -28 -1 -53 0 -33 1 -41 4 -30 11 8 5 10 10 5 10 -6 0 -16 -5 -23 -12 -8
-8 -12 -8 -12 -1 0 6 -7 13 -14 16 -11 4 -13 1 -9 -10 6 -15 4 -15 -15 -2 -13
9 -37 14 -62 12 -27 -2 -40 1 -40 10 0 7 -3 8 -8 2 -11 -16 -34 -17 -43 -3 -7
11 -9 11 -9 0 0 -8 -5 -10 -12 -5 -19 11 -39 13 -32 2 3 -5 -2 -9 -11 -9 -9 0
-13 5 -10 10 3 6 4 10 1 10 -3 0 -7 -4 -11 -9z"/>
<path d="M940 6726 c0 -2 8 -10 18 -17 15 -13 16 -12 3 4 -13 16 -21 21 -21
13z"/>
<path d="M1580 6086 c0 -2 8 -10 18 -17 15 -13 16 -12 3 4 -13 16 -21 21 -21
13z"/>
<path d="M185 3650 c-4 -6 -12 -7 -18 -3 -8 5 -8 2 0 -9 7 -8 10 -18 6 -21 -3
-4 3 -7 15 -7 20 0 27 -10 23 -32 0 -5 8 -8 19 -8 18 0 25 -10 21 -32 0 -5 3
-8 9 -8 15 0 50 -33 50 -47 0 -7 6 -13 13 -13 15 0 66 -50 51 -50 -5 -1 4 -8
19 -16 15 -8 25 -19 22 -24 -4 -6 1 -10 10 -10 9 0 13 -4 10 -10 -3 -5 1 -10
10 -10 8 0 18 -7 21 -15 4 -8 10 -12 15 -9 5 3 9 0 9 -5 0 -23 2 -26 21 -33
10 -4 19 -15 19 -23 0 -10 5 -13 12 -9 7 5 9 2 5 -8 -3 -9 0 -15 6 -14 7 0 12
-3 12 -7 0 -5 13 -15 28 -23 15 -8 25 -19 22 -24 -4 -6 -2 -10 4 -10 13 0 77
-62 74 -72 -2 -4 6 -10 17 -13 11 -4 20 -13 20 -21 0 -8 7 -14 16 -14 8 0 12
-4 9 -10 -3 -5 -1 -10 5 -10 15 0 70 -55 70 -69 0 -10 14 -15 32 -12 5 0 7 -3
5 -7 -1 -4 14 -23 33 -42 19 -19 34 -38 33 -42 -2 -4 6 -10 17 -13 11 -4 20
-13 20 -21 0 -8 4 -14 10 -14 15 0 50 -33 50 -47 0 -7 6 -13 13 -13 14 0 53
-41 49 -52 -1 -5 4 -8 11 -8 14 0 72 -61 69 -72 -1 -4 7 -10 18 -13 11 -4 20
-13 20 -21 0 -8 4 -14 10 -14 14 0 50 -33 50 -46 0 -6 9 -14 20 -17 11 -3 20
-12 20 -21 0 -14 12 -20 33 -17 4 0 7 -4 7 -9 0 -6 15 -25 33 -43 17 -17 31
-35 29 -39 -1 -4 2 -8 6 -8 11 0 86 -70 76 -70 -5 -1 4 -8 19 -16 15 -8 25
-19 22 -24 -4 -6 -1 -10 4 -10 16 0 51 -33 51 -47 0 -7 8 -13 17 -13 9 0 13
-3 10 -7 -4 -3 3 -11 16 -18 12 -6 21 -17 20 -23 -2 -6 6 -14 17 -17 11 -4 20
-13 20 -21 0 -8 7 -14 16 -14 8 0 12 -4 9 -10 -3 -5 -1 -10 5 -10 15 0 70 -55
70 -69 0 -10 14 -15 34 -12 5 1 6 -5 3 -13 -4 -9 3 -16 19 -20 14 -4 22 -11
19 -16 -3 -5 4 -14 15 -20 11 -6 18 -15 15 -21 -4 -5 -2 -9 2 -9 12 0 88 -70
77 -70 -5 -1 4 -8 19 -16 15 -8 25 -19 22 -24 -4 -6 1 -10 10 -10 9 0 13 -4
10 -10 -3 -5 1 -10 10 -10 8 0 18 -7 21 -15 4 -8 10 -12 15 -9 8 5 10 -2 8
-22 0 -4 10 -12 23 -18 13 -6 27 -21 33 -34 5 -12 15 -22 21 -22 13 0 61 -50
48 -50 -5 -1 4 -8 19 -16 15 -8 25 -19 22 -24 -4 -6 -1 -10 4 -10 16 0 51 -33
51 -47 0 -7 6 -13 14 -13 8 0 18 -5 22 -12 5 -7 3 -8 -6 -3 -8 5 -11 4 -6 -3
4 -6 13 -9 21 -5 13 5 20 -7 16 -29 0 -5 3 -8 7 -8 11 0 86 -70 76 -70 -5 -1
4 -8 19 -16 15 -8 25 -19 22 -24 -4 -6 1 -10 9 -10 8 0 18 -9 21 -21 4 -11 9
-18 13 -15 8 9 52 -35 52 -51 0 -7 6 -13 13 -13 14 0 47 -35 47 -50 0 -6 3 -9
8 -9 19 3 33 -2 28 -10 -3 -5 1 -11 9 -15 8 -3 15 -13 15 -21 0 -9 5 -13 10
-10 6 3 10 -1 10 -9 0 -9 6 -16 14 -16 8 0 17 -9 21 -20 3 -11 9 -19 13 -19
19 3 33 -2 28 -10 -3 -5 1 -11 9 -15 8 -3 15 -12 15 -21 0 -8 6 -15 13 -15 14
0 47 -35 47 -50 0 -6 6 -10 14 -10 8 0 18 -9 21 -20 4 -11 10 -18 15 -15 5 3
14 -4 20 -15 6 -11 15 -18 19 -15 5 2 14 -9 21 -25 7 -17 15 -28 18 -25 8 8
52 -36 52 -52 0 -7 6 -13 13 -13 14 0 47 -35 47 -50 0 -6 3 -9 8 -9 19 3 33
-2 28 -10 -3 -5 1 -11 9 -15 8 -3 15 -13 15 -21 0 -9 5 -13 10 -10 6 3 10 -1
10 -10 0 -9 4 -13 10 -10 5 3 15 -5 21 -19 7 -14 16 -23 20 -20 4 2 13 -5 19
-16 6 -11 15 -18 19 -15 5 2 14 -9 21 -25 7 -16 15 -29 19 -28 18 2 32 -3 27
-11 -3 -5 1 -11 9 -15 8 -3 15 -12 15 -21 0 -8 6 -15 13 -15 14 0 47 -35 47
-51 0 -5 4 -8 10 -4 5 3 16 -7 24 -22 8 -15 17 -27 20 -25 14 5 27 1 22 -7 -3
-5 1 -11 9 -15 8 -3 15 -13 15 -23 0 -15 2 -16 10 -3 8 13 10 12 10 -2 0 -10
9 -23 20 -30 11 -7 20 -19 20 -26 0 -7 4 -11 9 -7 5 3 16 -4 24 -15 l14 -21 6
23 c4 13 1 26 -6 30 -9 6 -8 10 3 18 13 9 13 11 0 20 -13 9 -13 10 0 10 13 0
13 1 0 10 -13 9 -13 11 0 20 13 9 13 11 0 20 -13 9 -13 10 0 10 13 0 13 1 0
10 -13 9 -13 10 0 10 13 0 13 1 0 10 -13 9 -13 10 0 10 13 0 13 1 0 10 -13 9
-13 10 0 10 13 0 13 1 0 10 -13 9 -13 10 0 10 13 0 13 1 0 10 -13 9 -13 10 0
10 13 0 13 1 0 10 -13 9 -13 10 0 10 13 0 13 1 0 10 -13 9 -13 10 0 10 13 0
13 1 0 10 -13 9 -13 10 0 10 13 0 13 1 0 10 -13 9 -13 11 0 20 13 9 13 11 0
20 -13 9 -13 10 0 10 13 0 13 1 0 10 -13 9 -13 11 0 20 13 9 13 11 0 20 -13 9
-13 10 0 10 13 0 13 1 0 10 -13 9 -13 11 0 20 13 9 13 11 0 20 -13 9 -13 10 0
10 13 0 13 1 0 10 -13 9 -13 11 0 20 13 9 13 11 0 20 -13 9 -13 10 0 10 13 0
13 1 0 10 -13 9 -13 11 0 20 13 9 13 11 0 20 -13 9 -13 10 0 10 13 0 13 1 0
10 -13 9 -13 11 0 20 13 9 13 11 0 20 -13 9 -13 10 0 10 13 0 13 1 0 10 -13 9
-13 10 0 10 13 0 13 1 0 10 -13 9 -13 10 0 10 13 0 13 1 0 10 -13 9 -13 10 0
10 13 0 13 1 0 10 -13 9 -13 10 0 10 13 0 13 1 0 10 -13 9 -13 10 0 10 13 0
13 1 0 10 -13 9 -13 10 0 10 13 0 13 1 0 10 -13 9 -13 10 0 10 13 0 13 1 0 10
-13 9 -13 10 0 10 13 0 13 1 0 10 -13 9 -13 11 0 20 13 9 13 11 0 20 -13 9
-13 10 0 10 13 0 13 1 0 10 -13 9 -13 11 0 20 13 9 13 11 0 20 -13 9 -13 10 0
10 13 0 13 1 0 10 -13 9 -13 10 0 10 13 0 13 1 0 10 -13 9 -13 10 0 10 13 0
13 1 0 10 -13 9 -13 11 0 20 13 9 13 11 0 20 -13 9 -13 10 0 10 13 0 13 1 0
10 -13 9 -13 11 0 20 13 9 13 11 0 20 -13 9 -13 10 0 10 13 0 13 1 0 10 -13 9
-13 10 0 10 13 0 13 1 0 10 -13 9 -13 10 0 10 13 0 13 1 0 10 -13 9 -13 11 0
20 13 9 13 11 0 20 -13 9 -13 10 0 10 13 0 13 1 0 10 -13 9 -13 11 0 20 13 9
13 11 0 20 -13 9 -13 10 0 10 13 0 13 1 0 10 -13 9 -13 10 0 10 13 0 13 1 0
10 -13 9 -13 10 0 10 13 0 13 1 0 10 -13 9 -13 11 0 20 13 9 13 11 0 20 -13 9
-13 10 0 10 13 0 13 1 0 10 -13 9 -13 11 0 20 13 9 13 11 0 20 -13 9 -13 10 0
10 13 0 13 1 0 10 -13 9 -13 10 0 10 13 0 13 1 0 10 -13 9 -13 10 0 10 13 0
13 1 0 10 -13 9 -13 10 0 10 13 0 13 1 0 10 -13 9 -13 10 0 10 13 0 13 1 0 10
-13 9 -13 10 0 10 13 0 13 1 0 10 -13 9 -13 10 0 10 13 0 13 1 0 10 -13 9 -13
10 0 10 13 0 13 1 0 10 -13 9 -13 10 0 10 13 0 13 1 0 10 -13 9 -13 11 0 20
13 9 13 11 0 20 -13 9 -13 10 0 10 13 0 13 1 0 10 -13 9 -13 11 0 20 13 9 13
11 0 20 -13 9 -13 10 0 10 13 0 13 1 0 10 -13 9 -13 11 0 20 13 9 13 11 0 20
-13 9 -13 10 0 10 13 0 13 1 0 10 -13 9 -13 11 0 20 13 9 13 11 0 20 -13 9
-13 10 0 10 13 0 13 1 0 10 -13 9 -13 11 0 20 13 9 13 11 0 20 -13 9 -13 10 0
10 13 0 13 1 0 10 -13 9 -13 11 0 20 13 9 13 11 0 20 -13 9 -13 10 0 10 13 0
13 1 0 10 -13 9 -13 10 0 10 13 0 13 1 0 10 -13 9 -13 10 0 10 13 0 13 1 0 10
-13 9 -13 10 0 10 13 0 13 1 0 10 -13 9 -13 10 0 10 13 0 13 1 0 10 -13 9 -13
10 0 10 13 0 13 1 0 10 -13 9 -13 10 0 10 13 0 13 1 0 10 -13 9 -13 10 0 10
13 0 13 1 0 10 -13 9 -13 10 0 10 13 0 13 1 0 10 -13 9 -13 11 0 20 13 9 13
11 0 20 -13 9 -13 10 0 10 13 0 13 1 0 10 -13 9 -13 11 0 20 13 9 13 11 0 20
-13 9 -13 10 0 10 13 0 13 1 0 10 -13 9 -13 10 0 10 13 0 13 1 0 10 -13 9 -13
10 0 10 13 0 13 1 0 10 -13 9 -13 11 0 20 13 9 13 11 0 20 -13 9 -13 10 0 10
13 0 13 1 0 10 -13 9 -13 11 0 20 13 9 13 11 0 20 -13 9 -13 10 0 10 13 0 13
1 0 10 -13 9 -13 10 0 10 13 0 13 1 0 10 -13 9 -13 10 0 10 13 0 13 1 0 10
-13 9 -13 10 0 10 13 0 13 1 0 10 -13 9 -13 10 0 10 13 0 13 1 0 10 -13 9 -13
10 0 10 13 0 13 1 0 10 -13 9 -13 10 0 10 13 0 13 1 0 10 -13 9 -13 10 0 10
13 0 13 1 0 10 -13 9 -13 10 0 10 13 0 13 1 0 10 -13 9 -13 11 0 20 13 9 13
11 0 20 -13 9 -13 10 0 10 13 0 13 1 0 10 -13 9 -13 11 0 20 13 9 13 11 0 20
-13 9 -13 10 0 10 13 0 13 1 0 10 -13 9 -13 11 0 20 13 9 13 11 0 20 -13 9
-13 10 0 10 13 0 13 1 0 10 -13 9 -13 11 0 20 13 9 13 11 0 20 -13 9 -13 10 0
10 13 0 13 1 0 10 -13 9 -13 11 0 20 13 9 13 11 0 20 -13 9 -13 10 0 10 13 0
13 1 0 10 -13 9 -13 11 0 20 13 9 13 11 0 20 -13 9 -13 10 0 10 13 0 13 1 0
10 -13 9 -13 10 0 10 13 0 13 1 0 10 -13 9 -13 10 0 10 13 0 13 1 0 10 -13 9
-13 10 0 10 13 0 13 1 0 10 -13 9 -13 10 0 10 13 0 13 1 0 10 -13 9 -13 10 0
10 13 0 13 1 0 10 -13 9 -13 10 0 10 13 0 13 1 0 10 -13 9 -13 10 0 10 13 0
13 1 0 10 -13 9 -13 10 0 10 13 0 13 1 0 10 -13 9 -13 11 0 20 13 9 13 11 0
20 -13 9 -13 10 0 10 13 0 13 1 0 10 -13 9 -13 11 0 20 13 9 13 11 0 20 -13 9
-13 10 0 10 13 0 13 1 0 10 -13 9 -13 10 0 10 13 0 13 1 0 10 -13 9 -13 10 0
10 13 0 13 1 0 10 -13 9 -13 11 0 20 13 9 13 11 0 20 -13 9 -13 10 0 10 13 0
13 1 0 10 -13 9 -13 11 0 20 13 9 13 11 0 20 -13 9 -13 10 0 10 13 0 13 1 0
10 -13 9 -13 10 0 10 13 0 13 1 0 10 -13 9 -13 10 0 10 13 0 13 1 0 10 -13 9
-13 10 0 10 13 0 13 1 0 10 -13 9 -13 10 0 10 13 0 13 1 0 10 -13 9 -13 10 0
10 12 0 13 2 1 9 -11 7 -11 9 0 14 10 4 9 6 -3 6 -9 1 -20 5 -23 11 -4 6 1 7
12 3 10 -3 15 -3 11 2 -10 11 -50 13 -70 3 -10 -5 -19 -4 -23 2 -5 8 -11 7
-20 0 -8 -7 -24 -9 -36 -5 -16 6 -20 4 -14 -6 5 -8 0 -7 -11 3 -12 11 -24 14
-33 8 -8 -4 -20 -6 -28 -3 -7 3 -21 -1 -30 -8 -15 -12 -16 -12 -10 4 3 9 4 17
0 17 -3 0 -12 -8 -20 -17 -14 -17 -14 -17 -8 2 5 16 4 18 -6 8 -7 -7 -20 -13
-28 -13 -14 0 -14 1 -1 10 11 7 6 8 -17 6 -18 -3 -37 -7 -42 -10 -5 -4 -13 -2
-16 4 -5 8 -11 8 -20 0 -8 -7 -24 -9 -36 -5 -16 6 -20 4 -14 -6 5 -8 0 -7 -11
3 -12 11 -24 14 -33 8 -8 -4 -20 -6 -28 -3 -7 3 -21 -1 -30 -8 -15 -12 -16
-12 -10 4 3 9 4 17 0 17 -3 0 -12 -8 -20 -17 -14 -17 -14 -17 -8 2 5 16 4 18
-6 8 -7 -7 -20 -13 -28 -13 -14 0 -14 1 -1 10 11 7 6 8 -17 6 -18 -3 -37 -7
-42 -10 -5 -4 -13 -2 -16 4 -5 8 -11 8 -20 0 -8 -7 -24 -9 -36 -5 -16 6 -20 4
-14 -6 5 -8 0 -7 -11 3 -12 11 -24 14 -33 8 -8 -4 -20 -6 -28 -3 -7 3 -21 -1
-30 -8 -15 -12 -16 -12 -10 4 3 9 4 17 0 17 -3 0 -12 -8 -20 -17 -14 -17 -14
-17 -8 2 5 16 4 18 -6 8 -7 -7 -20 -13 -28 -13 -14 0 -14 1 -1 10 11 7 6 8
-17 6 -18 -3 -37 -7 -42 -10 -5 -4 -13 -2 -16 4 -4 7 -11 7 -18 2 -18 -14 -49
-23 -43 -13 11 18 -27 21 -41 4 -8 -10 -12 -12 -8 -5 8 15 0 15 -26 2 -13 -7
-19 -7 -19 0 0 5 5 10 12 10 6 0 8 3 4 7 -4 5 -14 -1 -22 -11 -8 -11 -14 -15
-14 -9 0 6 -7 14 -16 17 -9 4 -13 2 -8 -5 4 -8 -1 -9 -16 -4 -17 6 -21 4 -15
-6 5 -8 0 -7 -11 3 -12 11 -24 14 -33 8 -8 -4 -20 -6 -28 -3 -7 3 -21 -1 -30
-8 -15 -12 -16 -12 -10 4 3 9 4 17 0 17 -3 0 -12 -8 -20 -17 -14 -17 -14 -17
-8 2 5 16 4 18 -6 8 -7 -7 -20 -13 -28 -13 -14 0 -14 1 -1 10 11 7 6 8 -17 6
-18 -3 -37 -7 -42 -10 -5 -4 -13 -2 -16 4 -4 7 -11 7 -18 2 -18 -14 -49 -23
-43 -13 11 18 -27 21 -41 4 -8 -10 -12 -12 -8 -5 8 15 0 15 -26 2 -13 -7 -19
-7 -19 0 0 5 5 10 12 10 6 0 8 3 4 7 -4 5 -14 -1 -22 -11 -8 -11 -14 -15 -14
-9 0 6 -7 14 -16 17 -9 4 -13 2 -8 -5 4 -8 -1 -9 -15 -4 -13 4 -29 1 -38 -7
-15 -11 -16 -11 -10 5 3 9 4 17 0 17 -3 0 -12 -8 -20 -17 -14 -17 -14 -17 -8
2 5 16 4 18 -6 8 -7 -7 -20 -13 -28 -13 -13 0 -14 2 -2 9 10 7 7 9 -12 8 -20
-2 -23 -5 -14 -15 8 -11 6 -11 -16 -1 -21 10 -30 9 -44 -2 -15 -12 -16 -12
-10 4 3 9 2 17 -3 17 -6 0 -10 -5 -10 -11 0 -5 -5 -7 -12 -3 -7 4 -22 8 -34 9
-15 0 -20 -4 -16 -15 5 -12 3 -13 -9 -3 -12 10 -18 10 -29 0 -8 -8 -11 -8 -7
-1 11 20 -24 26 -40 7 -8 -10 -12 -12 -8 -5 8 15 0 15 -26 2 -13 -7 -19 -7
-19 0 0 5 5 10 12 10 6 0 8 3 4 7 -4 5 -14 -1 -22 -11 -8 -11 -14 -15 -14 -9
0 6 -7 14 -16 17 -9 4 -13 2 -8 -5 4 -8 -1 -9 -16 -4 -17 6 -21 4 -15 -6 5 -8
0 -7 -11 3 -12 11 -24 14 -33 8 -8 -4 -20 -6 -28 -3 -7 3 -21 -1 -30 -8 -15
-12 -16 -12 -10 4 3 9 4 17 0 17 -3 0 -12 -8 -20 -17 -14 -17 -14 -17 -8 2 5
16 4 18 -6 8 -7 -7 -20 -13 -29 -13 -13 0 -13 1 0 10 11 7 6 8 -17 6 -18 -3
-37 -7 -42 -10 -5 -4 -13 -2 -16 4 -4 7 -11 7 -18 2 -18 -14 -49 -23 -43 -13
11 18 -27 21 -41 4 -8 -10 -12 -12 -8 -5 8 15 0 15 -26 2 -13 -7 -19 -7 -19 0
0 5 5 10 12 10 6 0 8 3 4 7 -4 5 -14 -1 -22 -11 -8 -11 -14 -15 -14 -9 0 6 -7
14 -16 17 -9 4 -13 2 -8 -5 4 -8 -1 -9 -15 -4 -13 4 -29 1 -38 -7 -15 -11 -16
-11 -10 5 3 9 4 17 0 17 -3 0 -12 -8 -20 -17 -14 -17 -14 -17 -8 2 5 16 4 18
-6 8 -7 -7 -20 -13 -28 -13 -13 0 -14 2 -2 9 10 7 7 9 -12 8 -20 -2 -23 -5
-14 -15 8 -11 6 -11 -16 -1 -21 10 -30 9 -44 -2 -15 -12 -16 -12 -10 4 3 9 2
17 -3 17 -6 0 -10 -5 -10 -11 0 -5 -5 -7 -12 -3 -7 4 -22 8 -34 9 -15 0 -20
-4 -16 -15 5 -12 3 -13 -9 -3 -12 10 -18 10 -29 0 -8 -8 -11 -8 -7 -1 11 20
-24 26 -40 7 -8 -10 -12 -12 -8 -5 8 15 0 15 -26 2 -13 -7 -19 -7 -19 0 0 5 5
10 12 10 6 0 8 3 4 7 -4 5 -14 -1 -22 -11 -8 -11 -14 -15 -14 -9 0 6 -7 14
-16 17 -9 4 -13 2 -8 -5 4 -8 -1 -9 -16 -4 -17 6 -21 4 -15 -6 5 -8 0 -7 -11
3 -12 11 -24 14 -33 8 -8 -4 -20 -6 -28 -3 -7 3 -21 -1 -30 -8 -15 -12 -16
-12 -10 4 3 9 2 17 -3 17 -6 0 -10 -4 -10 -10 0 -5 -5 -10 -11 -10 -5 0 -8 3
-6 8 3 4 -8 7 -23 7 -23 0 -26 -3 -17 -14 9 -12 9 -13 0 -7 -24 14 -57 15 -72
3 -12 -10 -14 -9 -8 6 7 19 2 23 -8 7z m1029 -8 c3 -5 -1 -9 -9 -9 -8 0 -12 4
-9 9 3 4 7 8 9 8 2 0 6 -4 9 -8z m960 0 c3 -5 -1 -9 -9 -9 -8 0 -12 4 -9 9 3
4 7 8 9 8 2 0 6 -4 9 -8z m480 0 c3 -5 -1 -9 -9 -9 -8 0 -12 4 -9 9 3 4 7 8 9
8 2 0 6 -4 9 -8z m320 0 c3 -5 -1 -9 -9 -9 -8 0 -12 4 -9 9 3 4 7 8 9 8 2 0 6
-4 9 -8z m320 0 c3 -5 -1 -9 -9 -9 -8 0 -12 4 -9 9 3 4 7 8 9 8 2 0 6 -4 9 -8z
m320 0 c3 -5 -1 -9 -9 -9 -8 0 -12 4 -9 9 3 4 7 8 9 8 2 0 6 -4 9 -8z"/>
<path d="M4033 3642 c-5 -11 -7 -11 -15 0 -7 9 -8 7 -5 -9 3 -13 0 -23 -5 -23
-6 0 -5 -6 2 -15 10 -12 10 -15 -1 -15 -11 0 -11 -2 1 -10 8 -5 11 -10 5 -10
-5 0 -10 -20 -10 -45 0 -25 5 -45 10 -45 6 0 3 -5 -5 -10 -13 -9 -13 -10 0
-10 13 0 13 -1 0 -10 -13 -9 -13 -10 0 -10 13 0 13 -1 0 -10 -9 -6 -10 -10 -3
-10 8 0 9 -9 2 -32 -11 -40 -11 -40 -1 -34 4 2 8 -4 8 -15 0 -10 -4 -19 -8
-19 -5 0 -4 -9 2 -20 8 -15 8 -20 -1 -20 -8 0 -8 -4 1 -15 8 -9 8 -15 2 -15
-7 0 -8 -10 -2 -30 6 -21 5 -30 -3 -30 -7 0 -6 -4 3 -10 12 -8 12 -10 -5 -10
-15 0 -17 -2 -6 -9 8 -5 12 -19 9 -34 -3 -14 -1 -32 3 -39 5 -7 3 -16 -4 -20
-9 -6 -9 -8 0 -8 8 0 9 -9 3 -30 -6 -21 -5 -30 3 -30 7 0 6 -4 -3 -10 -13 -9
-13 -10 0 -10 13 0 13 -1 0 -10 -13 -9 -13 -10 0 -10 13 0 13 -1 0 -10 -11 -7
-11 -10 -2 -10 7 0 10 -5 7 -10 -9 -15 -10 -114 -1 -128 4 -7 2 -12 -6 -12 -9
0 -9 -3 2 -10 8 -5 11 -10 5 -10 -5 0 -10 -14 -10 -30 0 -22 4 -29 15 -25 11
4 11 2 -2 -8 -12 -9 -14 -18 -7 -30 7 -12 6 -17 -2 -17 -8 0 -8 -4 1 -15 10
-12 10 -15 -1 -15 -11 0 -11 -2 1 -10 8 -5 11 -10 5 -10 -5 0 -10 -20 -10 -45
0 -25 5 -45 10 -45 6 0 3 -5 -5 -10 -13 -9 -13 -10 0 -10 13 0 13 -1 0 -10
-13 -9 -13 -10 0 -10 13 0 13 -1 0 -10 -9 -6 -10 -10 -3 -10 8 0 9 -9 2 -32
-11 -40 -11 -40 -1 -34 4 2 8 -4 8 -15 0 -10 -4 -19 -8 -19 -5 0 -4 -9 2 -20
8 -15 8 -20 -1 -20 -8 0 -8 -4 1 -15 8 -9 8 -15 2 -15 -7 0 -8 -10 -2 -30 6
-21 5 -30 -3 -30 -7 0 -6 -4 3 -10 12 -8 12 -10 -5 -10 -15 0 -17 -2 -6 -9 8
-5 12 -19 9 -34 -3 -14 -1 -32 3 -39 5 -7 3 -16 -4 -20 -9 -6 -9 -8 0 -8 8 0
9 -9 3 -30 -6 -21 -5 -30 3 -30 7 0 6 -4 -3 -10 -13 -9 -13 -10 0 -10 13 0 13
-1 0 -10 -13 -9 -13 -10 0 -10 13 0 13 -1 0 -10 -11 -7 -11 -10 -2 -10 7 0 10
-5 7 -10 -9 -15 -10 -114 -1 -128 4 -7 2 -12 -6 -12 -9 0 -9 -3 2 -10 8 -5 11
-10 5 -10 -5 0 -10 -14 -10 -30 0 -22 4 -29 15 -25 11 4 11 2 -2 -8 -12 -9
-14 -18 -7 -30 7 -12 6 -17 -2 -17 -8 0 -8 -4 1 -15 10 -12 10 -15 -1 -15 -11
0 -11 -2 1 -10 8 -5 11 -10 5 -10 -5 0 -10 -20 -10 -45 0 -25 5 -45 10 -45 6
0 3 -5 -5 -10 -13 -9 -13 -10 0 -10 13 0 13 -1 0 -10 -13 -9 -13 -10 0 -10 13
0 13 -1 0 -10 -9 -6 -10 -10 -3 -10 8 0 9 -9 2 -32 -11 -40 -11 -40 -1 -34 4
2 8 -4 8 -15 0 -10 -4 -19 -8 -19 -5 0 -4 -9 2 -20 8 -15 8 -20 -1 -20 -8 0
-8 -4 1 -15 8 -9 8 -15 2 -15 -7 0 -8 -10 -2 -30 6 -21 5 -30 -3 -30 -7 0 -6
-4 3 -10 12 -8 12 -10 -5 -10 -15 0 -17 -2 -6 -9 8 -5 12 -19 9 -34 -3 -14 -1
-32 3 -39 5 -7 3 -16 -4 -20 -9 -6 -9 -8 0 -8 8 0 9 -9 3 -30 -6 -21 -5 -30 3
-30 7 0 6 -4 -3 -10 -13 -9 -13 -10 0 -10 13 0 13 -1 0 -10 -13 -9 -13 -10 0
-10 13 0 13 -1 0 -10 -11 -7 -11 -10 -2 -10 7 0 10 -5 7 -10 -9 -15 -10 -114
-1 -128 4 -7 2 -12 -6 -12 -9 0 -9 -3 2 -10 8 -5 11 -10 5 -10 -5 0 -10 -14
-10 -30 0 -22 4 -29 15 -25 11 4 11 2 -2 -8 -12 -9 -14 -18 -7 -30 7 -12 6
-17 -2 -17 -8 0 -8 -4 1 -15 10 -12 10 -15 -1 -15 -11 0 -11 -2 1 -10 8 -5 11
-10 5 -10 -5 0 -10 -20 -10 -45 0 -25 5 -45 10 -45 6 0 3 -5 -5 -10 -13 -9
-13 -10 0 -10 13 0 13 -1 0 -10 -13 -9 -13 -10 0 -10 13 0 13 -1 0 -10 -9 -6
-10 -10 -3 -10 8 0 9 -9 2 -32 -11 -40 -11 -40 -1 -34 4 2 8 -4 8 -15 0 -10
-4 -19 -8 -19 -5 0 -4 -9 2 -20 8 -15 8 -20 -1 -20 -8 0 -8 -4 1 -15 7 -8 8
-15 3 -15 -10 0 -8 -64 2 -80 3 -6 1 -10 -5 -10 -6 0 -8 -5 -4 -12 11 -17 10
-77 -1 -82 -5 -3 -3 -5 5 -6 8 -1 23 -3 32 -5 15 -3 16 0 8 16 -8 14 -7 17 3
13 8 -3 23 3 33 13 11 10 14 14 7 9 -8 -5 -16 -6 -19 -4 -3 3 9 12 25 19 29
13 35 22 32 41 0 5 2 7 7 7 20 -3 32 2 29 14 -1 6 4 11 11 10 11 -3 16 9 13
29 0 4 7 4 16 1 9 -4 14 -2 11 3 -3 5 0 15 8 22 8 7 14 9 15 5 0 -4 4 2 9 14
5 13 16 23 25 23 14 0 20 12 16 33 -1 5 2 6 6 4 5 -3 17 1 28 9 10 8 16 14 12
14 -5 0 3 12 17 27 14 15 23 30 20 35 -3 4 2 5 10 2 9 -4 18 1 22 10 3 9 10
13 15 10 8 -5 13 9 10 28 0 4 7 4 17 1 9 -3 14 -3 10 2 -4 4 7 23 26 41 19 18
31 36 28 39 -4 3 2 3 13 -1 11 -4 17 -4 13 0 -9 10 41 66 59 66 12 0 17 13 14
33 -1 5 3 6 8 3 5 -4 12 -2 16 4 4 6 12 7 18 3 7 -4 5 2 -3 12 -9 11 -10 16
-2 11 6 -4 12 -2 12 3 0 6 6 11 14 11 7 0 20 8 27 17 13 16 12 17 -4 4 -9 -8
-20 -12 -23 -9 -2 3 9 12 26 20 17 8 31 19 32 24 0 5 4 8 9 6 8 -2 13 12 10
30 0 4 7 4 17 1 9 -3 14 -3 10 1 -9 10 41 66 59 66 7 0 13 6 13 14 0 8 9 17
20 21 11 3 19 12 17 18 -1 7 4 11 11 9 11 -2 16 10 13 30 0 4 7 4 16 1 9 -4
14 -2 11 3 -7 11 17 35 26 27 3 -4 6 1 6 11 0 9 7 19 15 22 8 4 12 10 9 15 -3
5 3 6 13 2 10 -3 15 -3 11 1 -9 10 41 66 59 66 12 0 17 13 14 33 -1 5 3 6 8 2
6 -3 15 4 21 15 6 11 18 20 27 20 9 0 14 3 10 6 -8 9 16 33 27 26 5 -3 7 2 3
11 -3 9 -3 16 1 16 17 -3 35 1 30 7 -6 5 38 54 48 54 3 0 12 6 19 14 11 10 11
16 2 26 -9 10 -9 11 1 6 15 -9 44 12 36 25 -3 5 -2 9 3 8 20 -3 33 2 33 14 0
18 56 68 66 59 4 -4 4 1 1 10 -3 10 -3 17 1 17 18 -3 35 2 29 8 -4 3 2 13 13
20 11 8 18 19 14 24 -3 5 -2 9 3 8 20 -3 33 2 33 14 0 18 56 68 66 59 4 -4 4
1 1 11 -4 10 -3 16 2 13 5 -3 11 1 15 9 3 8 13 15 22 15 10 0 15 3 11 6 -8 9
16 33 27 26 5 -3 7 2 3 11 -3 9 -3 16 1 16 20 -3 33 2 27 11 -3 6 -2 10 3 10
6 0 19 15 31 33 11 17 21 27 21 21 0 -5 -3 -14 -7 -20 -5 -5 9 9 29 31 20 21
34 43 32 47 -3 5 -2 8 3 7 21 -4 33 2 33 16 0 9 10 20 23 25 12 5 18 9 14 9
-4 1 -2 7 5 15 7 8 17 11 22 8 5 -3 6 3 2 14 -4 10 -4 16 -1 12 3 -3 21 9 39
28 18 19 37 30 41 26 5 -4 5 1 2 10 -3 10 -3 17 1 17 19 -3 33 2 28 10 -3 5 1
12 10 15 9 4 14 13 10 22 -3 8 -2 13 3 10 4 -3 19 6 31 19 13 14 30 25 37 25
8 0 12 3 10 8 -7 10 19 32 29 24 4 -4 4 1 1 10 -3 10 -3 17 1 17 17 -3 35 1
30 7 -6 5 38 54 48 54 8 0 34 27 34 35 0 3 -5 3 -12 -1 -7 -4 -8 -3 -4 5 4 6
11 9 16 6 11 -7 32 20 22 29 -4 4 -2 7 3 6 22 -5 35 1 35 15 0 9 10 20 23 25
12 5 18 9 14 9 -4 1 -2 7 5 15 7 8 17 11 22 8 5 -3 6 2 3 12 -4 10 -3 15 3 11
6 -3 13 1 16 9 3 9 9 14 13 12 3 -2 15 6 26 18 11 11 16 18 11 14 -6 -5 -15
-8 -20 -8 -6 0 4 10 22 21 17 12 32 25 32 31 0 5 5 6 10 3 9 -6 14 7 11 27 0
4 7 4 16 1 9 -4 14 -2 11 3 -7 11 17 35 26 27 3 -4 6 1 6 9 0 9 7 19 16 22 8
3 12 10 9 16 -4 6 1 7 12 3 10 -3 15 -3 11 1 -8 10 14 36 25 29 4 -2 7 3 7 11
0 8 9 18 20 21 18 6 25 17 21 38 -1 5 3 6 8 3 5 -4 16 3 24 14 7 11 17 17 20
13 6 -6 11 11 8 29 0 4 7 4 17 1 9 -3 14 -3 10 1 -8 10 14 36 25 29 4 -2 7 3
7 11 0 8 9 18 20 21 19 6 25 18 20 40 -1 6 2 7 6 3 9 -10 36 11 28 23 -3 5 3
6 12 2 12 -4 15 -3 10 5 -4 7 -1 12 8 12 9 0 16 4 16 10 0 13 48 59 54 52 6
-5 10 13 7 30 0 4 7 4 17 1 9 -3 14 -3 10 1 -8 10 14 36 25 29 4 -2 7 2 7 10
0 8 7 18 16 21 8 3 12 10 9 16 -4 6 1 7 12 3 10 -3 15 -3 11 1 -8 10 14 36 25
29 4 -2 7 1 7 7 0 15 26 41 34 33 6 -6 10 13 6 32 -1 5 2 7 6 3 9 -10 36 11
28 23 -3 5 3 6 12 2 12 -4 15 -3 10 5 -4 7 -1 12 8 12 9 0 16 4 16 10 0 13 48
59 54 52 6 -5 10 13 7 30 0 4 7 4 17 1 9 -3 14 -3 10 1 -8 10 14 36 25 29 4
-2 7 3 7 11 0 8 9 18 20 21 11 3 20 10 20 15 0 11 50 62 50 52 0 -4 5 1 11 11
6 9 15 14 21 11 7 -4 8 -2 4 5 -4 6 -3 18 4 26 9 11 7 12 -12 8 -18 -4 -20 -3
-8 6 12 8 8 10 -17 7 -18 -3 -37 -7 -42 -10 -5 -4 -13 -2 -16 4 -5 8 -11 8
-20 0 -8 -7 -24 -9 -36 -5 -16 6 -20 4 -14 -6 5 -8 0 -7 -11 3 -12 11 -24 14
-33 8 -8 -4 -20 -6 -28 -3 -7 3 -21 -1 -30 -8 -15 -12 -16 -12 -10 4 3 9 4 17
0 17 -3 0 -12 -8 -20 -17 -14 -17 -14 -17 -8 2 5 16 4 18 -6 8 -7 -7 -20 -13
-28 -13 -14 0 -14 1 -1 10 11 7 6 8 -17 6 -18 -3 -37 -7 -42 -10 -5 -4 -13 -2
-16 4 -5 8 -11 8 -20 0 -8 -7 -24 -9 -36 -5 -16 6 -20 4 -14 -6 5 -8 0 -7 -11
3 -12 11 -24 14 -33 8 -8 -4 -20 -6 -28 -3 -7 3 -21 -1 -30 -8 -15 -12 -16
-12 -10 4 3 9 4 17 0 17 -3 0 -12 -8 -20 -17 -14 -17 -14 -17 -8 2 5 16 4 18
-6 8 -7 -7 -20 -13 -28 -13 -14 0 -14 1 -1 10 11 7 6 8 -17 6 -18 -3 -37 -7
-42 -10 -5 -4 -13 -2 -16 4 -5 8 -11 8 -20 0 -8 -7 -24 -9 -36 -5 -16 6 -20 4
-14 -6 5 -8 0 -7 -11 3 -12 11 -24 14 -33 8 -8 -4 -20 -6 -28 -3 -7 3 -21 -1
-30 -8 -15 -12 -16 -12 -10 4 3 9 4 17 0 17 -3 0 -12 -8 -20 -17 -14 -17 -14
-17 -8 2 5 16 4 18 -6 8 -7 -7 -20 -13 -28 -13 -14 0 -14 1 -1 10 11 7 6 8
-17 6 -18 -3 -37 -7 -42 -10 -5 -4 -13 -2 -16 4 -4 7 -11 7 -18 2 -18 -14 -49
-23 -43 -13 11 18 -27 21 -41 4 -8 -10 -12 -12 -8 -5 8 15 0 15 -26 2 -13 -7
-19 -7 -19 0 0 5 5 10 12 10 6 0 8 3 4 7 -4 5 -14 -1 -22 -11 -8 -11 -14 -15
-14 -9 0 6 -7 14 -16 17 -9 4 -13 2 -8 -5 4 -8 -1 -9 -16 -4 -17 6 -21 4 -15
-6 5 -8 0 -7 -11 3 -12 11 -24 14 -33 8 -8 -4 -20 -6 -28 -3 -7 3 -21 -1 -30
-8 -15 -12 -16 -12 -10 4 3 9 4 17 0 17 -3 0 -12 -8 -20 -17 -14 -17 -14 -17
-8 2 5 16 4 18 -6 8 -7 -7 -20 -13 -28 -13 -14 0 -14 1 -1 10 11 7 6 8 -17 6
-18 -3 -37 -7 -42 -10 -5 -4 -13 -2 -16 4 -4 7 -11 7 -18 2 -18 -14 -49 -23
-43 -13 11 18 -27 21 -41 4 -8 -10 -12 -12 -8 -5 8 15 0 15 -26 2 -13 -7 -19
-7 -19 0 0 5 5 10 12 10 6 0 8 3 4 7 -4 5 -14 -1 -22 -11 -8 -11 -14 -15 -14
-9 0 6 -7 14 -16 17 -9 4 -13 2 -8 -5 4 -8 -1 -9 -15 -4 -13 4 -29 1 -38 -7
-15 -11 -16 -11 -10 5 3 9 4 17 0 17 -3 0 -12 -8 -20 -17 -14 -17 -14 -17 -8
2 5 16 4 18 -6 8 -7 -7 -20 -13 -28 -13 -13 0 -14 2 -2 9 10 7 7 9 -12 8 -20
-2 -23 -5 -14 -15 8 -11 6 -11 -16 -1 -21 10 -30 9 -44 -2 -15 -12 -16 -12
-10 4 3 9 2 17 -3 17 -6 0 -10 -5 -10 -11 0 -5 -5 -7 -12 -3 -7 4 -22 8 -34 9
-15 0 -20 -4 -16 -15 5 -12 3 -13 -9 -3 -12 10 -18 10 -29 0 -8 -8 -11 -8 -7
-1 11 20 -24 26 -40 7 -8 -10 -12 -12 -8 -5 8 15 0 15 -26 2 -13 -7 -19 -7
-19 0 0 5 5 10 12 10 6 0 8 3 4 7 -4 5 -14 -1 -22 -11 -8 -11 -14 -15 -14 -9
0 6 -7 14 -16 17 -9 4 -13 2 -8 -5 4 -8 -1 -9 -16 -4 -17 6 -21 4 -15 -6 5 -8
0 -7 -11 3 -12 11 -24 14 -33 8 -8 -4 -20 -6 -28 -3 -7 3 -21 -1 -30 -8 -15
-12 -16 -12 -10 4 3 9 4 17 0 17 -3 0 -12 -8 -20 -17 -14 -17 -14 -17 -8 2 5
16 4 18 -6 8 -7 -7 -20 -13 -29 -13 -13 0 -13 1 0 10 11 7 6 8 -17 6 -18 -3
-37 -7 -42 -10 -5 -4 -13 -2 -16 4 -4 7 -11 7 -18 2 -18 -14 -49 -23 -43 -13
11 18 -27 21 -41 4 -8 -10 -12 -12 -8 -5 8 15 0 15 -26 2 -13 -7 -19 -7 -19 0
0 5 5 10 12 10 6 0 8 3 4 7 -4 5 -14 -1 -22 -11 -8 -11 -14 -15 -14 -9 0 6 -7
14 -16 17 -9 4 -13 2 -8 -5 4 -8 -1 -9 -15 -4 -13 4 -29 1 -38 -7 -15 -11 -16
-11 -10 5 3 9 4 17 0 17 -3 0 -12 -8 -20 -17 -14 -17 -14 -17 -8 2 5 16 4 18
-6 8 -7 -7 -20 -13 -28 -13 -13 0 -14 2 -2 9 10 7 7 9 -12 8 -20 -2 -23 -5
-14 -15 8 -11 6 -11 -16 -1 -21 10 -30 9 -44 -2 -15 -12 -16 -12 -10 4 3 9 2
17 -3 17 -6 0 -10 -5 -10 -11 0 -5 -5 -7 -12 -3 -7 4 -22 8 -34 9 -15 0 -20
-4 -16 -15 5 -12 3 -13 -9 -3 -12 10 -18 10 -29 0 -8 -8 -11 -8 -7 -1 11 20
-24 26 -40 7 -8 -10 -12 -12 -8 -5 8 15 0 15 -26 2 -13 -7 -19 -7 -19 0 0 5 5
10 12 10 6 0 8 3 4 7 -4 5 -14 -1 -22 -11 -8 -11 -14 -15 -14 -9 0 6 -7 14
-16 17 -9 4 -13 2 -8 -5 4 -8 -1 -9 -16 -4 -17 6 -21 4 -15 -6 5 -8 0 -7 -11
3 -12 11 -24 14 -33 8 -8 -4 -20 -6 -28 -3 -7 3 -21 -1 -30 -8 -15 -12 -16
-12 -10 4 3 9 2 17 -3 17 -6 0 -10 -5 -10 -11 0 -8 -4 -8 -13 -1 -7 6 -18 7
-26 2 -8 -4 -20 -6 -28 -3 -7 3 -21 -1 -30 -8 -14 -12 -16 -12 -11 2 4 10 1
16 -9 16 -8 0 -17 -7 -20 -15z m1021 0 c3 -5 -1 -9 -9 -9 -8 0 -12 4 -9 9 3 4
7 8 9 8 2 0 6 -4 9 -8z m960 0 c3 -5 -1 -9 -9 -9 -8 0 -12 4 -9 9 3 4 7 8 9 8
2 0 6 -4 9 -8z m480 0 c3 -5 -1 -9 -9 -9 -8 0 -12 4 -9 9 3 4 7 8 9 8 2 0 6
-4 9 -8z m320 0 c3 -5 -1 -9 -9 -9 -8 0 -12 4 -9 9 3 4 7 8 9 8 2 0 6 -4 9 -8z
m320 0 c3 -5 -1 -9 -9 -9 -8 0 -12 4 -9 9 3 4 7 8 9 8 2 0 6 -4 9 -8z m320 0
c3 -5 -1 -9 -9 -9 -8 0 -12 4 -9 9 3 4 7 8 9 8 2 0 6 -4 9 -8z"/>
<path d="M6059 2183 c-13 -16 -12 -17 4 -4 16 13 21 21 13 21 -2 0 -10 -8 -17
-17z"/>
<path d="M5939 2063 c-13 -16 -12 -17 4 -4 16 13 21 21 13 21 -2 0 -10 -8 -17
-17z"/>
<path d="M5539 1663 c-13 -16 -12 -17 4 -4 16 13 21 21 13 21 -2 0 -10 -8 -17
-17z"/>
<path d="M5379 1503 c-13 -16 -12 -17 4 -4 9 7 17 15 17 17 0 8 -8 3 -21 -13z"/>
<path d="M5049 1173 c-13 -16 -12 -17 4 -4 9 7 17 15 17 17 0 8 -8 3 -21 -13z"/>
<path d="M4809 933 c-13 -16 -12 -17 4 -4 9 7 17 15 17 17 0 8 -8 3 -21 -13z"/>
<path d="M4569 693 c-13 -16 -12 -17 4 -4 16 13 21 21 13 21 -2 0 -10 -8 -17
-17z"/>
<path d="M4489 613 c-13 -16 -12 -17 4 -4 16 13 21 21 13 21 -2 0 -10 -8 -17
-17z"/>
<path d="M4369 493 c-13 -16 -12 -17 4 -4 16 13 21 21 13 21 -2 0 -10 -8 -17
-17z"/>
</g>
</svg>
