<svg width="390" height="392" viewBox="0 0 390 392" fill="none" xmlns="http://www.w3.org/2000/svg">
<path d="M110.832 21.0352C89.2471 29.3439 28.3673 56.1643 5.72917 141.616C-20.0687 239.06 56.8958 364.462 163.585 385.599C274.24 407.521 399.224 355.983 389.42 276.123C384.934 239.701 335.12 228.674 337.421 185.772C339.671 143.889 392.281 116.677 374.519 69.8292C344.118 -10.3185 201.515 -13.8588 110.832 21.0352Z" fill="#CADDFF"/>
<path d="M367.38 224.507C367.38 194.852 354.832 150.683 294.407 153.361C297.814 115.789 264.735 64.1728 192.698 68.8889C157.915 71.162 150.79 97.5775 147.019 96.258C98.5178 79.2748 38.2361 125.051 47.1952 180.26C20.2401 183.134 0.475586 203.278 0.475586 232.372C0.475586 232.489 0.475586 232.62 0.475586 232.764C0.605614 251.772 15.429 267.057 33.5161 267.057H326.707C348.578 267.057 366.808 248.911 367.367 225.931C367.38 225.461 367.38 224.991 367.38 224.507Z" fill="#99B9FF"/>
<path d="M375.897 229.68C375.897 200.769 358.2 144.058 299.037 146.684C286.19 89.6989 259.04 72.5981 210.708 72.5981C170.685 72.5981 154.808 105.663 151.18 104.213C100.404 83.99 53.3072 129.766 63.6315 182.884C37.2355 185.693 16.6519 208.999 16.6519 237.322C16.6519 237.453 16.6519 237.584 16.6519 237.714C16.7689 256.239 31.2932 271.132 49.0032 271.132H336.069C357.472 271.132 375.325 253.443 375.884 231.065C375.884 230.607 375.897 230.137 375.897 229.68Z" fill="#5479F7"/>
<path d="M156.641 213.899C148.332 202.899 150.491 187.223 161.465 178.901C172.44 170.566 188.082 172.735 196.391 183.735C204.713 194.734 202.541 210.411 191.567 218.733C180.593 227.068 164.95 224.899 156.641 213.899ZM202.906 241.778L210.629 235.925L206.247 226.271C207.795 224.586 209.186 222.809 210.408 220.941L220.798 222.796L224.568 213.86L215.961 207.694C216.455 205.486 216.767 203.252 216.884 200.992L226.831 197.399L225.635 187.771L215.115 186.739C214.452 184.597 213.594 182.506 212.567 180.482L219.38 172.369L213.542 164.635L203.907 169.011C202.229 167.47 200.461 166.072 198.589 164.857L200.448 154.432L191.528 150.67L185.365 159.292C183.167 158.795 180.944 158.482 178.694 158.364L175.105 148.383L165.483 149.598L164.469 160.141C162.336 160.794 160.243 161.656 158.214 162.688L150.127 155.856L142.403 161.722L146.785 171.363C145.237 173.048 143.846 174.825 142.637 176.706L132.235 174.838L128.464 183.774L137.072 189.953C136.578 192.148 136.278 194.382 136.148 196.642L126.201 200.234L127.397 209.876L137.917 210.895C138.58 213.037 139.438 215.127 140.465 217.152L133.652 225.265L139.49 232.999L149.125 228.622C150.803 230.164 152.584 231.562 154.444 232.777L152.584 243.202L161.517 246.977L167.668 238.342C169.865 238.838 172.102 239.152 174.338 239.27L177.94 249.251L187.549 248.036L188.576 237.506C190.696 236.84 192.789 235.977 194.818 234.945L202.906 241.778Z" fill="white"/>
<path d="M177.121 169.808C171.881 169.808 166.797 171.506 162.545 174.733C157.383 178.639 154.054 184.335 153.17 190.762C152.285 197.19 153.95 203.578 157.851 208.738C165.925 219.412 181.139 221.528 191.801 213.441C202.451 205.355 204.544 190.096 196.482 179.423C192.582 174.262 186.899 170.918 180.489 170.03C179.358 169.873 178.239 169.808 177.121 169.808ZM177.199 219.777C169.436 219.777 161.765 216.263 156.732 209.601C152.597 204.127 150.829 197.373 151.765 190.566C152.715 183.773 156.225 177.751 161.687 173.596C167.148 169.455 173.896 167.691 180.684 168.632C187.458 169.572 193.479 173.1 197.614 178.574C206.144 189.874 203.92 206.021 192.647 214.565C188.031 218.079 182.595 219.764 177.199 219.777ZM168.318 232.907C168.37 232.907 168.422 232.92 168.474 232.92C170.62 233.403 172.83 233.717 175.028 233.834C175.314 233.847 175.561 234.03 175.665 234.305L179.058 243.737L187.549 242.679L188.525 232.698C188.551 232.41 188.746 232.175 189.019 232.097C191.086 231.444 193.154 230.594 195.156 229.575C195.403 229.458 195.715 229.484 195.923 229.667L203.582 236.147L210.396 230.96L206.261 221.828C206.144 221.567 206.196 221.267 206.391 221.058C207.912 219.399 209.277 217.648 210.461 215.819C210.617 215.584 210.903 215.453 211.176 215.505L221.019 217.269L224.348 209.365L216.208 203.526C215.974 203.369 215.857 203.082 215.922 202.807C216.403 200.639 216.715 198.431 216.832 196.223C216.845 195.949 217.027 195.7 217.3 195.596L226.714 192.186L225.661 183.682L215.701 182.715C215.415 182.676 215.181 182.493 215.09 182.218C214.453 180.128 213.607 178.064 212.593 176.065C212.463 175.817 212.489 175.503 212.671 175.294L219.134 167.613L213.971 160.78L204.856 164.935C204.596 165.052 204.284 165 204.076 164.804C202.438 163.289 200.682 161.917 198.849 160.715C198.615 160.571 198.498 160.284 198.537 159.997L200.305 150.133L192.426 146.802L186.6 154.967C186.431 155.202 186.145 155.307 185.872 155.254C183.714 154.771 181.503 154.457 179.306 154.34C179.019 154.327 178.772 154.144 178.681 153.869L175.275 144.437L166.797 145.495L165.821 155.476C165.795 155.751 165.6 155.999 165.327 156.077C163.247 156.731 161.192 157.567 159.19 158.599C158.93 158.716 158.631 158.69 158.41 158.507L150.764 152.027L143.938 157.214L148.072 166.346C148.202 166.607 148.15 166.907 147.955 167.116C146.434 168.762 145.069 170.526 143.872 172.355C143.716 172.59 143.443 172.721 143.157 172.669L133.314 170.905L129.985 178.796L138.138 184.635C138.372 184.805 138.476 185.092 138.411 185.367C137.93 187.522 137.631 189.743 137.514 191.951C137.488 192.225 137.306 192.474 137.046 192.565L127.619 195.975L128.685 204.493L138.645 205.459C138.918 205.485 139.165 205.681 139.243 205.956C139.894 208.033 140.739 210.11 141.753 212.109C141.883 212.357 141.844 212.671 141.662 212.88L135.2 220.548L140.375 227.394L149.49 223.239C149.75 223.122 150.049 223.174 150.257 223.37C151.908 224.885 153.664 226.257 155.484 227.446C155.718 227.603 155.848 227.89 155.796 228.178L154.028 238.041L161.921 241.372L167.746 233.207C167.876 233.011 168.097 232.907 168.318 232.907ZM178.59 245.226C178.291 245.226 178.031 245.043 177.927 244.756L174.481 235.219C172.518 235.088 170.555 234.814 168.617 234.409L162.74 242.652C162.545 242.927 162.194 243.018 161.895 242.888L152.962 239.125C152.662 238.995 152.48 238.668 152.545 238.341L154.327 228.387C152.701 227.289 151.128 226.061 149.646 224.729L140.44 228.909C140.141 229.053 139.79 228.961 139.582 228.7L133.743 220.953C133.535 220.692 133.548 220.326 133.756 220.078L140.284 212.331C139.399 210.528 138.645 208.686 138.034 206.831L127.983 205.838C127.658 205.812 127.398 205.551 127.359 205.224L126.149 195.596C126.11 195.269 126.306 194.956 126.618 194.838L136.123 191.402C136.253 189.43 136.526 187.457 136.942 185.524L128.711 179.619C128.438 179.436 128.347 179.083 128.464 178.769L132.235 169.834C132.365 169.52 132.677 169.35 133.015 169.403L142.949 171.192C144.029 169.559 145.264 167.992 146.603 166.502L142.416 157.279C142.286 156.979 142.377 156.626 142.637 156.417L150.361 150.564C150.621 150.355 150.985 150.368 151.245 150.59L158.969 157.122C160.763 156.234 162.61 155.476 164.456 154.875L165.444 144.79C165.47 144.463 165.73 144.202 166.056 144.163L175.665 142.961C175.99 142.909 176.302 143.105 176.419 143.418L179.852 152.955C181.815 153.086 183.792 153.36 185.716 153.765L191.606 145.522C191.801 145.247 192.152 145.156 192.452 145.273L201.372 149.049C201.684 149.18 201.853 149.506 201.801 149.833L200.019 159.787C201.632 160.885 203.205 162.113 204.687 163.445L213.893 159.265C214.205 159.121 214.557 159.213 214.752 159.474L220.603 167.221C220.798 167.482 220.785 167.848 220.577 168.096L214.062 175.843C214.947 177.633 215.701 179.488 216.299 181.343L226.35 182.323C226.675 182.362 226.948 182.623 226.987 182.95L228.184 192.578C228.236 192.905 228.041 193.218 227.729 193.336L218.21 196.772C218.08 198.744 217.807 200.717 217.404 202.65L225.635 208.555C225.895 208.738 225.999 209.091 225.869 209.405L222.111 218.34C221.981 218.654 221.656 218.824 221.331 218.771L211.384 216.982C210.305 218.602 209.082 220.182 207.743 221.672L211.917 230.895C212.06 231.195 211.969 231.548 211.709 231.757L203.985 237.61C203.725 237.806 203.348 237.806 203.101 237.584L195.377 231.052C193.583 231.94 191.736 232.698 189.89 233.299L188.902 243.371C188.876 243.711 188.616 243.972 188.291 244.011L178.681 245.213C178.642 245.226 178.616 245.226 178.59 245.226Z" fill="black"/>
<path d="M235.88 162.296C232.174 157.384 233.136 150.395 238.039 146.672C242.941 142.948 249.923 143.915 253.642 148.827C257.348 153.739 256.386 160.742 251.484 164.465C246.581 168.188 239.599 167.221 235.88 162.296ZM256.542 174.746L260.001 172.133L258.037 167.822C258.739 167.078 259.35 166.281 259.897 165.445L264.539 166.281L266.229 162.283L262.38 159.527C262.601 158.547 262.731 157.541 262.796 156.535L267.243 154.928L266.697 150.63L262.003 150.173C261.704 149.219 261.327 148.279 260.859 147.377L263.914 143.758L261.301 140.296L256.997 142.256C256.243 141.564 255.45 140.937 254.617 140.401L255.45 135.737L251.471 134.052L248.714 137.906C247.739 137.697 246.738 137.553 245.736 137.501L244.124 133.046L239.833 133.582L239.378 138.285C238.429 138.585 237.492 138.964 236.595 139.434L232.98 136.377L229.535 138.99L231.485 143.301C230.796 144.059 230.172 144.856 229.626 145.692L224.984 144.856L223.306 148.853L227.142 151.597C226.921 152.59 226.791 153.583 226.739 154.588L222.292 156.195L222.825 160.506L227.519 160.964C227.818 161.917 228.208 162.845 228.663 163.759L225.621 167.378L228.234 170.827L232.525 168.88C233.279 169.56 234.073 170.187 234.905 170.736L234.073 175.386L238.065 177.072L240.808 173.218C241.796 173.44 242.785 173.57 243.799 173.636L245.398 178.091L249.689 177.555L250.144 172.839C251.094 172.538 252.03 172.16 252.94 171.702L256.542 174.746Z" fill="#CADDFF"/>
<path d="M236.74 159.761C240.212 164.36 246.765 165.261 251.355 161.786C253.579 160.101 255.009 157.645 255.386 154.889C255.763 152.119 255.048 149.362 253.371 147.142C251.693 144.921 249.249 143.484 246.479 143.092C243.722 142.713 240.979 143.431 238.755 145.117C234.178 148.592 233.268 155.163 236.74 159.761ZM245.075 165.314C241.486 165.314 237.936 163.694 235.622 160.611C231.669 155.398 232.709 147.939 237.91 143.993C240.433 142.073 243.54 141.263 246.674 141.694C249.808 142.125 252.59 143.758 254.502 146.292C256.413 148.814 257.22 151.936 256.79 155.071C256.348 158.22 254.723 161.003 252.2 162.91C250.068 164.53 247.558 165.314 245.075 165.314ZM241.109 170.396C241.148 170.396 241.213 170.409 241.252 170.409C242.201 170.631 243.163 170.761 244.126 170.814C244.412 170.827 244.659 171.01 244.75 171.284L246.167 175.203L249.34 174.798L249.743 170.657C249.769 170.382 249.964 170.134 250.237 170.056C251.134 169.768 252.044 169.403 252.916 168.959C253.163 168.828 253.462 168.867 253.683 169.05L256.868 171.728L259.417 169.795L257.688 166.006C257.571 165.745 257.623 165.444 257.818 165.235C258.481 164.517 259.079 163.746 259.599 162.936C259.755 162.701 260.028 162.583 260.314 162.636L264.41 163.367L265.645 160.415L262.265 157.985C262.031 157.828 261.927 157.541 261.979 157.253C262.2 156.313 262.33 155.346 262.382 154.379C262.395 154.105 262.577 153.857 262.85 153.752L266.764 152.341L266.361 149.167L262.226 148.762C261.94 148.735 261.706 148.539 261.615 148.265C261.341 147.351 260.964 146.449 260.522 145.587C260.392 145.326 260.431 145.025 260.613 144.803L263.305 141.616L261.367 139.068L257.584 140.793C257.324 140.91 257.011 140.858 256.803 140.662C256.088 139.996 255.321 139.395 254.528 138.872C254.294 138.728 254.164 138.441 254.216 138.154L254.944 134.065L252.005 132.823L249.587 136.207C249.418 136.442 249.132 136.547 248.859 136.481C247.909 136.272 246.947 136.142 245.985 136.089C245.712 136.076 245.465 135.894 245.361 135.619L243.944 131.7L240.784 132.105L240.381 136.246C240.355 136.534 240.16 136.769 239.887 136.847C238.976 137.135 238.079 137.5 237.208 137.945C236.948 138.075 236.649 138.036 236.428 137.853L233.242 135.175L230.707 137.108L232.423 140.897C232.54 141.158 232.488 141.459 232.293 141.668C231.63 142.386 231.032 143.157 230.511 143.954C230.355 144.202 230.082 144.32 229.796 144.268L225.713 143.536L224.465 146.488L227.846 148.918C228.08 149.075 228.197 149.362 228.132 149.65C227.924 150.591 227.781 151.557 227.729 152.511C227.716 152.798 227.534 153.047 227.274 153.138L223.36 154.562L223.75 157.737L227.885 158.142C228.171 158.168 228.405 158.364 228.496 158.638C228.769 159.539 229.146 160.454 229.588 161.316C229.718 161.577 229.679 161.878 229.497 162.1L226.819 165.288L228.743 167.835L232.527 166.111C232.787 165.993 233.099 166.045 233.307 166.241C234.022 166.907 234.789 167.508 235.583 168.031C235.817 168.175 235.947 168.462 235.895 168.749L235.167 172.839L238.105 174.08L240.524 170.696C240.667 170.513 240.875 170.396 241.109 170.396ZM245.686 176.679C245.4 176.679 245.127 176.496 245.023 176.209L243.579 172.198C242.851 172.133 242.123 172.029 241.408 171.898L238.924 175.373C238.742 175.634 238.391 175.739 238.079 175.608L234.087 173.923C233.788 173.792 233.619 173.479 233.671 173.152L234.425 168.945C233.827 168.54 233.255 168.083 232.696 167.6L228.808 169.363C228.509 169.494 228.158 169.416 227.963 169.141L225.349 165.693C225.154 165.431 225.154 165.052 225.375 164.804L228.119 161.538C227.794 160.872 227.521 160.193 227.287 159.5L223.048 159.095C222.723 159.056 222.463 158.808 222.424 158.481L221.878 154.17C221.838 153.843 222.034 153.53 222.346 153.425L226.351 151.975C226.416 151.244 226.507 150.512 226.65 149.794L223.191 147.311C222.918 147.115 222.814 146.763 222.944 146.462L224.621 142.465C224.751 142.164 225.076 141.981 225.401 142.047L229.588 142.791C230.004 142.203 230.459 141.616 230.941 141.067L229.185 137.174C229.042 136.873 229.133 136.521 229.393 136.312L232.839 133.699C233.112 133.503 233.476 133.503 233.723 133.725L236.987 136.481C237.65 136.155 238.326 135.88 239.015 135.645L239.431 131.399C239.457 131.073 239.718 130.812 240.043 130.772L244.334 130.224C244.659 130.185 244.971 130.38 245.088 130.694L246.531 134.705C247.259 134.77 247.987 134.861 248.703 135.005L251.186 131.53C251.381 131.269 251.732 131.164 252.031 131.295L256.023 132.98C256.322 133.111 256.504 133.424 256.439 133.751L255.685 137.958C256.283 138.363 256.868 138.82 257.415 139.303L261.302 137.54C261.602 137.409 261.953 137.5 262.148 137.762L264.761 141.211C264.969 141.472 264.956 141.838 264.748 142.099L261.992 145.365C262.317 146.031 262.59 146.71 262.824 147.39L267.063 147.808C267.388 147.847 267.648 148.095 267.687 148.422L268.233 152.733C268.272 153.06 268.077 153.373 267.765 153.478L263.76 154.928C263.708 155.659 263.604 156.391 263.461 157.109L266.92 159.592C267.193 159.788 267.297 160.14 267.167 160.441L265.489 164.438C265.359 164.739 265.034 164.922 264.709 164.856L260.522 164.112C260.106 164.7 259.651 165.288 259.17 165.836L260.938 169.729C261.068 170.03 260.977 170.382 260.717 170.592L257.272 173.204C256.998 173.4 256.634 173.387 256.387 173.178L253.124 170.422C252.46 170.748 251.784 171.023 251.095 171.258L250.679 175.504C250.653 175.83 250.393 176.091 250.068 176.131L245.777 176.679C245.751 176.679 245.712 176.679 245.686 176.679Z" fill="#FF9F78"/>
<path d="M261.912 263.555L106.514 262.614C106.124 262.614 105.812 262.288 105.812 261.896C105.812 261.504 106.137 261.19 106.514 261.19C106.527 261.19 106.527 261.19 106.527 261.19L261.925 262.144C262.315 262.144 262.627 262.458 262.614 262.85C262.614 263.241 262.302 263.555 261.912 263.555Z" fill="#CADDFF"/>
<path d="M316.408 127.102C316.226 127.102 316.044 127.036 315.901 126.893C315.628 126.618 315.628 126.174 315.901 125.9L356.262 85.6758C356.535 85.4015 356.99 85.4015 357.263 85.6889C357.537 85.9632 357.537 86.4074 357.263 86.6818L316.902 126.906C316.772 127.036 316.59 127.102 316.408 127.102Z" fill="black"/>
<path d="M307.32 121.981C307.203 121.981 307.086 121.955 306.969 121.89C306.631 121.694 306.514 121.263 306.709 120.923L319.53 98.453C319.712 98.1133 320.154 97.9957 320.492 98.1786C320.83 98.3746 320.947 98.8057 320.752 99.1454L307.931 121.629C307.801 121.851 307.567 121.981 307.32 121.981Z" fill="black"/>
<path d="M322.13 131.583L328.931 134.562L327.383 126.606L322.13 131.583ZM329.867 136.456C329.776 136.456 329.685 136.443 329.594 136.404L320.583 132.459C320.375 132.354 320.219 132.158 320.18 131.923C320.141 131.688 320.219 131.453 320.388 131.296L327.344 124.699C327.539 124.516 327.813 124.45 328.06 124.529C328.294 124.607 328.476 124.816 328.528 125.077L330.569 135.62C330.621 135.881 330.517 136.143 330.309 136.299C330.179 136.404 330.036 136.456 329.867 136.456Z" fill="black"/>
<path d="M24.3999 360.268L22.1894 375.866L16.5201 375.892L16.2471 360.542L24.3999 360.268Z" fill="white"/>
<path d="M16.9626 361.221L17.2097 375.174L21.5787 375.161L23.5941 360.999L16.9626 361.221ZM16.5205 376.598C16.1304 376.598 15.8184 376.284 15.8054 375.905L15.5453 360.555C15.5323 360.176 15.8444 359.85 16.2215 359.837L24.3873 359.562C24.5954 359.549 24.7904 359.641 24.9334 359.797C25.0765 359.941 25.1415 360.163 25.1025 360.359L22.892 375.971C22.84 376.31 22.5409 376.572 22.1898 376.572L16.5205 376.598Z" fill="black"/>
<path d="M22.3856 390.785C20.1621 391.021 16.8463 391.112 12.4123 390.72C10.826 390.589 9.70772 389.113 9.96778 387.545C10.6569 383.3 12.5684 375.84 15.5981 372.404L17.0934 374.547L17.9776 372.339C18.1206 372.104 21.8785 371.947 21.9565 372.391L22.1906 374.547L24.323 372.143L24.206 380.021C24.193 380.883 24.271 381.758 24.4531 382.607L25.0122 385.325C25.3503 386.971 24.9342 388.695 23.7899 389.923C23.3478 390.393 22.8537 390.733 22.3856 390.785Z" fill="white"/>
<path d="M15.5598 373.593C12.9202 377.199 11.2558 384.005 10.6577 387.65C10.5667 388.225 10.7097 388.787 11.0608 389.244C11.4119 389.701 11.919 389.963 12.4781 390.015C17.1852 390.433 20.4229 390.276 22.3083 390.08C22.5684 390.054 22.9325 389.806 23.2706 389.44C24.2328 388.421 24.6229 386.932 24.3238 385.469L23.7647 382.751C23.5696 381.85 23.4916 380.922 23.5046 380.008L23.5956 374.038L22.7114 375.017C22.5294 375.226 22.2433 375.305 21.9703 375.213C21.7102 375.135 21.5152 374.9 21.4892 374.612L21.3071 372.862C20.644 372.783 19.1486 372.81 18.5115 372.914L17.7443 374.808C17.6533 375.044 17.4322 375.213 17.1722 375.253C16.9121 375.279 16.6651 375.161 16.509 374.952L15.5598 373.593ZM18.0694 391.7C16.47 391.7 14.5716 391.622 12.3481 391.426C11.3989 391.347 10.5407 390.877 9.95554 390.119C9.35741 389.362 9.11035 388.382 9.26639 387.428C9.44843 386.305 11.1518 376.376 15.0657 371.947C15.2087 371.778 15.4168 371.699 15.6378 371.699C15.8589 371.712 16.0539 371.83 16.171 372L16.9251 373.071L17.3282 372.078C17.3412 372.039 17.3542 372 17.3802 371.973C17.8873 371.111 21.6322 371.49 21.6712 371.503C21.8922 371.542 22.5554 371.66 22.6594 372.274C22.6594 372.287 22.6594 372.3 22.6594 372.313L22.7244 372.875L23.8037 371.673C23.9987 371.451 24.3108 371.386 24.5839 371.49C24.8569 371.595 25.039 371.869 25.026 372.156L24.9089 380.034C24.8959 380.844 24.9739 381.667 25.143 382.464L25.7021 385.181C26.0922 387.102 25.5721 389.048 24.3108 390.407C23.7127 391.047 23.0625 391.413 22.4514 391.491C21.4111 391.596 19.9548 391.7 18.0694 391.7Z" fill="black"/>
<path d="M18.3282 388.917C16.7548 388.917 14.8044 388.786 12.6069 388.407C12.2168 388.342 11.9698 387.963 12.0348 387.584C12.0998 387.192 12.4639 386.944 12.854 387.009C18.2892 387.963 22.1511 387.205 22.1901 387.192C22.5672 387.127 22.9442 387.362 23.0223 387.754C23.1003 388.133 22.8532 388.512 22.4631 388.59C22.3591 388.603 20.8248 388.917 18.3282 388.917Z" fill="black"/>
<path d="M20.136 382.934H14.9868C14.5967 382.934 14.2847 382.62 14.2847 382.228C14.2847 381.836 14.5967 381.51 14.9868 381.51H20.136C20.5261 381.51 20.8512 381.836 20.8512 382.228C20.8512 382.62 20.5261 382.934 20.136 382.934Z" fill="black"/>
<path d="M65.125 361.653L67.1145 379.838L74.7472 381.445L74.2921 360.125L65.125 361.653Z" fill="white"/>
<path d="M67.7665 379.25L74.0339 380.57L73.6049 360.961L65.9071 362.241L67.7665 379.25ZM74.7491 382.151C74.7101 382.151 74.6581 382.151 74.6061 382.137L66.9733 380.531C66.6743 380.465 66.4532 380.217 66.4142 379.917L64.4248 361.731C64.3858 361.366 64.6458 361.026 65.0099 360.961L74.177 359.419C74.372 359.393 74.5801 359.445 74.7361 359.576C74.8921 359.707 74.9962 359.902 74.9962 360.112L75.4643 381.432C75.4643 381.641 75.3733 381.85 75.2042 381.981C75.0742 382.098 74.9181 382.151 74.7491 382.151Z" fill="black"/>
<path d="M63.8915 388.512C63.7225 385.324 63.7225 379.458 65.6599 376.623L71.7583 378.805V377.499C71.7583 377.081 72.0704 376.728 72.4475 376.715L75.8543 376.519C77.1155 376.441 78.3898 376.702 79.5471 377.277C82.9669 378.962 93.3822 383.286 94.8256 388.146C95.2547 389.583 94.1364 391.02 92.6411 391.059C89.2213 391.164 80.9774 391.268 66.1931 390.759C64.9578 390.72 63.9566 389.74 63.8915 388.512Z" fill="#FF9F78"/>
<path d="M65.9586 377.487C64.8404 379.577 64.3333 383.522 64.5933 388.473C64.6453 389.349 65.3345 390.028 66.2057 390.054C80.847 390.564 89.0389 390.459 92.6277 390.355C93.1348 390.342 93.6159 390.08 93.915 389.675C94.201 389.283 94.2791 388.8 94.149 388.356C92.9658 384.384 84.7219 380.504 80.756 378.636C80.1709 378.362 79.6507 378.114 79.2346 377.918C78.1814 377.395 77.0371 377.16 75.8929 377.225L72.4861 377.421C72.4991 377.421 72.4731 377.447 72.4731 377.5V378.806C72.4731 379.041 72.3561 379.25 72.174 379.381C71.979 379.525 71.7449 379.551 71.5239 379.472L65.9586 377.487ZM85.8011 391.857C81.2631 391.857 74.8397 391.766 66.1667 391.478C64.5543 391.413 63.28 390.159 63.189 388.552C63.02 385.234 63.033 379.224 65.0744 376.232C65.2565 375.958 65.5946 375.854 65.8936 375.958L71.0558 377.8V377.5C71.0558 376.703 71.6539 376.05 72.4081 375.997L75.8149 375.801C77.1932 375.723 78.5975 376.023 79.8588 376.637C80.2619 376.846 80.769 377.082 81.3541 377.356C85.8271 379.459 94.149 383.365 95.5013 387.951C95.7614 388.826 95.6054 389.754 95.0592 390.498C94.5001 391.269 93.6029 391.739 92.6667 391.779C91.1974 391.818 88.9478 391.857 85.8011 391.857Z" fill="black"/>
<path d="M83.4475 388.839C79.1045 388.839 73.2531 388.644 66.8427 387.899C66.4526 387.86 66.1795 387.507 66.2186 387.115C66.2706 386.723 66.6216 386.449 67.0117 386.501C79.9887 388.003 90.7161 387.22 90.8201 387.206C91.2102 387.18 91.5483 387.468 91.5743 387.86C91.6133 388.252 91.3142 388.591 90.9242 388.617C90.8721 388.63 87.9985 388.839 83.4475 388.839Z" fill="black"/>
<path d="M81.5493 383.626C81.4063 383.626 81.2633 383.587 81.1462 383.496L75.2689 379.263C74.9438 379.028 74.8788 378.597 75.0999 378.27C75.3339 377.957 75.776 377.878 76.0881 378.113L81.9654 382.346C82.2905 382.581 82.3555 383.025 82.1345 383.339C81.9914 383.522 81.7704 383.626 81.5493 383.626Z" fill="black"/>
<path d="M67.5065 243.684C67.5065 243.684 78.442 318.881 76.1144 369.086L72.7077 369.426C70.8613 369.608 69.0148 369.661 67.1814 369.569L63.9437 369.399C63.9437 369.399 50.9017 293.145 44.3873 280.486C44.3873 280.486 26.6642 348.301 25.9881 366.669C25.9881 366.669 18.1083 367.466 14.9746 366.329C13.2842 348.602 12.8031 330.247 12.7121 318.724C12.478 285.751 15.6247 270.779 17.3411 263.672C18.9275 257.14 20.6179 251.849 21.8661 248.257L26.0011 236.421L67.5065 243.684Z" fill="#99B9FF"/>
<path d="M64.5409 368.72L67.2195 368.851C69.0139 368.956 70.8344 368.903 72.6288 368.72L75.4374 368.446C77.5309 321.037 67.8177 250.948 66.8815 244.286L26.4683 237.218L22.5284 248.492C20.799 253.496 19.2777 258.656 18.0294 263.843C15.9359 272.439 13.1923 287.488 13.4263 318.725C13.4914 328.287 13.8684 347.047 15.6238 365.794C18.2764 366.513 23.5296 366.16 25.311 366.016C26.3383 346.956 42.982 283.047 43.6972 280.303L44.1653 278.514L45.0105 280.16C51.2779 292.348 63.2536 361.222 64.5409 368.72ZM69.0269 370.314C68.3898 370.314 67.7657 370.301 67.1415 370.275L63.3447 370.079L63.2406 369.517C63.1236 368.786 51.1739 299.22 44.5554 282.616C41.6687 293.864 27.3005 350.353 26.6893 366.696L26.6633 367.31L26.0522 367.375C25.7271 367.401 17.9774 368.172 14.7266 366.996L14.3105 366.839L14.2715 366.395C12.4641 347.439 12.074 328.392 12.009 318.738C11.775 287.345 14.5446 272.177 16.6511 263.503C17.9254 258.277 19.4467 253.078 21.1891 248.022L25.5321 235.611L68.1297 243.071L68.2078 243.58C68.3118 244.325 79.1302 319.43 76.8157 369.112L76.7897 369.726L72.7718 370.131C71.5365 370.262 70.2752 370.314 69.0269 370.314Z" fill="black"/>
<path d="M43.7624 283.4C43.7104 283.4 43.6454 283.387 43.5804 283.374C43.2033 283.269 42.9822 282.877 43.0863 282.499L44.9067 275.862C45.4658 273.811 47.1042 272.27 49.1976 271.838L50.888 271.486C51.2781 271.407 51.6552 271.655 51.7332 272.034C51.8112 272.413 51.5642 272.792 51.1741 272.87L49.4837 273.223C47.9233 273.55 46.6881 274.699 46.272 276.241L44.4516 282.877C44.3605 283.191 44.0745 283.4 43.7624 283.4Z" fill="black"/>
<path d="M19.7206 271.028C19.3825 271.028 19.0835 270.78 19.0314 270.44C18.9664 270.061 19.2265 269.695 19.6166 269.63C28.9137 268.075 30.7731 260.995 30.8511 260.694C30.9421 260.315 31.3192 260.08 31.6963 260.172C32.0734 260.263 32.3075 260.642 32.2164 261.021C32.1384 261.36 30.0969 269.303 19.8376 271.028C19.7986 271.028 19.7596 271.028 19.7206 271.028Z" fill="black"/>
<path d="M67.999 266.089C67.908 266.089 67.804 266.063 67.7129 266.024C61.6536 263.385 61.7966 257.781 61.8096 257.546C61.8226 257.154 62.1347 256.84 62.5378 256.866C62.9279 256.879 63.2269 257.206 63.2139 257.598C63.2139 257.794 63.1229 262.484 68.2851 264.731C68.6361 264.888 68.8052 265.306 68.6492 265.658C68.5321 265.933 68.2721 266.089 67.999 266.089Z" fill="black"/>
<path d="M66.6208 181.083C59.3911 180.26 43.9436 178.797 33.3202 179.777C30.1085 180.064 25.4794 182.037 23.0479 184.14C15.8572 190.359 2.30818 204.037 0.0456614 220.458C-0.292414 222.849 1.28094 225.096 3.63448 225.618L16.1563 228.401C16.1563 228.401 11.1632 248.128 11.5663 251.524C11.9694 254.934 22.3197 260.734 35.2576 255.979C45.3349 252.269 59.6252 249.316 68.6882 252.517C68.7662 252.543 69.6374 259.532 69.7285 259.546C72.6411 259.964 75.5668 258.827 75.5018 254.738L74.1235 233.444L90.7152 231.249L92.1976 230.752C96.6836 229.25 98.9981 224.299 97.2687 219.883C93.3808 209.942 87.4905 193.834 76.594 184.95C74.2665 183.043 69.6114 181.423 66.6208 181.083Z" fill="black"/>
<path d="M59.0796 246.612H85.0204C86.1387 246.612 87.1269 245.841 87.387 244.744L96.372 208.491C96.7491 206.937 95.5788 205.447 93.9925 205.447H68.0516C66.9333 205.447 65.9451 206.218 65.6721 207.302L56.7 243.568C56.3229 245.11 57.4932 246.612 59.0796 246.612Z" fill="#FF9F78"/>
<path d="M92.1459 223.972L91.2747 227.63L88.141 226.585C86.4116 226.01 84.7602 225.239 83.1999 224.299L81.4055 223.201C80.0532 222.391 78.3108 223.018 77.7907 224.508C76.6854 227.656 76.9065 232.947 88.193 236.265C94.4214 238.094 96.2158 230.099 95.4097 225.657C95.2016 224.521 94.6425 223.789 94.0704 223.332C93.3812 222.783 92.367 223.123 92.1459 223.972Z" fill="white"/>
<path d="M80.132 223.553C79.924 223.553 79.7289 223.58 79.5339 223.658C79.0268 223.841 78.6367 224.233 78.4547 224.742C77.8565 226.441 77.9345 228.034 78.6757 229.485C79.976 232.019 83.2397 234.07 88.3889 235.585C90.0273 236.069 91.4056 235.821 92.4848 234.841C94.5393 232.986 95.2415 228.701 94.7083 225.774C94.5653 224.977 94.2012 224.337 93.6291 223.88C93.4341 223.723 93.239 223.776 93.161 223.802C93.083 223.828 92.9009 223.906 92.8359 224.141L91.9647 227.799C91.9127 227.995 91.7957 228.152 91.6266 228.257C91.4446 228.348 91.2366 228.361 91.0545 228.309L87.9208 227.264C86.1394 226.663 84.436 225.879 82.8366 224.899L81.0292 223.802C80.7562 223.632 80.4441 223.553 80.132 223.553ZM89.9233 237.245C89.3121 237.245 88.662 237.14 87.9988 236.944C82.4596 235.324 78.8968 233.025 77.4274 230.138C76.5042 228.348 76.4132 226.323 77.1284 224.272C77.4534 223.358 78.1556 222.652 79.0658 222.325C79.963 221.999 80.9512 222.103 81.7704 222.6L83.5648 223.684C85.0732 224.612 86.6855 225.356 88.3629 225.918L90.7684 226.715L91.4576 223.815C91.4576 223.802 91.4576 223.802 91.4706 223.802C91.6266 223.162 92.0947 222.665 92.7059 222.456C93.33 222.247 94.0062 222.365 94.5133 222.783C95.3455 223.449 95.8916 224.403 96.0997 225.526C96.6978 228.844 95.9696 233.6 93.421 235.899C92.4328 236.787 91.2496 237.245 89.9233 237.245Z" fill="black"/>
<path d="M32.1755 202.978C30.8752 204.31 29.3929 205.46 27.7805 206.374C22.3453 209.483 9.32933 217.008 6.1046 219.778C1.98266 223.305 0.006212 224.625 3.32196 233.704C8.71819 248.506 33.8919 210.515 33.8919 210.515C33.8919 210.515 41.2906 211.848 42.955 205.355C42.955 205.355 46.8038 206.074 48.4162 205.381C49.6515 204.846 49.5995 202.755 47.9481 202.52L37.3117 200.535C35.8423 200.273 34.347 200.757 33.3068 201.815L32.1755 202.978Z" fill="white"/>
<path d="M32.1776 202.978L32.6847 203.474C31.3324 204.859 29.8111 206.035 28.1337 206.988C22.7115 210.084 9.74752 217.583 6.5618 220.314L6.19772 220.627C2.37485 223.893 0.944523 225.121 3.98721 233.456C4.65037 235.272 5.61258 236.239 6.93888 236.395C7.06891 236.408 7.21195 236.421 7.35498 236.421C14.3376 236.421 28.3937 217.544 33.3089 210.124C33.4649 209.888 33.751 209.758 34.024 209.81C34.2971 209.862 40.7986 210.947 42.2679 205.185C42.3589 204.82 42.723 204.584 43.0871 204.663C44.1013 204.846 46.988 205.238 48.1322 204.728C48.4833 204.584 48.6003 204.179 48.5613 203.879C48.5353 203.67 48.3923 203.291 47.8592 203.226L37.1837 201.227C35.9485 201.005 34.6872 201.41 33.816 202.311L32.6847 203.474L32.1776 202.978ZM7.31597 237.832C7.12092 237.832 6.95189 237.819 6.76985 237.806C4.89742 237.571 3.5061 236.278 2.66091 233.939C-0.589825 225.03 1.00954 223.201 5.27451 219.543L5.63859 219.242C8.91533 216.434 21.9833 208.883 27.4315 205.76C28.9919 204.872 30.4222 203.774 31.6705 202.494L32.8017 201.332C34.011 200.09 35.7404 199.529 37.4438 199.842L48.0802 201.828C49.0684 201.959 49.8226 202.703 49.9526 203.696C50.0957 204.689 49.5756 205.656 48.7044 206.035C47.3 206.636 44.6864 206.335 43.4512 206.152C41.6568 211.574 35.9355 211.43 34.2451 211.26C31.9826 214.618 16.054 237.832 7.31597 237.832Z" fill="black"/>
<path d="M56.831 167.143L57.6241 178.248C57.7932 179.685 58.8334 180.873 60.2377 181.239L64.1256 182.258L61.603 184.179C56.0118 188.451 48.262 188.464 42.6577 184.205L38.6528 181.161L43.4899 180.09C44.8812 179.776 45.9475 178.653 46.1945 177.255L48.34 162.571L56.831 167.143Z" fill="white"/>
<path d="M40.2914 181.526L43.074 183.642C48.4052 187.692 55.8559 187.679 61.1741 183.616L62.5525 182.571L60.0559 181.931C58.3655 181.487 57.1302 180.076 56.9222 178.325L56.142 167.574L48.8863 163.668L46.8969 177.359C46.5978 179.07 45.3105 180.403 43.6462 180.768L40.2914 181.526ZM52.1241 188.084C48.6263 188.084 45.1415 186.974 42.2288 184.766L38.2369 181.735C38.0159 181.565 37.9119 181.278 37.9639 181.017C38.0289 180.742 38.2369 180.533 38.51 180.468L43.3341 179.397C44.4523 179.148 45.2975 178.26 45.5056 177.124L47.6381 162.466C47.6641 162.231 47.8071 162.035 48.0152 161.93C48.2232 161.826 48.4703 161.839 48.6653 161.943L57.1562 166.516C57.3773 166.633 57.5073 166.842 57.5333 167.09L58.3265 178.195C58.4695 179.318 59.2887 180.259 60.42 180.559L64.3078 181.578C64.5679 181.644 64.763 181.853 64.828 182.114C64.88 182.388 64.776 182.663 64.5549 182.819L62.0323 184.753C59.1197 186.974 55.6219 188.084 52.1241 188.084Z" fill="black"/>
<path d="M69.4034 151.688C66.7508 150.277 68.8963 154.68 60.1323 147.076C56.6475 144.059 56.5175 149.702 55.6073 148.918C52.2655 146.031 52.3826 146.123 50.2631 145.757C48.8718 145.509 46.9994 147.442 46.4402 149.284C45.6991 151.701 47.3114 153.138 46.7653 158.716C46.3752 162.623 45.1529 164.543 46.2712 165.653C47.4154 166.777 49.2619 165.405 50.5882 166.529C52.3176 168.005 50.3541 171.258 51.6284 173.57C52.4346 175.033 55.0742 176.745 60.6264 176.614C61.5236 176.588 62.2778 175.922 62.4339 175.033C62.6159 173.884 62.8499 172.447 62.954 171.036C63.4481 164.36 62.0178 162.152 63.4221 161.003C65.5936 159.265 69.2604 162.518 70.8338 160.977C72.4461 159.383 73.0573 153.622 69.4034 151.688Z" fill="black"/>
<path d="M56.168 155.438L56.272 157.254C56.324 158.116 56.324 158.978 56.246 159.84C56.1289 161.447 55.9339 164.217 55.9469 165.771C55.9599 168.071 63.0205 168.515 63.0205 168.515L63.9177 167.509L64.7499 167.548C64.9059 167.561 65.075 167.522 65.218 167.457C65.5691 167.261 65.7511 166.882 65.6861 166.516C65.348 164.491 64.7629 160.023 65.4131 156.548C65.4131 156.548 61.4862 153.361 56.168 155.438Z" fill="white"/>
<path d="M56.8958 155.921L56.9738 157.214C57.0259 158.102 57.0259 159.004 56.9608 159.892C56.8308 161.421 56.6358 164.216 56.6488 165.771C56.6618 166.698 59.7955 167.548 62.7211 167.783L63.3973 167.038C63.5273 166.881 63.7354 166.803 63.9434 166.803L64.7756 166.842C64.8276 166.842 64.8666 166.829 64.8926 166.829C64.9837 166.777 64.9967 166.685 64.9837 166.633C64.6196 164.425 64.1125 160.297 64.6456 156.874C63.6834 156.234 60.7447 154.64 56.8958 155.921ZM63.0202 169.22C63.0072 169.22 62.9942 169.22 62.9812 169.22C61.1608 169.102 55.2575 168.514 55.2314 165.784C55.2314 164.177 55.4265 161.329 55.5435 159.774C55.6085 158.951 55.6215 158.128 55.5695 157.305L55.4525 155.476C55.4395 155.163 55.6215 154.889 55.9076 154.771C61.5509 152.576 65.6858 155.868 65.8549 155.999C66.0629 156.169 66.1539 156.43 66.1019 156.678C65.4778 160.101 66.0889 164.621 66.388 166.398C66.492 167.077 66.1539 167.757 65.5428 168.083C65.2957 168.214 65.0097 168.266 64.7106 168.253L64.2165 168.24L63.5403 168.985C63.4103 169.141 63.2153 169.22 63.0202 169.22Z" fill="black"/>
<path d="M54.9181 161.054C54.9181 161.054 54.658 156.665 52.6946 157.226C50.7311 157.775 51.1472 162.596 54.9181 161.054Z" fill="white"/>
<path d="M331.322 57.1706C331.179 57.1706 331.035 57.1314 330.905 57.04C330.593 56.8048 330.528 56.3607 330.749 56.0471L334.065 51.4617C334.299 51.1481 334.741 51.0828 335.053 51.3049C335.378 51.54 335.443 51.9842 335.222 52.2978L331.894 56.8832C331.764 57.0661 331.543 57.1706 331.322 57.1706ZM324.69 66.3416C324.547 66.3416 324.404 66.3024 324.274 66.2109C323.962 65.9758 323.884 65.5316 324.118 65.2181L327.434 60.6326C327.668 60.3191 328.11 60.2407 328.422 60.4758C328.734 60.711 328.812 61.1421 328.578 61.4687L325.262 66.0411C325.119 66.2371 324.911 66.3416 324.69 66.3416ZM318.046 75.5125C317.902 75.5125 317.759 75.4602 317.642 75.3688C317.317 75.1467 317.252 74.7025 317.473 74.3759L320.802 69.8035C321.023 69.49 321.465 69.4116 321.777 69.6468C322.102 69.8688 322.167 70.313 321.946 70.6266L318.618 75.212C318.488 75.408 318.267 75.5125 318.046 75.5125ZM311.414 84.6704C311.271 84.6704 311.128 84.6312 310.998 84.5397C310.686 84.3046 310.608 83.8604 310.842 83.5469L314.158 78.9614C314.392 78.6479 314.834 78.5825 315.146 78.8046C315.458 79.0398 315.536 79.484 315.302 79.7975L311.986 84.383C311.843 84.5659 311.635 84.6704 311.414 84.6704ZM304.77 93.8413C304.626 93.8413 304.483 93.8021 304.353 93.7107C304.041 93.4755 303.976 93.0313 304.21 92.7178L307.526 88.1323C307.747 87.8188 308.189 87.7404 308.501 87.9756C308.826 88.2107 308.891 88.6418 308.67 88.9684L305.342 93.5408C305.212 93.7368 304.991 93.8413 304.77 93.8413ZM298.138 103.012C297.995 103.012 297.852 102.96 297.722 102.869C297.41 102.646 297.332 102.202 297.566 101.889L300.882 97.3033C301.116 96.9897 301.558 96.9113 301.87 97.1465C302.182 97.3686 302.26 97.8128 302.026 98.1263L298.71 102.712C298.567 102.908 298.359 103.012 298.138 103.012ZM291.507 112.17C291.35 112.17 291.207 112.131 291.09 112.039C290.765 111.804 290.7 111.36 290.934 111.047L294.25 106.461C294.471 106.148 294.913 106.082 295.238 106.304C295.55 106.54 295.615 106.984 295.394 107.297L292.066 111.883C291.936 112.066 291.715 112.17 291.507 112.17ZM284.862 121.341C284.719 121.341 284.576 121.302 284.446 121.21C284.134 120.975 284.056 120.531 284.29 120.218L287.606 115.632C287.84 115.319 288.282 115.24 288.594 115.475C288.919 115.71 288.984 116.142 288.75 116.468L285.434 121.054C285.291 121.237 285.083 121.341 284.862 121.341ZM278.23 130.512C278.074 130.512 277.931 130.46 277.814 130.368C277.489 130.146 277.424 129.702 277.658 129.388L280.974 124.803C281.195 124.489 281.637 124.411 281.962 124.646C282.274 124.868 282.339 125.312 282.118 125.626L278.79 130.212C278.66 130.407 278.439 130.512 278.23 130.512Z" fill="white"/>
<path d="M244.397 53.0939C244.371 53.0939 244.332 53.0939 244.306 53.0939C243.916 53.0416 243.643 52.6889 243.695 52.297L244.41 46.6795C244.462 46.2876 244.813 46.0132 245.203 46.0655C245.58 46.1177 245.853 46.4704 245.814 46.8624L245.099 52.4799C245.047 52.8326 244.748 53.0939 244.397 53.0939ZM242.967 64.3289C242.941 64.3289 242.915 64.3289 242.876 64.3289C242.499 64.2767 242.212 63.924 242.264 63.532L242.98 57.9145C243.032 57.5226 243.383 57.2483 243.773 57.3005C244.163 57.3528 244.436 57.7055 244.384 58.0974L243.669 63.7149C243.63 64.0677 243.318 64.3289 242.967 64.3289ZM241.549 75.564C241.51 75.564 241.484 75.564 241.445 75.564C241.068 75.5117 240.795 75.159 240.834 74.7671L241.549 69.1496C241.601 68.7576 241.952 68.4833 242.342 68.5356C242.733 68.5878 243.006 68.9405 242.954 69.3325L242.238 74.95C242.199 75.3027 241.887 75.564 241.549 75.564ZM240.119 86.799C240.08 86.799 240.054 86.799 240.028 86.799C239.638 86.7468 239.365 86.3941 239.417 86.0021L240.132 80.3846C240.171 79.9927 240.535 79.7314 240.912 79.7706C241.302 79.8229 241.575 80.1756 241.523 80.5675L240.808 86.185C240.769 86.5378 240.457 86.799 240.119 86.799ZM238.689 98.0341C238.663 98.0341 238.624 98.0341 238.598 98.0341C238.208 97.9818 237.934 97.6291 237.986 97.2372L238.702 91.6197C238.754 91.2277 239.105 90.9665 239.482 91.0057C239.872 91.0579 240.145 91.4106 240.106 91.8026L239.391 97.4201C239.339 97.7728 239.04 98.0341 238.689 98.0341ZM237.258 109.269C237.232 109.269 237.206 109.269 237.167 109.269C236.777 109.217 236.504 108.864 236.556 108.472L237.271 102.855C237.323 102.463 237.674 102.188 238.064 102.241C238.455 102.293 238.728 102.646 238.676 103.038L237.96 108.655C237.921 109.008 237.609 109.269 237.258 109.269Z" fill="white"/>
<path d="M177.368 57.3535C177.043 57.3535 176.744 57.1184 176.679 56.7787L175.626 51.2134C175.561 50.8346 175.808 50.4557 176.198 50.3904C176.575 50.312 176.952 50.5733 177.017 50.9521L178.07 56.5174C178.135 56.8963 177.888 57.2751 177.498 57.3404C177.459 57.3535 177.42 57.3535 177.368 57.3535ZM179.461 68.484C179.136 68.484 178.837 68.2489 178.772 67.9092L177.732 62.344C177.654 61.9651 177.901 61.5863 178.291 61.5209C178.681 61.4425 179.045 61.7038 179.11 62.0827L180.164 67.6479C180.229 68.0399 179.982 68.4057 179.604 68.471C179.552 68.484 179.513 68.484 179.461 68.484ZM181.555 79.6146C181.23 79.6146 180.931 79.3794 180.866 79.0398L179.826 73.4745C179.748 73.0956 179.995 72.7168 180.385 72.6515C180.762 72.5731 181.139 72.8344 181.204 73.2132L182.257 78.7785C182.322 79.1573 182.075 79.5362 181.698 79.6015C181.646 79.6146 181.607 79.6146 181.555 79.6146ZM183.648 90.7451C183.323 90.7451 183.024 90.51 182.959 90.1703L181.919 84.605C181.841 84.2262 182.088 83.8473 182.478 83.782C182.868 83.7036 183.232 83.9649 183.297 84.3438L184.351 89.909C184.429 90.2879 184.169 90.6667 183.791 90.732C183.739 90.7451 183.7 90.7451 183.648 90.7451ZM185.755 101.876C185.417 101.876 185.118 101.64 185.053 101.301L184.012 95.7356C183.934 95.3567 184.195 94.9778 184.572 94.9125C184.949 94.8341 185.326 95.0824 185.391 95.4743L186.444 101.04C186.522 101.418 186.262 101.797 185.885 101.863C185.833 101.876 185.794 101.876 185.755 101.876ZM187.848 113.006C187.51 113.006 187.211 112.771 187.146 112.431L186.106 106.866C186.028 106.487 186.288 106.108 186.665 106.043C187.055 105.965 187.419 106.213 187.484 106.605L188.538 112.17C188.616 112.549 188.355 112.928 187.978 112.993C187.926 113.006 187.887 113.006 187.848 113.006ZM189.942 124.137C189.604 124.137 189.305 123.902 189.24 123.562L188.199 117.997C188.121 117.605 188.381 117.239 188.759 117.174C189.149 117.095 189.513 117.343 189.591 117.735L190.631 123.301C190.709 123.679 190.449 124.058 190.072 124.124C190.02 124.137 189.981 124.137 189.942 124.137Z" fill="white"/>
<path d="M98.0627 43.1391C97.8157 43.1391 97.5686 42.9954 97.4386 42.7603L95.3711 38.8149C95.1891 38.4753 95.3191 38.0441 95.6702 37.8613C96.0213 37.6784 96.4374 37.809 96.6194 38.1617L98.6869 42.094C98.8689 42.4467 98.7389 42.8648 98.4008 43.0477C98.2968 43.113 98.1798 43.1391 98.0627 43.1391ZM103.329 53.1592C103.082 53.1592 102.835 53.0155 102.705 52.7804L100.078 47.7638C99.8962 47.4241 100.026 46.993 100.377 46.8101C100.715 46.6272 101.144 46.7578 101.326 47.1106L103.953 52.1141C104.135 52.4668 104.005 52.8979 103.667 53.0808C103.55 53.1331 103.446 53.1592 103.329 53.1592ZM108.595 63.1793C108.348 63.1793 108.101 63.0356 107.971 62.8004L105.344 57.7839C105.162 57.4442 105.292 57.0131 105.63 56.8302C105.982 56.6473 106.411 56.791 106.593 57.1307L109.219 62.1472C109.401 62.4869 109.271 62.918 108.92 63.1009C108.816 63.1532 108.712 63.1793 108.595 63.1793ZM113.861 73.1994C113.601 73.1994 113.367 73.0688 113.237 72.8205L110.598 67.817C110.416 67.4643 110.559 67.0332 110.897 66.8634C111.248 66.6805 111.677 66.8111 111.859 67.1508L114.485 72.1673C114.667 72.507 114.537 72.9381 114.186 73.121C114.082 73.1733 113.965 73.1994 113.861 73.1994ZM119.128 83.2195C118.867 83.2195 118.62 83.0889 118.503 82.8406L115.864 77.8371C115.682 77.4844 115.812 77.0663 116.163 76.8834C116.514 76.7006 116.93 76.8312 117.112 77.1709L119.752 82.1874C119.934 82.5402 119.791 82.9582 119.453 83.1411C119.349 83.1934 119.232 83.2195 119.128 83.2195ZM124.381 93.2527C124.134 93.2527 123.887 93.1089 123.757 92.8738L121.13 87.8572C120.948 87.5045 121.078 87.0864 121.429 86.9035C121.767 86.7206 122.196 86.8513 122.378 87.1909L125.018 92.2075C125.187 92.5603 125.057 92.9783 124.719 93.1612C124.615 93.2265 124.498 93.2527 124.381 93.2527ZM129.647 103.273C129.4 103.273 129.153 103.129 129.023 102.894L126.396 97.8773C126.214 97.5376 126.344 97.1065 126.682 96.9236C127.033 96.7407 127.462 96.8714 127.644 97.2241L130.271 102.228C130.453 102.58 130.323 103.011 129.985 103.181C129.868 103.247 129.764 103.273 129.647 103.273ZM134.913 113.293C134.666 113.293 134.419 113.149 134.289 112.914L131.662 107.897C131.48 107.558 131.61 107.127 131.948 106.944C132.299 106.761 132.729 106.905 132.911 107.244L135.537 112.248C135.719 112.6 135.589 113.032 135.238 113.214C135.134 113.267 135.03 113.293 134.913 113.293ZM140.179 123.313C139.919 123.313 139.672 123.182 139.555 122.934L136.916 117.931C136.734 117.578 136.877 117.147 137.215 116.964C137.566 116.794 137.995 116.925 138.164 117.264L140.803 122.281C140.985 122.621 140.855 123.052 140.504 123.235C140.4 123.287 140.283 123.313 140.179 123.313ZM145.445 133.333C145.185 133.333 144.938 133.202 144.821 132.954L142.182 127.951C142 127.598 142.13 127.18 142.481 126.997C142.819 126.814 143.248 126.945 143.43 127.284L146.07 132.301C146.252 132.641 146.109 133.072 145.771 133.255C145.667 133.307 145.549 133.333 145.445 133.333Z" fill="white"/>
<path d="M59.2611 109.779C59.1181 109.779 58.962 109.726 58.832 109.622L54.593 106.291C54.294 106.042 54.2419 105.598 54.476 105.298C54.7231 104.984 55.1652 104.932 55.4642 105.18L59.7032 108.511C60.0153 108.76 60.0673 109.204 59.8202 109.504C59.6772 109.687 59.4691 109.779 59.2611 109.779ZM68.1421 116.781C67.9861 116.781 67.843 116.742 67.713 116.637L63.266 113.136C62.9669 112.888 62.9149 112.444 63.149 112.13C63.396 111.83 63.8381 111.777 64.1372 112.013L68.5842 115.527C68.8833 115.762 68.9353 116.206 68.7012 116.52C68.5582 116.689 68.3501 116.781 68.1421 116.781ZM77.0231 123.783C76.8671 123.783 76.7241 123.744 76.594 123.64L72.147 120.138C71.8479 119.89 71.7829 119.446 72.03 119.146C72.277 118.832 72.7191 118.78 73.0182 119.028L77.4652 122.529C77.7643 122.764 77.8163 123.208 77.5822 123.522C77.4392 123.692 77.2312 123.783 77.0231 123.783ZM85.9041 130.799C85.7481 130.799 85.5921 130.746 85.475 130.642L81.028 127.141C80.716 126.906 80.6639 126.461 80.911 126.148C81.1581 125.834 81.6002 125.782 81.8992 126.03L86.3462 129.531C86.6453 129.78 86.6973 130.224 86.4633 130.524C86.3202 130.707 86.1122 130.799 85.9041 130.799ZM94.7851 137.801C94.6291 137.801 94.4731 137.749 94.343 137.657L89.909 134.143C89.597 133.908 89.545 133.464 89.792 133.15C90.0261 132.85 90.4812 132.797 90.7802 133.033L95.2272 136.534C95.5263 136.782 95.5783 137.226 95.3443 137.527C95.2012 137.709 94.9932 137.801 94.7851 137.801ZM103.666 144.803C103.51 144.803 103.354 144.764 103.224 144.66L98.7901 141.158C98.478 140.91 98.426 140.466 98.673 140.152C98.9071 139.852 99.3622 139.8 99.6613 140.048L104.108 143.549C104.407 143.784 104.459 144.228 104.225 144.542C104.082 144.712 103.874 144.803 103.666 144.803ZM112.547 151.819C112.391 151.819 112.235 151.766 112.105 151.662L107.671 148.161C107.359 147.912 107.307 147.468 107.554 147.168C107.788 146.854 108.23 146.802 108.542 147.05L112.976 150.551C113.288 150.787 113.34 151.231 113.106 151.544C112.963 151.714 112.755 151.819 112.547 151.819ZM121.428 158.821C121.272 158.821 121.116 158.769 120.986 158.664L116.552 155.163C116.24 154.928 116.188 154.484 116.435 154.17C116.669 153.87 117.111 153.817 117.423 154.053L121.857 157.554C122.169 157.802 122.221 158.246 121.974 158.547C121.844 158.729 121.636 158.821 121.428 158.821Z" fill="white"/>
<path d="M26.2858 113.045C16.6506 103.522 16.5206 87.9231 25.9738 78.2165C35.4269 68.51 50.9004 68.3663 60.5356 77.8899C70.1578 87.4267 70.3008 103.025 60.8477 112.732C51.3945 122.438 35.921 122.582 26.2858 113.045Z" fill="#5479F7"/>
<path d="M59.4951 94.6244L42.8903 111.673C42.0191 112.574 40.5758 112.587 39.6786 111.699L28.0019 100.137C27.1047 99.2621 27.0917 97.812 27.9759 96.9106L44.5807 79.862C45.4519 78.9606 46.8952 78.9476 47.7924 79.8359L59.469 91.3845C60.3662 92.2729 60.3793 93.723 59.4951 94.6244Z" fill="white"/>
<path d="M33.8809 99.3792C33.5558 99.3792 33.2568 99.144 33.1917 98.8174C33.1137 98.4386 33.3478 98.0597 33.7249 97.9683L44.3223 95.6429C44.7123 95.5645 45.0894 95.8127 45.1674 96.1916C45.2455 96.5704 45.0114 96.9493 44.6343 97.0277L34.0369 99.3531C33.9849 99.3661 33.9329 99.3792 33.8809 99.3792Z" fill="black"/>
<path d="M44.5151 97.0021C44.476 97.0021 44.424 97.0021 44.385 96.989C43.9949 96.9107 43.7479 96.5449 43.8259 96.1529L45.9324 85.4405C46.0104 85.0485 46.3875 84.8003 46.7646 84.8787C47.1547 84.9571 47.4017 85.3229 47.3237 85.7148L45.2172 96.4273C45.1522 96.7669 44.8531 97.0021 44.5151 97.0021Z" fill="black"/>
<path d="M74.2663 43.4148C64.6312 33.878 64.4881 18.2927 73.9543 8.58612C83.4074 -1.13351 98.8809 -1.26414 108.516 8.25952C118.138 17.7962 118.281 33.3816 108.828 43.1012C99.375 52.8078 83.9015 52.9515 74.2663 43.4148Z" fill="#5479F7"/>
<path d="M89.2867 41.9241V38.1617C86.6341 38.0441 84.0725 37.3256 82.5771 36.4503L83.7604 31.8256C85.4118 32.7401 87.7393 33.5631 90.3139 33.5631C92.5634 33.5631 94.0978 32.7009 94.0978 31.1202C94.0978 29.6048 92.8365 28.6641 89.9108 27.6713C85.6849 26.2473 82.8112 24.2746 82.8112 20.4338C82.8112 16.9457 85.2558 14.2153 89.4817 13.3793V9.62988H93.3566V13.1049C95.9962 13.2225 97.7776 13.7842 99.0779 14.4113L97.9336 18.8792C96.9064 18.4481 95.086 17.5336 92.2513 17.5336C89.6768 17.5336 88.8446 18.644 88.8446 19.7545C88.8446 21.0609 90.2359 21.897 93.5906 23.1642C98.2847 24.8233 100.183 26.992 100.183 30.5584C100.183 34.0857 97.6996 37.0904 93.1485 37.8743V41.9241H89.2867Z" fill="white"/>
<path d="M328.138 57.5491C318.503 48.0254 318.36 32.427 327.813 22.7204C337.279 13.0139 352.753 12.8702 362.375 22.3938C372.01 31.9306 372.153 47.529 362.7 57.2355C353.234 66.9421 337.773 67.0858 328.138 57.5491Z" fill="#5479F7"/>
<path d="M359.928 30.2582L350.735 33.0147C350.28 33.1453 350.137 33.7201 350.462 34.0598L351.957 35.6536L346.821 40.5657C346.275 41.0752 345.417 41.0621 344.91 40.5134L342.738 38.2011C340.723 36.0847 337.381 35.9933 335.274 38.0182L329.124 43.8839C328.994 45.0074 328.968 46.2224 329.085 47.5419C329.15 48.3518 329.241 49.1095 329.358 49.8411L337.966 41.5847C338.499 41.0621 339.357 41.0882 339.864 41.6239L342.062 43.9362C344.077 46.0526 347.406 46.1309 349.513 44.1191L355 38.8804L356.573 40.5657C356.898 40.9053 357.47 40.7878 357.626 40.3305L360.786 31.1596C360.968 30.6109 360.474 30.0883 359.928 30.2582Z" fill="white"/>
<path d="M229.548 43.0481C219.913 33.5244 219.77 17.926 229.223 8.21946C238.689 -1.4871 254.162 -1.6308 263.785 7.89286C273.42 17.4296 273.563 33.028 264.11 42.7346C254.657 52.4411 239.183 52.5848 229.548 43.0481Z" fill="#5479F7"/>
<path d="M258.583 12.2559H234.97C234.45 12.2559 234.034 12.6608 234.034 13.1703V28.7296C234.034 29.226 234.45 29.631 234.97 29.631H258.583C259.103 29.631 259.519 29.226 259.519 28.7296V13.1703C259.519 12.6608 259.103 12.2559 258.583 12.2559Z" fill="#CADDFF"/>
<path d="M234.971 12.9617C234.841 12.9617 234.737 13.0531 234.737 13.1707V28.73C234.737 28.8345 234.841 28.9259 234.971 28.9259H258.584C258.701 28.9259 258.818 28.8345 258.818 28.73V13.1707C258.818 13.0531 258.714 12.9617 258.584 12.9617H234.971ZM258.584 30.3499H234.971C234.061 30.3499 233.319 29.6183 233.319 28.73V13.1707C233.319 12.2824 234.061 11.5508 234.971 11.5508H258.584C259.494 11.5508 260.235 12.2824 260.235 13.1707V28.73C260.235 29.6183 259.494 30.3499 258.584 30.3499Z" fill="black"/>
<path d="M262.718 32.793H230.848C230.523 32.793 230.25 33.1849 230.25 33.6683V33.8773C230.25 34.7264 230.718 35.4188 231.303 35.4188H262.263C262.848 35.4188 263.316 34.7264 263.316 33.8773V33.6683C263.316 33.1849 263.043 32.793 262.718 32.793Z" fill="white"/>
<path d="M156.511 50.4944C146.889 40.9707 146.746 25.3723 156.199 15.6658C165.653 5.95919 181.126 5.81549 190.761 15.3392C200.396 24.8759 200.539 40.4743 191.073 50.1809C181.62 59.8874 166.147 60.0311 156.511 50.4944Z" fill="#5479F7"/>
<path d="M162.349 21.8579H184.181C186.587 21.8579 188.394 23.7783 188.394 26.1821V35.6666C188.394 38.0703 186.574 40.0561 184.181 40.0561V40.1083C184.155 40.1083 183.557 40.1083 182.426 40.1083V48.208L177.081 40.1083C168.981 40.1083 162.349 40.1083 162.349 40.1083C159.957 40.1083 157.954 38.0703 157.954 35.6666V26.1821C157.954 23.7783 159.957 21.8579 162.349 21.8579Z" fill="white"/>
<path d="M354.014 341.417C353.806 341.417 353.598 341.325 353.455 341.142C353.22 340.829 353.285 340.385 353.585 340.15C375.989 323.153 385.845 301.807 383.712 274.921C383.686 274.529 383.972 274.189 384.363 274.163C384.753 274.137 385.091 274.425 385.13 274.803C387.288 302.225 377.263 323.963 354.443 341.286C354.313 341.378 354.17 341.417 354.014 341.417Z" fill="black"/>
<path d="M363.934 322.892C363.778 322.892 363.635 322.839 363.505 322.748C363.193 322.5 363.128 322.055 363.375 321.755C376.183 305.007 380.395 286.299 376.261 264.574C376.183 264.195 376.443 263.816 376.82 263.751C377.21 263.672 377.574 263.921 377.652 264.313C381.865 286.456 377.561 305.529 364.493 322.617C364.35 322.787 364.142 322.892 363.934 322.892Z" fill="black"/>
<path d="M204.27 320.723C203.931 318.96 197.365 319.548 196.923 317.797C196.533 316.19 202.228 310.533 201.76 308.94C198.938 299.39 194.595 291.996 188.575 283.034C188.133 282.381 187.184 282.328 186.69 282.955C183.413 287.044 172.958 301.349 166.704 324.407C166.327 325.818 172.269 332.455 171.931 333.918C171.58 335.394 164.793 333.526 164.481 335.055C161.477 349.882 160.645 365.703 164.272 384.045C175.624 387.82 187.483 390.028 199.159 390.368C205.141 370.38 209.328 346.446 204.27 320.723Z" fill="#99B9FF"/>
<path d="M179.305 294.621C179.188 294.621 179.058 294.595 178.954 294.53C178.616 294.334 178.499 293.903 178.694 293.563C180.189 291.003 181.737 288.56 183.31 286.313C183.531 285.986 183.973 285.908 184.298 286.13C184.61 286.365 184.688 286.796 184.467 287.123C182.92 289.344 181.386 291.747 179.916 294.282C179.786 294.504 179.552 294.621 179.305 294.621Z" fill="#CADDFF"/>
<path d="M194.258 292.675C194.011 292.675 193.777 292.558 193.647 292.336C192.541 290.428 191.254 288.39 189.746 286.078C189.538 285.752 189.629 285.32 189.954 285.098C190.279 284.889 190.721 284.981 190.929 285.307C192.45 287.633 193.738 289.697 194.869 291.617C195.064 291.944 194.947 292.388 194.609 292.584C194.505 292.649 194.375 292.675 194.258 292.675Z" fill="#CADDFF"/>
<path d="M180.879 383.3C180.84 383.3 180.801 383.3 180.762 383.287C180.385 383.222 180.125 382.869 180.177 382.477C181.581 373.829 182.764 365.037 183.7 356.336C183.739 355.944 184.09 355.657 184.481 355.709C184.871 355.748 185.144 356.101 185.105 356.48C184.168 365.207 182.972 374.038 181.581 382.7C181.516 383.052 181.217 383.3 180.879 383.3Z" fill="#CADDFF"/>
<path d="M185.586 344.643C185.573 344.643 185.547 344.643 185.534 344.643C185.144 344.617 184.858 344.264 184.884 343.885C186.093 329.162 186.665 314.23 186.561 299.468L186.522 292.701C186.509 292.322 186.834 291.995 187.211 291.995C187.224 291.995 187.224 291.995 187.224 291.995C187.615 291.995 187.927 292.309 187.927 292.701L187.979 299.468C188.083 314.256 187.511 329.241 186.301 344.003C186.262 344.369 185.95 344.643 185.586 344.643Z" fill="#CADDFF"/>
<path d="M112.392 350.17C126.344 366.631 138.541 381.772 168.811 385.456C163.896 373.646 148.852 347.557 112.392 350.17Z" fill="#99B9FF"/>
<path d="M269.546 383.77C290.806 363.234 299.908 339.313 299.908 339.313C291.911 339.927 284.734 341.182 277.53 343.011C276.581 343.259 274.487 350.091 273.551 350.353C272.511 350.64 270.079 345.088 269.052 345.401C233.424 356.166 209.902 378.701 200.657 388.904C223.217 393.882 247.48 392.04 269.546 383.77Z" fill="#99B9FF"/>
<path d="M247.167 377.108C246.933 377.108 246.712 376.99 246.569 376.794C246.361 376.467 246.439 376.023 246.764 375.801L293.249 344.774C293.574 344.565 294.003 344.644 294.224 344.97C294.445 345.297 294.354 345.741 294.029 345.95L247.557 376.99C247.427 377.068 247.297 377.108 247.167 377.108Z" fill="#CADDFF"/>
<path d="M311.233 175.542C310.323 175.176 307.072 174.183 305.083 171.139C303.666 168.997 299.128 164.751 300.727 162.569C301.13 162.021 305.72 159.016 311.91 159.277C319.763 159.604 323.703 162.87 323.703 162.87C330.14 166.28 328.033 171.832 334.743 174.823C337.122 175.895 346.094 175.477 351.907 181.865C361.347 192.238 365.105 198.678 346.536 210.266C333.989 218.105 330.504 210.371 321.623 200.546C307.111 184.517 322.052 179.984 311.233 175.542Z" fill="black"/>
<path d="M315.901 359.942L316.317 375.436L321.778 376.037L324.483 359.354L315.901 359.942Z" fill="white"/>
<path d="M317.007 374.808L321.194 375.252L323.651 360.111L316.629 360.595L317.007 374.808ZM321.779 376.742C321.766 376.742 321.727 376.742 321.714 376.742L316.239 376.141C315.888 376.101 315.628 375.814 315.615 375.461L315.199 359.954C315.186 359.576 315.472 359.262 315.849 359.236L324.431 358.648C324.652 358.622 324.86 358.713 325.003 358.87C325.159 359.027 325.211 359.249 325.185 359.458L322.481 376.141C322.429 376.493 322.13 376.742 321.779 376.742Z" fill="black"/>
<path d="M284.902 365.023L284.031 377.369L291.26 377.97L293.835 365.023H284.902Z" fill="white"/>
<path d="M284.784 376.729L290.687 377.212L292.963 365.729H285.564L284.784 376.729ZM291.247 378.675C291.234 378.675 291.208 378.675 291.195 378.675L283.978 378.074C283.588 378.048 283.302 377.708 283.328 377.33L284.199 364.984C284.225 364.605 284.537 364.318 284.901 364.318H293.834C294.042 364.318 294.237 364.409 294.38 364.579C294.51 364.749 294.562 364.958 294.523 365.167L291.949 378.1C291.884 378.44 291.585 378.675 291.247 378.675Z" fill="black"/>
<path d="M293.184 383.287C293.679 382.947 293.991 382.386 294.004 381.785C294.056 379.969 294.056 376.115 293.328 374.665C292.365 372.744 288.373 375.423 288.373 375.423C288.373 375.423 286.033 372.183 284.668 371.49C283.952 371.138 279.817 373.907 275.644 377.67C271.066 381.798 268.999 383.117 268.011 386.684C267.543 388.343 268.765 390.028 270.494 390.159C274.694 390.459 283.185 389.95 293.184 383.287Z" fill="#5479F7"/>
<path d="M284.446 372.183C283.666 372.327 280.298 374.417 276.111 378.205C275.383 378.859 274.72 379.433 274.122 379.969C270.923 382.791 269.467 384.071 268.687 386.867C268.531 387.442 268.635 388.069 268.986 388.565C269.35 389.088 269.922 389.401 270.546 389.453C274.629 389.741 282.951 389.258 292.794 382.699C293.093 382.49 293.288 382.151 293.301 381.772C293.392 378.441 293.158 375.906 292.703 374.979C292.625 374.835 292.521 374.756 292.365 374.704C291.455 374.469 289.543 375.488 288.763 376.011C288.451 376.22 288.022 376.141 287.801 375.841C286.969 374.678 285.344 372.718 284.446 372.183ZM272.341 390.93C271.638 390.93 271.001 390.904 270.442 390.864C269.402 390.786 268.44 390.25 267.842 389.375C267.243 388.526 267.061 387.481 267.321 386.488C268.219 383.287 269.987 381.733 273.186 378.911C273.784 378.375 274.447 377.8 275.162 377.147C275.487 376.86 283.172 369.962 284.979 370.863C286.15 371.451 287.788 373.476 288.542 374.482C289.504 373.92 291.377 372.98 292.716 373.346C293.275 373.489 293.704 373.829 293.964 374.351C294.706 375.828 294.784 379.224 294.706 381.811C294.693 382.634 294.264 383.418 293.574 383.875C284.719 389.78 277.009 390.93 272.341 390.93Z" fill="black"/>
<path d="M274.434 387.624C271.833 387.624 270.156 387.245 269.974 387.206C269.597 387.115 269.363 386.736 269.454 386.357C269.532 385.978 269.922 385.743 270.299 385.821C270.416 385.847 281.481 388.29 292.04 379.851C292.352 379.603 292.794 379.655 293.041 379.956C293.275 380.269 293.223 380.713 292.924 380.961C285.928 386.54 278.855 387.624 274.434 387.624Z" fill="black"/>
<path d="M313.743 379.211L313.834 370.719C313.834 370.719 315.525 368.146 317.852 370.236C317.852 370.236 320.011 367.218 324.002 370.981C324.002 370.981 329.62 381.484 332.116 387.742C332.779 389.414 331.596 391.243 329.789 391.282C327.214 391.347 323.872 391.204 322.429 390.224C320.154 388.682 316.266 383.823 314.562 381.641C314.029 380.948 313.743 380.086 313.743 379.211Z" fill="#5479F7"/>
<path d="M313.744 379.21H314.459C314.446 379.929 314.68 380.634 315.122 381.209C316.708 383.247 320.609 388.133 322.82 389.635C323.834 390.315 326.304 390.654 329.776 390.576C330.387 390.563 330.933 390.249 331.285 389.74C331.623 389.217 331.688 388.577 331.454 388.002C329.139 382.189 324.016 372.521 323.431 371.424C322.182 370.274 320.999 369.713 319.998 369.817C318.984 369.909 318.438 370.64 318.425 370.653C318.308 370.81 318.126 370.928 317.93 370.941C317.722 370.967 317.527 370.901 317.384 370.771C316.851 370.287 316.331 370.078 315.85 370.144C315.226 370.209 314.745 370.705 314.537 370.967L314.459 379.21H313.744ZM328.762 392C325.459 392 323.197 391.595 322.026 390.811C319.738 389.256 316.019 384.671 314.004 382.071C313.379 381.261 313.028 380.242 313.041 379.197L313.119 370.719C313.119 370.575 313.158 370.444 313.236 370.327C313.275 370.274 314.186 368.929 315.668 368.733C316.383 368.641 317.098 368.824 317.787 369.295C318.217 368.929 318.906 368.498 319.855 368.406C321.324 368.263 322.872 368.955 324.484 370.47C324.536 370.523 324.588 370.588 324.627 370.653C324.679 370.758 330.296 381.261 332.767 387.467C333.17 388.473 333.053 389.622 332.455 390.524C331.87 391.412 330.881 391.961 329.802 391.987C329.451 392 329.1 392 328.762 392Z" fill="black"/>
<path d="M317.852 375.527C317.461 375.527 317.149 375.2 317.149 374.821V370.236C317.149 369.844 317.461 369.53 317.852 369.53C318.242 369.53 318.554 369.857 318.554 370.236V374.821C318.554 375.2 318.242 375.527 317.852 375.527Z" fill="black"/>
<path d="M282.703 365.729C282.703 365.729 280.649 334.558 284.03 306.523C287.41 278.488 299.984 238.46 299.984 238.46C299.984 238.46 313.507 237.846 323.351 239.165C333.207 240.498 337.095 239.139 337.095 239.139C337.095 239.139 344.454 247.565 343.856 263.425C343.245 279.285 326.094 346.172 326.757 361.875C326.757 361.875 320.984 364.775 313.507 363.338L316.602 273.184C316.602 273.184 310.205 291.748 307.188 304.459C304.743 314.819 300.478 321.521 300.478 321.521C300.478 321.521 300.66 345.624 295.147 365.612C295.147 365.612 288.633 367.663 282.703 365.729Z" fill="black"/>
<path d="M293.522 332.573C293.392 332.573 293.249 332.534 293.132 332.455C292.807 332.233 292.729 331.789 292.95 331.462L297.67 324.578C297.891 324.264 298.333 324.173 298.645 324.395C298.97 324.617 299.061 325.061 298.827 325.375L294.107 332.272C293.977 332.468 293.756 332.573 293.522 332.573Z" fill="white"/>
<path d="M325.29 315.824C323.704 315.824 322.52 315.537 322.416 315.511C322.039 315.406 321.818 315.027 321.909 314.648C322 314.27 322.39 314.034 322.767 314.139C322.832 314.152 327.149 315.197 330.088 313.029C330.4 312.793 330.842 312.859 331.076 313.172C331.31 313.486 331.245 313.93 330.933 314.165C329.126 315.498 326.98 315.824 325.29 315.824Z" fill="white"/>
<path d="M290.896 240.131C290.896 240.131 288.816 247.264 319.776 248.989C350.723 250.726 345.548 241.921 345.548 241.921L313.053 232.423L290.896 240.131Z" fill="black"/>
<path d="M245.244 184.609L256.856 190.893C256.856 190.893 263.981 209.496 274.163 210.619C284.357 211.743 294.447 197.621 294.447 197.621L301.209 212.122C301.209 212.122 291.275 227.524 275.515 225.042C259.768 222.56 255.464 198.836 255.464 198.836C255.477 198.849 251.746 199.201 250.328 195.557C249.132 192.46 249.639 190.631 249.639 190.631C249.639 190.631 244.035 187.64 245.244 184.609Z" fill="white"/>
<path d="M255.462 198.131C255.501 198.131 255.54 198.131 255.579 198.144C255.878 198.183 256.112 198.418 256.164 198.705C256.203 198.941 260.546 221.959 275.63 224.337C289.491 226.519 298.866 214.212 300.401 212.057L294.302 198.98C291.897 202.063 283.9 211.391 275.344 211.391C274.928 211.391 274.512 211.378 274.096 211.325C264.122 210.228 257.218 193.715 256.295 191.39L245.788 185.707C246.048 187.849 249.923 189.979 249.962 190.005C250.261 190.162 250.404 190.501 250.313 190.815C250.313 190.828 249.91 192.5 250.989 195.309C252.147 198.301 255.137 198.157 255.345 198.144C255.384 198.131 255.423 198.131 255.462 198.131ZM278.907 226.009C277.775 226.009 276.605 225.931 275.409 225.735C260.572 223.396 255.683 203.382 254.89 199.555C254.734 199.555 254.565 199.529 254.37 199.502C253.083 199.333 250.755 198.627 249.676 195.818C248.779 193.506 248.779 191.821 248.857 190.998C247.466 190.162 243.37 187.392 244.579 184.348C244.657 184.165 244.8 184.008 244.995 183.943C245.177 183.878 245.398 183.891 245.567 183.982L257.192 190.266C257.335 190.345 257.452 190.475 257.517 190.645C257.582 190.815 264.59 208.856 274.239 209.914C283.913 210.986 293.769 197.347 293.86 197.203C294.016 197.007 294.25 196.89 294.51 196.916C294.757 196.929 294.978 197.086 295.082 197.321L301.844 211.822C301.948 212.044 301.935 212.305 301.805 212.514C301.701 212.658 292.911 226.009 278.907 226.009Z" fill="black"/>
<path d="M255.801 197.57C255.723 197.57 255.658 197.557 255.593 197.531C255.489 197.505 252.992 196.708 252.68 194.474C252.576 193.69 252.095 193.076 251.718 192.684C251.055 192.031 250.69 191.155 250.69 190.215V189.758C250.69 189.522 250.807 189.3 251.003 189.17C251.198 189.039 251.445 189.013 251.653 189.104L255.58 190.659C255.931 190.816 256.113 191.221 255.97 191.587C255.827 191.952 255.411 192.122 255.046 191.979L252.199 190.842C252.303 191.155 252.472 191.443 252.719 191.691C253.239 192.214 253.915 193.102 254.084 194.278C254.266 195.61 255.996 196.172 256.009 196.185C256.386 196.303 256.581 196.695 256.477 197.073C256.373 197.374 256.1 197.57 255.801 197.57Z" fill="black"/>
<path d="M334.196 212.985C334.196 212.985 341.361 229.132 353.038 232.424C364.714 235.729 372.854 225.761 372.802 215.467L368.823 214.147C368.823 214.147 364.753 224.703 355.664 221.946C346.575 219.203 342.362 197.752 342.362 197.752L334.196 212.985Z" fill="white"/>
<path d="M334.976 213.01C336.042 215.244 342.881 228.831 353.219 231.744C358.992 233.377 363.101 231.496 365.546 229.641C369.485 226.623 371.969 221.437 372.086 215.976L369.212 215.022C368.263 217.008 364.843 223.109 358.602 223.109C357.627 223.109 356.573 222.965 355.455 222.625C347.601 220.261 343.362 205.159 342.075 199.776L334.976 213.01ZM357.523 233.795C356.092 233.795 354.532 233.586 352.842 233.116C340.983 229.758 333.844 213.938 333.545 213.272C333.454 213.076 333.467 212.84 333.571 212.644L341.737 197.425C341.88 197.164 342.166 197.02 342.465 197.059C342.764 197.098 342.998 197.333 343.05 197.621C343.089 197.83 347.289 218.68 355.871 221.28C364.232 223.801 368.016 214.304 368.172 213.899C368.302 213.546 368.692 213.363 369.043 213.481L373.022 214.8C373.308 214.891 373.503 215.166 373.503 215.466C373.529 221.541 370.812 227.394 366.404 230.764C364.427 232.267 361.463 233.795 357.523 233.795Z" fill="black"/>
<path d="M290.896 197.4C290.896 197.4 298.074 188.007 318.372 189.758C342.596 191.861 344.443 196.655 344.443 196.655L338.123 209.497L345.548 241.922C345.548 241.922 340.477 246.129 328.592 243.764C316.707 241.4 296.293 238.499 290.896 240.132L298.425 209.197L290.896 197.4Z" fill="white"/>
<path d="M295.837 238.955C304.211 238.955 318.827 241.098 328.722 243.07C338.396 244.991 343.441 242.43 344.742 241.607L337.434 209.653C337.395 209.496 337.408 209.326 337.486 209.182L343.623 196.706C342.83 195.818 338.396 192.199 318.307 190.462C300.987 188.972 293.367 195.792 291.768 197.464L299.01 208.816C299.127 208.973 299.153 209.182 299.114 209.365L291.846 239.203C292.912 239.034 294.264 238.955 295.837 238.955ZM335.47 245.2C333.442 245.2 331.114 244.991 328.449 244.455C316.434 242.064 296.254 239.256 291.104 240.81C290.857 240.876 290.597 240.823 290.402 240.64C290.22 240.471 290.142 240.209 290.207 239.961L297.658 209.326L290.298 197.79C290.142 197.529 290.155 197.203 290.337 196.967C290.636 196.575 297.983 187.287 318.424 189.051C342.401 191.128 344.898 195.87 345.106 196.406C345.171 196.589 345.171 196.785 345.08 196.967L338.864 209.587L346.224 241.751C346.289 242.025 346.198 242.286 345.99 242.456C345.821 242.6 342.596 245.2 335.47 245.2Z" fill="black"/>
<path d="M366.743 226.597L337.812 227.773C336.837 227.773 336.238 226.702 336.746 225.866L355.483 191.56C355.834 190.985 356.471 190.619 357.16 190.619L386.391 191.285L366.743 226.597Z" fill="#CADDFF"/>
<path d="M368.822 227.773H337.602L358.069 190.619H389.289L368.822 227.773Z" fill="#99B9FF"/>
<path d="M338.799 227.068H368.407L388.093 191.338H358.499L338.799 227.068ZM368.823 228.479H337.603C337.356 228.479 337.122 228.348 336.992 228.139C336.862 227.917 336.862 227.642 336.979 227.433L357.458 190.279C357.588 190.057 357.823 189.914 358.083 189.914H389.29C389.55 189.914 389.771 190.044 389.901 190.266C390.031 190.475 390.031 190.75 389.914 190.959L369.434 228.113C369.317 228.335 369.07 228.479 368.823 228.479Z" fill="#5479F7"/>
<path d="M369.537 226.597C369.537 226.597 368.952 223.527 369.537 221.463C370.123 219.412 373.763 213.298 374.804 212.018C375.844 210.738 376.715 224.403 369.537 226.597Z" fill="white"/>
<path d="M374.713 213.363C373.283 215.505 370.682 220.039 370.214 221.659C369.863 222.9 369.98 224.611 370.11 225.617C371.645 224.885 372.841 223.435 373.673 221.293C374.83 218.314 374.882 214.983 374.713 213.363ZM369.538 227.302C369.408 227.302 369.278 227.276 369.174 227.211C369.005 227.106 368.888 226.936 368.849 226.741C368.823 226.597 368.238 223.461 368.862 221.267C369.473 219.124 373.114 212.971 374.258 211.573C374.557 211.194 374.96 211.181 375.22 211.273C375.949 211.547 376.274 212.958 376.196 215.492C376.053 220.274 374.284 225.891 369.746 227.276C369.681 227.302 369.603 227.302 369.538 227.302Z" fill="black"/>
<path d="M304.447 179.606C304.173 179.175 305.448 176.862 305.5 176.013C305.539 175.177 304.889 174.459 304.603 173.583C304.329 172.695 304.642 171.114 304.642 171.114C305.019 160.546 316.513 163.054 316.513 163.054C319.14 163.851 320.7 166.829 321.207 168.802C322.196 172.617 320.375 177.241 320.375 177.241C320.453 177.424 322.339 189.796 322.43 189.953C323.613 192.252 315.616 193.767 313.093 191.442C312.248 190.658 313.341 184.91 313.093 184.91C312.157 184.884 311 185.89 309.817 185.576C308.061 185.119 306.748 180.716 306.488 180.39C306.371 180.233 305.968 180.155 305.539 180.05C305.071 179.946 304.59 179.828 304.447 179.606Z" fill="white"/>
<path d="M313.599 190.945C315.29 192.461 319.997 192.004 321.505 190.841C321.908 190.527 321.843 190.371 321.791 190.292C321.7 190.122 321.7 190.096 320.647 183.368C320.231 180.742 319.763 177.777 319.698 177.437C319.659 177.294 319.659 177.137 319.724 176.993C319.737 176.941 321.44 172.525 320.517 168.985C320.114 167.391 318.762 164.504 316.33 163.746C315.927 163.668 311.038 162.753 307.943 165.157C306.318 166.424 305.433 168.436 305.342 171.14C305.342 171.18 305.342 171.219 305.329 171.245C305.225 171.794 305.121 172.852 305.277 173.374C305.368 173.649 305.499 173.91 305.655 174.21C305.928 174.733 306.24 175.347 306.201 176.052C306.175 176.549 305.889 177.254 305.603 177.999C305.459 178.352 305.238 178.9 305.147 179.214C305.329 179.279 305.564 179.332 305.694 179.358C306.292 179.501 306.773 179.606 307.046 179.959C307.163 180.102 307.228 180.285 307.449 180.834C307.826 181.774 308.957 184.622 309.998 184.897C310.466 185.027 310.999 184.805 311.558 184.583C312.065 184.387 312.572 184.178 313.118 184.204C313.313 184.204 313.508 184.296 313.638 184.453C313.898 184.753 313.872 184.988 313.716 186.53C313.599 187.588 313.3 190.384 313.599 190.945ZM317.149 193.31C315.381 193.31 313.651 192.918 312.611 191.964C311.909 191.324 311.961 189.652 312.312 186.373C312.325 186.19 312.351 185.981 312.364 185.798C312.273 185.824 312.182 185.864 312.078 185.903C311.402 186.177 310.544 186.504 309.633 186.269C308.125 185.864 307.059 183.669 306.136 181.37C306.071 181.187 306.006 181.004 305.954 180.886C305.811 180.847 305.577 180.795 305.42 180.755C304.77 180.599 304.146 180.455 303.847 179.985C303.522 179.462 303.756 178.809 304.289 177.476C304.497 176.954 304.77 176.235 304.796 175.974C304.809 175.647 304.614 175.282 304.393 174.851C304.237 174.537 304.055 174.184 303.925 173.792C303.639 172.839 303.873 171.376 303.938 171.036C304.055 167.927 305.121 165.562 307.085 164.034C310.817 161.133 316.421 162.309 316.655 162.361C316.668 162.361 316.694 162.374 316.707 162.374C319.568 163.25 321.284 166.281 321.882 168.619C322.805 172.212 321.453 176.353 321.102 177.307C321.206 177.816 321.414 179.175 322.038 183.146C322.467 185.85 322.987 189.195 323.091 189.717C323.443 190.501 323.183 191.337 322.363 191.964C321.31 192.774 319.204 193.31 317.149 193.31Z" fill="black"/>
<path d="M299.842 163.746C300.999 162.57 302.17 163.746 306.76 163.106C310.57 162.557 311.675 161.486 314.562 161.956C315.381 162.087 316.824 162.335 318.267 163.38C320.387 164.948 321.18 167.13 321.596 168.749C322.415 171.937 321.388 175.647 320.92 177.045C320.816 177.398 320.478 177.607 320.114 177.581C319.152 177.502 318.306 177.372 317.539 177.202C317.175 177.137 316.967 176.745 317.11 176.405C317.149 176.314 317.188 176.222 317.214 176.118C317.591 174.772 316.954 173.413 315.784 173.074C314.601 172.747 313.352 173.557 312.962 174.903C312.936 174.994 312.923 175.086 312.897 175.177C311.22 173.91 310.349 172.46 308.788 171.676C308.606 171.584 307.787 171.206 306.539 171.166C303.834 171.075 302.924 172.682 301.65 172.368C299.413 171.82 297.762 165.849 299.842 163.746Z" fill="black"/>
<path d="M312.819 185.615C312.52 185.615 312.246 185.419 312.142 185.118C312.025 184.753 312.233 184.348 312.611 184.23C316.082 183.133 316.628 180.99 316.654 180.899C316.745 180.52 317.123 180.285 317.5 180.363C317.877 180.455 318.111 180.833 318.033 181.212C318.007 181.33 317.331 184.23 313.027 185.589C312.962 185.602 312.897 185.615 312.819 185.615Z" fill="black"/>
</svg>
