<svg width="390" height="392" viewBox="0 0 390 392" fill="none" xmlns="http://www.w3.org/2000/svg">
<path d="M354.456 42.012C335.882 18.6934 305.792 12.8602 286.556 9.12426C210.745 -5.56968 118.376 -12.6111 45.0772 69.6638C28.3959 88.3854 -28.1661 205.354 17.3348 294.712C57.5606 373.709 158.671 400.597 234.455 388.986C297.245 379.362 372.559 339.28 386.99 281.587C396.062 245.311 373.402 236.575 368.182 160.661C363.666 94.9547 377.158 70.5249 354.456 42.012Z" fill="#CADDFF"/>
<path d="M189.01 20.248C161.599 -1.90404 106.445 17.0259 100.342 54.1357L95.1081 54.4829C94.0448 54.5523 93.5339 55.8023 94.2243 56.6078L110.188 74.9267C110.768 75.5933 111.817 75.4822 112.259 74.7183L123.693 54.5801C124.19 53.6913 123.513 52.5941 122.491 52.6635L116.747 53.0385C122.547 22.1646 157.787 13.3593 176.347 23.7617C177.203 24.2478 178.197 24.3867 179.15 24.1506L188.665 21.8174C189.383 21.6368 189.59 20.7063 189.01 20.248Z" fill="#5479F7"/>
<path d="M45.3532 348.557L70.7895 348.71C70.9552 348.71 71.0104 348.863 71.0104 349.015V370.779C71.0104 372.862 85.4547 378.278 85.5928 378.001L85.6204 380.306C85.6204 380.737 85.2476 381.112 84.7643 381.112H63.1117C62.1312 381.112 61.1508 380.889 60.2532 380.514L48.5293 375.542C46.4165 374.653 45.0908 372.737 45.0908 370.64V348.849C45.0908 348.71 45.1875 348.557 45.3532 348.557Z" fill="#99B9FF"/>
<path d="M73.5793 347.446V369.21C73.5793 371.362 74.9602 373.307 77.1144 374.237L85.027 377.64C85.5379 377.862 85.3584 378.556 84.7922 378.556H63.0568C62.0763 378.556 61.1235 378.362 60.2397 377.987L51.4709 374.279C49.3029 373.348 47.9082 371.39 47.9082 369.237V347.446C47.9082 347.349 47.9911 347.28 48.0877 347.28H73.3997C73.4964 347.28 73.5793 347.349 73.5793 347.446Z" fill="white"/>
<path d="M48.6121 347.988V369.237C48.6121 371.098 49.8411 372.82 51.7468 373.626L60.5017 377.334C61.3027 377.667 62.1865 377.848 63.0564 377.848H83.7148L76.8379 374.89C74.4351 373.862 72.8747 371.626 72.8747 369.209V347.988H48.6121ZM84.7919 379.265H63.0564C61.9931 379.265 60.9298 379.042 59.9632 378.64L51.1944 374.931C48.7778 373.904 47.2036 371.668 47.2036 369.237V347.446C47.2036 346.96 47.6041 346.571 48.0874 346.571H73.3994C73.8965 346.571 74.2832 346.96 74.2832 347.446V369.209C74.2832 371.057 75.4984 372.779 77.3902 373.584L85.3028 376.987C85.8276 377.209 86.1176 377.751 86.0071 378.292C85.8966 378.862 85.3995 379.265 84.7919 379.265Z" fill="black"/>
<path d="M120.958 359.779L16.3822 360.015H11.19C10.2234 360.015 9.43628 359.265 9.312 358.307L0.570863 289.573C0.36373 287.907 1.57893 286.323 3.24982 286.323L111.596 286.42L120.958 359.779Z" fill="#5479F7"/>
<path d="M7.24043 286.323C5.3624 286.323 3.82959 288.226 4.06435 290.115L12.8745 358.321C12.9988 359.279 13.7997 360.001 14.7664 360.001L15.5949 360.029L122.339 360.001C123.499 360.001 124.383 358.974 124.231 357.821L115.255 288.24C115.131 287.282 114.399 286.323 113.432 286.323H7.24043Z" fill="#CADDFF"/>
<path d="M7.24058 287.032C6.59155 287.032 5.94252 287.351 5.4454 287.907C4.92065 288.504 4.67209 289.296 4.76876 290.032L13.5651 358.224C13.648 358.835 14.1589 359.293 14.7665 359.293L15.6227 359.321L122.339 359.293C122.698 359.293 123.016 359.14 123.251 358.877C123.471 358.613 123.582 358.266 123.541 357.918L114.551 288.323C114.468 287.698 113.998 287.032 113.432 287.032H7.24058ZM15.5951 360.738L14.7389 360.71C13.4547 360.71 12.3361 359.724 12.1704 358.404L3.36023 290.212C3.22214 289.06 3.59499 287.879 4.39591 286.962C5.1416 286.101 6.19109 285.615 7.24058 285.615H113.432C114.799 285.615 115.794 286.907 115.946 288.143L124.935 357.738C125.032 358.488 124.797 359.238 124.3 359.807C123.803 360.377 123.099 360.71 122.339 360.71L15.5951 360.738Z" fill="black"/>
<path d="M12.1152 290.573C10.4029 290.573 9.0082 292.254 9.22915 293.906L17.2384 353.807C17.3489 354.64 18.0946 355.279 18.9645 355.279L19.7102 355.307L116.802 355.279C117.851 355.279 118.652 354.377 118.528 353.377L110.353 292.254C110.242 291.42 109.58 290.573 108.696 290.573H12.1152Z" fill="#99B9FF"/>
<path d="M52.1199 323.432C53.846 323.432 55.075 322.03 54.8541 320.28C54.6331 318.544 53.0589 317.127 51.319 317.127C49.5928 317.127 48.3638 318.544 48.5848 320.28C48.8057 322.03 50.38 323.432 52.1199 323.432Z" fill="#CADDFF"/>
<path d="M61.1511 323.432C62.8773 323.432 64.1063 322.03 63.8991 320.28C63.6782 318.544 62.0902 317.127 60.364 317.127C58.6241 317.127 57.3951 318.544 57.616 320.28C57.837 322.03 59.425 323.432 61.1511 323.432Z" fill="#CADDFF"/>
<path d="M70.1813 323.432C71.9212 323.432 73.1502 322.03 72.9293 320.28C72.7083 318.544 71.1341 317.127 69.3942 317.127C67.668 317.127 66.439 318.544 66.66 320.28C66.8809 322.03 68.4551 323.432 70.1813 323.432Z" fill="#CADDFF"/>
<path d="M303.513 193.591C303.513 169.272 293.046 133.093 242.615 135.287C245.46 104.511 217.856 62.2064 157.731 66.0674C128.718 67.9423 122.767 89.5805 119.618 88.4972C79.1437 74.581 29.7625 107.316 40.7683 156.814C18.2733 159.175 -0.368912 176.925 0.155834 200.896C0.50106 216.465 9.80837 228.451 24.9017 228.451H269.571C287.813 228.451 303.03 213.576 303.5 194.757C303.513 194.369 303.513 193.98 303.513 193.591Z" fill="#FF9F78"/>
<path d="M310.156 197.534C310.156 173.632 295.228 126.731 245.35 128.898C234.51 81.7742 211.615 67.983 170.85 67.6358C131.052 67.3025 123.734 94.9821 120.668 93.7877C77.8461 77.0521 38.1313 114.912 46.831 158.841C24.5846 161.146 7.22656 180.424 7.22656 203.853C7.22656 203.964 7.22656 204.076 7.22656 204.173C7.32323 219.492 19.5719 231.811 34.4995 231.811H276.572C294.621 231.811 309.687 217.186 310.142 198.687C310.156 198.298 310.156 197.909 310.156 197.534Z" fill="#99B9FF"/>
<path d="M119.867 205.77H60.3359C59.8249 205.77 59.4106 205.353 59.4106 204.839V114.898C59.4106 114.384 59.8249 113.967 60.3359 113.967H119.867C120.378 113.967 120.792 114.384 120.792 114.898V204.839C120.792 205.353 120.378 205.77 119.867 205.77Z" fill="white"/>
<path d="M65.2523 131.05H120.433C121.013 131.05 121.497 130.564 121.497 129.981V114.884C121.497 114.287 121.013 113.801 120.433 113.801H65.2523C64.6723 113.801 64.189 114.287 64.189 114.884V129.981C64.189 130.564 64.6723 131.05 65.2523 131.05Z" fill="#5479F7"/>
<path d="M69.6572 122.69C69.6572 123.759 70.4996 124.62 71.5629 124.62C72.6124 124.62 73.4685 123.759 73.4685 122.69C73.4685 121.634 72.6124 120.773 71.5629 120.773C70.4996 120.773 69.6572 121.634 69.6572 122.69Z" fill="#FF9F78"/>
<path d="M74.9873 122.579C74.9873 123.635 75.8435 124.496 76.9068 124.496C77.9563 124.496 78.8124 123.635 78.8124 122.579C78.8124 121.524 77.9563 120.663 76.9068 120.663C75.8435 120.663 74.9873 121.524 74.9873 122.579Z" fill="#FF9F78"/>
<path d="M82.0996 125.912H117.976C118.127 125.912 118.266 125.787 118.266 125.62V118.94C118.266 118.787 118.127 118.648 117.976 118.648H82.0996C81.9339 118.648 81.8096 118.787 81.8096 118.94V125.62C81.8096 125.787 81.9339 125.912 82.0996 125.912Z" fill="#99B9FF"/>
<path d="M65.2938 149.674H120.461C121.055 149.674 121.538 149.188 121.538 148.591V133.494C121.538 132.911 121.055 132.425 120.461 132.425H65.2938C64.7138 132.425 64.2305 132.911 64.2305 133.494V148.591C64.2305 149.188 64.7138 149.674 65.2938 149.674Z" fill="#5479F7"/>
<path d="M69.6846 141.314C69.6846 142.37 70.5407 143.231 71.604 143.231C72.6535 143.231 73.5097 142.37 73.5097 141.314C73.5097 140.259 72.6535 139.397 71.604 139.397C70.5407 139.397 69.6846 140.259 69.6846 141.314Z" fill="#CADDFF"/>
<path d="M75.0283 141.19C75.0283 142.259 75.8845 143.12 76.934 143.12C77.9973 143.12 78.8534 142.259 78.8534 141.19C78.8534 140.134 77.9973 139.273 76.934 139.273C75.8845 139.273 75.0283 140.134 75.0283 141.19Z" fill="#CADDFF"/>
<path d="M82.1411 144.536H118.017C118.169 144.536 118.307 144.397 118.307 144.244V137.564C118.307 137.397 118.169 137.272 118.017 137.272H82.1411C81.9754 137.272 81.8511 137.397 81.8511 137.564V144.244C81.8511 144.397 81.9754 144.536 82.1411 144.536Z" fill="#99B9FF"/>
<path d="M65.0179 168.369H120.199C120.779 168.369 121.262 167.883 121.262 167.3V152.203C121.262 151.606 120.779 151.12 120.199 151.12H65.0179C64.4379 151.12 63.9546 151.606 63.9546 152.203V167.3C63.9546 167.883 64.4379 168.369 65.0179 168.369Z" fill="#5479F7"/>
<path d="M69.4229 160.007C69.4229 161.077 70.2652 161.924 71.3285 161.924C72.378 161.924 73.2342 161.077 73.2342 160.007C73.2342 158.952 72.378 158.091 71.3285 158.091C70.2652 158.091 69.4229 158.952 69.4229 160.007Z" fill="#CADDFF"/>
<path d="M74.7529 159.897C74.7529 160.952 75.6091 161.813 76.6724 161.813C77.7219 161.813 78.578 160.952 78.578 159.897C78.578 158.827 77.7219 157.98 76.6724 157.98C75.6091 157.98 74.7529 158.827 74.7529 159.897Z" fill="#CADDFF"/>
<path d="M81.8642 163.23H117.74C117.892 163.23 118.03 163.091 118.03 162.938V156.258C118.03 156.091 117.892 155.966 117.74 155.966H81.8642C81.6985 155.966 81.5742 156.091 81.5742 156.258V162.938C81.5742 163.091 81.6985 163.23 81.8642 163.23Z" fill="#99B9FF"/>
<path d="M65.0594 186.994H120.227C120.82 186.994 121.304 186.507 121.304 185.91V170.814C121.304 170.23 120.82 169.744 120.227 169.744H65.0594C64.4794 169.744 63.9961 170.23 63.9961 170.814V185.91C63.9961 186.507 64.4794 186.994 65.0594 186.994Z" fill="#5479F7"/>
<path d="M69.4502 178.632C69.4502 179.687 70.3064 180.549 71.3697 180.549C72.4191 180.549 73.2753 179.687 73.2753 178.632C73.2753 177.576 72.4191 176.715 71.3697 176.715C70.3064 176.715 69.4502 177.576 69.4502 178.632Z" fill="#CADDFF"/>
<path d="M74.7939 178.507C74.7939 179.576 75.6501 180.437 76.7134 180.437C77.7629 180.437 78.6191 179.576 78.6191 178.507C78.6191 177.451 77.7629 176.59 76.7134 176.59C75.6501 176.59 74.7939 177.451 74.7939 178.507Z" fill="#CADDFF"/>
<path d="M81.9063 181.854H117.782C117.934 181.854 118.072 181.715 118.072 181.548V174.882C118.072 174.715 117.934 174.59 117.782 174.59H81.9063C81.7406 174.59 81.6025 174.715 81.6025 174.882V181.548C81.6025 181.715 81.7406 181.854 81.9063 181.854Z" fill="#99B9FF"/>
<path d="M65.2108 205.882H120.392C120.972 205.882 121.455 205.395 121.455 204.812V189.715C121.455 189.118 120.972 188.646 120.392 188.646H65.2108C64.6308 188.646 64.1475 189.118 64.1475 189.715V204.812C64.1475 205.395 64.6308 205.882 65.2108 205.882Z" fill="#5479F7"/>
<path d="M69.6157 197.521C69.6157 198.59 70.4719 199.451 71.5214 199.451C72.5709 199.451 73.427 198.59 73.427 197.521C73.427 196.465 72.5709 195.604 71.5214 195.604C70.4719 195.604 69.6157 196.465 69.6157 197.521Z" fill="#CADDFF"/>
<path d="M74.96 197.41C74.96 198.465 75.8023 199.326 76.8656 199.326C77.9151 199.326 78.7713 198.465 78.7713 197.41C78.7713 196.354 77.9151 195.493 76.8656 195.493C75.8023 195.493 74.96 196.354 74.96 197.41Z" fill="#CADDFF"/>
<path d="M82.0581 200.743H117.934C118.1 200.743 118.224 200.618 118.224 200.451V193.771C118.224 193.618 118.1 193.479 117.934 193.479H82.0581C81.8924 193.479 81.7681 193.618 81.7681 193.771V200.451C81.7681 200.618 81.8924 200.743 82.0581 200.743Z" fill="#99B9FF"/>
<path d="M383.372 125.995C383.372 104.551 374.645 72.6358 332.596 74.5802C334.971 47.4284 311.952 10.1241 261.825 13.5268C237.631 15.1795 232.674 34.2622 230.05 33.3039C196.301 21.0265 155.122 49.9005 164.291 93.5518C145.552 95.635 130.003 111.287 130.445 132.439C130.721 146.175 138.496 156.73 151.076 156.73H355.077C370.281 156.73 382.972 143.62 383.358 127.023C383.372 126.676 383.372 126.342 383.372 125.995Z" fill="white"/>
<path d="M389.296 129.731C389.296 108.843 376.978 67.8582 335.813 69.7471C326.879 28.5679 307.974 16.5267 274.349 16.2211C241.511 15.9156 235.463 40.1092 232.936 39.0676C197.612 24.4431 164.843 57.5253 172.024 95.9128C153.658 97.9406 139.338 114.773 139.338 135.259C139.338 135.342 139.338 135.439 139.338 135.536C139.421 148.911 149.515 159.675 161.847 159.675H361.581C376.481 159.675 388.895 146.897 389.282 130.731C389.282 130.398 389.296 130.064 389.296 129.731Z" fill="#5479F7"/>
<path d="M215.744 36.2481C206.395 36.2481 197.391 39.4563 189.7 45.7478C175.614 57.289 169.097 76.455 172.715 95.7738C172.742 95.9683 172.701 96.1766 172.59 96.3294C172.466 96.496 172.286 96.5932 172.093 96.621C153.824 98.6348 140.042 115.245 140.042 135.259V135.522C140.125 148.453 149.902 158.966 161.847 158.966H361.581C376.095 158.966 388.205 146.3 388.578 130.717C388.578 130.384 388.592 130.05 388.592 129.731C388.592 115.148 382.847 94.9128 370.005 82.5798C360.987 73.9135 349.498 69.8303 335.841 70.4553C335.496 70.4691 335.192 70.233 335.123 69.8997C326.81 31.6094 310.336 17.2487 274.349 16.9293C274.156 16.9293 273.949 16.9293 273.756 16.9293C249.562 16.9293 240.241 30.6788 236.25 36.5814C234.676 38.9147 233.806 40.1924 232.674 39.7202C227.039 37.3869 221.336 36.2481 215.744 36.2481ZM361.581 160.383H161.847C149.129 160.383 138.717 149.244 138.634 135.536V135.259C138.634 114.787 152.581 97.7599 171.196 95.3016C167.785 75.719 174.496 56.3585 188.816 44.6506C201.479 34.2759 217.608 31.9982 233.102 38.373C233.488 38.1369 234.331 36.887 235.076 35.7898C239.205 29.6928 248.816 15.5127 273.756 15.5127C273.949 15.5127 274.156 15.5127 274.363 15.5127C292.453 15.6794 305.295 19.3598 314.782 27.1095C325.042 35.4842 331.905 48.8032 336.38 69.0109C350.161 68.5109 361.802 72.733 370.985 81.5521C384.118 94.1767 390 114.843 390 129.731C390 130.064 389.986 130.412 389.986 130.745C389.793 138.717 386.741 146.189 381.383 151.758C376.025 157.327 368.997 160.383 361.581 160.383Z" fill="black"/>
<path d="M257.571 121.871H203.274V129.899H203.191C203.094 129.899 203.053 130.149 203.053 130.204C203.053 131.274 215.398 131.968 230.878 131.968C246.358 131.968 257.709 131.246 257.709 130.176C257.709 130.107 257.654 129.899 257.585 129.899H257.571V121.871Z" fill="#99B9FF"/>
<path d="M257.709 121.815C257.709 122.884 246.358 123.523 230.878 123.523C215.398 123.523 203.053 122.884 203.053 121.815C203.053 120.746 215.398 119.648 230.878 119.648C246.358 119.648 257.709 120.746 257.709 121.815Z" fill="#CADDFF"/>
<path d="M258.082 112.301H203.784V120.328H203.701C203.619 120.328 203.577 120.564 203.577 120.634C203.577 121.703 215.922 122.398 231.389 122.398C246.869 122.398 258.22 121.662 258.22 120.592C258.22 120.537 258.178 120.328 258.095 120.328H258.082V112.301Z" fill="#99B9FF"/>
<path d="M258.221 112.232C258.221 113.302 246.87 113.954 231.39 113.954C215.924 113.954 203.564 113.302 203.564 112.232C203.564 111.163 215.924 110.08 231.39 110.08C246.87 110.08 258.221 111.163 258.221 112.232Z" fill="#CADDFF"/>
<path d="M257.82 102.468H203.522V110.745H203.55C203.467 110.745 203.426 110.884 203.426 110.94C203.426 112.009 215.771 112.662 231.237 112.662C246.717 112.662 258.068 112.009 258.068 110.94C258.068 110.87 258.027 110.745 257.944 110.745H257.82V102.468Z" fill="#99B9FF"/>
<path d="M258.068 102.441C258.068 103.51 246.717 104.149 231.237 104.149C215.771 104.149 203.426 103.51 203.426 102.441C203.426 101.371 215.771 100.288 231.237 100.288C246.717 100.288 258.068 101.371 258.068 102.441Z" fill="#CADDFF"/>
<path d="M258.344 92.3721H203.784V100.788H203.757C203.66 100.788 203.619 100.886 203.619 100.955C203.619 102.025 215.964 102.649 231.444 102.649C246.924 102.649 258.261 102.025 258.261 100.955C258.261 100.9 258.22 100.788 258.151 100.788H258.344V92.3721Z" fill="#99B9FF"/>
<path d="M258.261 92.4264C258.261 93.4958 246.91 94.1346 231.444 94.1346C215.964 94.1346 203.619 93.4958 203.619 92.4264C203.619 91.3569 215.964 90.2598 231.444 90.2598C246.91 90.2598 258.261 91.3569 258.261 92.4264Z" fill="#CADDFF"/>
<path d="M258.083 82.4136H203.785V90.4272H203.647C203.564 90.4272 203.523 90.6494 203.523 90.705C203.523 91.7744 215.868 92.4688 231.334 92.4688C246.814 92.4688 258.165 91.7605 258.165 90.6911C258.165 90.6216 258.124 90.4272 258.041 90.4272H258.083V82.4136Z" fill="#99B9FF"/>
<path d="M258.165 82.288C258.165 83.3574 246.814 84.0101 231.334 84.0101C215.868 84.0101 203.523 83.3574 203.523 82.288C203.523 81.2186 215.868 80.1353 231.334 80.1353C246.814 80.1353 258.165 81.2186 258.165 82.288Z" fill="#CADDFF"/>
<path d="M257.82 72.3164H203.274V80.8578H203.454C203.371 80.8578 203.316 80.8994 203.316 80.9689C203.316 82.0383 215.661 82.6355 231.141 82.6355C246.621 82.6355 257.958 82.0522 257.958 80.9828C257.958 80.9272 257.931 80.8578 257.848 80.8578H257.82V72.3164Z" fill="#99B9FF"/>
<path d="M257.958 72.3858C257.958 73.4552 246.621 74.0941 231.141 74.0941C215.661 74.0941 203.315 73.4552 203.315 72.3858C203.315 71.3164 215.661 70.2192 231.141 70.2192C246.621 70.2192 257.958 71.3164 257.958 72.3858Z" fill="#CADDFF"/>
<path d="M294.662 135.106H240.378V143.133H240.295C240.199 143.133 240.157 143.37 240.157 143.425C240.157 144.495 252.503 145.203 267.982 145.203C283.462 145.203 294.8 144.467 294.8 143.397C294.8 143.342 294.758 143.133 294.689 143.133H294.662V135.106Z" fill="#CADDFF"/>
<path d="M294.8 135.036C294.8 136.106 283.462 136.759 267.982 136.759C252.503 136.759 240.157 136.106 240.157 135.036C240.157 133.967 252.503 132.884 267.982 132.884C283.462 132.884 294.8 133.967 294.8 135.036Z" fill="white"/>
<path d="M295.187 125.523H240.89V133.551H240.807C240.725 133.551 240.683 133.787 240.683 133.856C240.683 134.926 253.028 135.62 268.495 135.62C283.975 135.62 295.326 134.898 295.326 133.829C295.326 133.759 295.284 133.551 295.201 133.551H295.187V125.523Z" fill="#CADDFF"/>
<path d="M295.326 125.467C295.326 126.537 283.975 127.176 268.495 127.176C253.028 127.176 240.683 126.537 240.683 125.467C240.683 124.398 253.028 123.301 268.495 123.301C283.975 123.301 295.326 124.398 295.326 125.467Z" fill="white"/>
<path d="M294.924 115.69H240.627V123.982H240.655C240.572 123.982 240.53 124.107 240.53 124.176C240.53 125.246 252.876 125.885 268.342 125.885C283.822 125.885 295.173 125.246 295.173 124.176C295.173 124.107 295.131 123.982 295.048 123.982H294.924V115.69Z" fill="#CADDFF"/>
<path d="M295.173 115.676C295.173 116.745 283.822 117.384 268.342 117.384C252.876 117.384 240.53 116.745 240.53 115.676C240.53 114.606 252.876 113.509 268.342 113.509C283.822 113.509 295.173 114.606 295.173 115.676Z" fill="white"/>
<path d="M295.45 105.592H240.89V114.009H240.863C240.766 114.009 240.725 114.12 240.725 114.175C240.725 115.245 253.07 115.884 268.55 115.884C284.016 115.884 295.367 115.259 295.367 114.189C295.367 114.12 295.339 114.009 295.257 114.009H295.45V105.592Z" fill="#CADDFF"/>
<path d="M295.367 105.649C295.367 106.719 284.03 107.371 268.55 107.371C253.07 107.371 240.725 106.719 240.725 105.649C240.725 104.58 253.07 103.497 268.55 103.497C284.03 103.497 295.367 104.58 295.367 105.649Z" fill="white"/>
<path d="M295.187 95.6348H240.889V103.662H240.751C240.668 103.662 240.627 103.871 240.627 103.94C240.627 105.009 252.972 105.69 268.452 105.69C283.918 105.69 295.269 104.982 295.269 103.912C295.269 103.843 295.228 103.662 295.145 103.662H295.187V95.6348Z" fill="#CADDFF"/>
<path d="M295.269 95.5101C295.269 96.5934 283.918 97.2323 268.452 97.2323C252.972 97.2323 240.627 96.5934 240.627 95.5101C240.627 94.4407 252.972 93.3574 268.452 93.3574C283.918 93.3574 295.269 94.4407 295.269 95.5101Z" fill="white"/>
<path d="M294.925 85.5386H240.379V94.0799H240.558C240.476 94.0799 240.42 94.1355 240.42 94.1911C240.42 95.2605 252.766 95.8716 268.246 95.8716C283.726 95.8716 295.077 95.2882 295.077 94.2188C295.077 94.1494 295.035 94.0799 294.952 94.0799H294.925V85.5386Z" fill="#CADDFF"/>
<path d="M295.076 85.6075C295.076 86.6769 283.725 87.3158 268.245 87.3158C252.765 87.3158 240.42 86.6769 240.42 85.6075C240.42 84.5381 252.765 83.4409 268.245 83.4409C283.725 83.4409 295.076 84.5381 295.076 85.6075Z" fill="white"/>
<path d="M341.737 359.779L347.013 375.598C347.013 375.598 341.268 375.098 340.729 375.209C340.177 375.32 333.466 360.779 333.466 360.779L341.737 359.779Z" fill="white"/>
<path d="M340.647 374.501C340.633 374.501 340.605 374.501 340.592 374.515C340.605 374.501 340.633 374.501 340.647 374.501ZM341.033 374.487C342.028 374.487 344.223 374.654 346.005 374.793L341.254 360.543L334.516 361.376C337.208 367.168 340.177 373.293 341.006 374.487C341.02 374.487 341.033 374.487 341.033 374.487ZM347.013 376.307C346.999 376.307 346.971 376.307 346.958 376.293C344.265 376.07 341.241 375.862 340.84 375.904C340.205 376.029 339.984 376.07 336.256 368.348C334.529 364.765 332.845 361.113 332.817 361.085C332.72 360.876 332.734 360.64 332.845 360.446C332.955 360.238 333.149 360.113 333.383 360.085L341.655 359.071C342 359.043 342.304 359.238 342.414 359.557L347.676 375.362C347.758 375.598 347.717 375.848 347.565 376.029C347.441 376.195 347.234 376.307 347.013 376.307Z" fill="black"/>
<path d="M345.811 372.111C345.811 372.111 337.884 368.847 336.42 372.944C334.556 378.166 331.643 386.125 331.643 386.125C331.145 387.513 332.084 388.986 333.548 389.111C336.448 389.347 340.77 389.527 342.786 388.819C345.963 387.694 351.224 377.583 351.224 377.583L349.608 368.972C349.608 368.972 346.722 368.57 345.811 372.111Z" fill="#FF9F78"/>
<path d="M340.149 371.598C339.445 371.598 338.796 371.695 338.257 371.931C337.677 372.195 337.29 372.598 337.083 373.195C335.233 378.348 332.319 386.292 332.292 386.375C332.14 386.82 332.195 387.306 332.457 387.708C332.706 388.111 333.134 388.361 333.603 388.403C337.926 388.75 341.102 388.667 342.552 388.153C344.885 387.333 348.959 380.362 350.492 377.473L349.014 369.681C348.31 369.765 347.026 370.209 346.487 372.292C346.432 372.487 346.308 372.653 346.128 372.751C345.935 372.834 345.728 372.848 345.534 372.778C344.554 372.362 342.165 371.598 340.149 371.598ZM338.202 390.028C336.614 390.028 334.943 389.931 333.493 389.82C332.582 389.736 331.767 389.25 331.27 388.472C330.773 387.695 330.662 386.75 330.966 385.889C331.007 385.806 333.907 377.862 335.758 372.709C336.089 371.751 336.752 371.056 337.691 370.64C340.08 369.556 343.808 370.654 345.369 371.195C346.377 368.57 348.586 368.126 349.705 368.279C350.009 368.32 350.243 368.542 350.299 368.848L351.914 377.459C351.956 377.612 351.928 377.778 351.859 377.917C351.307 378.973 346.363 388.306 343.007 389.486C341.875 389.889 340.107 390.028 338.202 390.028Z" fill="black"/>
<path d="M341.806 386.375H333.672C333.272 386.375 332.954 386.055 332.954 385.666C332.954 385.264 333.272 384.958 333.672 384.958H341.806C342.192 384.958 342.51 385.264 342.51 385.666C342.51 386.055 342.192 386.375 341.806 386.375Z" fill="black"/>
<path d="M356.693 363.667L354.898 379.569L347.689 377.583L348.242 363.25L356.693 363.667Z" fill="white"/>
<path d="M348.421 377.056L354.289 378.667L355.905 364.334L348.918 363.987L348.421 377.056ZM354.897 380.278C354.842 380.278 354.773 380.278 354.718 380.25L347.509 378.264C347.192 378.181 346.971 377.889 346.984 377.556L347.551 363.223C347.551 363.029 347.634 362.862 347.772 362.723C347.91 362.598 348.103 362.542 348.283 362.542L356.72 362.959C356.913 362.959 357.093 363.056 357.231 363.209C357.355 363.348 357.41 363.542 357.383 363.737L355.601 379.653C355.574 379.861 355.463 380.042 355.298 380.153C355.173 380.236 355.035 380.278 354.897 380.278Z" fill="black"/>
<path d="M355.574 391.292H344.182C342.635 391.292 341.448 389.917 341.683 388.375C342.055 385.792 343.298 381.5 347.013 375.598C347.413 374.945 348.131 374.556 348.891 374.556H352.357C352.951 374.556 353.448 375.014 353.517 375.612L353.779 378.125L354.829 377.042C355.243 376.612 355.961 376.778 356.141 377.348C356.803 379.375 358.019 383.736 358.101 388.708C358.129 390.125 356.997 391.292 355.574 391.292Z" fill="#FF9F78"/>
<path d="M348.891 375.264C348.366 375.264 347.883 375.542 347.607 375.973C343.947 381.792 342.746 385.986 342.373 388.486C342.304 389.014 342.456 389.542 342.801 389.944C343.146 390.347 343.643 390.583 344.182 390.583H355.574C356.072 390.583 356.527 390.389 356.873 390.028C357.232 389.68 357.411 389.208 357.397 388.722C357.314 383.889 356.154 379.653 355.464 377.556C355.464 377.556 355.464 377.514 355.409 377.514C355.367 377.5 355.34 377.528 355.326 377.528L354.276 378.611C354.097 378.82 353.807 378.875 353.545 378.792C353.282 378.695 353.103 378.472 353.075 378.195L352.813 375.681C352.785 375.445 352.592 375.264 352.357 375.264H348.891ZM355.574 392H344.182C343.229 392 342.345 391.597 341.724 390.875C341.116 390.153 340.84 389.208 340.978 388.278C341.365 385.639 342.622 381.236 346.419 375.209C346.958 374.362 347.883 373.848 348.891 373.848H352.357C353.31 373.848 354.111 374.57 354.221 375.528L354.318 376.542C354.691 376.167 355.215 376 355.726 376.125C356.237 376.25 356.638 376.611 356.803 377.125C357.522 379.292 358.723 383.681 358.806 388.694C358.82 389.569 358.502 390.403 357.881 391.028C357.273 391.653 356.458 392 355.574 392Z" fill="black"/>
<path d="M355.713 389.264H344.168C343.781 389.264 343.464 388.944 343.464 388.555C343.464 388.167 343.781 387.847 344.168 387.847H355.713C356.099 387.847 356.417 388.167 356.417 388.555C356.417 388.944 356.099 389.264 355.713 389.264Z" fill="black"/>
<path d="M329.626 268.115C329.93 267.379 330.538 266.824 331.283 266.588C335.454 265.268 349.981 261.796 364.95 271.449C365.654 271.907 366.11 272.671 366.165 273.504C366.704 281.157 368.72 321.127 356.154 368.445L347.675 367.848L345.949 286.934C345.949 286.934 333.41 316.586 343.615 363.793L334.805 365.432C334.805 365.432 321.907 348.39 319.601 322.336C317.557 299.295 327.348 273.712 329.626 268.115Z" fill="black"/>
<path d="M353.985 331.211C353.613 331.211 353.309 330.92 353.281 330.531C353.267 330.142 353.571 329.822 353.958 329.795C360.876 329.503 361.691 319.684 361.691 319.587C361.719 319.198 362.064 318.906 362.45 318.934C362.837 318.962 363.127 319.295 363.099 319.698C363.086 319.809 362.174 330.864 354.027 331.211C354.013 331.211 353.999 331.211 353.985 331.211Z" fill="#CADDFF"/>
<path d="M345.217 295.059C345.203 295.059 345.203 295.059 345.189 295.059C344.802 295.045 344.499 294.712 344.512 294.323L344.733 286.643C344.775 285.351 344.167 284.143 343.131 283.407L339.831 281.074C339.514 280.851 339.431 280.407 339.665 280.088C339.886 279.768 340.328 279.685 340.646 279.907L343.932 282.24C345.369 283.254 346.197 284.921 346.142 286.685L345.921 294.365C345.907 294.754 345.603 295.059 345.217 295.059Z" fill="#CADDFF"/>
<path d="M367.574 269.643C366.235 271.143 363.514 270.879 358.156 270.282C349.76 269.351 348.324 267.449 342.897 266.907C333.231 265.963 331.063 272.351 327.597 269.962C325.498 268.504 324.807 262.629 327.928 249.838C328.936 245.005 328.563 240.825 329.544 235.894C330.883 229.089 330.676 222.2 331.878 215.548C338.589 214.964 344.306 215.228 348.628 215.687C354.276 216.284 358.557 217.298 360.297 217.742C364.577 218.811 368.237 220.117 371.399 221.395C368.195 226.075 369.797 232.45 366.594 237.13C366.649 240.686 370.06 266.838 367.574 269.643Z" fill="#5479F7"/>
<path d="M295.048 207.617C295.048 207.617 289.953 202.868 288.489 201.645C286.846 200.271 290.629 199.812 295.463 204.284L295.048 207.617Z" fill="white"/>
<path d="M289.346 201.451C290.63 202.562 293.129 204.868 294.524 206.16L294.717 204.562C292.315 202.424 290.381 201.646 289.346 201.451ZM295.587 209.076L294.579 208.146C294.524 208.09 289.47 203.382 288.048 202.187C287.412 201.674 287.357 201.188 287.412 200.882C287.481 200.507 287.758 200.215 288.158 200.076C289.511 199.632 292.701 200.757 295.946 203.757L296.209 204.007L295.587 209.076Z" fill="black"/>
<path d="M294.621 206.659C294.594 206.923 294.566 207.187 294.511 207.45C294.442 207.881 294.331 208.95 294.967 209.631C295.588 210.298 298.585 211.936 300.007 212.686C300.49 212.95 300.918 213.311 301.264 213.728C301.733 214.325 300.449 220.644 300.449 220.644L305.6 218.783C305.6 218.783 304.978 210.173 303.846 206.673C302.714 203.187 299.731 201.52 298.958 201.631C298.184 201.742 297.949 203.228 297.949 203.228C297.949 203.228 296.279 201.923 295.257 202.617C294.732 202.992 294.994 203.603 294.911 204.201L294.621 206.659Z" fill="white"/>
<path d="M295.325 206.742C295.297 207.02 295.256 207.298 295.2 207.576C295.159 207.826 295.049 208.687 295.477 209.145C295.767 209.465 297.203 210.395 300.337 212.076C300.904 212.381 301.401 212.784 301.801 213.298C301.995 213.534 302.423 214.075 301.373 219.548L304.853 218.298C304.701 216.381 304.107 209.784 303.182 206.895C302.16 203.756 299.578 202.34 299.039 202.326C298.929 202.395 298.708 202.923 298.639 203.34L298.459 204.52L297.52 203.784C297.078 203.451 296.07 202.923 295.656 203.201C295.601 203.284 295.615 203.506 295.615 203.631C295.629 203.84 295.629 204.062 295.601 204.298L295.325 206.742ZM299.509 221.728L299.757 220.506C300.282 217.909 300.765 214.798 300.641 214.103C300.379 213.784 300.047 213.52 299.675 213.326C296.719 211.742 294.966 210.673 294.455 210.117C293.599 209.201 293.723 207.853 293.82 207.326C293.861 207.076 293.889 206.826 293.93 206.576L294.206 204.117C294.22 203.979 294.22 203.84 294.206 203.687C294.192 203.215 294.165 202.506 294.869 202.034C295.725 201.451 296.802 201.77 297.534 202.145C297.769 201.59 298.169 201.02 298.86 200.923C300.144 200.756 303.32 202.77 304.522 206.465C305.668 210.006 306.275 218.381 306.303 218.742L306.344 219.27L299.509 221.728Z" fill="black"/>
<path d="M299.26 210.464C298.707 210.464 298.183 210.173 297.837 209.631C297.009 208.367 297.202 207.089 297.202 207.034C297.271 206.645 297.63 206.381 298.003 206.451C298.39 206.506 298.652 206.867 298.597 207.256C298.597 207.256 298.5 208.062 299.011 208.853C299.08 208.95 299.191 209.075 299.315 209.034C299.55 208.978 299.909 208.52 299.936 207.52C299.992 206.02 298.141 204.256 297.409 203.715C297.106 203.478 297.037 203.034 297.285 202.715C297.52 202.409 297.962 202.34 298.266 202.576C298.39 202.673 301.442 205.034 301.345 207.576C301.29 209.339 300.447 210.187 299.688 210.409C299.55 210.437 299.398 210.464 299.26 210.464Z" fill="black"/>
<path d="M307.2 216.783C304.535 217.381 301.58 218.311 299.37 219.533C298.708 222.811 298.915 228.602 301.566 235.838C302.671 238.838 303.983 242.366 306.869 244.255C312.406 247.852 322.528 244.588 331.615 236.088C331.711 229.241 331.794 222.394 331.877 215.547C329.502 216.353 327.389 217.783 325.76 219.7L322.887 223.033C320.305 227.7 316.853 230.908 314.201 230.325C312.047 229.839 310.86 226.728 308.484 220.492C307.269 217.283 307.725 218.783 307.2 216.783Z" fill="#5479F7"/>
<path d="M374.519 263.254L367.297 269.851L364.466 265.268L356.333 263.254C356.333 263.254 356.651 265.476 360.821 266.018L354.082 265.879C354.082 265.879 355.09 267.782 359.288 267.559L354.966 268.295C354.966 268.295 357.769 268.934 359.122 269.518C360.476 270.101 360.476 270.101 360.476 270.101C360.476 270.101 361.857 270.962 362.754 271.99C363.666 273.031 365.115 274.184 367.063 274.531C369.023 274.879 378.331 270.059 378.331 270.059L374.519 263.254Z" fill="white"/>
<path d="M358.267 268.448C358.681 268.587 359.082 268.726 359.399 268.865L360.753 269.448C360.78 269.462 360.822 269.476 360.849 269.504C360.905 269.532 362.327 270.42 363.28 271.531C363.901 272.24 365.241 273.49 367.188 273.837C368.21 274.004 373.029 271.948 377.351 269.754L374.341 264.379L367.768 270.379C367.616 270.518 367.409 270.587 367.202 270.559C366.994 270.531 366.801 270.406 366.691 270.226L364.012 265.893L358.101 264.421C358.681 264.796 359.565 265.143 360.905 265.323C361.277 265.365 361.554 265.698 361.526 266.073C361.498 266.448 361.181 266.74 360.808 266.726L356.624 266.643C357.273 266.809 358.143 266.907 359.261 266.851C359.634 266.837 359.952 267.101 359.993 267.476C360.035 267.851 359.772 268.198 359.413 268.254L358.267 268.448ZM367.243 275.254C367.133 275.254 367.036 275.24 366.939 275.226C364.564 274.809 362.962 273.309 362.23 272.462C361.485 271.615 360.38 270.879 360.145 270.726L358.847 270.17C357.563 269.615 354.842 268.99 354.815 268.99C354.483 268.92 354.262 268.615 354.262 268.282C354.276 267.934 354.525 267.657 354.856 267.601L355.036 267.573C353.931 267.018 353.531 266.337 353.462 266.212C353.351 265.99 353.351 265.712 353.489 265.504C353.613 265.296 353.834 265.171 354.097 265.171L356.831 265.226C355.795 264.351 355.643 263.421 355.63 263.351C355.602 263.115 355.685 262.879 355.864 262.726C356.03 262.573 356.279 262.504 356.5 262.56L364.633 264.587C364.813 264.629 364.964 264.74 365.061 264.893L367.45 268.754L374.051 262.726C374.203 262.587 374.424 262.518 374.631 262.56C374.838 262.587 375.031 262.712 375.142 262.907L378.939 269.712C379.036 269.879 379.064 270.073 379.008 270.254C378.953 270.448 378.815 270.601 378.649 270.684C377.13 271.476 369.701 275.254 367.243 275.254Z" fill="black"/>
<path d="M378.138 271.559L372.131 263.254C372.131 263.254 385.125 248.977 362.506 237.13L371.399 221.395C371.399 221.395 389.489 231.991 389.157 248.977C388.812 265.962 378.138 271.559 378.138 271.559Z" fill="#5479F7"/>
<path d="M332.761 258.338C332.416 258.338 332.112 258.088 332.071 257.726C332.016 257.338 332.278 256.99 332.665 256.935C341.143 255.727 349.084 252.713 356.264 247.949C356.582 247.741 357.024 247.824 357.231 248.157C357.452 248.477 357.355 248.921 357.038 249.143C349.677 254.004 341.544 257.101 332.872 258.338C332.83 258.338 332.803 258.338 332.761 258.338Z" fill="#FF9F78"/>
<path d="M361.789 201.839C363.169 196.381 359.883 190.812 354.456 189.423C349.015 188.034 343.492 191.326 342.111 196.798C340.716 202.27 344.002 207.825 349.443 209.214C354.87 210.617 360.394 207.312 361.789 201.839Z" fill="black"/>
<path d="M346.723 187.562C346.723 186.882 347.054 186.299 347.551 185.938C347.993 185.632 348.352 185.229 348.545 184.743C348.587 184.632 348.628 184.507 348.67 184.396C348.863 183.952 348.863 183.438 348.753 182.965C348.656 182.493 348.711 181.979 348.974 181.535C349.305 180.952 349.899 180.604 350.506 180.549C351.031 180.493 351.542 180.341 351.956 180.007C352.039 179.924 352.15 179.854 352.232 179.785C352.605 179.493 352.882 179.104 353.006 178.646C353.13 178.16 353.448 177.716 353.917 177.438C354.511 177.105 355.188 177.091 355.754 177.355C356.223 177.577 356.748 177.702 357.259 177.618C357.383 177.591 357.494 177.577 357.618 177.563C358.088 177.507 358.529 177.299 358.861 176.966C359.22 176.605 359.703 176.382 360.256 176.382C360.918 176.382 361.512 176.716 361.871 177.23C362.175 177.674 362.562 178.035 363.059 178.216C363.169 178.271 363.28 178.313 363.39 178.354C363.846 178.549 364.343 178.549 364.826 178.438C365.296 178.327 365.807 178.396 366.249 178.66C366.829 178.993 367.174 179.577 367.229 180.202C367.271 180.729 367.436 181.243 367.768 181.66C367.837 181.743 367.92 181.84 367.989 181.938C368.265 182.313 368.665 182.59 369.107 182.715C369.604 182.84 370.046 183.16 370.322 183.632C370.654 184.215 370.654 184.896 370.391 185.465C370.17 185.951 370.06 186.465 370.143 186.993C370.157 187.118 370.17 187.229 370.184 187.354C370.253 187.826 370.46 188.257 370.792 188.604C371.137 188.965 371.358 189.451 371.358 189.993C371.358 190.673 371.027 191.271 370.516 191.632C370.088 191.923 369.729 192.326 369.535 192.812C369.494 192.937 369.452 193.048 369.397 193.16C369.204 193.618 369.204 194.118 369.314 194.604C369.425 195.076 369.356 195.576 369.107 196.034C368.762 196.618 368.182 196.965 367.561 197.021C367.036 197.062 366.539 197.229 366.124 197.548C366.028 197.632 365.931 197.701 365.834 197.784C365.462 198.062 365.199 198.465 365.075 198.909C364.937 199.409 364.619 199.84 364.15 200.118C363.597 200.437 362.962 200.465 362.41 200.243C361.788 199.979 361.112 199.909 360.449 199.993C360.173 200.034 359.883 200.062 359.593 200.076C359.275 200.729 358.598 201.173 357.825 201.173C356.886 201.173 356.099 200.52 355.906 199.632C355.201 199.423 354.539 199.159 353.917 198.84C353.296 199.243 352.495 199.298 351.832 198.909C351.017 198.437 350.658 197.465 350.921 196.604C350.423 196.076 349.982 195.521 349.595 194.909C348.877 194.951 348.145 194.604 347.758 193.923C347.427 193.34 347.413 192.66 347.675 192.09C347.896 191.604 348.021 191.09 347.938 190.562C347.91 190.451 347.896 190.326 347.883 190.201C347.827 189.729 347.62 189.299 347.289 188.965C346.93 188.604 346.723 188.104 346.723 187.562Z" fill="black"/>
<path d="M351.68 205.118V213.951C351.68 215.118 354.538 216.507 353.613 216.798C352.812 217.048 349.056 219.437 343.684 216.868C342.786 216.437 345.534 215.132 345.534 213.965V210.799L351.68 205.118Z" fill="white"/>
<path d="M344.499 216.451C348.476 218.159 351.362 217.007 352.73 216.409C352.66 216.354 352.605 216.298 352.55 216.257C351.818 215.604 350.976 214.854 350.976 213.951V206.729L346.239 211.118V213.965C346.239 214.854 345.466 215.562 344.775 216.201C344.693 216.271 344.582 216.368 344.499 216.451ZM348.601 218.757C347.095 218.757 345.342 218.437 343.381 217.507C342.953 217.298 342.828 216.951 342.815 216.771C342.718 216.159 343.201 215.715 343.823 215.146C344.154 214.854 344.831 214.229 344.831 213.965V210.799C344.831 210.604 344.914 210.41 345.052 210.285L351.211 204.604C351.418 204.41 351.708 204.354 351.97 204.479C352.219 204.59 352.384 204.84 352.384 205.118V213.951C352.398 214.215 353.158 214.896 353.475 215.187C354.11 215.743 354.608 216.187 354.483 216.798C354.456 216.951 354.318 217.326 353.82 217.479C353.738 217.507 353.613 217.562 353.448 217.632C352.605 218.007 350.907 218.757 348.601 218.757Z" fill="black"/>
<path d="M344.388 198.381C343.933 198.937 341.93 204.256 342.579 207.867C342.897 209.645 344.527 210.895 346.322 210.812C347.965 210.742 350.271 210.117 351.901 207.589C351.901 207.589 354.082 207.826 354.704 205.478C354.704 205.478 354.966 204.353 354.013 204.02C353.295 203.77 352.701 204.437 352.453 204.77C352.37 204.881 352.218 204.937 352.094 204.895C351.887 204.853 351.776 204.631 351.845 204.437C352.329 203.159 353.558 198.909 348.835 197.687C348.835 197.687 345.659 196.812 344.388 198.381Z" fill="white"/>
<path d="M344.927 198.826C344.527 199.396 342.676 204.437 343.27 207.743C343.533 209.159 344.831 210.173 346.281 210.104C347.758 210.048 349.829 209.493 351.307 207.215C351.459 206.993 351.707 206.868 351.97 206.896C352.136 206.909 353.586 206.979 354.027 205.298C354.041 205.215 354.096 204.798 353.779 204.687C353.475 204.59 353.061 205.132 353.019 205.187C352.771 205.535 352.329 205.687 351.915 205.59C351.625 205.507 351.376 205.312 351.238 205.048C351.1 204.785 351.086 204.465 351.183 204.187C351.459 203.465 352.025 201.618 351.279 200.187C350.838 199.326 349.954 198.715 348.656 198.382C347.882 198.174 345.742 197.854 344.927 198.826ZM346.156 211.534C344.071 211.534 342.262 210.034 341.889 207.993C341.199 204.215 343.243 198.66 343.836 197.938C345.383 196.035 348.863 196.965 349.015 197.007C350.713 197.438 351.901 198.299 352.536 199.535C353.226 200.868 353.116 202.368 352.867 203.465C353.323 203.229 353.793 203.187 354.248 203.354C355.464 203.785 355.533 205.035 355.395 205.632C354.856 207.659 353.296 208.243 352.274 208.312C350.492 210.812 348.09 211.451 346.35 211.52C346.281 211.534 346.211 211.534 346.156 211.534Z" fill="black"/>
<path d="M137.515 375.251C139.71 373.459 142.017 371.779 144.364 370.168C149.156 366.918 154.196 364.015 159.292 361.196C161.971 359.723 164.746 358.376 167.494 357.001C170.256 355.613 173.032 354.238 175.793 352.863C178.334 351.613 180.861 350.363 183.388 349.099C189.133 329.558 195.375 307.42 194.132 307.42L99.9265 304.739C97.717 304.739 96.2256 306.559 96.6123 308.781L108.032 374.251C108.419 376.487 110.546 378.292 112.755 378.292H133.717C134.96 377.251 136.272 376.278 137.515 375.251Z" fill="#5479F7"/>
<path d="M196.825 304.961H101.887C99.7883 304.961 98.3936 306.683 98.7526 308.78L110.173 374.25C110.546 376.361 112.534 378.07 114.633 378.07H209.57C211.669 378.07 213.078 376.361 212.705 374.25L201.285 308.78C200.912 306.683 198.924 304.961 196.825 304.961Z" fill="white"/>
<path d="M101.888 305.683C101.087 305.683 100.41 305.975 99.9548 306.516C99.4853 307.086 99.3058 307.836 99.4439 308.669L110.864 374.125C111.182 375.917 112.866 377.361 114.634 377.361H209.571C210.358 377.361 211.049 377.056 211.504 376.514C211.974 375.958 212.153 375.194 212.015 374.375L200.595 308.905C200.278 307.127 198.593 305.683 196.825 305.683H101.888ZM209.571 378.778H114.634C112.217 378.778 109.897 376.806 109.483 374.375L98.0629 308.905C97.842 307.669 98.132 306.488 98.8777 305.614C99.5958 304.739 100.673 304.252 101.888 304.252H196.825C199.242 304.252 201.562 306.238 201.976 308.655L213.396 374.125C213.617 375.375 213.327 376.542 212.582 377.43C211.863 378.292 210.786 378.778 209.571 378.778Z" fill="black"/>
<path d="M193.922 308.764H106.924C105.005 308.764 103.721 310.306 104.052 312.208L114.519 371.304C114.851 373.206 116.687 374.748 118.607 374.748H205.604C207.523 374.748 208.808 373.206 208.476 371.304L198.009 312.208C197.678 310.306 195.841 308.764 193.922 308.764Z" fill="#99B9FF"/>
<path d="M231.569 378.445H114.303C112.742 378.445 111.472 379.667 111.472 381.237C111.472 382.806 112.742 384.028 114.303 384.028H231.569C233.13 384.028 234.4 382.806 234.4 381.237C234.4 379.667 233.13 378.445 231.569 378.445Z" fill="#5479F7"/>
<path d="M114.303 379.154C113.115 379.154 112.176 380.071 112.176 381.237C112.176 382.404 113.115 383.32 114.303 383.32H231.569C232.757 383.32 233.696 382.404 233.696 381.237C233.696 380.071 232.757 379.154 231.569 379.154H114.303ZM231.569 384.737H114.303C112.356 384.737 110.768 383.168 110.768 381.237C110.768 379.307 112.356 377.737 114.303 377.737H231.569C233.558 377.737 235.104 379.279 235.104 381.237C235.104 383.195 233.558 384.737 231.569 384.737Z" fill="#99B9FF"/>
<path d="M147.002 344.21C148.742 344.21 149.958 342.793 149.75 341.057C149.529 339.307 147.941 337.891 146.215 337.891C144.475 337.891 143.26 339.307 143.467 341.057C143.688 342.793 145.276 344.21 147.002 344.21Z" fill="#CADDFF"/>
<path d="M156.047 344.21C157.773 344.21 159.002 342.793 158.781 341.057C158.56 339.307 156.986 337.891 155.246 337.891C153.52 337.891 152.291 339.307 152.512 341.057C152.732 342.793 154.307 344.21 156.047 344.21Z" fill="#CADDFF"/>
<path d="M165.077 344.21C166.817 344.21 168.033 342.793 167.825 341.057C167.604 339.307 166.016 337.891 164.29 337.891C162.55 337.891 161.321 339.307 161.542 341.057C161.763 342.793 163.351 344.21 165.077 344.21Z" fill="#CADDFF"/>
<path d="M248.857 390.431L250.998 390.584L290.671 390.431C292.466 390.431 293.751 388.959 293.516 387.153L283.228 305.351C282.993 303.545 281.35 302.073 279.541 302.073L239.84 301.615C235.269 301.615 234.648 303.545 234.883 305.351L245.184 387.153C245.405 388.959 247.048 390.431 248.857 390.431Z" fill="#5479F7"/>
<path d="M251.371 390.43H293.185C294.994 390.43 296.264 388.958 296.043 387.139L285.742 305.072C285.507 303.267 283.864 301.794 282.068 301.794H240.255C238.446 301.794 237.175 303.267 237.396 305.072L247.698 387.139C247.919 388.958 249.576 390.43 251.371 390.43Z" fill="white"/>
<path d="M240.255 302.503C239.592 302.503 238.998 302.753 238.598 303.211C238.197 303.683 238.018 304.308 238.101 304.989L248.388 387.055C248.582 388.527 249.921 389.708 251.371 389.708H293.185C293.848 389.708 294.428 389.458 294.828 389C295.243 388.541 295.422 387.902 295.339 387.236L285.038 305.169C284.858 303.697 283.519 302.503 282.069 302.503H240.255ZM293.185 391.138H251.371C249.231 391.138 247.27 389.388 246.994 387.236L236.706 305.169C236.568 304.086 236.858 303.058 237.548 302.28C238.211 301.503 239.178 301.086 240.255 301.086H282.069C284.209 301.086 286.17 302.836 286.432 304.989L296.734 387.055C296.872 388.139 296.568 389.166 295.892 389.944C295.215 390.708 294.262 391.138 293.185 391.138Z" fill="black"/>
<path d="M291.776 383.015L282.634 310.156C282.593 309.767 282.234 309.448 281.847 309.448H242.768C242.381 309.448 242.105 309.767 242.146 310.156L251.288 383.015C251.343 383.404 251.688 383.709 252.075 383.709H291.168C291.555 383.709 291.831 383.404 291.776 383.015Z" fill="#99B9FF"/>
<path d="M262.128 307.308C262.791 307.308 263.274 306.753 263.191 306.072C263.108 305.392 262.487 304.85 261.81 304.85C261.133 304.85 260.664 305.392 260.747 306.072C260.83 306.753 261.451 307.308 262.128 307.308Z" fill="#CADDFF"/>
<path d="M260.637 344.807C261.921 344.807 262.832 343.751 262.68 342.46C262.515 341.168 261.341 340.126 260.057 340.126C258.772 340.126 257.861 341.168 258.027 342.46C258.192 343.751 259.352 344.807 260.637 344.807Z" fill="#CADDFF"/>
<path d="M267.347 344.807C268.632 344.807 269.529 343.751 269.377 342.46C269.212 341.168 268.038 340.126 266.753 340.126C265.469 340.126 264.558 341.168 264.724 342.46C264.889 343.751 266.063 344.807 267.347 344.807Z" fill="#CADDFF"/>
<path d="M274.046 344.807C275.33 344.807 276.241 343.751 276.076 342.46C275.91 341.168 274.736 340.126 273.452 340.126C272.168 340.126 271.27 341.168 271.422 342.46C271.588 343.751 272.762 344.807 274.046 344.807Z" fill="#CADDFF"/>
<path d="M165.837 268.032L161.501 267.976V222.992C161.501 221.881 160.811 221.214 159.706 221.214H151.807C150.868 221.214 150.219 221.742 150.219 222.672V267.809L146.339 267.754C145.69 267.754 145.276 268.448 145.621 269.004L154.818 283.726C155.135 284.212 155.812 284.239 156.157 283.767L166.542 269.309C166.914 268.782 166.486 268.032 165.837 268.032Z" fill="white"/>
<path d="M105.133 258.115L100.908 258.046V223.214C100.908 222.117 100.01 221.214 98.9052 221.214H90.9926C90.0674 221.214 89.156 221.964 89.156 222.908V257.893L85.3999 257.838C84.7647 257.824 84.4057 258.532 84.7371 259.074L93.9892 273.809C94.293 274.295 94.9972 274.309 95.3286 273.851L105.768 259.393C106.155 258.865 105.796 258.115 105.133 258.115Z" fill="white"/>
<path d="M263.066 273.226L259.186 273.171V246.546C259.186 244.949 257.998 243.63 256.41 243.63L203.439 243.185C202.665 243.185 202.072 242.547 202.072 241.769L201.671 222.422C201.657 221.492 200.898 220.756 199.973 220.783L190.596 220.95C189.823 220.964 189.215 221.617 189.229 222.395L189.878 249.991C189.878 252.421 191.853 254.282 194.27 254.282H245.777C246.813 254.282 247.448 255.352 247.448 256.393V273.018L243.402 272.948C242.753 272.948 242.422 273.657 242.753 274.198L252.005 288.92C252.309 289.406 253.013 289.434 253.359 288.976L263.743 274.518C264.13 273.976 263.715 273.24 263.066 273.226Z" fill="white"/>
<path d="M277.098 192.841C276.96 192.841 276.821 192.799 276.697 192.716C276.38 192.493 276.297 192.049 276.518 191.73L302.382 153.911C302.589 153.578 303.031 153.495 303.362 153.731C303.68 153.939 303.763 154.384 303.542 154.703L277.678 192.535C277.539 192.729 277.332 192.841 277.098 192.841Z" fill="black"/>
<path d="M286.157 197.424C285.949 197.424 285.729 197.327 285.59 197.132C285.369 196.827 285.439 196.382 285.742 196.146L308.431 179.494C308.734 179.272 309.176 179.341 309.411 179.647C309.646 179.966 309.577 180.411 309.259 180.647L286.571 197.299C286.447 197.382 286.308 197.424 286.157 197.424Z" fill="black"/>
<path d="M31.834 67.7058C31.7235 67.7058 31.6269 67.678 31.5164 67.6364C31.1712 67.4697 31.0331 67.0392 31.1988 66.692C40.2161 47.9565 54.4118 33.3598 73.3717 23.2907C73.7169 23.1101 74.145 23.249 74.3245 23.5962C74.504 23.9434 74.3798 24.374 74.0345 24.5545C55.337 34.4708 41.3485 48.8592 32.4692 67.3031C32.3449 67.553 32.0964 67.7058 31.834 67.7058Z" fill="black"/>
<path d="M21.3943 71.4695C21.3114 71.4695 21.2286 71.4556 21.1457 71.4139C20.7729 71.2751 20.5934 70.8584 20.7315 70.4973C26.1998 56.2478 34.0986 43.8455 44.2207 33.6097C53.9284 23.8045 65.459 16.2214 78.4672 11.0688C78.84 10.9299 79.2405 11.1105 79.3786 11.4716C79.5305 11.8466 79.3509 12.2493 78.9919 12.3882C52.7823 22.749 32.5658 43.5677 22.0571 71.0112C21.9467 71.289 21.6843 71.4695 21.3943 71.4695Z" fill="black"/>
<path d="M18.812 80.7752C18.7706 80.7752 18.7154 80.7613 18.6601 80.7474C18.2735 80.6641 18.0387 80.2891 18.1216 79.9002L18.8396 76.7615C18.9225 76.3726 19.3092 76.1365 19.682 76.2198C20.0687 76.317 20.3034 76.692 20.2206 77.067L19.5025 80.2197C19.4334 80.5391 19.1434 80.7752 18.812 80.7752Z" fill="black"/>
<path d="M16.3262 91.7736C16.271 91.7736 16.2158 91.7736 16.1605 91.7597C15.7877 91.6764 15.5529 91.2875 15.6358 90.9125L16.34 87.7598C16.4367 87.3848 16.8095 87.1487 17.1824 87.2321C17.569 87.3154 17.8038 87.6904 17.7209 88.0793L17.0029 91.218C16.9338 91.5514 16.6438 91.7736 16.3262 91.7736Z" fill="black"/>
<path d="M14.0894 83.7606C14.0341 83.7606 13.9789 83.7467 13.9237 83.7328L10.8442 82.9828C10.4714 82.8856 10.2366 82.5106 10.3333 82.1217C10.43 81.7467 10.8028 81.5106 11.1895 81.6078L14.2551 82.3578C14.6279 82.455 14.8627 82.83 14.766 83.2189C14.697 83.5383 14.407 83.7606 14.0894 83.7606Z" fill="black"/>
<path d="M24.8335 86.3859C24.7782 86.3859 24.723 86.3859 24.6678 86.3721L21.6021 85.6221C21.2155 85.5249 20.9807 85.136 21.0774 84.761C21.1741 84.3721 21.5469 84.1499 21.9336 84.2332L24.9992 84.9971C25.372 85.0804 25.6068 85.4693 25.5239 85.8443C25.4411 86.1776 25.1511 86.3859 24.8335 86.3859Z" fill="black"/>
<path d="M279.071 269.615C278.685 269.615 278.367 269.296 278.367 268.907V265.685C278.367 265.296 278.685 264.977 279.071 264.977C279.458 264.977 279.776 265.296 279.776 265.685V268.907C279.776 269.296 279.458 269.615 279.071 269.615Z" fill="black"/>
<path d="M279.071 280.906C278.685 280.906 278.367 280.587 278.367 280.198V276.976C278.367 276.587 278.685 276.268 279.071 276.268C279.458 276.268 279.776 276.587 279.776 276.976V280.198C279.776 280.587 279.458 280.906 279.071 280.906Z" fill="black"/>
<path d="M275.123 273.587H275.109L271.947 273.546C271.56 273.532 271.256 273.212 271.256 272.823C271.27 272.434 271.574 272.129 271.961 272.129H271.974L275.137 272.171C275.523 272.171 275.827 272.504 275.827 272.893C275.813 273.282 275.51 273.587 275.123 273.587Z" fill="black"/>
<path d="M286.183 273.754C286.169 273.754 286.169 273.754 286.169 273.754L283.007 273.712C282.62 273.698 282.303 273.379 282.316 272.99C282.316 272.601 282.634 272.295 283.021 272.295L286.183 272.337C286.583 272.351 286.887 272.67 286.887 273.059C286.873 273.448 286.556 273.754 286.183 273.754Z" fill="black"/>
<path d="M150.455 186.729C150.303 186.729 150.165 186.687 150.04 186.59C149.723 186.354 149.654 185.91 149.888 185.59L163.987 166.702C164.222 166.383 164.664 166.327 164.968 166.549C165.286 166.785 165.341 167.23 165.106 167.549L151.021 186.437C150.883 186.632 150.676 186.729 150.455 186.729Z" fill="#CADDFF"/>
<path d="M177.699 192.395C177.534 192.395 177.382 192.34 177.244 192.229C176.954 191.979 176.912 191.534 177.161 191.229L195.941 168.563C196.19 168.257 196.645 168.216 196.935 168.466C197.239 168.716 197.281 169.16 197.032 169.466L178.238 192.145C178.1 192.312 177.893 192.395 177.699 192.395Z" fill="#CADDFF"/>
</svg>
