<svg width="390" height="392" viewBox="0 0 390 392" fill="none" xmlns="http://www.w3.org/2000/svg">
<path d="M110.63 13.3109C87.0849 21.4903 65.6315 33.9445 48.0291 51.4258C1.33087 97.8395 -6.00249 165.388 5.38384 225.642C7.65397 237.594 8.67612 249.738 10.9581 261.691C18.2915 300.116 39.4121 336.535 71.6931 360.692C104.057 384.907 155.165 398.699 195.481 387.654C207.866 384.263 218.598 376.059 222.39 363.904C230.65 337.515 240.361 318.481 266.937 304.845C286.571 294.779 308.5 289.142 327.66 278.264C376.628 250.478 397.749 192.422 387.444 140.146C379.647 100.658 355.864 58.6261 321.931 34.458C296.543 16.3796 263.668 8.45097 232.992 3.34032C192.902 -3.33456 148.961 -0.00309305 110.63 13.3109Z" fill="url(#paint0_linear_244_707)"/>
<path d="M298.968 296.414C291.254 290.862 283.255 285.691 275.138 280.748C258.652 270.741 241.561 261.786 224.351 253.105C215.306 248.543 206.011 244.412 196.8 240.161C187.541 235.886 178.271 231.659 168.988 227.432C160.514 223.563 152.039 219.695 143.577 215.802C115.373 155.597 84.2443 87.3431 88.0596 87.3431L376.901 79.104C383.736 79.104 389.298 84.6923 389.298 91.5702V293.321C389.298 300.199 383.736 305.787 376.901 305.787H312.304C307.942 302.563 303.378 299.578 298.968 296.414Z" fill="url(#paint1_linear_244_707)"/>
<path d="M88.1078 88.06H88.084C88.0959 88.06 88.0959 88.06 88.1078 88.06ZM312.542 305.083H376.902C383.344 305.083 388.586 299.806 388.586 293.322V91.5706C388.586 85.0867 383.344 79.8209 376.902 79.8209L88.4287 88.048C88.3336 91.1049 95.9166 112.383 144.1 215.265C152.527 219.134 161.037 223.026 169.286 226.776C178.723 231.086 187.958 235.302 197.098 239.517C199.166 240.484 201.246 241.427 203.326 242.382C210.362 245.606 217.648 248.938 224.672 252.472C240.029 260.222 258.083 269.56 275.495 280.151C284.433 285.584 292.253 290.707 299.373 295.841C301.298 297.214 303.283 298.588 305.209 299.913C307.621 301.585 310.129 303.304 312.542 305.083ZM376.902 306.504H312.079L311.888 306.361C309.44 304.558 306.885 302.791 304.4 301.083C302.487 299.758 300.49 298.385 298.553 296.988C291.457 291.889 283.672 286.778 274.77 281.357C257.393 270.801 239.375 261.476 224.031 253.738C217.042 250.216 209.768 246.884 202.744 243.672C200.664 242.717 198.584 241.773 196.516 240.806C187.376 236.591 178.141 232.376 168.703 228.077C160.384 224.28 151.779 220.352 143.28 216.447L143.043 216.34L142.936 216.113C84.5302 91.4153 86.5032 88.2749 87.252 87.0928C87.4303 86.8062 87.7275 86.639 88.0602 86.639L376.878 78.3999C384.129 78.3999 390 84.3106 390 91.5706V293.322C390 300.594 384.129 306.504 376.902 306.504Z" fill="black"/>
<path d="M78.4678 79.8086H371.006C377.472 79.8086 382.701 85.0745 382.701 91.5702V293.321C382.701 299.817 377.472 305.083 371.006 305.083H78.4678C72.0021 305.083 66.7725 299.817 66.7725 293.321V91.5702C66.7725 85.0745 72.0021 79.8086 78.4678 79.8086Z" fill="white"/>
<path d="M78.4679 80.525C72.4063 80.525 67.4738 85.4804 67.4738 91.5702V293.321C67.4738 299.423 72.4063 304.378 78.4679 304.378H371.006C377.068 304.378 381.988 299.423 381.988 293.321V91.5702C381.988 85.4804 377.068 80.525 371.006 80.525H78.4679ZM371.006 305.799H78.4679C71.6337 305.799 66.0713 300.199 66.0713 293.321V91.5702C66.0713 84.6923 71.6337 79.104 78.4679 79.104H371.006C377.84 79.104 383.403 84.6923 383.403 91.5702V293.321C383.403 300.199 377.84 305.799 371.006 305.799Z" fill="black"/>
<path d="M252.699 305.979H372.124C376.938 305.979 380.86 309.931 380.86 314.767C380.86 319.615 376.938 323.556 372.124 323.556H249.133C244.319 323.556 252.699 305.979 252.699 305.979Z" fill="url(#paint2_linear_244_707)"/>
<path d="M253.149 306.695C250.665 311.985 247.373 320.63 248.597 322.576C248.68 322.708 248.799 322.839 249.132 322.839H372.123C376.557 322.839 380.158 319.221 380.158 314.767C380.158 310.313 376.557 306.695 372.123 306.695H253.149ZM372.123 324.26H249.132C248.383 324.26 247.777 323.938 247.397 323.329C245.364 320.093 250.927 308.056 252.068 305.68L252.258 305.274H372.123C377.329 305.274 381.56 309.537 381.56 314.767C381.56 319.997 377.329 324.26 372.123 324.26Z" fill="black"/>
<path d="M10.8277 305.979H292.74C297.566 305.979 301.476 309.919 301.476 314.767C301.476 319.615 297.566 323.556 292.74 323.556H10.8277C6.00213 323.556 2.0918 319.615 2.0918 314.767C2.0918 309.919 6.00213 305.979 10.8277 305.979Z" fill="url(#paint3_linear_244_707)"/>
<path d="M10.8277 306.695C6.39443 306.695 2.79312 310.313 2.79312 314.767C2.79312 319.221 6.39443 322.839 10.8277 322.839H292.74C297.162 322.839 300.763 319.221 300.763 314.767C300.763 310.313 297.162 306.695 292.74 306.695H10.8277ZM292.74 324.26H10.8277C5.62187 324.26 1.39062 319.997 1.39062 314.767C1.39062 309.537 5.62187 305.274 10.8277 305.274H292.74C297.946 305.274 302.177 309.537 302.177 314.767C302.177 319.997 297.946 324.26 292.74 324.26Z" fill="black"/>
<path d="M88.9754 88.3228H362.223C368.249 88.3228 373.134 93.2543 373.134 99.3441V288.39C373.134 294.48 368.249 299.412 362.223 299.412H88.9754C82.9494 299.412 78.0645 294.48 78.0645 288.39V99.3441C78.0645 93.2543 82.9494 88.3228 88.9754 88.3228Z" fill="url(#paint4_linear_244_707)"/>
<path d="M373.182 106.078L373.503 99.2482C373.503 93.2182 368.404 88.418 362.366 88.418H89.1299C83.104 88.418 78.1596 93.2182 78.1596 99.2482L77.8506 107.655L373.182 106.078Z" fill="url(#paint5_linear_244_707)"/>
<path d="M95.3216 99.5347C95.3216 101.493 93.7527 103.081 91.8034 103.081C89.8542 103.081 88.2734 101.493 88.2734 99.5347C88.2734 97.5764 89.8542 95.9763 91.8034 95.9763C93.7527 95.9763 95.3216 97.5764 95.3216 99.5347Z" fill="#7596DB"/>
<path d="M106.614 99.2959C106.614 101.254 105.033 102.842 103.084 102.842C101.146 102.842 99.5654 101.254 99.5654 99.2959C99.5654 97.3376 101.146 95.7495 103.084 95.7495C105.033 95.7495 106.614 97.3376 106.614 99.2959Z" fill="#7596DB"/>
<path d="M118.843 99.7617C118.843 101.732 117.262 103.32 115.313 103.32C113.364 103.32 111.783 101.732 111.783 99.7617C111.783 97.8035 113.364 96.2153 115.313 96.2153C117.262 96.2153 118.843 97.8035 118.843 99.7617Z" fill="#7596DB"/>
<path d="M358.919 265.332H93.5394C92.2201 265.332 91.1504 264.258 91.1504 262.92V136.229C91.1504 134.903 92.2201 133.829 93.5394 133.829H358.919C360.239 133.829 361.308 134.903 361.308 136.229V262.92C361.308 264.258 360.239 265.332 358.919 265.332Z" fill="white"/>
<path d="M143.065 152.982H102.429V142.617H143.065V152.982Z" fill="#7596DB"/>
<path d="M312.364 153.447H167.99V143.071H312.364V153.447Z" fill="#7596DB"/>
<path d="M142.591 204.614H101.966V194.249H142.591V204.614Z" fill="#7596DB"/>
<path d="M311.888 205.079H167.515V194.703H311.888V205.079Z" fill="#7596DB"/>
<path d="M141.652 255.326H101.027V244.949H141.652V255.326Z" fill="#7596DB"/>
<path d="M310.949 255.78H166.575V245.415H310.949V255.78Z" fill="#7596DB"/>
<path d="M205.644 170.964H167.812V160.588H205.644V170.964Z" fill="#7596DB"/>
<path d="M345.287 171.418H210.885V161.054H345.287V171.418Z" fill="#7596DB"/>
<path d="M205.168 188.016H167.349V177.651H205.168V188.016Z" fill="#7596DB"/>
<path d="M344.811 188.482H210.409V178.105H344.811V188.482Z" fill="#7596DB"/>
<path d="M205.168 222.13H167.349V211.754H205.168V222.13Z" fill="#7596DB"/>
<path d="M344.811 222.596H210.409V212.22H344.811V222.596Z" fill="#7596DB"/>
<path d="M204.692 239.182H166.873V228.818H204.692V239.182Z" fill="#7596DB"/>
<path d="M344.335 239.648H209.946V229.271H344.335V239.648Z" fill="#7596DB"/>
<path d="M290.161 124.586H92.7427V114.21H290.161V124.586Z" fill="url(#paint6_linear_244_707)"/>
<path d="M359.857 124.109H329.454V113.744H359.857V124.109Z" fill="url(#paint7_linear_244_707)"/>
<path d="M360.797 285.894H90.3896V275.53H360.797V285.894Z" fill="url(#paint8_linear_244_707)"/>
<path d="M240.42 371.486H359.68C362.746 371.486 365.218 368.99 365.218 365.909V138.044C365.218 134.963 362.746 132.467 359.68 132.467H240.42C237.354 132.467 234.882 134.963 234.882 138.044V365.909C234.882 368.99 237.354 371.486 240.42 371.486Z" fill="#802EE3"/>
<path d="M247.112 133.172C240.754 133.172 235.583 138.378 235.583 144.767V359.187C235.583 365.575 240.754 370.77 247.112 370.77H352.988C359.347 370.77 364.517 365.575 364.517 359.187V144.767C364.517 138.378 359.347 133.172 352.988 133.172H247.112ZM352.988 372.19H247.112C239.981 372.19 234.169 366.351 234.169 359.187V144.767C234.169 137.59 239.981 131.751 247.112 131.751H352.988C360.12 131.751 365.932 137.59 365.932 144.767V359.187C365.932 366.351 360.12 372.19 352.988 372.19Z" fill="black"/>
<path d="M358.765 363.701V150.857C358.765 150.152 358.182 149.579 357.481 149.579H242.62C241.918 149.579 241.336 150.152 241.336 150.857V363.701C241.336 364.405 241.918 364.978 242.62 364.978H357.481C358.182 364.978 358.765 364.405 358.765 363.701Z" fill="#7596DB"/>
<path d="M300.05 143.728C301.868 143.728 303.342 142.235 303.342 140.408C303.342 138.581 301.868 137.089 300.05 137.089C298.231 137.089 296.757 138.581 296.757 140.408C296.757 142.235 298.231 143.728 300.05 143.728Z" fill="#7596DB"/>
<path d="M240.919 166.463V152.409C240.919 150.845 242.369 149.436 243.926 149.436H355.697C357.254 149.436 358.479 150.845 358.479 152.409V166.463H240.919Z" fill="url(#paint9_linear_244_707)"/>
<path d="M347.557 158.666C347.557 160.624 349.137 162.212 351.087 162.212C353.036 162.212 354.617 160.624 354.617 158.666C354.617 156.695 353.036 155.107 351.087 155.107C349.137 155.107 347.557 156.695 347.557 158.666Z" fill="#7596DB"/>
<path d="M336.277 158.427C336.277 160.385 337.846 161.973 339.795 161.973C341.744 161.973 343.325 160.385 343.325 158.427C343.325 156.468 341.744 154.868 339.795 154.868C337.846 154.868 336.277 156.468 336.277 158.427Z" fill="#7596DB"/>
<path d="M324.047 158.893C324.047 160.851 325.628 162.439 327.565 162.439C329.514 162.439 331.095 160.851 331.095 158.893C331.095 156.934 329.514 155.346 327.565 155.346C325.628 155.346 324.047 156.934 324.047 158.893Z" fill="#7596DB"/>
<path d="M246.339 336.285H352.37C352.964 336.285 353.428 335.807 353.428 335.222V194.5C353.428 193.903 352.964 193.425 352.37 193.425H246.339C245.745 193.425 245.27 193.903 245.27 194.5V335.222C245.27 335.807 245.745 336.285 246.339 336.285Z" fill="#FAFAFA"/>
<path d="M332.51 218.262H349.268V207.897H332.51V218.262Z" fill="#7596DB"/>
<path d="M262.623 218.728H322.217V208.363H262.623V218.728Z" fill="#7596DB"/>
<path d="M332.699 269.894H349.47V259.529H332.699V269.894Z" fill="#7596DB"/>
<path d="M262.812 270.36H322.406V259.983H262.812V270.36Z" fill="#7596DB"/>
<path d="M333.08 320.606H349.862V310.229H333.08V320.606Z" fill="#7596DB"/>
<path d="M263.204 321.06H322.798V310.695H263.204V321.06Z" fill="#7596DB"/>
<path d="M306.67 236.245H322.287V225.88H306.67V236.245Z" fill="#7596DB"/>
<path d="M249.025 236.71H304.507V226.333H249.025V236.71Z" fill="#7596DB"/>
<path d="M306.873 253.296H322.478V242.932H306.873V253.296Z" fill="#7596DB"/>
<path d="M249.227 253.762H304.709V243.385H249.227V253.762Z" fill="#7596DB"/>
<path d="M306.873 287.411H322.478V277.046H306.873V287.411Z" fill="#7596DB"/>
<path d="M249.227 287.877H304.709V277.5H249.227V287.877Z" fill="#7596DB"/>
<path d="M307.062 304.474H322.68V294.098H307.062V304.474Z" fill="#7596DB"/>
<path d="M249.418 304.928H304.9V294.552H249.418V304.928Z" fill="#7596DB"/>
<path d="M273.723 187.025H352.964V176.66H273.723V187.025Z" fill="url(#paint10_linear_244_707)"/>
<path d="M244.794 186.559H263.146V176.182H244.794V186.559Z" fill="url(#paint11_linear_244_707)"/>
<path d="M246.208 355.438H352.964V345.061H246.208V355.438Z" fill="url(#paint12_linear_244_707)"/>
<path d="M244.164 150.283C242.999 150.283 242.048 151.239 242.048 152.409V362.136C242.048 363.318 242.999 364.274 244.164 364.274H355.935C357.1 364.274 358.051 363.318 358.051 362.136V152.409C358.051 151.239 357.1 150.283 355.935 150.283H244.164ZM355.935 365.695H244.164C242.215 365.695 240.634 364.095 240.634 362.136V152.409C240.634 150.45 242.215 148.862 244.164 148.862H355.935C357.884 148.862 359.465 150.45 359.465 152.409V362.136C359.465 364.095 357.884 365.695 355.935 365.695Z" fill="black"/>
<path d="M194.982 141.554C187.993 139.68 183.845 132.444 185.723 125.411C187.589 118.377 194.78 114.21 201.768 116.097C208.769 117.983 212.917 125.208 211.039 132.241C209.161 139.274 201.982 143.441 194.982 141.554ZM196.61 150.128C197.798 150.223 198.987 150.235 200.152 150.128L202.731 155.083L207.652 153.758L207.426 148.17C208.495 147.656 209.529 147.059 210.504 146.379L215.199 149.376L218.8 145.758L215.829 141.029C216.506 140.062 217.089 139.023 217.6 137.936L223.162 138.163L224.481 133.22L219.561 130.617C219.656 129.411 219.656 128.217 219.561 127.046L224.481 124.443L223.162 119.5L217.6 119.727C217.101 118.652 216.506 117.613 215.829 116.634L218.8 111.906L215.199 108.288L210.504 111.273C209.541 110.592 208.519 110.007 207.438 109.494L207.663 103.905L202.743 102.58L200.152 107.523C198.963 107.428 197.775 107.428 196.61 107.523L194.019 102.58L189.11 103.905L189.324 109.494C188.254 109.995 187.232 110.592 186.258 111.273L181.563 108.276L177.962 111.906L180.921 116.622C180.255 117.589 179.661 118.628 179.162 119.715L173.6 119.5L172.28 124.443L177.201 127.046C177.106 128.241 177.106 129.435 177.201 130.605L172.28 133.208L173.6 138.151L179.15 137.936C179.661 139.011 180.255 140.038 180.921 141.017L177.95 145.746L181.551 149.364L186.246 146.379C187.208 147.059 188.243 147.656 189.324 148.17L189.098 153.746L194.019 155.071L196.61 150.128Z" fill="#802EE3"/>
<path d="M193.734 139.381C186.745 137.495 182.597 130.259 184.475 123.226C186.341 116.192 193.532 112.025 200.52 113.912C207.509 115.798 211.657 123.023 209.791 130.056C207.913 137.089 200.722 141.268 193.734 139.381ZM195.35 147.943C196.55 148.05 197.727 148.05 198.904 147.955L201.483 152.898L206.404 151.573L206.178 145.985C207.247 145.471 208.27 144.874 209.244 144.205L213.951 147.191L217.552 143.573L214.581 138.844C215.246 137.877 215.841 136.85 216.352 135.751L221.902 135.978L223.222 131.035L218.301 128.432C218.408 127.226 218.408 126.044 218.313 124.861L223.222 122.27L221.914 117.315L216.352 117.542C215.841 116.467 215.258 115.428 214.581 114.461L217.552 109.732L213.951 106.102L209.256 109.088C208.293 108.419 207.271 107.822 206.178 107.308L206.404 101.72L201.495 100.395L198.904 105.35C197.715 105.243 196.527 105.243 195.35 105.338L192.771 100.395L187.862 101.72L188.076 107.308C187.006 107.81 185.984 108.407 185.01 109.088L180.303 106.102L176.714 109.721L179.673 114.437C179.007 115.416 178.413 116.443 177.902 117.53L172.352 117.315L171.032 122.258L175.953 124.861C175.858 126.055 175.846 127.25 175.941 128.432L171.032 131.023L172.352 135.966L177.902 135.751C178.401 136.826 178.996 137.853 179.673 138.832L176.702 143.561L180.303 147.179L184.998 144.205C185.96 144.874 186.994 145.471 188.076 145.985L187.85 151.573L192.771 152.898L195.35 147.943Z" fill="#FF9F78"/>
<path d="M197.133 114.174C191.654 114.174 186.638 117.852 185.153 123.416C184.297 126.628 184.737 129.996 186.389 132.873C188.041 135.763 190.715 137.829 193.912 138.689C200.521 140.48 207.331 136.515 209.114 129.876C210.873 123.225 206.939 116.383 200.342 114.592C199.273 114.306 198.191 114.174 197.133 114.174ZM197.121 140.539C195.945 140.539 194.744 140.384 193.556 140.062C189.99 139.107 187.007 136.802 185.165 133.59C183.322 130.378 182.835 126.628 183.786 123.046C185.759 115.643 193.354 111.249 200.711 113.219C208.068 115.213 212.442 122.843 210.469 130.235C208.817 136.444 203.219 140.539 197.121 140.539ZM198.904 147.238C199.166 147.238 199.403 147.381 199.522 147.62L201.84 152.062L205.667 151.035L205.477 146.008C205.465 145.722 205.62 145.459 205.881 145.34C206.915 144.85 207.913 144.265 208.841 143.62C209.078 143.453 209.387 143.441 209.625 143.596L213.844 146.283L216.649 143.465L213.987 139.226C213.832 138.987 213.844 138.677 213.999 138.438C214.641 137.506 215.223 136.503 215.71 135.453C215.829 135.19 216.091 135.035 216.376 135.047L221.368 135.25L222.402 131.393L217.98 129.052C217.719 128.921 217.576 128.658 217.6 128.372C217.695 127.202 217.707 126.043 217.612 124.921C217.588 124.634 217.731 124.36 217.98 124.228L222.402 121.9L221.38 118.055L216.376 118.246C216.103 118.27 215.829 118.103 215.722 117.84C215.223 116.801 214.653 115.798 213.999 114.855C213.844 114.628 213.832 114.317 213.987 114.079L216.661 109.828L213.856 107.01L209.637 109.684C209.399 109.84 209.09 109.828 208.852 109.673C207.937 109.028 206.927 108.443 205.881 107.953C205.631 107.834 205.465 107.559 205.477 107.272L205.679 102.257L201.852 101.218L199.534 105.672C199.403 105.923 199.13 106.066 198.845 106.054C197.692 105.947 196.539 105.947 195.422 106.043C195.137 106.066 194.863 105.923 194.732 105.672L192.415 101.218L188.588 102.257L188.778 107.272C188.802 107.559 188.635 107.834 188.386 107.953C187.351 108.443 186.353 109.016 185.414 109.673C185.176 109.828 184.879 109.84 184.63 109.684L180.41 106.998L177.605 109.816L180.268 114.067C180.422 114.306 180.41 114.616 180.256 114.843C179.614 115.774 179.032 116.777 178.544 117.84C178.425 118.091 178.152 118.258 177.879 118.246L172.887 118.043L171.865 121.888L176.286 124.228C176.536 124.36 176.678 124.634 176.655 124.921C176.559 126.079 176.559 127.237 176.655 128.372C176.678 128.646 176.524 128.921 176.274 129.052L171.853 131.393L172.887 135.238L177.879 135.035C178.152 135.023 178.425 135.19 178.544 135.441C179.032 136.48 179.602 137.483 180.256 138.426C180.422 138.665 180.422 138.975 180.268 139.214L177.605 143.465L180.41 146.283L184.618 143.596C184.867 143.453 185.165 143.453 185.402 143.62C186.329 144.265 187.328 144.838 188.374 145.34C188.635 145.459 188.79 145.722 188.778 146.008L188.576 151.035L192.403 152.062L194.732 147.608C194.863 147.358 195.137 147.214 195.41 147.238C196.563 147.334 197.716 147.334 198.845 147.238C198.857 147.238 198.88 147.238 198.904 147.238ZM201.483 153.603C201.222 153.603 200.984 153.459 200.853 153.232L198.488 148.695C197.597 148.743 196.682 148.743 195.766 148.683L193.389 153.221C193.235 153.519 192.902 153.662 192.581 153.579L187.672 152.253C187.351 152.17 187.138 151.871 187.149 151.537L187.351 146.414C186.531 146.008 185.735 145.543 184.986 145.053L180.684 147.787C180.398 147.967 180.042 147.919 179.804 147.68L176.203 144.062C175.977 143.823 175.93 143.465 176.108 143.178L178.83 138.844C178.33 138.08 177.879 137.292 177.475 136.48L172.376 136.683C172.043 136.694 171.746 136.468 171.663 136.157L170.355 131.202C170.26 130.879 170.415 130.545 170.7 130.39L175.204 128.014C175.157 127.106 175.157 126.187 175.216 125.267L170.7 122.879C170.415 122.736 170.26 122.389 170.355 122.067L171.674 117.124C171.758 116.801 172.043 116.586 172.376 116.598L177.475 116.801C177.879 115.977 178.33 115.177 178.83 114.425L176.108 110.102C175.941 109.816 175.977 109.446 176.215 109.219L179.804 105.601C180.042 105.362 180.41 105.314 180.684 105.493L184.998 108.24C185.759 107.738 186.543 107.272 187.351 106.866L187.149 101.744C187.138 101.41 187.351 101.123 187.672 101.027L192.593 99.702C192.914 99.6184 193.247 99.7736 193.401 100.06L195.766 104.598C196.658 104.538 197.573 104.538 198.5 104.598L200.865 100.06C201.02 99.7736 201.353 99.6184 201.674 99.702L206.594 101.027C206.915 101.123 207.129 101.421 207.117 101.744L206.915 106.866C207.735 107.284 208.52 107.738 209.268 108.24L213.583 105.505C213.856 105.326 214.225 105.362 214.45 105.601L218.052 109.219C218.29 109.458 218.325 109.828 218.147 110.102L215.425 114.437C215.924 115.201 216.388 116.001 216.792 116.813L221.879 116.61C222.212 116.598 222.509 116.813 222.592 117.136L223.911 122.079C223.995 122.401 223.852 122.736 223.555 122.891L219.05 125.279C219.098 126.175 219.098 127.094 219.038 128.014L223.555 130.402C223.852 130.557 223.995 130.891 223.911 131.214L222.592 136.157C222.509 136.48 222.2 136.694 221.879 136.683L216.78 136.48C216.376 137.303 215.924 138.104 215.425 138.856L218.147 143.19C218.325 143.477 218.278 143.835 218.052 144.074L214.45 147.692C214.213 147.919 213.844 147.967 213.571 147.787L209.257 145.041C208.508 145.555 207.711 146.008 206.903 146.414L207.105 151.549C207.117 151.871 206.903 152.17 206.582 152.253L201.662 153.579C201.602 153.603 201.543 153.603 201.483 153.603Z" fill="black"/>
<path d="M146.132 215.659C134.176 212.435 127.08 200.064 130.289 188.028C133.486 175.992 145.788 168.851 157.756 172.075C169.713 175.311 176.809 187.67 173.612 199.706C170.403 211.742 158.101 218.883 146.132 215.659ZM148.902 230.31C150.946 230.489 152.978 230.489 154.975 230.322L159.397 238.788L167.812 236.519L167.431 226.955C169.262 226.083 171.021 225.068 172.685 223.91L180.731 229.021L186.888 222.823L181.813 214.751C182.954 213.092 183.964 211.324 184.844 209.45L194.352 209.844L196.598 201.378L188.183 196.924C188.35 194.87 188.362 192.828 188.195 190.822L196.598 186.368L194.352 177.914L184.844 178.284C183.976 176.445 182.966 174.678 181.813 173.006L186.9 164.911L180.731 158.725L172.708 163.824C171.056 162.678 169.297 161.651 167.443 160.779L167.823 151.215L159.409 148.946L154.987 157.424C152.943 157.245 150.91 157.245 148.914 157.412L144.492 148.946L136.077 151.215L136.458 160.779C134.627 161.651 132.868 162.666 131.204 163.824L123.158 158.713L117.001 164.911L122.076 172.983C120.935 174.642 119.925 176.41 119.057 178.284L109.549 177.89L107.291 186.356L115.705 190.81C115.539 192.864 115.527 194.906 115.705 196.912L107.291 201.366L109.537 209.832L119.045 209.45C119.913 211.289 120.923 213.056 122.076 214.727L116.989 222.823L123.158 229.021L131.192 223.91C132.833 225.068 134.592 226.083 136.446 226.955L136.065 236.519L144.48 238.788L148.902 230.31Z" fill="#5479F7"/>
<path d="M144.171 211.241C155.747 214.357 167.681 207.432 170.783 195.789C173.885 184.159 166.991 172.147 155.427 169.03C149.828 167.526 143.969 168.29 138.941 171.203C133.926 174.129 130.324 178.834 128.827 184.47C127.317 190.118 128.09 196.004 130.99 201.055C133.89 206.106 138.573 209.724 144.171 211.241ZM149.84 213.414C147.832 213.414 145.811 213.139 143.814 212.602C137.848 211.002 132.856 207.145 129.766 201.76C126.675 196.386 125.855 190.106 127.46 184.111C129.064 178.105 132.892 173.09 138.24 169.985C143.589 166.869 149.828 166.045 155.795 167.657C168.108 170.977 175.454 183.765 172.149 196.16C170.545 202.166 166.718 207.181 161.369 210.286C157.804 212.351 153.846 213.414 149.84 213.414ZM152.836 225.88C153.097 225.88 153.335 226.023 153.454 226.262L157.613 234.227L164.935 232.245L164.578 223.253C164.567 222.967 164.733 222.704 164.983 222.584C166.777 221.737 168.513 220.722 170.141 219.587C170.367 219.432 170.676 219.42 170.913 219.575L178.484 224.388L183.845 218.99L179.079 211.396C178.924 211.145 178.924 210.847 179.091 210.608C180.208 208.996 181.206 207.253 182.062 205.426C182.181 205.163 182.442 205.008 182.728 205.008L191.666 205.378L193.627 198.01L185.711 193.819C185.461 193.688 185.307 193.413 185.331 193.127C185.497 191.109 185.509 189.103 185.342 187.144C185.319 186.858 185.473 186.595 185.723 186.452L193.639 182.272L191.677 174.905L182.728 175.263C182.442 175.275 182.181 175.12 182.062 174.857C181.218 173.054 180.22 171.311 179.091 169.675C178.924 169.448 178.924 169.138 179.067 168.899L183.857 161.281L178.496 155.883L170.937 160.696C170.699 160.839 170.39 160.839 170.153 160.672C168.56 159.549 166.813 158.546 164.994 157.686C164.745 157.567 164.578 157.304 164.59 157.018L164.947 148.026L157.625 146.044L153.465 154.021C153.335 154.271 153.061 154.415 152.776 154.391C150.779 154.224 148.771 154.212 146.833 154.379C146.548 154.403 146.275 154.259 146.144 154.009L141.996 146.044L134.663 148.014L135.019 157.018C135.031 157.304 134.876 157.567 134.615 157.686C132.832 158.534 131.097 159.537 129.469 160.672C129.231 160.839 128.934 160.839 128.684 160.696L121.125 155.883L115.753 161.269L120.531 168.875C120.685 169.114 120.673 169.424 120.519 169.663C119.402 171.275 118.403 173.018 117.547 174.845C117.429 175.108 117.155 175.263 116.882 175.251L107.932 174.893L105.971 182.261L113.899 186.452C114.148 186.583 114.291 186.858 114.267 187.132C114.101 189.15 114.101 191.168 114.255 193.127C114.279 193.413 114.136 193.676 113.887 193.807L105.971 197.998L107.932 205.354L116.882 205.008C117.155 204.996 117.429 205.151 117.547 205.414C118.391 207.205 119.39 208.948 120.519 210.584C120.673 210.823 120.685 211.133 120.531 211.372L115.753 218.99L121.113 224.376L128.672 219.575C128.91 219.42 129.219 219.432 129.445 219.587C131.049 220.71 132.785 221.713 134.603 222.573C134.865 222.704 135.019 222.967 135.007 223.253L134.651 232.245L141.972 234.227L146.144 226.25C146.275 226 146.548 225.844 146.821 225.88C148.83 226.047 150.827 226.047 152.776 225.88C152.8 225.88 152.812 225.88 152.836 225.88ZM157.257 235.767C156.995 235.767 156.746 235.624 156.627 235.385L152.42 227.337C150.708 227.456 148.937 227.456 147.178 227.325L142.959 235.385C142.804 235.672 142.471 235.827 142.15 235.743L133.747 233.474C133.426 233.379 133.213 233.092 133.224 232.758L133.581 223.659C131.988 222.883 130.455 221.999 129.029 221.02L121.386 225.88C121.113 226.059 120.745 226.023 120.507 225.785L114.35 219.587C114.124 219.349 114.077 218.99 114.255 218.704L119.093 211.002C118.118 209.545 117.238 208.017 116.466 206.441L107.421 206.799C107.1 206.811 106.803 206.596 106.72 206.273L104.461 197.807C104.378 197.485 104.521 197.151 104.818 196.995L112.817 192.768C112.698 191.037 112.698 189.258 112.829 187.491L104.818 183.252C104.521 183.096 104.378 182.762 104.461 182.44L106.72 173.974C106.803 173.663 107.088 173.436 107.433 173.448L116.478 173.818C117.238 172.218 118.118 170.678 119.093 169.233L114.267 161.555C114.089 161.269 114.124 160.91 114.362 160.672L120.519 154.474C120.756 154.236 121.113 154.2 121.398 154.379L129.053 159.239C130.503 158.26 132.024 157.376 133.593 156.6L133.236 147.513C133.224 147.179 133.438 146.88 133.759 146.796L142.174 144.528C142.495 144.444 142.828 144.587 142.982 144.886L147.178 152.934C148.901 152.815 150.66 152.815 152.431 152.946L156.639 144.886C156.793 144.587 157.126 144.444 157.447 144.528L165.862 146.796C166.183 146.88 166.397 147.179 166.385 147.513L166.017 156.612C167.609 157.388 169.142 158.272 170.581 159.239L178.223 154.391C178.496 154.212 178.865 154.247 179.091 154.486L185.247 160.684C185.485 160.91 185.521 161.281 185.354 161.567L180.517 169.257C181.492 170.714 182.371 172.254 183.132 173.83L192.177 173.46C192.509 173.448 192.807 173.675 192.89 173.998L195.148 182.452C195.231 182.774 195.077 183.108 194.791 183.264L186.792 187.491C186.911 189.234 186.899 191.001 186.781 192.78L194.791 197.019C195.077 197.163 195.231 197.509 195.136 197.831L192.89 206.285C192.795 206.608 192.509 206.835 192.177 206.811L183.132 206.453C182.359 208.053 181.48 209.593 180.517 211.026L185.342 218.716C185.521 218.99 185.473 219.36 185.247 219.599L179.079 225.797C178.853 226.023 178.484 226.071 178.211 225.892L170.557 221.02C169.107 222.011 167.585 222.895 166.017 223.659L166.373 232.758C166.385 233.092 166.171 233.391 165.85 233.474L157.435 235.743C157.376 235.755 157.316 235.767 157.257 235.767Z" fill="black"/>
<path d="M318.639 97.171L323.714 97.0157C324.618 96.9919 325.165 98.0068 324.665 98.7591L308.525 123.106C308.121 123.727 307.253 123.775 306.766 123.226L286.596 99.8935C285.978 99.177 286.465 98.0665 287.404 98.0426L293.204 97.8755C293.929 40.1419 232.481 23.592 220.108 79.427L196.444 78.9135C209.72 -7.10773 319.246 8.21227 318.639 97.171Z" fill="#802EE3"/>
<path d="M73.3102 236.842V253.678C73.3102 270.145 86.2298 283.495 102.18 283.495C118.119 283.495 131.05 296.844 131.05 313.299C131.05 314.767 129.862 315.961 128.411 315.961H51.9876C28.0858 315.961 8.7124 295.949 8.7124 271.267V235.349C8.7124 225.522 16.4142 217.57 25.9226 217.57H54.6381C64.9547 217.57 73.3102 226.191 73.3102 236.842Z" fill="#802EE3"/>
<path d="M64.4902 388.465H71.4195V307.364H64.4902V388.465Z" fill="#802EE3"/>
<path d="M100.409 388.561L69.7685 385.863H66.9516L35.6689 388.561V390.71H100.409V388.561Z" fill="#802EE3"/>
<path d="M153.275 283.697H92.1838C91.5895 283.697 91.126 283.22 91.126 282.635V280.282H154.333V282.635C154.333 283.22 153.858 283.697 153.275 283.697Z" fill="black"/>
<path d="M154.334 280.342H118.166L129.659 246.322C130.349 245.248 131.549 244.603 132.833 244.603H163.414C164.793 244.603 165.696 245.964 165.233 247.158C165.054 247.636 164.864 248.102 164.698 248.591L154.334 280.342Z" fill="black"/>
<path d="M140.914 262.013C140.486 263.458 141.14 264.926 142.388 265.308C143.624 265.679 144.991 264.819 145.419 263.386C145.847 261.941 145.193 260.472 143.945 260.09C142.697 259.72 141.342 260.58 140.914 262.013Z" fill="white"/>
<path d="M48.1002 313.036L40.9214 319.842L45.8301 324.021L54.3758 317.872L48.1002 313.036Z" fill="white"/>
<path d="M41.979 319.806L45.8655 323.114L53.187 317.848L48.1475 313.967L41.979 319.806ZM45.8299 324.726C45.6635 324.726 45.509 324.666 45.3782 324.559L40.4695 320.379C40.315 320.248 40.2199 320.069 40.208 319.866C40.208 319.663 40.2912 319.46 40.4338 319.329L47.6127 312.51C47.8623 312.272 48.2545 312.26 48.5279 312.463L54.8034 317.299C54.9817 317.442 55.0887 317.657 55.0887 317.884C55.0768 318.111 54.9698 318.314 54.7915 318.445L46.2459 324.594C46.1151 324.678 45.9725 324.726 45.8299 324.726Z" fill="black"/>
<path d="M41.8973 317.155C40.8038 318.11 38.8189 319.925 37.2263 321.729C36.2279 322.851 36.2517 324.558 37.25 325.681C40.0788 328.869 46.913 335.604 53.5332 340.404C53.9848 340.726 54.9951 341.073 56.1124 340.189C59.9395 337.192 54.2463 330.768 49.6823 322.051L47.4716 322.17C46.2949 322.242 45.2014 321.585 44.6785 320.523L43.169 317.418C42.9432 316.928 42.3014 316.797 41.8973 317.155Z" fill="#FF9F78"/>
<path d="M42.3599 317.693C41.314 318.6 39.3172 320.415 37.7602 322.194C36.9995 323.054 37.0114 324.344 37.784 325.215C40.6959 328.487 47.3993 335.09 53.9483 339.819C54.079 339.914 54.7684 340.344 55.6717 339.628C57.9418 337.849 56.0639 334.422 52.5458 328.511C51.5117 326.78 50.3588 324.833 49.2654 322.779L47.5063 322.875C46.0444 322.959 44.6895 322.159 44.0476 320.833L42.5382 317.728C42.5144 317.681 42.4787 317.669 42.455 317.657C42.4193 317.657 42.3837 317.657 42.3599 317.693ZM54.6495 341.455C54.0315 341.455 53.4966 341.252 53.1163 340.977C46.4842 336.177 39.6856 329.478 36.7262 326.159C35.4901 324.75 35.4663 322.648 36.7024 321.251C38.3188 319.412 40.3631 317.561 41.4328 316.618C41.8013 316.296 42.2648 316.176 42.7402 316.272C43.2038 316.367 43.596 316.666 43.8099 317.108L45.3194 320.212C45.7116 321.024 46.5317 321.514 47.435 321.466L50.0855 321.311L50.2994 321.717C51.4285 323.878 52.6646 325.956 53.7581 327.783C57.193 333.55 59.9029 338.111 56.5393 340.75C55.8975 341.264 55.2319 341.455 54.6495 341.455Z" fill="black"/>
<path d="M37.464 321.454C37.464 321.454 37.3095 321.633 37.2263 321.729C36.2279 322.851 36.2517 324.559 37.25 325.681C40.0788 328.869 46.913 335.604 53.5332 340.404C53.9848 340.726 54.9951 341.073 56.1124 340.189C56.457 339.926 56.9206 339.306 56.9206 339.306L56.4689 338.947C49.9913 333.837 43.894 328.272 38.2365 322.266L37.464 321.454Z" fill="white"/>
<path d="M37.5106 322.529C37.0114 323.364 37.1065 324.451 37.784 325.215C40.6959 328.487 47.3993 335.09 53.9483 339.819C54.079 339.914 54.7684 340.344 55.6717 339.628C55.743 339.58 55.8262 339.496 55.9094 339.413C49.4674 334.326 43.3583 328.726 37.7245 322.755L37.5106 322.529ZM54.6495 341.455C54.0315 341.455 53.4966 341.252 53.1163 340.977C46.4842 336.177 39.6856 329.478 36.7262 326.159C35.4901 324.75 35.4663 322.648 36.7024 321.251L36.9401 320.976C37.0708 320.833 37.261 320.749 37.4631 320.749C37.6532 320.737 37.8434 320.821 37.9741 320.964L38.7467 321.776C44.3685 327.735 50.4777 333.323 56.8959 338.386L57.3475 338.744C57.6565 338.983 57.716 339.425 57.4783 339.735C57.4307 339.807 56.9434 340.44 56.5393 340.75C55.8975 341.264 55.2319 341.455 54.6495 341.455Z" fill="black"/>
<path d="M47.8634 328.177C47.5069 328.177 47.1978 327.89 47.1622 327.532C47.1265 327.138 47.4118 326.791 47.804 326.756L51.9758 326.385C52.3562 326.362 52.7008 326.636 52.7365 327.03C52.7722 327.424 52.4869 327.771 52.0947 327.806L47.9229 328.177C47.911 328.177 47.8872 328.177 47.8634 328.177Z" fill="black"/>
<path d="M49.8837 331.114C49.5509 331.114 49.2419 330.864 49.1944 330.517C49.123 330.135 49.3845 329.765 49.7649 329.705L53.7822 329.013C54.1625 328.941 54.531 329.204 54.5904 329.586C54.6617 329.98 54.4002 330.338 54.0199 330.41L50.0026 331.102C49.9669 331.102 49.9194 331.114 49.8837 331.114Z" fill="black"/>
<path d="M127.544 275.625C130.907 275.637 134.128 277.213 136.065 279.984C137.444 281.942 138.276 284.605 137.242 288.02C135.697 293.119 133.748 296.677 104.723 302.361C79.2527 307.352 60.3191 317.048 56.0522 319.352C55.4222 319.687 54.6972 319.758 54.0198 319.555C51.8922 318.899 47.3758 317.06 46.8171 313.179C46.6864 312.307 47.0786 311.448 47.7799 310.922L53.0333 307.101L48.0532 304.414C42.3601 301.37 37.8673 296.343 35.823 290.193C33.9927 284.676 33.0894 275.267 33.0894 275.267L127.544 275.625Z" fill="black"/>
<path d="M165.434 390.937L143.85 300.821L122.254 390.937H117.084L140.807 291.196L146.893 291.184L170.616 390.937H165.434Z" fill="white"/>
<path d="M165.994 390.233H169.726L146.335 291.889L141.355 291.901L117.976 390.233H121.697L143.851 297.787L165.994 390.233ZM171.509 391.654H164.889L164.758 391.105L143.851 303.853L122.814 391.654H116.182L140.25 290.48L147.452 290.468L171.509 391.654Z" fill="black"/>
<path d="M111.331 371.223C111.664 374.375 111.379 377.576 110.487 380.632L122.908 380.501C120.091 378.901 118.177 376.059 117.749 372.835L117.417 370.375L111.331 371.223Z" fill="white"/>
<path d="M112.093 371.832C112.307 374.555 112.081 377.265 111.415 379.916L120.733 379.809C118.737 378.053 117.406 375.605 117.049 372.931L116.823 371.175L112.093 371.832ZM110.488 381.337C110.262 381.337 110.06 381.241 109.93 381.062C109.787 380.883 109.751 380.644 109.811 380.429C110.678 377.456 110.952 374.375 110.631 371.295C110.583 370.913 110.857 370.566 111.225 370.519L117.322 369.671C117.513 369.647 117.703 369.695 117.845 369.802C118 369.922 118.095 370.089 118.119 370.28L118.451 372.74C118.844 375.725 120.65 378.4 123.253 379.88C123.538 380.035 123.681 380.358 123.598 380.668C123.515 380.979 123.241 381.206 122.92 381.206L110.488 381.337Z" fill="black"/>
<path d="M110.368 377.349C109.976 378.877 109.156 383.2 108.835 385.779C108.633 387.415 109.691 388.919 111.272 389.313C115.741 390.424 126.366 390.149 135.209 390.352C135.815 390.376 136.933 390.054 137.396 388.573C139.001 383.522 129.445 382.209 120.055 377.217C120.055 377.217 119.508 377.671 118.7 378.113C117.357 378.853 115.135 378.782 113.803 378.017L111.664 376.799C111.153 376.501 110.511 376.776 110.368 377.349Z" fill="#FF9F78"/>
<path d="M111.225 377.384C111.201 377.384 111.178 377.396 111.154 377.408C111.118 377.42 111.071 377.456 111.047 377.528C110.655 379.068 109.846 383.391 109.537 385.874C109.383 387.128 110.203 388.31 111.439 388.621C114.684 389.433 121.554 389.492 128.21 389.552C130.539 389.576 132.964 389.588 135.234 389.648C135.424 389.66 136.327 389.612 136.732 388.358C137.587 385.636 134.247 384.131 128.257 381.683C125.761 380.668 122.944 379.522 120.127 378.053C119.866 378.244 119.498 378.495 119.046 378.734C117.489 379.582 115.04 379.546 113.46 378.638L111.32 377.42C111.285 377.396 111.261 377.384 111.225 377.384ZM135.258 391.069C135.234 391.069 135.222 391.069 135.198 391.069C132.94 391.009 130.527 390.985 128.198 390.973C121.15 390.901 114.506 390.842 111.106 390.006C109.169 389.528 107.885 387.677 108.135 385.695C108.456 383.104 109.276 378.77 109.68 377.17C109.811 376.68 110.144 376.286 110.607 376.095C111.071 375.904 111.582 375.928 112.022 376.178L114.161 377.408C115.29 378.053 117.263 378.089 118.368 377.492C119.093 377.098 119.593 376.68 119.604 376.668L119.961 376.369L120.389 376.584C123.277 378.125 126.201 379.319 128.78 380.37C134.699 382.782 139.37 384.68 138.075 388.8C137.54 390.472 136.232 391.069 135.258 391.069Z" fill="black"/>
<path d="M108.598 386.961C108.586 387.009 108.586 387.033 108.574 387.057C108.372 388.681 109.941 389.636 111.427 390.305C115.931 392.299 134.211 390.663 134.211 390.663C134.211 390.663 136.66 390.687 137.313 389.206C137.409 388.991 137.444 388.669 137.468 388.394C137.492 388.108 137.468 387.821 137.397 387.534L137.23 386.878C134.746 387.869 123.55 388.621 115.432 387.606C112.021 387.188 110.048 385.707 108.919 385.146C108.919 385.146 108.753 386.03 108.598 386.961Z" fill="white"/>
<path d="M109.442 386.244C109.395 386.495 109.335 386.794 109.288 387.08L109.276 387.14C109.157 388.083 109.918 388.847 111.712 389.648C116.003 391.558 133.962 389.97 134.14 389.946C134.164 389.946 134.188 389.946 134.212 389.946C134.223 389.946 134.223 389.946 134.235 389.946C134.794 389.946 136.291 389.767 136.66 388.919C136.696 388.836 136.743 388.644 136.767 388.334C136.779 388.155 136.767 387.964 136.731 387.773C133.154 388.68 123.039 389.277 115.349 388.31C112.544 387.964 110.69 386.949 109.442 386.244ZM120.817 392C116.787 392 112.96 391.749 111.142 390.949C110.167 390.519 107.576 389.373 107.873 386.961C107.885 386.937 107.885 386.901 107.897 386.841C108.063 385.91 108.218 385.014 108.218 385.014C108.254 384.8 108.396 384.608 108.598 384.513C108.788 384.406 109.026 384.406 109.228 384.513C109.454 384.62 109.715 384.764 110.001 384.931C111.154 385.588 112.901 386.579 115.516 386.913C123.526 387.904 134.556 387.176 136.969 386.209C137.159 386.137 137.373 386.149 137.563 386.244C137.741 386.34 137.872 386.507 137.92 386.698L138.086 387.367C138.169 387.725 138.205 388.095 138.169 388.453C138.134 388.895 138.062 389.242 137.955 389.492C137.171 391.271 134.604 391.367 134.235 391.367C133.57 391.427 126.961 392 120.817 392Z" fill="black"/>
<path d="M121.078 382.089C120.864 382.089 120.662 381.994 120.519 381.814C120.281 381.504 120.329 381.062 120.638 380.823L123.276 378.722C123.585 378.483 124.025 378.543 124.263 378.841C124.513 379.152 124.453 379.605 124.156 379.844L121.505 381.934C121.387 382.041 121.232 382.089 121.078 382.089Z" fill="black"/>
<path d="M124.666 383.474C124.452 383.474 124.25 383.379 124.108 383.2C123.87 382.889 123.929 382.436 124.238 382.197L126.544 380.394C126.853 380.155 127.293 380.215 127.531 380.513C127.768 380.824 127.721 381.277 127.412 381.516L125.094 383.319C124.975 383.427 124.821 383.474 124.666 383.474Z" fill="black"/>
<path d="M94.7755 298.348C94.7755 298.348 104.95 300.522 110.334 307.34C115.599 314.027 117.501 323.436 119.937 369.587C120.032 371.45 118.82 373.109 117.061 373.503C114.565 374.041 111.118 374.435 109.014 373.157C105.425 370.984 103.749 331.233 95.6669 324.415C87.5967 317.585 47.8158 307.65 41.2312 298.969C34.6467 290.276 50.7991 290.276 50.7991 290.276L94.7755 298.348Z" fill="black"/>
<path d="M61.7101 317.741C61.4605 317.741 61.2109 317.597 61.0802 317.347C60.9138 317 61.0564 316.571 61.4011 316.403C63.3147 315.448 65.1688 314.457 66.9516 313.514C74.8674 309.311 82.3315 305.334 96.19 302.898C96.5704 302.839 96.9388 303.101 96.9982 303.483C97.0695 303.866 96.8081 304.236 96.4277 304.307C82.795 306.696 75.426 310.612 67.6172 314.767C65.8106 315.723 63.9565 316.714 62.031 317.669C61.9241 317.717 61.8171 317.741 61.7101 317.741Z" fill="#7596DB"/>
<path d="M19.4927 234.991C21.0854 231.457 25.3642 229.188 28.6446 227.91C30.8672 227.05 33.2324 226.585 35.6214 226.489L44.179 226.155C47.388 225.916 51.1676 226.071 55.28 226.788C60.7949 227.767 65.7868 230.704 69.3049 235.098C70.9333 237.14 72.4071 238.931 72.5259 238.967C77.1613 245.511 78.0883 248.783 81.4282 251.219C87.0263 255.302 104.973 266.586 104.973 266.586C108.23 266.097 106.732 269.177 107.327 270.539C108.48 273.178 101.99 271.948 101.99 271.948C99.6368 271.482 82.0225 269.763 74.2969 265.356C68.8414 262.252 65.1807 255.756 62.2568 252.568C61.9716 252.257 61.4367 252.484 61.4724 252.914C62.0904 260.079 67.95 268.58 69.7447 271.028C70.0656 271.458 70.5529 271.745 71.0878 271.804L83.9954 273.285C84.1737 273.297 84.3639 273.369 84.5541 273.476C85.4098 273.93 85.9566 274.802 86.0873 275.757C86.2893 277.285 86.1586 280.151 85.6951 281.082L85.2434 281.954C84.8869 282.659 84.1737 283.112 83.3893 283.124C76.5313 283.232 47.5307 283.387 39.3059 282.897C31.6397 282.432 26.4339 279.339 22.3334 268.568C20.7051 264.294 15.2734 244.329 19.4927 234.991Z" fill="#FF9F78"/>
<path d="M47.0311 226.764C46.0802 226.764 45.1413 226.788 44.238 226.859L35.6448 227.193C33.2795 227.289 31.0094 227.755 28.8938 228.579C25.7204 229.809 21.6317 231.982 20.1342 235.289C16.1287 244.161 21.192 263.601 22.9867 268.317C27.1704 279.303 32.3406 281.763 39.3412 282.193C47.7323 282.694 77.1133 282.515 83.377 282.408C83.9 282.408 84.3754 282.109 84.625 281.631L85.0648 280.748C85.4213 280.055 85.5877 277.392 85.3857 275.852C85.2787 275.088 84.8508 274.443 84.2209 274.097C84.0426 274.001 83.9594 273.989 83.9475 273.989L71.0042 272.509C70.2792 272.425 69.6136 272.043 69.1738 271.446C67.3672 268.962 61.4007 260.317 60.7708 252.974C60.7232 252.472 60.9966 252.018 61.4601 251.815C61.9118 251.612 62.4347 251.72 62.7794 252.09C63.6352 253.033 64.5741 254.263 65.5487 255.553C67.9258 258.693 70.8853 262.598 74.6412 264.735C80.9048 268.306 94.0027 270.109 99.6008 270.885C100.813 271.052 101.704 271.171 102.132 271.255C103.998 271.601 106.352 271.661 106.732 271.159C106.78 271.112 106.732 270.944 106.673 270.825C106.435 270.264 106.447 269.595 106.459 268.938C106.482 268.329 106.494 267.625 106.245 267.398C106.066 267.243 105.65 267.207 105.08 267.291L104.818 267.326L104.593 267.195C104.414 267.088 86.5623 255.839 81.0118 251.803C78.7892 250.168 77.6125 248.257 75.8297 245.355C74.867 243.767 73.6547 241.797 71.9907 239.445C71.646 239.122 70.8972 238.215 68.7459 235.54C65.3467 231.289 60.5212 228.435 55.1608 227.492C52.4152 227.002 49.6578 226.764 47.0311 226.764ZM63.3499 283.948C53.7821 283.948 43.6556 283.864 39.258 283.602C31.9127 283.16 26.1007 280.473 21.6674 268.819C20.3719 265.416 14.3578 244.663 18.8505 234.704C20.5383 230.955 24.9716 228.579 28.3946 227.253C30.641 226.382 33.0656 225.88 35.5853 225.784L44.1548 225.438C47.7086 225.187 51.5 225.402 55.4104 226.095C61.1035 227.098 66.2262 230.131 69.8513 234.645C71.9907 237.319 72.6682 238.107 72.8821 238.334L72.9534 238.37L73.096 238.561C74.8194 240.985 76.0436 242.991 77.0301 244.603C78.7179 247.361 79.8351 249.188 81.8438 250.645C87.0259 254.43 103.083 264.568 105.128 265.858C106.031 265.762 106.708 265.917 107.172 266.335C107.921 267.004 107.897 268.055 107.873 268.974C107.861 269.464 107.849 269.977 107.968 270.252C108.348 271.124 108.111 271.709 107.837 272.043C106.744 273.44 102.988 272.867 101.859 272.652C101.467 272.568 100.599 272.449 99.4106 272.282C93.7293 271.506 80.4413 269.679 73.9518 265.977C69.9464 263.684 66.8918 259.66 64.4315 256.413C63.6708 255.41 62.9458 254.454 62.2683 253.654C63.2073 260.449 68.6152 268.294 70.3148 270.598C70.5169 270.885 70.8259 271.064 71.1587 271.1L84.0783 272.58C84.316 272.604 84.5893 272.688 84.8984 272.855C85.9205 273.404 86.6218 274.455 86.7882 275.661C86.9902 277.178 86.907 280.246 86.3246 281.393L85.873 282.276C85.3976 283.22 84.4467 283.817 83.4008 283.829C80.4056 283.876 72.1095 283.948 63.3499 283.948Z" fill="black"/>
<path d="M89.0469 282.813H104.035V279.613C104.035 278.813 103.393 278.168 102.596 278.168H90.485C89.6887 278.168 89.0469 278.813 89.0469 279.613V282.813Z" fill="#802EE3"/>
<path d="M82.5565 276.366C82.818 275.84 83.2697 275.422 83.8164 275.231C84.2086 275.088 84.589 274.897 84.9574 274.706L90.0563 271.983C91.019 271.518 92.3859 272.616 93.3724 272.939C96.3675 273.93 102.56 276.246 102.049 278.431C101.502 280.796 96.1773 279.673 94.2875 279.207C93.8478 279.088 89.9374 280.521 88.7014 280.616C86.9898 280.748 86.5976 280.306 85.7656 279.864C85.3853 279.661 84.9574 279.578 84.4939 279.566C83.7926 279.566 83.127 279.267 82.6754 278.718V278.706C82.1881 278.097 82.1049 277.249 82.4496 276.557L82.5565 276.366Z" fill="white"/>
<path d="M90.5916 272.581C90.5084 272.581 90.4371 272.592 90.3658 272.616L85.2907 275.327C84.8152 275.578 84.423 275.757 84.0546 275.9C83.6861 276.031 83.3771 276.306 83.1869 276.688L83.08 276.879C82.8541 277.321 82.9136 277.87 83.2226 278.252C83.5316 278.646 83.9951 278.861 84.5062 278.861C85.0886 278.861 85.6235 278.993 86.087 279.232C86.2296 279.315 86.3604 279.387 86.4792 279.458C87.0497 279.781 87.4301 279.996 88.6543 279.9C89.2129 279.864 90.6035 279.446 91.7207 279.112C93.6224 278.551 94.0978 278.42 94.4544 278.515C97.4971 279.279 99.9931 279.387 100.968 278.802C101.182 278.658 101.312 278.491 101.36 278.276C101.574 277.405 99.0898 275.566 93.147 273.607C92.8023 273.5 92.4576 273.321 92.0892 273.13C91.59 272.879 90.9838 272.581 90.5916 272.581ZM88.1313 281.345C86.9309 281.345 86.3722 281.023 85.778 280.688C85.671 280.629 85.564 280.557 85.4333 280.497C85.1718 280.354 84.8628 280.282 84.4943 280.282C83.5554 280.27 82.6996 279.864 82.1291 279.16C81.4635 278.324 81.3447 277.178 81.832 276.234L81.9271 276.031C82.2836 275.339 82.866 274.813 83.5791 274.563C83.8882 274.443 84.221 274.3 84.6251 274.073L89.724 271.363C90.7342 270.861 91.8396 271.422 92.7191 271.864C93.04 272.031 93.349 272.186 93.5868 272.258C100.136 274.419 103.214 276.557 102.739 278.599C102.596 279.184 102.239 279.673 101.693 280.008C99.9099 281.106 96.261 280.426 94.1929 279.912C93.8839 279.948 92.8736 280.246 92.1248 280.473C90.8174 280.867 89.4744 281.261 88.7612 281.321C88.5354 281.333 88.3215 281.345 88.1313 281.345Z" fill="black"/>
<path d="M100.587 268.294C100.991 267.852 101.526 267.577 102.096 267.53C102.512 267.494 102.94 267.422 103.344 267.327L108.978 266.061C110.024 265.858 111.058 267.267 111.926 267.852C114.553 269.595 119.925 273.488 118.855 275.458C117.702 277.584 112.865 275.1 111.165 274.133C110.773 273.918 106.625 274.252 105.413 274.013C103.725 273.691 103.463 273.166 102.774 272.521C102.453 272.222 102.073 272.019 101.621 271.9C100.944 271.709 100.373 271.243 100.1 270.598L100.088 270.574C99.7788 269.858 99.9214 269.034 100.444 268.449L100.587 268.294Z" fill="white"/>
<path d="M100.588 268.294H100.599H100.588ZM110.167 273.345C110.987 273.345 111.285 273.392 111.51 273.524C114.244 275.064 116.621 275.828 117.715 275.518C117.964 275.446 118.131 275.315 118.238 275.112C118.665 274.324 116.752 271.9 111.534 268.449C111.237 268.246 110.94 267.983 110.631 267.697C110.132 267.243 109.502 266.682 109.11 266.753L103.5 268.019C102.977 268.139 102.549 268.21 102.156 268.234C101.764 268.27 101.396 268.449 101.111 268.771L100.968 268.927C100.635 269.297 100.54 269.834 100.742 270.3C100.932 270.754 101.325 271.076 101.812 271.219C102.382 271.375 102.87 271.637 103.25 271.995C103.369 272.115 103.476 272.21 103.571 272.318C104.034 272.784 104.343 273.094 105.544 273.321C106.102 273.428 107.553 273.404 108.717 273.369C109.323 273.357 109.799 273.345 110.167 273.345ZM117.156 276.999C115.159 276.999 112.485 275.685 110.892 274.79C110.583 274.754 109.526 274.778 108.753 274.79C107.386 274.825 105.984 274.849 105.282 274.718C103.642 274.396 103.131 273.87 102.572 273.321C102.489 273.225 102.394 273.13 102.287 273.034C102.073 272.831 101.788 272.676 101.431 272.581C100.528 272.33 99.8151 271.709 99.4466 270.873C99.0306 269.894 99.2089 268.759 99.922 267.971L100.077 267.804C100.599 267.231 101.301 266.885 102.05 266.825C102.37 266.801 102.739 266.741 103.191 266.634L108.824 265.368C109.918 265.153 110.833 265.977 111.57 266.646C111.843 266.885 112.093 267.112 112.319 267.255C118.059 271.076 120.472 273.942 119.474 275.793C119.188 276.318 118.713 276.7 118.107 276.879C117.81 276.963 117.489 276.999 117.156 276.999Z" fill="black"/>
<path d="M65.5839 272.043C65.5482 272.043 65.5245 272.043 65.4888 272.043C64.7281 271.936 63.8367 271.852 62.8146 271.745C53.8172 270.837 37.0705 269.142 31.2348 251.254C31.1159 250.884 31.3179 250.49 31.6864 250.359C32.0549 250.239 32.4471 250.442 32.5778 250.812C38.1165 267.828 54.2808 269.452 62.9572 270.336C63.9912 270.431 64.8945 270.527 65.679 270.634C66.0593 270.682 66.3327 271.04 66.2851 271.434C66.2376 271.78 65.9286 272.043 65.5839 272.043Z" fill="black"/>
<path d="M35.9058 228.77L34.7173 217.199L44.6298 220.519L45.4975 227.301C45.6995 229.116 44.3327 230.358 44.3327 230.358C42.6568 232.053 39.9826 232.197 37.8669 231.146L37.3678 230.907C36.5477 230.489 36.0009 229.689 35.9058 228.77Z" fill="white"/>
<path d="M35.5376 218.226L36.6073 228.686C36.6786 229.379 37.0828 229.964 37.6889 230.262L38.1762 230.513C40.1492 231.492 42.4788 231.229 43.8337 229.856C43.8575 229.832 44.951 228.793 44.7965 227.372L43.9882 221.056L35.5376 218.226ZM40.6722 232.531C39.6381 232.531 38.5684 232.28 37.5463 231.779L37.059 231.54C36.0131 231.014 35.3237 230.011 35.2048 228.841L34.0163 217.271C33.9925 217.032 34.0876 216.805 34.2778 216.65C34.4679 216.494 34.7175 216.459 34.9434 216.53L44.8559 219.85C45.1055 219.933 45.2956 220.16 45.3313 220.435L46.1871 227.205C46.4367 229.379 44.8678 230.823 44.7965 230.883C43.7268 231.97 42.2411 232.531 40.6722 232.531Z" fill="black"/>
<path d="M45.5573 200.566C43.0733 200.804 46.5438 202.87 37.0592 201.593C33.2796 201.091 35.7518 205.067 34.7653 204.936C31.1521 204.458 31.2709 204.47 29.6545 205.175C28.5729 205.64 28.1569 207.838 28.5967 209.366C29.1791 211.372 30.9381 211.647 33.0775 215.754C34.587 218.644 34.5989 220.531 35.8825 220.793C37.178 221.056 37.8317 219.253 39.2699 219.432C41.124 219.659 41.231 222.823 43.1565 223.838C44.3688 224.483 46.9717 224.471 50.7513 221.856C51.3575 221.426 51.5833 220.614 51.2861 219.934C50.8939 219.05 50.3947 217.939 49.8361 216.924C47.1619 212.077 45.177 211.193 45.6286 209.748C46.3418 207.551 50.3472 208.136 50.7394 206.357C51.1316 204.518 48.9447 200.243 45.5573 200.566Z" fill="black"/>
<path d="M38.3076 210.751L39.2109 211.957C39.6269 212.53 40.0191 213.127 40.3519 213.76C41.0056 214.93 42.1229 216.936 42.8241 218.023C43.87 219.599 48.957 216.698 48.957 216.698L49.1234 215.587L49.7177 215.241C49.8247 215.169 49.9317 215.074 49.9911 214.954C50.1575 214.668 50.1099 214.321 49.896 214.094C48.755 212.841 46.3303 210.011 45.2012 207.312C45.2012 207.312 41.0413 206.882 38.3076 210.751Z" fill="white"/>
<path d="M39.1873 210.751L39.7696 211.539C40.2213 212.136 40.6254 212.769 40.982 213.414C41.5881 214.537 42.7173 216.555 43.4185 217.629C43.7513 218.131 46.0809 217.462 48.3153 216.244L48.4223 215.48C48.458 215.277 48.5768 215.086 48.767 214.978L49.3494 214.632L49.8961 214.095L49.3731 214.572C48.1371 213.211 45.9382 210.608 44.7378 208.005C43.7513 208.017 41.1721 208.292 39.1873 210.751ZM43.9771 219.193C43.2402 219.193 42.6103 218.979 42.2418 218.405C41.5049 217.307 40.3639 215.229 39.734 214.095C39.4131 213.51 39.0446 212.925 38.6405 212.387L37.7372 211.169C37.5589 210.93 37.5589 210.584 37.7372 210.333C40.673 206.178 45.0944 206.584 45.2726 206.608C45.5341 206.632 45.76 206.799 45.855 207.038C46.9485 209.677 49.4088 212.519 50.4191 213.605C50.8351 214.071 50.9183 214.751 50.6092 215.301C50.4904 215.516 50.3002 215.707 50.0744 215.85L49.7773 216.029L49.6584 216.805C49.6227 217.008 49.492 217.199 49.3018 217.307C48.3629 217.856 45.8313 219.193 43.9771 219.193Z" fill="black"/>
<path d="M39.9827 215.205C39.9827 215.205 37.8314 212.291 36.7261 213.569C35.6207 214.847 38.081 217.999 39.9827 215.205Z" fill="white"/>
<path d="M49.2538 390.34L27.6578 300.199L6.07369 390.34H0.891602L24.6151 290.575L30.7005 290.563L54.424 390.34H49.2538Z" fill="white"/>
<path d="M49.8122 389.636H53.5324L30.1417 291.28H25.1735L1.78283 389.636H5.51488L27.6576 297.179L49.8122 389.636ZM55.3271 391.045H48.695L27.6576 303.233L6.62023 391.045H0L24.0563 289.871L31.2589 289.859L55.3271 391.045Z" fill="black"/>
<path d="M0.78418 291.841H171.092V283.697H0.78418V291.841Z" fill="white"/>
<path d="M1.48567 291.137H170.379V284.402H1.48567V291.137ZM171.793 292.558H0.0712891V282.981H171.793V292.558Z" fill="black"/>
<path d="M34.3258 184.41C33.9098 191.407 27.9314 196.757 20.9665 196.339C14.0016 195.921 8.70066 189.903 9.11665 182.905C9.52076 175.896 15.5111 170.559 22.4641 170.977C29.429 171.395 34.7418 177.401 34.3258 184.41Z" fill="white"/>
<path d="M21.7151 171.657C15.4514 171.657 10.1861 176.577 9.81768 182.941C9.42546 189.544 14.453 195.24 21.0138 195.622C27.5865 196.016 33.2322 190.965 33.6244 184.362C34.0166 177.759 28.989 172.075 22.4282 171.681C22.1905 171.669 21.9528 171.657 21.7151 171.657ZM21.727 197.067C21.4655 197.067 21.1921 197.055 20.9306 197.043C13.5854 196.601 7.97543 190.237 8.40331 182.858C8.84307 175.478 15.1781 169.818 22.5114 170.26C29.8448 170.702 35.4666 177.066 35.0269 184.446C34.6109 191.562 28.7157 197.067 21.727 197.067Z" fill="black"/>
<path d="M27.7997 175.55C25.1967 178.081 21.952 181.819 20.502 185.986L14.6899 179.144C14.5235 178.953 14.1789 179.12 14.2858 179.323C16.7224 184.386 19.147 188.553 20.8585 192.267C21.0368 192.637 21.6667 192.625 21.7856 192.231C23.2713 187.252 25.7078 181.186 28.4058 175.872C28.5722 175.55 28.073 175.287 27.7997 175.55Z" fill="#802EE3"/>
<path d="M53.2714 121.637C52.9624 121.637 52.6653 121.422 52.594 121.1C52.4989 120.717 52.7247 120.335 53.105 120.24L55.185 119.714C55.5654 119.619 55.9457 119.858 56.0408 120.24C56.1359 120.622 55.91 121.004 55.5297 121.1L53.4378 121.613C53.3903 121.625 53.3309 121.637 53.2714 121.637Z" fill="black"/>
<path d="M43.2876 124.121C42.9785 124.121 42.6814 123.894 42.6101 123.572C42.515 123.202 42.7408 122.808 43.1212 122.712L45.2011 122.199C45.5815 122.103 45.9618 122.342 46.0569 122.724C46.152 123.094 45.9261 123.488 45.5458 123.572L43.4658 124.097C43.4064 124.109 43.347 124.121 43.2876 124.121Z" fill="black"/>
<path d="M50.8461 128.706C50.5371 128.706 50.24 128.491 50.1686 128.169L49.6338 126.067C49.5387 125.685 49.7764 125.303 50.1449 125.207C50.5252 125.1 50.9055 125.339 51.0006 125.721L51.5355 127.822C51.6306 128.192 51.3929 128.586 51.0244 128.682C50.965 128.694 50.9055 128.706 50.8461 128.706Z" fill="black"/>
<path d="M48.3263 118.628C48.0054 118.628 47.7201 118.413 47.637 118.103L47.114 115.989C47.0189 115.619 47.2447 115.225 47.6251 115.129C48.0054 115.034 48.3857 115.273 48.4808 115.643L49.0157 117.744C49.1108 118.126 48.873 118.52 48.4927 118.616C48.4452 118.628 48.3857 118.628 48.3263 118.628Z" fill="black"/>
<path d="M13.2286 152.54C13.0979 152.54 12.979 152.504 12.8601 152.432C12.5273 152.229 12.4323 151.787 12.6343 151.465L13.7753 149.626C13.9774 149.292 14.4171 149.196 14.7381 149.399C15.0708 149.614 15.1778 150.044 14.9639 150.378L13.8348 152.205C13.6921 152.42 13.4663 152.54 13.2286 152.54Z" fill="black"/>
<path d="M7.78573 161.316C7.66687 161.316 7.53613 161.28 7.41728 161.209C7.08448 161.006 6.98939 160.564 7.19145 160.23L8.33246 158.403C8.53451 158.068 8.97428 157.973 9.29519 158.176C9.62798 158.379 9.73495 158.821 9.52101 159.155L8.39189 160.982C8.24926 161.197 8.02344 161.316 7.78573 161.316Z" fill="black"/>
<path d="M16.3902 159.311C16.2594 159.311 16.1287 159.275 16.0217 159.203L14.1795 158.069C13.8467 157.866 13.7516 157.424 13.9537 157.09C14.1557 156.755 14.5955 156.66 14.9283 156.863L16.7586 157.997C17.0914 158.2 17.1865 158.642 16.9845 158.976C16.8537 159.191 16.6279 159.311 16.3902 159.311Z" fill="black"/>
<path d="M7.6065 153.853C7.47575 153.853 7.34501 153.829 7.23804 153.746L5.39579 152.611C5.06299 152.408 4.96791 151.967 5.16996 151.632C5.37202 151.298 5.81178 151.202 6.14458 151.405L7.97495 152.54C8.30774 152.755 8.41471 153.184 8.20077 153.519C8.07003 153.734 7.8442 153.853 7.6065 153.853Z" fill="black"/>
<path d="M24.4012 130.402C24.3417 130.402 24.2704 130.39 24.1991 130.378C23.8307 130.259 23.6167 129.865 23.7356 129.494C33.3272 97.6006 51.1674 76.2147 64.4435 63.8918C78.8368 50.5301 91.1502 44.6194 91.2691 44.5597C91.6257 44.3925 92.0417 44.5477 92.2081 44.906C92.3745 45.2523 92.2199 45.6821 91.8753 45.8493C91.7564 45.8971 79.5975 51.7361 65.3587 64.9665C52.2252 77.1699 34.5752 98.3409 25.0786 129.9C24.9835 130.211 24.7102 130.402 24.4012 130.402Z" fill="black"/>
<path d="M46.7336 66.0531C46.6028 66.0531 46.4602 66.0172 46.3413 65.9456C46.0204 65.7187 45.9372 65.2769 46.1512 64.9545C46.1987 64.8709 51.7374 56.6557 61.8401 47.5091C71.1583 39.055 86.4193 28.0337 106.126 23.5081C106.506 23.4245 106.886 23.6634 106.969 24.0455C107.064 24.4276 106.827 24.8097 106.446 24.8932C69.2923 33.407 47.5299 65.4202 47.316 65.7426C47.1852 65.9456 46.9594 66.0531 46.7336 66.0531Z" fill="black"/>
<path d="M185.854 62.3514C185.545 62.3514 185.271 62.1603 185.176 61.8499L168.453 7.20894C168.346 6.83877 168.548 6.44473 168.929 6.32532C169.297 6.20591 169.689 6.42085 169.808 6.79101L186.519 61.432C186.638 61.8141 186.436 62.2081 186.056 62.3275C185.984 62.3395 185.925 62.3514 185.854 62.3514Z" fill="black"/>
<path d="M177.118 68.0469C176.88 68.0469 176.655 67.9275 176.524 67.7126L162.642 45.8371C162.44 45.5027 162.535 45.0609 162.867 44.8579C163.188 44.643 163.628 44.7385 163.842 45.0729L177.712 66.9483C177.915 67.2827 177.819 67.7245 177.499 67.9275C177.38 67.9991 177.249 68.0469 177.118 68.0469Z" fill="black"/>
<defs>
<linearGradient id="paint0_linear_244_707" x1="195.327" y1="0" x2="195.327" y2="391.514" gradientUnits="userSpaceOnUse">
<stop stop-color="#5479F7"/>
<stop offset="1" stop-color="white"/>
</linearGradient>
<linearGradient id="paint1_linear_244_707" x1="238.519" y1="79.104" x2="238.519" y2="305.787" gradientUnits="userSpaceOnUse">
<stop stop-color="white"/>
<stop offset="1" stop-color="#802EE3"/>
</linearGradient>
<linearGradient id="paint2_linear_244_707" x1="314.251" y1="305.979" x2="314.251" y2="323.556" gradientUnits="userSpaceOnUse">
<stop stop-color="white"/>
<stop offset="1" stop-color="#802EE3"/>
</linearGradient>
<linearGradient id="paint3_linear_244_707" x1="151.784" y1="305.979" x2="151.784" y2="323.556" gradientUnits="userSpaceOnUse">
<stop stop-color="white"/>
<stop offset="1" stop-color="#802EE3"/>
</linearGradient>
<linearGradient id="paint4_linear_244_707" x1="225.599" y1="88.3228" x2="225.599" y2="299.412" gradientUnits="userSpaceOnUse">
<stop stop-color="white"/>
<stop offset="0.96875" stop-color="#70AEEC"/>
</linearGradient>
<linearGradient id="paint5_linear_244_707" x1="225.677" y1="88.418" x2="225.677" y2="107.655" gradientUnits="userSpaceOnUse">
<stop stop-color="white"/>
<stop offset="1" stop-color="#802EE3"/>
</linearGradient>
<linearGradient id="paint6_linear_244_707" x1="191.452" y1="114.21" x2="191.452" y2="124.586" gradientUnits="userSpaceOnUse">
<stop stop-color="white"/>
<stop offset="1" stop-color="#802EE3"/>
</linearGradient>
<linearGradient id="paint7_linear_244_707" x1="344.656" y1="113.744" x2="344.656" y2="124.109" gradientUnits="userSpaceOnUse">
<stop stop-color="white"/>
<stop offset="1" stop-color="#802EE3"/>
</linearGradient>
<linearGradient id="paint8_linear_244_707" x1="225.593" y1="275.53" x2="225.593" y2="285.894" gradientUnits="userSpaceOnUse">
<stop stop-color="white"/>
<stop offset="1" stop-color="#802EE3"/>
</linearGradient>
<linearGradient id="paint9_linear_244_707" x1="299.699" y1="149.436" x2="299.699" y2="166.463" gradientUnits="userSpaceOnUse">
<stop stop-color="white"/>
<stop offset="1" stop-color="#802EE3"/>
</linearGradient>
<linearGradient id="paint10_linear_244_707" x1="313.344" y1="176.66" x2="313.344" y2="187.025" gradientUnits="userSpaceOnUse">
<stop stop-color="white"/>
<stop offset="1" stop-color="#802EE3"/>
</linearGradient>
<linearGradient id="paint11_linear_244_707" x1="253.97" y1="176.182" x2="253.97" y2="186.559" gradientUnits="userSpaceOnUse">
<stop stop-color="white"/>
<stop offset="1" stop-color="#802EE3"/>
</linearGradient>
<linearGradient id="paint12_linear_244_707" x1="299.586" y1="345.061" x2="299.586" y2="355.438" gradientUnits="userSpaceOnUse">
<stop stop-color="white"/>
<stop offset="1" stop-color="#802EE3"/>
</linearGradient>
</defs>
</svg>
