<svg width="390" height="392" viewBox="0 0 390 392" fill="none" xmlns="http://www.w3.org/2000/svg">
<path d="M85.698 17.0278C164.538 -25.246 270.154 18.6679 325.194 67.3496C340.914 81.2587 379.036 115.955 388.037 171.566C399.218 240.641 362.622 324.375 278.676 360.19C187.293 399.171 85.1307 362.224 37.3148 302.252C-7.41262 246.171 1.5379 180.135 4.73992 156.538C8.49662 128.86 19.6533 52.4361 85.698 17.0278Z" fill="url(#paint0_linear_244_595)"/>
<path d="M259.39 51.4062C259.39 23.3466 281.955 0.601318 309.79 0.601318C337.625 0.601318 360.178 23.3466 360.178 51.4062C360.178 79.4532 337.625 102.198 309.79 102.198C281.955 102.198 259.39 79.4532 259.39 51.4062Z" fill="#802EE3"/>
<path d="M269.298 51.406C269.298 28.8642 287.426 10.6069 309.777 10.6069C332.141 10.6069 350.256 28.8642 350.256 51.406C350.256 73.9351 332.141 92.205 309.777 92.205C287.426 92.205 269.298 73.9351 269.298 51.406Z" fill="white"/>
<path d="M278.651 51.4063C278.651 34.0645 292.581 20.0156 309.789 20.0156C326.984 20.0156 340.927 34.0645 340.927 51.4063C340.927 68.7354 326.984 82.7843 309.789 82.7843C292.581 82.7843 278.651 68.7354 278.651 51.4063Z" fill="#5479F7"/>
<path d="M289.683 51.4064C289.683 40.2054 298.684 31.1404 309.79 31.1404C320.896 31.1404 329.897 40.2054 329.897 51.4064C329.897 62.5947 320.896 71.6724 309.79 71.6724C298.684 71.6724 289.683 62.5947 289.683 51.4064Z" fill="white"/>
<path d="M298.809 51.4066C298.809 45.2912 303.725 40.3328 309.776 40.3328C315.852 40.3328 320.756 45.2912 320.756 51.4066C320.756 57.522 315.852 62.4677 309.776 62.4677C303.725 62.4677 298.809 57.522 298.809 51.4066Z" fill="url(#paint1_linear_244_595)"/>
<path d="M263.8 31.2925C263.699 31.2925 263.598 31.2798 263.51 31.2289C263.157 31.0763 262.993 30.6568 263.157 30.3008C268.364 18.6421 277.617 9.38636 289.227 4.23721C289.58 4.07193 289.983 4.23722 290.147 4.5932C290.299 4.9492 290.147 5.36875 289.782 5.53403C278.499 10.5433 269.498 19.5448 264.43 30.8729C264.317 31.1399 264.065 31.2925 263.8 31.2925Z" fill="#5479F7"/>
<path d="M280.037 61.4501C279.747 61.4501 279.47 61.2467 279.369 60.9415C278.423 57.8648 277.944 54.6608 277.944 51.4061C277.944 51.0119 278.259 50.6941 278.65 50.6941C279.028 50.6941 279.344 51.0119 279.344 51.4061C279.344 54.521 279.797 57.585 280.718 60.522C280.831 60.9034 280.617 61.2975 280.251 61.4119C280.176 61.4374 280.113 61.4501 280.037 61.4501Z" fill="#5479F7"/>
<path d="M340.284 45.7869C339.956 45.7869 339.666 45.558 339.603 45.2147C338.216 38.4001 334.498 32.183 329.14 27.7331C328.85 27.4788 328.799 27.0338 329.052 26.7287C329.291 26.4363 329.732 26.3854 330.035 26.6397C335.645 31.293 339.528 37.8025 340.977 44.935C341.053 45.3165 340.813 45.6979 340.435 45.7742C340.385 45.7742 340.334 45.7869 340.284 45.7869Z" fill="#5479F7"/>
<path d="M278.65 52.1054C278.259 52.1054 277.944 51.7876 277.944 51.4062C277.944 33.7084 292.227 19.3035 309.775 19.3035C313.104 19.3035 316.369 19.8247 319.495 20.8291C319.861 20.9436 320.062 21.3504 319.949 21.7191C319.835 22.0878 319.432 22.2912 319.066 22.1768C316.079 21.2106 312.952 20.7274 309.775 20.7274C292.996 20.7274 279.344 34.4839 279.344 51.4062C279.344 51.7876 279.028 52.1054 278.65 52.1054Z" fill="#5479F7"/>
<path d="M389.624 68.1506C368.042 72.7912 361.865 53.288 332.744 68.1506V31.0004C354.414 24.2748 367.538 34.3569 389.624 31.0004L381.493 49.3975L389.624 68.1506Z" fill="white"/>
<path d="M332.052 123.278H331.068C330.299 123.278 329.669 122.655 329.669 121.867V28.8771C329.669 28.0888 330.299 27.4658 331.068 27.4658H332.052C332.821 27.4658 333.451 28.0888 333.451 28.8771V121.867C333.451 122.655 332.821 123.278 332.052 123.278Z" fill="black"/>
<path d="M312.448 384.537H290.765V115.929L312.234 114.391L312.448 384.537Z" fill="white"/>
<path d="M291.472 383.838H311.743L311.529 115.154L291.472 116.578V383.838ZM312.449 385.249H290.779C290.388 385.249 290.073 384.931 290.073 384.537V115.917C290.073 115.548 290.35 115.243 290.728 115.217L312.184 113.692C312.373 113.679 312.575 113.743 312.714 113.882C312.852 114.01 312.941 114.2 312.941 114.391L313.155 384.537C313.155 384.728 313.079 384.906 312.953 385.045C312.815 385.173 312.638 385.249 312.449 385.249Z" fill="black"/>
<path d="M370.577 384.537H312.449C312.335 384.537 312.234 384.41 312.234 384.232V114.709C312.234 114.544 312.335 114.404 312.461 114.404L370.589 117.506C370.703 117.506 370.804 117.646 370.804 117.811V384.232C370.804 384.41 370.703 384.537 370.577 384.537Z" fill="#802EE3"/>
<path d="M312.94 383.837H370.097V118.179L312.94 115.141V383.837ZM370.576 385.248H312.448C311.931 385.248 311.528 384.803 311.528 384.231V114.708C311.528 114.416 311.641 114.136 311.843 113.946C312.019 113.78 312.259 113.691 312.499 113.704L370.627 116.794C371.118 116.819 371.496 117.264 371.496 117.811V384.231C371.496 384.803 371.093 385.248 370.576 385.248Z" fill="black"/>
<path d="M351.504 244.429C351.113 244.429 350.798 244.112 350.798 243.717V134.632C350.798 134.25 351.113 133.933 351.504 133.933C351.882 133.933 352.198 134.25 352.198 134.632V243.717C352.198 244.112 351.882 244.429 351.504 244.429Z" fill="#CADDFF"/>
<path d="M333.11 205.563C332.719 205.563 332.404 205.245 332.404 204.851V172.672C332.404 172.278 332.719 171.96 333.11 171.96C333.501 171.96 333.816 172.278 333.816 172.672V204.851C333.816 205.245 333.501 205.563 333.11 205.563Z" fill="#CADDFF"/>
<path d="M333.11 315.907C332.719 315.907 332.404 315.589 332.404 315.195V259.661C332.404 259.279 332.719 258.961 333.11 258.961C333.501 258.961 333.816 259.279 333.816 259.661V315.195C333.816 315.589 333.501 315.907 333.11 315.907Z" fill="#CADDFF"/>
<path d="M239.345 384.575H217.763V184.025L239.231 177.198L239.345 384.575Z" fill="white"/>
<path d="M218.469 383.863H238.639L238.526 178.164L218.469 184.547V383.863ZM239.345 385.274H217.763C217.385 385.274 217.07 384.969 217.07 384.575V184.025C217.07 183.72 217.259 183.453 217.561 183.351L239.018 176.524C239.232 176.461 239.471 176.499 239.648 176.626C239.824 176.766 239.938 176.969 239.938 177.198L240.051 384.575C240.051 384.753 239.976 384.944 239.85 385.071C239.711 385.211 239.534 385.274 239.345 385.274Z" fill="black"/>
<path d="M297.574 384.575H239.446C239.333 384.575 239.232 384.461 239.232 384.334V177.44C239.232 177.313 239.333 177.198 239.459 177.211L297.587 179.588C297.7 179.588 297.789 179.69 297.789 179.817V384.334C297.789 384.461 297.7 384.575 297.574 384.575Z" fill="#802EE3"/>
<path d="M239.937 383.863H297.095V180.275L239.937 177.935V383.863ZM297.574 385.274H239.446C238.941 385.274 238.525 384.855 238.525 384.333V177.439C238.525 177.185 238.626 176.931 238.815 176.753C238.992 176.588 239.231 176.486 239.483 176.499L297.611 178.876C298.116 178.889 298.494 179.308 298.494 179.817V384.333C298.494 384.855 298.09 385.274 297.574 385.274Z" fill="black"/>
<path d="M268.529 285.788C268.138 285.788 267.823 285.47 267.823 285.076V193.218C267.823 192.824 268.138 192.519 268.529 192.519C268.907 192.519 269.235 192.824 269.235 193.218V285.076C269.235 285.47 268.907 285.788 268.529 285.788Z" fill="#CADDFF"/>
<path d="M253.174 223.896C252.796 223.896 252.48 223.591 252.48 223.197V207.533C252.48 207.139 252.796 206.834 253.174 206.834C253.565 206.834 253.88 207.139 253.88 207.533V223.197C253.88 223.591 253.565 223.896 253.174 223.896Z" fill="#CADDFF"/>
<path d="M253.174 327.794C252.796 327.794 252.48 327.476 252.48 327.082V249.095C252.48 248.701 252.796 248.383 253.174 248.383C253.565 248.383 253.88 248.701 253.88 249.095V327.082C253.88 327.476 253.565 327.794 253.174 327.794Z" fill="#CADDFF"/>
<path d="M283.87 254.765C283.479 254.765 283.164 254.448 283.164 254.066V238.403C283.164 238.009 283.479 237.703 283.87 237.703C284.26 237.703 284.575 238.009 284.575 238.403V254.066C284.575 254.448 284.26 254.765 283.87 254.765Z" fill="#CADDFF"/>
<path d="M166.758 384.575H145.289V269.311L166.758 264.569V384.575Z" fill="white"/>
<path d="M145.994 383.863H166.05V265.446L145.994 269.883V383.863ZM166.756 385.275H145.288C144.909 385.275 144.594 384.969 144.594 384.575V269.311C144.594 268.98 144.821 268.688 145.136 268.624L166.605 263.882C166.807 263.831 167.034 263.882 167.197 264.022C167.361 264.149 167.462 264.352 167.462 264.568V384.575C167.462 384.969 167.147 385.275 166.756 385.275Z" fill="black"/>
<path d="M225.326 384.575H166.756V264.823C166.756 264.683 166.87 264.568 167.008 264.581L225.326 266.552V384.575Z" fill="#802EE3"/>
<path d="M167.464 383.863H224.621V267.226L167.464 265.306V383.863ZM226.02 385.275H166.052V264.823C166.052 264.568 166.165 264.314 166.342 264.136C166.518 263.958 166.77 263.857 167.035 263.869L226.02 265.865V385.275Z" fill="black"/>
<path d="M182.325 351.112C181.934 351.112 181.619 350.794 181.619 350.4V278.909C181.619 278.515 181.934 278.198 182.325 278.198C182.716 278.198 183.018 278.515 183.018 278.909V350.4C183.018 350.794 182.716 351.112 182.325 351.112Z" fill="#CADDFF"/>
<path d="M213.022 359.477C212.632 359.477 212.316 359.16 212.316 358.765V287.275C212.316 286.881 212.632 286.563 213.022 286.563C213.401 286.563 213.716 286.881 213.716 287.275V358.765C213.716 359.16 213.401 359.477 213.022 359.477Z" fill="#CADDFF"/>
<path d="M197.668 331.456C197.277 331.456 196.962 331.139 196.962 330.757V316.123C196.962 315.729 197.277 315.411 197.668 315.411C198.059 315.411 198.374 315.729 198.374 316.123V330.757C198.374 331.139 198.059 331.456 197.668 331.456Z" fill="#CADDFF"/>
<path d="M94.5854 384.575H72.915V327.4L94.3711 323.141L94.5854 384.575Z" fill="white"/>
<path d="M73.6204 383.863H93.8788L93.6771 324.006L73.6204 327.985V383.863ZM94.5848 385.274H72.9145C72.5237 385.274 72.2085 384.969 72.2085 384.575V327.4C72.2085 327.07 72.448 326.777 72.7758 326.714L94.2444 322.442C94.4461 322.404 94.6604 322.454 94.8243 322.594C94.9756 322.721 95.0765 322.925 95.0765 323.141L95.2782 384.575C95.2782 384.753 95.2025 384.931 95.0765 385.071C94.9504 385.21 94.7613 385.274 94.5848 385.274Z" fill="black"/>
<path d="M152.738 384.575H94.5849C94.4715 384.575 94.3706 384.486 94.3706 384.371V323.357C94.3706 323.23 94.4715 323.141 94.5849 323.141L152.738 324.095C152.852 324.107 152.94 324.196 152.94 324.311V384.371C152.94 384.486 152.852 384.575 152.738 384.575Z" fill="#802EE3"/>
<path d="M95.077 383.863H152.234V324.807L95.077 323.866V383.863ZM152.739 385.274H94.5854C94.0811 385.274 93.6777 384.867 93.6777 384.371V323.357C93.6777 323.103 93.766 322.874 93.9425 322.696C94.119 322.531 94.3459 322.442 94.598 322.442L152.751 323.395C153.243 323.395 153.646 323.815 153.646 324.311V384.371C153.646 384.867 153.23 385.274 152.739 385.274Z" fill="black"/>
<path d="M135.24 370.755C134.849 370.755 134.534 370.45 134.534 370.056V333.681C134.534 333.287 134.849 332.969 135.24 332.969C135.631 332.969 135.946 333.287 135.946 333.681V370.056C135.946 370.45 135.631 370.755 135.24 370.755Z" fill="#CADDFF"/>
<path d="M116.848 357.8C116.457 357.8 116.154 357.482 116.154 357.088V346.357C116.154 345.976 116.457 345.658 116.848 345.658C117.238 345.658 117.554 345.976 117.554 346.357V357.088C117.554 357.482 117.238 357.8 116.848 357.8Z" fill="#CADDFF"/>
<path d="M22.3774 384.575H0.707031V354.634L22.1757 350.985L22.3774 384.575Z" fill="white"/>
<path d="M1.41191 383.863H21.6704L21.4687 351.824L1.41191 355.231V383.863ZM22.3763 385.274H0.705957C0.315158 385.274 0 384.969 0 384.575V354.634C0 354.291 0.252127 353.998 0.592499 353.935L22.0485 350.286C22.2502 350.248 22.4646 350.311 22.6158 350.438C22.7797 350.578 22.868 350.769 22.868 350.985L23.0697 384.562C23.0823 384.753 23.0066 384.931 22.868 385.071C22.7419 385.198 22.5654 385.274 22.3763 385.274Z" fill="black"/>
<path d="M80.5287 384.575H22.3755C22.2621 384.575 22.1738 384.524 22.1738 384.46V351.099C22.1738 351.035 22.2621 350.985 22.3755 350.985L80.5287 351.506C80.6422 351.506 80.7304 351.557 80.7304 351.62V384.46C80.7304 384.524 80.6422 384.575 80.5287 384.575Z" fill="#802EE3"/>
<path d="M22.8685 383.863H80.0258V352.218L22.8685 351.697V383.863ZM80.5301 385.275H22.3769C21.86 385.275 21.4692 384.919 21.4692 384.461V351.1C21.4692 350.896 21.5449 350.693 21.6962 350.54C21.8726 350.375 22.1248 350.286 22.3769 350.273L80.5427 350.807C81.0469 350.807 81.4377 351.163 81.4377 351.621V384.461C81.4377 384.919 81.0343 385.275 80.5301 385.275Z" fill="black"/>
<path d="M63.0316 377.341C62.6408 377.341 62.3257 377.023 62.3257 376.629V356.744C62.3257 356.35 62.6408 356.032 63.0316 356.032C63.4224 356.032 63.7376 356.35 63.7376 356.744V376.629C63.7376 377.023 63.4224 377.341 63.0316 377.341Z" fill="#CADDFF"/>
<path d="M44.6392 370.259C44.261 370.259 43.9458 369.942 43.9458 369.547V363.686C43.9458 363.292 44.261 362.974 44.6392 362.974C45.0299 362.974 45.3451 363.292 45.3451 363.686V369.547C45.3451 369.942 45.0299 370.259 44.6392 370.259Z" fill="#CADDFF"/>
<path d="M86.2019 292.272L84.084 311.241L92.089 314.598L95.0389 293.912L86.2019 292.272Z" fill="white"/>
<path d="M84.8415 310.784L91.5229 313.593L94.2459 294.484L86.8207 293.098L84.8415 310.784ZM92.0902 315.31C92.002 315.31 91.9137 315.284 91.8255 315.246L83.8204 311.89C83.5305 311.775 83.354 311.47 83.3918 311.165L85.5097 292.183C85.5349 291.992 85.6357 291.814 85.787 291.7C85.9509 291.586 86.14 291.535 86.3417 291.573L95.1661 293.213C95.5317 293.289 95.7839 293.645 95.7334 294.014L92.7835 314.699C92.7583 314.916 92.6323 315.106 92.4432 315.208C92.3297 315.272 92.2163 315.31 92.0902 315.31Z" fill="black"/>
<path d="M82.2198 309.448C81.9677 311.241 81.5643 314.585 81.5265 317.573C81.5138 319.454 82.9132 321.031 84.7537 321.272C89.9853 321.946 101.835 322.684 111.933 321.768C112.626 321.705 113.849 321.196 114.19 319.454C115.337 313.619 105.252 312.182 94.1959 307.948C93.7672 307.783 93.2756 307.872 92.9352 308.202L91.7502 309.359C90.5526 310.529 88.7877 310.86 87.2624 310.199L83.6317 308.647C83.014 308.38 82.3207 308.775 82.2198 309.448Z" fill="#FF9F78"/>
<path d="M82.9114 309.55C82.6719 311.267 82.2685 314.611 82.2306 317.586C82.218 319.086 83.34 320.383 84.8402 320.573C90.2357 321.273 101.884 321.972 111.868 321.057C112.095 321.044 113.192 320.866 113.494 319.315C114.213 315.64 109.624 313.924 101.455 311.229C99.0475 310.428 96.5515 309.601 93.942 308.61C93.7655 308.533 93.5638 308.584 93.4251 308.711L92.2401 309.868C90.8408 311.241 88.7734 311.623 86.9832 310.847L83.3526 309.296C83.2266 309.245 83.1257 309.283 83.0753 309.309C83.0249 309.334 82.9366 309.411 82.9114 309.55ZM101.418 322.913C94.6101 322.913 88.2565 322.442 84.6637 321.972C82.4576 321.692 80.8061 319.798 80.8313 317.56C80.8566 314.509 81.2852 311.102 81.5247 309.347C81.6003 308.813 81.9155 308.343 82.3819 308.076C82.861 307.809 83.4156 307.783 83.9073 307.999L87.5379 309.55C88.7986 310.097 90.2609 309.83 91.2568 308.851L92.4544 307.694C92.9713 307.186 93.7529 307.02 94.4462 307.287C97.0179 308.266 99.4888 309.093 101.884 309.881C109.7 312.462 115.877 314.509 114.881 319.594C114.49 321.552 113.091 322.366 111.994 322.468C108.553 322.786 104.922 322.913 101.418 322.913Z" fill="black"/>
<path d="M81.5391 317.128C81.5391 317.128 81.5265 317.433 81.5265 317.573C81.5138 319.454 82.9132 321.031 84.7537 321.272C89.9853 321.946 101.835 322.684 111.933 321.768C112.626 321.705 113.849 321.196 114.19 319.454C114.29 318.92 114.227 317.967 114.227 317.967L113.509 317.992C103.31 318.501 93.0865 318.259 82.9132 317.255L81.5391 317.128Z" fill="white"/>
<path d="M82.2433 317.903C82.3819 319.276 83.4409 320.395 84.8402 320.573C90.2357 321.272 101.884 321.971 111.868 321.056C112.095 321.043 113.192 320.865 113.494 319.314C113.532 319.162 113.545 318.933 113.545 318.704C103.346 319.212 93.0091 318.958 82.8484 317.967L82.2433 317.903ZM101.418 322.912C94.6101 322.912 88.2565 322.442 84.6637 321.971C82.4576 321.692 80.8061 319.797 80.8313 317.56V317.115C80.8439 316.911 80.9196 316.721 81.0709 316.593C81.2221 316.466 81.4112 316.403 81.6003 316.415L82.987 316.555C93.0847 317.547 103.346 317.789 113.482 317.293L114.188 317.255C114.579 317.229 114.906 317.522 114.932 317.916C114.932 318.017 114.995 318.984 114.881 319.594C114.49 321.552 113.091 322.366 111.994 322.467C108.553 322.785 104.922 322.912 101.418 322.912Z" fill="black"/>
<path d="M96.7294 314.954C96.553 314.954 96.3765 314.89 96.2378 314.75C95.9604 314.47 95.9604 314.025 96.2378 313.746L100.108 309.843C100.385 309.563 100.827 309.563 101.104 309.843C101.381 310.122 101.381 310.567 101.104 310.847L97.2337 314.75C97.095 314.89 96.9059 314.954 96.7294 314.954Z" fill="black"/>
<path d="M100.535 315.36C100.359 315.36 100.195 315.297 100.056 315.17C99.7786 314.903 99.766 314.445 100.031 314.165L103.132 310.923C103.397 310.643 103.85 310.631 104.128 310.898C104.405 311.177 104.418 311.622 104.14 311.902L101.039 315.144C100.913 315.297 100.724 315.36 100.535 315.36Z" fill="black"/>
<path d="M115.285 167.243C115.285 167.243 110.406 170.091 108.503 186.81C106.599 203.516 107.242 223.222 93.9927 242.764C83.416 258.376 84.3488 284.707 82.8108 301.972C82.7352 302.812 83.3655 303.523 84.1975 303.562L94.3457 303.905C94.9886 303.93 95.5685 303.523 95.7702 302.901C97.5729 297.243 106.586 269.946 116.709 254.13C127.412 237.411 140.422 193.993 140.422 193.993C140.422 193.993 138.014 183.021 137.674 172.506C137.333 161.992 115.285 167.243 115.285 167.243Z" fill="black"/>
<path d="M175.001 235.987L170.715 254.588L178.292 258.859L183.574 238.657L175.001 235.987Z" fill="white"/>
<path d="M171.522 254.232L177.837 257.792L182.729 239.128L175.505 236.89L171.522 254.232ZM178.291 259.559C178.165 259.559 178.052 259.534 177.938 259.47L170.375 255.211C170.097 255.058 169.958 254.74 170.034 254.435L174.308 235.835C174.358 235.644 174.472 235.479 174.648 235.377C174.812 235.275 175.014 235.263 175.203 235.313L183.788 237.971C184.141 238.085 184.355 238.467 184.254 238.835L178.959 259.038C178.909 259.254 178.758 259.419 178.556 259.508C178.468 259.546 178.38 259.559 178.291 259.559Z" fill="black"/>
<path d="M169.808 253.494C169.556 255.287 167.955 258.694 167.917 261.695C167.904 263.564 169.304 265.153 171.144 265.395C176.376 266.068 189.424 266.73 199.521 265.814C200.215 265.751 201.437 265.242 201.778 263.5C202.912 257.652 192.84 256.228 181.784 251.994C181.343 251.829 180.864 251.918 180.523 252.248L179.338 253.405C178.141 254.575 176.376 254.906 174.838 254.244L171.22 252.693C170.602 252.426 169.909 252.821 169.808 253.494Z" fill="#FF9F78"/>
<path d="M170.5 253.583C170.399 254.308 170.122 255.21 169.794 256.266C169.277 257.893 168.647 259.915 168.622 261.695C168.609 263.208 169.731 264.492 171.231 264.682C175.971 265.305 189.107 266.055 199.457 265.102C199.671 265.089 200.78 264.911 201.083 263.36C201.802 259.686 197.213 257.969 189.044 255.274C186.624 254.473 184.14 253.647 181.531 252.655C181.354 252.579 181.152 252.617 181.014 252.757L179.816 253.914C178.417 255.287 176.362 255.668 174.572 254.893L170.941 253.342C170.815 253.291 170.714 253.329 170.664 253.354C170.613 253.38 170.525 253.456 170.5 253.583ZM188.199 266.971C181.367 266.971 174.723 266.564 171.055 266.094C168.836 265.801 167.184 263.907 167.222 261.682C167.235 259.699 167.916 257.55 168.458 255.833C168.76 254.854 169.025 254.003 169.113 253.392C169.189 252.846 169.504 252.388 169.971 252.121C170.437 251.854 170.992 251.829 171.496 252.032L175.114 253.596C176.387 254.143 177.849 253.863 178.845 252.897L180.03 251.74C180.56 251.218 181.341 251.066 182.035 251.333C184.607 252.312 187.077 253.138 189.473 253.926C197.289 256.507 203.453 258.554 202.47 263.64C202.079 265.598 200.667 266.411 199.583 266.513C196.078 266.831 192.107 266.971 188.199 266.971Z" fill="black"/>
<path d="M168.206 261.11C168.206 261.11 168.193 261.415 168.193 261.568C168.181 263.449 169.58 265.026 171.421 265.268C176.652 265.941 189.423 266.73 199.52 265.814C200.214 265.751 201.436 265.242 201.777 263.5C201.878 262.966 201.815 262 201.815 262L201.096 262.038C190.898 262.547 180.674 262.305 170.5 261.301L168.206 261.11Z" fill="white"/>
<path d="M168.914 261.886C169.04 263.259 170.111 264.378 171.51 264.568C176.087 265.153 188.945 266.068 199.459 265.102C199.673 265.09 200.782 264.912 201.085 263.36C201.123 263.208 201.135 262.979 201.135 262.75C190.937 263.259 180.6 263.004 170.439 262.013L168.914 261.886ZM189.172 266.946C181.596 266.946 174.511 266.374 171.334 265.967C169.115 265.687 167.464 263.78 167.502 261.555V261.097C167.514 260.907 167.59 260.716 167.729 260.589C167.88 260.462 168.069 260.398 168.258 260.411L170.565 260.601C180.675 261.593 190.924 261.835 201.072 261.339L201.778 261.301C202.169 261.275 202.497 261.568 202.522 261.962C202.522 262.064 202.585 263.03 202.472 263.64C202.081 265.598 200.669 266.412 199.585 266.513C196.244 266.819 192.651 266.946 189.172 266.946Z" fill="black"/>
<path d="M184.317 259C184.141 259 183.951 258.936 183.813 258.796C183.548 258.517 183.548 258.072 183.813 257.792L187.696 253.889C187.973 253.609 188.414 253.609 188.691 253.889C188.969 254.156 188.969 254.613 188.691 254.88L184.809 258.796C184.67 258.936 184.494 259 184.317 259Z" fill="black"/>
<path d="M188.124 259.406C187.948 259.406 187.771 259.343 187.645 259.215C187.355 258.936 187.355 258.491 187.62 258.211L190.721 254.969C190.986 254.689 191.427 254.677 191.717 254.944C191.994 255.223 191.994 255.668 191.73 255.948L188.628 259.19C188.49 259.343 188.313 259.406 188.124 259.406Z" fill="black"/>
<path d="M134.812 196.943C134.812 196.943 157.591 195.137 183.018 181.381C183.775 180.974 184.254 182.22 183.8 182.945C182.527 184.992 181.846 188.056 179.93 193.268C177.585 199.702 172.618 232.974 170.979 243.323C170.841 244.264 171.534 245.116 172.479 245.141L182.249 245.459C182.867 245.484 183.447 245.141 183.712 244.582C187.242 237.17 210.273 178.863 209.391 168.006C208.445 156.271 195.146 157.059 189.599 156.69C183.863 156.322 131.849 166.124 131.849 166.124L134.812 196.943Z" fill="black"/>
<path d="M65.5141 179.804C66.2957 178.85 67.3168 177.744 68.1992 176.867C69.3338 175.735 73.1157 168.323 73.1157 168.323L79.7215 170.205C79.7215 170.205 76.6329 175.659 77.3767 178.38C78.07 180.897 78.6121 186.237 74.9436 190.128C74.515 190.573 73.5948 190.687 73.2796 190.611C72.3215 190.395 72.2963 189.047 72.7627 188.182L74.099 185.716C74.2125 185.5 74.036 185.245 73.7965 185.271C72.8006 185.423 70.6197 186.059 68.3379 188.894C66.5856 191.081 63.0937 195.951 61.9213 195.15C59.8412 193.7 61.2027 184.979 65.5141 179.804Z" fill="white"/>
<path d="M66.057 180.249C62.9306 184 61.3044 189.925 61.733 193.103C61.8213 193.802 62.023 194.311 62.2751 194.527C63.1576 194.387 65.7671 191.031 66.889 189.594C67.2294 189.174 67.532 188.78 67.7967 188.45C70.1919 185.462 72.5241 184.737 73.6965 184.572C74.0747 184.521 74.4403 184.686 74.6546 184.992C74.8689 185.309 74.8941 185.716 74.7176 186.059L73.3813 188.513C73.167 188.907 73.104 189.454 73.2427 189.759C73.2931 189.874 73.3561 189.912 73.4318 189.925C73.6335 189.963 74.2386 189.848 74.4277 189.645C78.3482 185.5 77.012 179.69 76.6968 178.558C76.0539 176.206 77.8188 172.354 78.6886 170.65L73.4696 169.163C72.5493 170.955 69.7255 176.346 68.6918 177.376C67.8219 178.24 66.8134 179.347 66.057 180.249ZM62.2247 195.951C61.9726 195.951 61.7456 195.887 61.5313 195.735C60.901 195.303 60.4976 194.476 60.3463 193.294C59.8673 189.836 61.5061 183.504 64.9729 179.347C65.7671 178.393 66.7882 177.274 67.7085 176.371C68.4774 175.596 71.0492 170.828 72.4863 168.006C72.6376 167.701 72.9779 167.548 73.3057 167.637L79.9114 169.531C80.1257 169.595 80.2896 169.748 80.3779 169.938C80.4535 170.142 80.4409 170.37 80.34 170.561C79.5206 172.011 77.5036 176.193 78.0583 178.19C79.0416 181.813 78.8777 186.988 75.4488 190.611C74.8185 191.298 73.6082 191.425 73.1166 191.31C72.5997 191.183 72.1837 190.84 71.9568 190.331C71.6417 189.619 71.7173 188.64 72.1585 187.839L73.041 186.187C72.0324 186.517 70.4945 187.344 68.8809 189.34C68.6161 189.67 68.3262 190.052 67.9984 190.459C65.4771 193.713 63.6114 195.951 62.2247 195.951Z" fill="black"/>
<path d="M224.002 96.0321L219.728 88.7597C219.035 87.5646 216.816 87.2086 215.719 88.035C191.565 106.178 165.886 98.7783 161.915 97.8248C152.07 95.46 147.115 95.104 139.337 94.6336C127.966 93.9343 111.603 100.558 100.598 111.658C91.8364 120.481 76.8979 149.113 70.1282 169.01C69.8383 169.849 70.2039 170.765 70.9855 171.171L77.7803 174.731C78.6375 175.176 79.6965 174.846 80.1629 173.981C83.6171 167.421 98.606 140.175 114.288 131.173C115.436 130.512 117.175 131.212 117.1 132.547C116.898 136.742 114.314 152.253 113.532 166.645C113.431 168.54 114.73 170.218 116.583 170.561L123.441 171.845C135.404 174.655 146.624 171.527 151.565 169.748C153.091 169.214 153.822 167.739 154.049 166.137C154.427 163.48 159.747 142.158 169.429 128.046C170.651 126.279 172.492 125.045 174.635 124.918C183.27 124.41 207.853 120.926 223.901 98.257C224.367 97.5959 224.418 96.7314 224.002 96.0321Z" fill="#802EE3"/>
<path d="M218.127 90.9466C218.026 90.4126 218.215 89.8659 218.631 89.5099C219.186 89.0395 220.106 88.2385 221.443 87.0561C223.813 84.971 226.763 80.8136 229.334 79.5676C231.919 78.3216 241.247 74.6473 242.747 75.4229C244.235 76.2111 243.504 77.9784 241.373 78.9955C239.256 80.0253 236.495 81.0806 236.495 81.0806C236.495 81.0806 238.045 80.9916 239.18 82.7842C240.314 84.5896 238.739 85.3143 239.407 86.2043C240.264 87.3358 240.012 88.6708 239.331 89.2429C237.793 90.5779 235.927 87.9588 234.528 90.6669C233.557 92.5485 231.276 93.7691 226.637 94.6591C225.389 94.9006 224.204 95.3838 223.119 96.0576C222.678 96.3373 222.111 96.3627 221.657 96.1084C220.548 95.4728 218.631 93.9725 218.127 90.9466Z" fill="white"/>
<path d="M242.068 75.9947C240.089 75.9947 232.689 78.7282 229.651 80.2031C228.125 80.9405 226.398 82.8476 224.722 84.6784C223.738 85.7718 222.793 86.8016 221.91 87.5899C220.561 88.7723 219.641 89.5732 219.087 90.0437C218.872 90.2344 218.771 90.5268 218.822 90.8319C219.276 93.5654 221.015 94.9258 222.011 95.4852C222.238 95.6124 222.528 95.5996 222.755 95.4598C223.927 94.7224 225.188 94.2138 226.499 93.9595C230.81 93.1331 233.029 92.0525 233.912 90.3361C234.958 88.3018 236.42 88.607 237.391 88.8104C238.11 88.963 238.5 89.0265 238.879 88.7087C239.269 88.3781 239.471 87.4627 238.853 86.6236C238.336 85.937 238.576 85.2632 238.74 84.8182C238.916 84.3097 239.055 83.9028 238.589 83.1654C237.706 81.7669 236.546 81.7923 236.546 81.7923C236.193 81.805 235.891 81.5762 235.815 81.2329C235.74 80.8896 235.929 80.5463 236.256 80.4192C236.282 80.4065 239.005 79.3639 241.085 78.3595C242.27 77.7874 242.824 77.0246 242.837 76.5669C242.837 76.4906 242.837 76.2617 242.421 76.0583C242.345 76.0202 242.219 75.9947 242.068 75.9947ZM222.352 96.9855C221.999 96.9855 221.646 96.8965 221.318 96.7185C220.108 96.0319 217.99 94.3791 217.435 91.0608C217.296 90.2852 217.586 89.4715 218.179 88.963C218.734 88.4925 219.654 87.7043 220.99 86.5219C221.809 85.7972 222.73 84.7928 223.688 83.7248C225.453 81.7923 227.268 79.7835 229.033 78.9317C229.146 78.8808 240.87 73.6427 243.076 74.7996C243.82 75.1811 244.249 75.8422 244.236 76.5923C244.224 77.7111 243.24 78.8808 241.69 79.6436C240.643 80.1395 239.446 80.6608 238.5 81.0422C238.929 81.3473 239.383 81.7796 239.774 82.4026C240.618 83.7375 240.278 84.6657 240.064 85.3014C239.912 85.6955 239.937 85.7209 239.975 85.7718C241.059 87.2212 240.719 88.9884 239.786 89.7894C238.879 90.5776 237.857 90.3615 237.101 90.2089C236.181 90.0055 235.714 89.9038 235.16 90.9845C234.05 93.1331 231.542 94.43 226.764 95.3581C225.617 95.5742 224.52 96.0192 223.499 96.6549C223.146 96.8838 222.755 96.9855 222.352 96.9855Z" fill="black"/>
<path d="M155.702 74.9521L142.932 96.2861C142.756 96.5277 140.877 96.4641 138.772 96.6803C137.776 96.782 136.743 96.9346 135.898 97.0744C135.192 97.1888 134.99 98.117 135.583 98.5111L137.877 100.037C142.668 103.241 148.353 104.893 154.089 104.499C155.69 104.385 157.215 104.131 158.577 103.711L163.468 102.16C164.199 101.918 164.199 100.876 163.455 100.647L157.228 98.7399L162.485 87.4881L155.702 74.9521Z" fill="white"/>
<path d="M155.675 76.364L143.535 96.6554C143.523 96.6681 143.51 96.6935 143.497 96.7063C143.195 97.1258 142.691 97.1512 141.165 97.2275C140.497 97.253 139.678 97.3038 138.833 97.3801C138.014 97.4691 137.055 97.5962 136.009 97.7742C135.984 97.7742 135.946 97.7869 135.934 97.8378C135.921 97.8887 135.959 97.9141 135.971 97.9141L138.253 99.4525C143.018 102.618 148.616 104.157 154.049 103.788C155.65 103.686 157.1 103.432 158.36 103.025L163.252 101.474C163.277 101.474 163.315 101.461 163.315 101.398C163.315 101.347 163.277 101.334 163.252 101.321L157.024 99.4143C156.835 99.3635 156.671 99.2236 156.583 99.0329C156.507 98.8422 156.507 98.6261 156.595 98.4354L161.701 87.5141L155.675 76.364ZM152.448 105.263C147.254 105.263 141.997 103.648 137.484 100.622L135.202 99.0965C134.685 98.7532 134.433 98.1429 134.559 97.5327C134.698 96.9351 135.177 96.4774 135.782 96.3757C136.866 96.1977 137.837 96.0706 138.694 95.9816C139.577 95.8926 140.421 95.8417 141.09 95.8163C141.606 95.7909 142.174 95.7527 142.451 95.7146L155.108 74.584C155.234 74.3679 155.473 74.2407 155.726 74.2407C155.978 74.2407 156.205 74.3806 156.318 74.6094L163.1 87.1581C163.214 87.3488 163.226 87.5904 163.125 87.7938L158.209 98.3082L163.655 99.9737C164.285 100.164 164.714 100.737 164.714 101.398C164.714 102.046 164.298 102.631 163.68 102.822L158.789 104.385C157.415 104.805 155.852 105.085 154.137 105.212C153.582 105.25 153.015 105.263 152.448 105.263Z" fill="black"/>
<path d="M161.412 87.9333C162.081 88.0223 162.774 88.0477 163.48 88.0096L164.74 87.946C164.74 87.946 171.977 86.9798 173.136 85.1617C174.296 83.3563 171.838 76.7959 171.838 76.7959C172.96 75.9186 173.212 74.8125 172.972 74.4438C172.733 74.0624 171.119 73.503 170.464 73.0071C169.934 72.613 168.737 69.4727 168.22 68.125C168.22 68.125 167.274 62.7978 158.803 63.4971C139.376 65.0736 153.344 83.191 153.344 83.191C153.647 83.547 153.949 83.8903 154.277 84.2081L161.412 87.9333Z" fill="white"/>
<path d="M162.862 88.7346C161.778 88.7346 160.694 88.5821 159.66 88.2896C159.282 88.1879 159.068 87.7938 159.168 87.4251C159.269 87.0437 159.66 86.8275 160.038 86.9293C161.135 87.2344 162.282 87.3615 163.442 87.298L164.677 87.2344C167.539 86.853 171.863 85.8359 172.544 84.7806C173.212 83.7508 172.153 79.6315 171.182 77.0505C171.069 76.7581 171.17 76.4275 171.409 76.2368C172.128 75.6774 172.342 75.0671 172.355 74.8256C172.166 74.6984 171.712 74.4823 171.409 74.3297C170.905 74.0882 170.388 73.8466 170.048 73.5796C169.531 73.1982 168.875 71.8378 167.564 68.3796C167.552 68.3415 167.539 68.3033 167.526 68.2525C167.501 68.0745 166.543 63.5737 158.853 64.1967C154.138 64.5909 151.126 65.9385 149.928 68.2271C147.886 72.1048 151.176 77.9786 153.143 81.4877L153.319 81.8055C153.521 82.1488 153.395 82.5811 153.054 82.7591C152.714 82.9625 152.285 82.8354 152.096 82.5048L151.92 82.187C149.814 78.4236 146.285 72.1302 148.68 67.5659C150.13 64.8197 153.508 63.2178 158.74 62.7855C167.148 62.0989 168.711 67.1845 168.9 67.9219C170.186 71.3038 170.691 72.2574 170.905 72.4608C171.119 72.6261 171.598 72.8549 172.014 73.0583C172.846 73.4525 173.325 73.7068 173.552 74.0627C173.981 74.7112 173.729 75.9698 172.67 77.0124C173.3 78.805 174.876 83.7381 173.716 85.5561C172.455 87.5395 166.089 88.4804 164.829 88.6456C164.816 88.6456 164.791 88.6456 164.778 88.6456L163.518 88.7219C163.303 88.7219 163.076 88.7346 162.862 88.7346Z" fill="black"/>
<path d="M154.831 61.1707C156.948 60.7511 159.369 61.0817 160.39 60.7384C162.054 60.1663 162.016 58.2337 164.361 58.043C166.428 57.8777 168.345 58.2592 169.391 59.8484C169.567 60.1154 169.719 60.4205 169.832 60.7511C171.458 65.2518 169.214 67.4259 168.218 68.1252C168.218 68.1252 161.928 71.1765 160.844 72.0538C159.835 72.8675 158.638 74.8127 159.293 77.6352C159.369 78.0039 159.205 78.3726 158.877 78.5633C158.499 78.7668 158.02 78.665 157.768 78.309C156.986 77.1648 155.272 74.9653 154.011 75.4866C152.524 76.0714 152.019 79.822 154.742 80.7501C155.587 81.0298 155.852 82.1359 155.259 82.7844C154.755 83.3311 153.986 83.7125 152.839 83.4073C152.839 83.4073 146.069 78.5506 145.262 72.1428C144.468 65.735 152.019 61.7301 154.831 61.1707Z" fill="black"/>
<path d="M218.671 15.2355C217.927 15.2355 217.196 15.5915 216.73 16.2526C216.377 16.7739 216.238 17.4096 216.352 18.0326C216.465 18.6555 216.805 19.2022 217.322 19.5709C218.381 20.3084 219.856 20.0541 220.6 18.9734C220.965 18.4521 221.104 17.8164 220.991 17.1934C220.877 16.5705 220.537 16.0238 220.02 15.6678C219.604 15.3753 219.138 15.2355 218.671 15.2355ZM218.659 21.4145C217.902 21.4145 217.158 21.1729 216.515 20.7279C215.696 20.1431 215.141 19.2785 214.965 18.2868C214.788 17.2824 215.003 16.278 215.583 15.4516C216.768 13.7352 219.112 13.303 220.814 14.4981C221.646 15.0829 222.188 15.9475 222.365 16.9519C222.554 17.9436 222.327 18.948 221.76 19.7871C221.18 20.6135 220.323 21.1729 219.327 21.3509C219.112 21.389 218.885 21.4145 218.659 21.4145Z" fill="black"/>
<path d="M241.376 25.3809C241.174 25.3809 240.972 25.2919 240.834 25.1267C240.581 24.8342 240.619 24.3765 240.922 24.135L243.178 22.177C243.481 21.9227 243.922 21.9609 244.174 22.266C244.426 22.5584 244.389 23.0034 244.099 23.2577L241.829 25.2029C241.691 25.3174 241.527 25.3809 241.376 25.3809Z" fill="black"/>
<path d="M234.202 31.5343C234.013 31.5343 233.811 31.4453 233.673 31.28C233.42 30.9876 233.458 30.5426 233.748 30.2883L236.017 28.3303C236.32 28.0761 236.761 28.1142 237.013 28.4193C237.265 28.7118 237.228 29.1567 236.925 29.411L234.668 31.3563C234.53 31.4707 234.366 31.5343 234.202 31.5343Z" fill="black"/>
<path d="M236.836 25.0122C236.634 25.0122 236.445 24.9232 236.306 24.7579L234.365 22.4694C234.113 22.177 234.151 21.732 234.441 21.4777C234.743 21.2234 235.184 21.2616 235.436 21.554L237.365 23.8425C237.617 24.1349 237.58 24.5799 237.29 24.8342C237.164 24.9486 237 25.0122 236.836 25.0122Z" fill="black"/>
<path d="M242.951 32.2339C242.749 32.2339 242.547 32.1449 242.408 31.9796L240.48 29.7038C240.228 29.3986 240.265 28.9537 240.555 28.6994C240.845 28.4451 241.287 28.4832 241.551 28.7757L243.48 31.0642C243.732 31.3566 243.694 31.8143 243.404 32.0686C243.266 32.1703 243.102 32.2339 242.951 32.2339Z" fill="black"/>
<path d="M54.0684 296.455C53.6902 296.455 53.3877 296.149 53.3751 295.768L53.2616 292.768C53.249 292.373 53.5516 292.043 53.9297 292.03C54.3332 292.017 54.6483 292.323 54.6609 292.717L54.7744 295.717C54.787 296.111 54.4844 296.429 54.0936 296.455C54.0936 296.455 54.081 296.455 54.0684 296.455Z" fill="black"/>
<path d="M54.4205 305.939C54.0549 305.939 53.7397 305.634 53.7271 305.253L53.6137 302.252C53.6011 301.858 53.9036 301.528 54.2818 301.515C54.6852 301.502 55.0004 301.807 55.013 302.202L55.1264 305.202C55.139 305.583 54.8365 305.914 54.4583 305.939C54.4457 305.939 54.4331 305.939 54.4205 305.939Z" fill="black"/>
<path d="M48.0037 299.926C47.6255 299.926 47.3103 299.621 47.2977 299.239C47.2851 298.858 47.5877 298.527 47.9659 298.514L50.9536 298.4C51.3444 298.387 51.6595 298.692 51.6722 299.074C51.6974 299.468 51.3948 299.799 51.004 299.811L48.0289 299.926C48.0163 299.926 48.0037 299.926 48.0037 299.926Z" fill="black"/>
<path d="M57.409 299.57C57.0308 299.57 56.7282 299.265 56.703 298.883C56.6904 298.502 56.993 298.171 57.3838 298.159L60.3589 298.044C60.7623 298.032 61.0774 298.324 61.09 298.718C61.1026 299.112 60.8001 299.443 60.4093 299.456L57.4342 299.57C57.4216 299.57 57.4216 299.57 57.409 299.57Z" fill="black"/>
<path d="M38.5764 255.109C38.3116 255.109 38.0595 254.957 37.9461 254.69C25.5288 227.431 21.3687 197.286 25.9322 167.523C27.092 160.022 28.7938 152.584 30.9999 145.388C31.1134 145.019 31.5042 144.803 31.8824 144.93C32.248 145.045 32.4623 145.439 32.3488 145.807C30.1553 152.927 28.4661 160.314 27.3315 167.739C22.8058 197.235 26.9155 227.1 39.2193 254.105C39.3832 254.461 39.2319 254.88 38.8789 255.033C38.7781 255.084 38.6772 255.109 38.5764 255.109Z" fill="black"/>
<path d="M40.3523 258.847C40.0876 258.847 39.8354 258.707 39.722 258.453C39.1169 257.219 38.5118 255.948 37.9445 254.689C37.7806 254.333 37.9319 253.914 38.2849 253.748C38.6378 253.583 39.0538 253.748 39.2177 254.104C39.785 255.35 40.3775 256.596 40.9826 257.83C41.1465 258.173 41.0078 258.605 40.6549 258.77C40.554 258.821 40.4532 258.847 40.3523 258.847Z" fill="black"/>
<path d="M31.3525 273.418C31.1004 273.418 30.8483 273.278 30.7222 273.036C22.049 255.949 16.2879 237.59 13.628 218.481C10.8672 198.723 11.4975 178.648 15.5063 158.84C15.582 158.445 15.9602 158.204 16.3384 158.28C16.7165 158.356 16.9561 158.738 16.8804 159.119C9.08969 197.655 14.4474 237.895 31.9829 272.388C32.1594 272.744 32.0207 273.163 31.6677 273.341C31.5669 273.392 31.466 273.418 31.3525 273.418Z" fill="black"/>
<path d="M16.8301 149.164L20.7633 150.766L20.8767 145.985L16.8301 149.164ZM21.4314 152.52C21.3432 152.52 21.2549 152.495 21.1793 152.469L15.1786 150.016C14.9391 149.927 14.7752 149.71 14.75 149.469C14.7122 149.215 14.8131 148.96 15.0148 148.808L21.1793 143.938C21.3936 143.773 21.6835 143.748 21.923 143.862C22.1752 143.989 22.3265 144.243 22.3138 144.51L22.1374 151.821C22.1374 152.062 22.0113 152.279 21.8222 152.393C21.7087 152.482 21.5701 152.52 21.4314 152.52Z" fill="black"/>
<path d="M227.166 170.18C226.952 170.18 226.738 170.078 226.599 169.887C226.372 169.582 226.435 169.137 226.75 168.896L247.21 153.626C247.513 153.397 247.954 153.461 248.194 153.766C248.421 154.084 248.358 154.529 248.042 154.758L227.582 170.04C227.456 170.129 227.305 170.18 227.166 170.18Z" fill="black"/>
<path d="M196.268 143.277C196.053 143.277 195.839 143.188 195.713 142.998C195.473 142.68 195.536 142.235 195.852 142.006L248.055 103.025C248.37 102.796 248.811 102.86 249.05 103.178C249.277 103.496 249.202 103.928 248.899 104.169L196.684 143.15C196.558 143.239 196.419 143.277 196.268 143.277Z" fill="black"/>
<path d="M233.194 125.745C232.979 125.745 232.765 125.656 232.626 125.465C232.399 125.147 232.462 124.702 232.778 124.473L260.234 103.978C260.549 103.737 260.978 103.8 261.218 104.118C261.444 104.436 261.381 104.881 261.066 105.11L233.61 125.617C233.483 125.706 233.332 125.745 233.194 125.745Z" fill="black"/>
<path d="M70.0542 174.49C69.5878 174.49 69.1088 174.401 68.6549 174.223C67.659 173.829 66.89 173.066 66.4614 172.074C65.5916 170.053 66.4866 167.675 68.4658 166.773C68.8188 166.62 69.2348 166.773 69.3987 167.129C69.55 167.485 69.3987 167.904 69.0457 168.069C67.7599 168.654 67.18 170.193 67.7473 171.515C68.0246 172.163 68.5289 172.646 69.1592 172.901C69.7769 173.142 70.4576 173.13 71.0628 172.85C72.3486 172.265 72.9285 170.727 72.3612 169.404C72.2099 169.048 72.3738 168.629 72.7268 168.476C73.0798 168.324 73.4958 168.489 73.6471 168.845C74.5169 170.866 73.6218 173.244 71.6426 174.147C71.1384 174.375 70.5963 174.49 70.0542 174.49Z" fill="black"/>
<path d="M107.242 16.7732C114.213 14.9424 121.336 19.1507 123.164 26.1688C124.979 33.1996 120.806 40.383 113.835 42.2138C106.863 44.0446 99.7409 39.8363 97.913 32.8182C96.0976 25.7874 100.27 18.604 107.242 16.7732ZM84.5376 33.6954L85.8108 38.6284L91.345 38.4504C91.8493 39.5438 92.4292 40.5737 93.0847 41.5399L90.097 46.2314L93.6646 49.8676L98.3668 46.9179C99.3249 47.6045 100.346 48.202 101.405 48.7233L101.14 54.292L106.031 55.6397L108.628 50.7321C109.801 50.8338 110.973 50.8465 112.158 50.7448L114.705 55.7033L119.609 54.4064L119.419 48.8377C120.504 48.3292 121.537 47.7443 122.495 47.0832L127.147 50.0964L130.753 46.4984L127.828 41.7688C128.509 40.8025 129.101 39.7727 129.605 38.7047L135.14 38.959L136.488 34.0387L131.61 31.4069C131.711 30.2372 131.723 29.0548 131.622 27.847L136.539 25.2915L135.266 20.3458L129.731 20.5365C129.227 19.4431 128.647 18.4133 127.992 17.4343L130.979 12.7429L127.412 9.11939L122.71 12.069C121.752 11.3825 120.73 10.7849 119.672 10.2636L119.924 4.69494L115.045 3.33455L112.448 8.25484C111.276 8.15313 110.103 8.14042 108.918 8.24213L106.372 3.28369L101.468 4.5678L101.657 10.1492C100.573 10.6578 99.5392 11.2426 98.5811 11.9037L93.9293 8.89054L90.3239 12.4886L93.2486 17.2182C92.5679 18.1844 91.9754 19.2143 91.4711 20.2822L85.9369 20.028L84.588 24.9482L89.4667 27.5673C89.3658 28.7497 89.3532 29.9321 89.4541 31.1272L84.5376 33.6954Z" fill="white"/>
<path d="M109.575 18.7311C102.982 20.4601 99.0236 27.2748 100.751 33.9115C102.465 40.5482 109.222 44.5276 115.803 42.7985C122.396 41.0694 126.354 34.2548 124.627 27.6181C123.795 24.4142 121.778 21.7061 118.929 20.0279C116.08 18.3496 112.765 17.8919 109.575 18.7311ZM112.689 44.6166C106.587 44.6166 101.003 40.4846 99.3892 34.2675C97.473 26.868 101.885 19.2905 109.222 17.3579C112.777 16.4171 116.471 16.9384 119.635 18.8073C122.812 20.6763 125.068 23.6895 125.989 27.2621C126.921 30.8474 126.405 34.5726 124.551 37.7765C122.698 40.9677 119.711 43.2308 116.156 44.1716C114.996 44.4768 113.836 44.6166 112.689 44.6166ZM114.315 51.3169C114.58 51.3169 114.819 51.4567 114.933 51.6983L117.227 56.1482L121.034 55.1438L120.87 50.1345C120.858 49.8421 121.022 49.5878 121.286 49.4606C122.333 48.9775 123.329 48.4054 124.249 47.7697C124.476 47.6171 124.791 47.6044 125.031 47.757L129.203 50.465L132.014 47.668L129.38 43.4088C129.228 43.1672 129.241 42.8621 129.405 42.6333C130.06 41.6924 130.64 40.7007 131.132 39.6709C131.245 39.4166 131.51 39.2514 131.8 39.2641L136.767 39.4929L137.813 35.666L133.426 33.3139C133.174 33.1741 133.036 32.9071 133.061 32.6147C133.162 31.4958 133.162 30.3389 133.073 29.1819C133.048 28.9022 133.199 28.6225 133.452 28.4954L137.876 26.1941L136.881 22.3418L131.901 22.5198C131.624 22.5198 131.359 22.3672 131.245 22.1002C130.766 21.045 130.199 20.0406 129.556 19.1125C129.405 18.8709 129.392 18.5658 129.556 18.3242L132.229 14.1159L129.455 11.2807L125.232 13.9379C124.993 14.0905 124.69 14.0777 124.463 13.9125C123.53 13.2513 122.547 12.6665 121.526 12.1707C121.261 12.0562 121.11 11.7892 121.123 11.5095L121.349 6.50024L117.555 5.44498L115.21 9.85672C115.084 10.111 114.807 10.2636 114.529 10.2254C113.42 10.1237 112.273 10.1237 111.113 10.2127C110.836 10.2381 110.571 10.0856 110.445 9.83129L108.151 5.38142L104.343 6.38582L104.507 11.3951C104.52 11.6875 104.356 11.9418 104.104 12.0689C103.045 12.5521 102.049 13.1242 101.129 13.7599C100.902 13.9125 100.587 13.9252 100.36 13.7726L96.1746 11.0645L93.3633 13.8616L95.9981 18.1208C96.1493 18.3623 96.1367 18.6675 95.9729 18.8963C95.3173 19.8372 94.7374 20.8289 94.2458 21.8587C94.1323 22.113 93.855 22.2655 93.5776 22.2655L88.6107 22.0367L87.5644 25.8636L91.9514 28.2157C92.2036 28.3555 92.3422 28.6225 92.317 28.9149C92.2162 30.0337 92.2162 31.1907 92.3044 32.3477C92.3296 32.6274 92.1783 32.9071 91.9262 33.0342L87.514 35.3355L88.5099 39.1878L93.4768 39.0098C93.7541 39.0098 94.0189 39.1624 94.1323 39.4293C94.6114 40.4846 95.1787 41.489 95.8216 42.4171C95.9729 42.646 95.9855 42.9638 95.8342 43.1927L93.149 47.4137L95.9224 50.2489L100.146 47.5917C100.385 47.4391 100.688 47.4518 100.915 47.6171C101.847 48.2783 102.831 48.8504 103.864 49.3589C104.117 49.4734 104.268 49.7404 104.255 50.0201L104.028 55.0294L107.823 56.0846L110.168 51.6729C110.294 51.4186 110.571 51.2787 110.848 51.2915C111.97 51.4059 113.118 51.4059 114.265 51.3169C114.277 51.3169 114.303 51.3169 114.315 51.3169ZM116.862 57.6866C116.597 57.6866 116.357 57.534 116.231 57.3051L113.899 52.7536C112.991 52.8044 112.084 52.8044 111.189 52.7408L108.806 57.2543C108.642 57.5467 108.314 57.6866 107.999 57.5976L103.108 56.2499C102.793 56.1609 102.579 55.8558 102.591 55.5252L102.831 50.4142C102.024 50.0073 101.242 49.5496 100.499 49.0411L96.1872 51.7492C95.9098 51.9144 95.5442 51.8763 95.3173 51.6347L91.7497 47.9985C91.5228 47.7697 91.485 47.401 91.6615 47.1213L94.3971 42.824C93.9054 42.0738 93.4642 41.2729 93.0608 40.4465L87.993 40.6117C87.6527 40.6117 87.3753 40.4083 87.2871 40.0905L86.0138 35.1447C85.9256 34.8269 86.0769 34.4836 86.3668 34.3311L90.8673 31.9917C90.8169 31.0636 90.8169 30.1482 90.8799 29.2455L86.4172 26.8425C86.1273 26.69 85.976 26.3594 86.0642 26.0289L87.4131 21.1086C87.5014 20.7907 87.7913 20.5746 88.1191 20.5873L93.1868 20.8289C93.6029 20.0152 94.0567 19.2269 94.5609 18.4768L91.8758 14.1286C91.6993 13.8489 91.7497 13.4802 91.9766 13.2513L95.5821 9.66601C95.8216 9.43716 96.1872 9.38631 96.4519 9.5643L100.725 12.3232C101.469 11.8401 102.263 11.3824 103.083 10.9755L102.919 5.86454C102.906 5.53398 103.121 5.24156 103.436 5.16528L108.34 3.86846C108.667 3.79217 108.995 3.93203 109.147 4.22445L111.479 8.77604C112.386 8.72518 113.294 8.72518 114.189 8.78875L116.572 4.2753C116.736 3.98288 117.063 3.84303 117.378 3.93203L122.27 5.2797C122.585 5.3687 122.799 5.67384 122.787 6.0044L122.547 11.1154C123.354 11.5222 124.135 11.98 124.879 12.4885L129.191 9.78044C129.468 9.61516 129.834 9.6533 130.06 9.89486L133.628 13.5183C133.855 13.7599 133.893 14.1286 133.716 14.4083L130.981 18.7056C131.472 19.4557 131.914 20.2567 132.317 21.0831L137.385 20.9179C137.725 20.9051 138.002 21.1213 138.091 21.4391L139.377 26.3848C139.452 26.7027 139.301 27.046 139.011 27.1985L134.511 29.5379C134.561 30.466 134.561 31.3814 134.498 32.2841L138.961 34.687C139.251 34.8396 139.402 35.1702 139.314 35.488L137.965 40.421C137.876 40.7389 137.586 40.955 137.259 40.9423L132.191 40.7007C131.788 41.5144 131.321 42.3027 130.817 43.0528L133.502 47.401C133.679 47.6807 133.628 48.0494 133.401 48.2783L129.796 51.8636C129.556 52.0924 129.203 52.1433 128.926 51.9653L124.652 49.2064C123.909 49.6895 123.114 50.1472 122.295 50.554L122.459 55.665C122.471 55.9956 122.257 56.288 121.942 56.3643L117.038 57.6611C116.975 57.6739 116.912 57.6866 116.862 57.6866Z" fill="#FF9F78"/>
<path d="M40.2405 53.8729C52.1662 50.7453 64.3565 57.9414 67.4703 69.9688C70.5841 81.9834 63.4363 94.2778 51.5106 97.4182C39.585 100.559 27.3946 93.3497 24.2809 81.3223C21.1671 69.3076 28.3149 57.0133 40.2405 53.8729ZM1.3877 82.8353L3.5686 91.29L13.036 90.9722C13.8932 92.8412 14.8891 94.6084 16.0111 96.2739L10.9055 104.296L16.9944 110.514L25.0372 105.466C26.6887 106.636 28.4284 107.666 30.2437 108.543L29.8025 118.078L38.1605 120.405L42.6231 111.988C44.6023 112.166 46.632 112.179 48.6616 112.014L53.0108 120.494L61.394 118.294L61.0789 108.746C62.932 107.894 64.6969 106.89 66.3357 105.746L74.3029 110.895L80.4675 104.754L75.4627 96.6426C76.6225 94.9898 77.6436 93.2353 78.5135 91.4045L87.9809 91.8495L90.2752 83.4201L81.9298 78.9321C82.1063 76.9233 82.1189 74.8891 81.955 72.8421L90.3761 68.4558L88.1826 60.001L78.7152 60.3189C77.8579 58.4499 76.8746 56.6827 75.7401 55.0172L80.8457 46.9947L74.7568 40.7776L66.7139 45.825C65.0625 44.6553 63.3228 43.6255 61.5075 42.7482L61.9487 33.2128L53.5907 30.8988L49.1406 39.3027C47.1488 39.1248 45.1318 39.112 43.0896 39.2773L38.7404 30.7971L30.3571 33.0093L30.6723 42.5448C28.8192 43.4093 27.0669 44.4138 25.4154 45.5453L17.4482 40.3961L11.2837 46.537L16.2884 54.6485C15.1286 56.3013 14.1075 58.0558 13.2377 59.8866L3.78291 59.4416L1.47594 67.871L9.82136 72.359C9.64487 74.3678 9.63226 76.402 9.79614 78.449L1.3877 82.8353Z" fill="#99B9FF"/>
<path d="M44.096 56.7331C32.5611 59.7718 25.6276 71.6974 28.6406 83.318C30.0903 88.963 33.6453 93.6798 38.6248 96.6168C43.6043 99.5664 49.4285 100.38 55.0131 98.9053C60.5977 97.4432 65.2873 93.8578 68.1993 88.8358C71.124 83.8138 71.9308 77.9527 70.4685 72.3204C69.0188 66.6882 65.4638 61.9713 60.4842 59.0216C55.5047 56.072 49.6806 55.271 44.096 56.7331ZM49.5545 101.028C39.3308 101.028 29.9768 94.0994 27.2791 83.6867C24.077 71.3033 31.4644 58.6021 43.743 55.3727C49.6932 53.7962 55.8955 54.6735 61.1902 57.8011C66.4975 60.9414 70.2794 65.9635 71.83 71.9644C73.3806 77.9654 72.5233 84.208 69.4222 89.5478C66.3084 94.9004 61.3163 98.7146 55.3661 100.278C53.4247 100.787 51.4707 101.028 49.5545 101.028ZM52.3405 113.488C52.5927 113.488 52.8448 113.628 52.9582 113.87L57.0553 121.841L64.3544 119.921L64.0645 110.945C64.0518 110.666 64.2031 110.399 64.4679 110.284C66.2832 109.432 68.0103 108.453 69.6239 107.335C69.8508 107.182 70.1533 107.169 70.3929 107.322L77.881 112.166L83.2514 106.826L78.5492 99.1977C78.3979 98.9561 78.4105 98.651 78.5618 98.4094C79.6964 96.7948 80.7049 95.0657 81.5621 93.273C81.6756 93.0187 81.9403 92.8534 82.2302 92.8662L91.1303 93.2857L93.1221 85.9498L85.281 81.7287C85.0289 81.6016 84.8776 81.3219 84.9028 81.0422C85.0793 79.097 85.0919 77.0882 84.9406 75.0666C84.9154 74.7869 85.0667 74.5199 85.3188 74.3928L93.223 70.2608L91.3194 62.8994L82.4193 63.2045C82.142 63.2172 81.8773 63.052 81.7638 62.7977C80.9192 60.9542 79.9359 59.2124 78.8391 57.5977C78.6752 57.3561 78.6752 57.051 78.8265 56.8221L83.6295 49.2701L78.3223 43.8539L70.7584 48.5962C70.5189 48.7488 70.2164 48.7361 69.9895 48.5835C68.3758 47.4392 66.6614 46.4221 64.8839 45.5576C64.6317 45.4432 64.4679 45.1762 64.4805 44.8965L64.8965 35.9204L57.6226 33.8989L53.4373 41.8197C53.2986 42.0612 53.0339 42.2138 52.7439 42.1884C50.8152 42.0104 48.8234 41.9977 46.8315 42.163C46.5416 42.1757 46.2769 42.0231 46.1508 41.7815L42.0537 33.7972L34.7546 35.717L35.0572 44.693C35.0572 44.9855 34.9059 45.2397 34.6412 45.3669C32.8259 46.206 31.0862 47.1977 29.4852 48.3038C29.2583 48.4691 28.9557 48.4691 28.7162 48.3165L21.228 43.4725L15.8577 48.8251L20.5599 56.4407C20.7111 56.6823 20.6985 57.0001 20.5473 57.229C19.4127 58.8436 18.4042 60.5855 17.5469 62.3654C17.4335 62.6324 17.1688 62.785 16.8788 62.7723L7.97871 62.3527L5.9869 69.6886L13.8281 73.9097C14.0802 74.0495 14.2315 74.3165 14.1937 74.5962C14.0298 76.5542 14.0172 78.563 14.1684 80.5718C14.1936 80.8515 14.0424 81.1185 13.7902 81.2583L5.88605 85.3776L7.78961 92.739L16.6897 92.4339C16.9797 92.4339 17.2318 92.5992 17.3452 92.8534C18.1899 94.6842 19.1732 96.4261 20.2699 98.0407C20.4338 98.2823 20.4338 98.5874 20.2825 98.829L15.4795 106.381L20.7868 111.797L28.3506 107.042C28.5901 106.89 28.8927 106.902 29.1196 107.068C30.7332 108.212 32.4477 109.216 34.2252 110.081C34.4773 110.208 34.6412 110.475 34.6286 110.755L34.2126 119.731L41.4864 121.74L45.6718 113.831C45.8104 113.577 46.0752 113.437 46.3651 113.463C48.2939 113.628 50.2857 113.641 52.2775 113.488C52.3027 113.488 52.3153 113.488 52.3405 113.488ZM56.6897 123.38C56.425 123.38 56.1855 123.24 56.0594 122.998L51.9245 114.925C50.1722 115.052 48.4199 115.039 46.6929 114.912L42.4571 122.909C42.3059 123.202 41.9781 123.341 41.6629 123.252L33.2923 120.939C32.9771 120.85 32.7628 120.557 32.788 120.227L33.2041 111.149C31.6409 110.373 30.1281 109.483 28.691 108.492L21.0515 113.297C20.7742 113.463 20.4086 113.425 20.1817 113.183L14.0928 106.966C13.8533 106.737 13.8155 106.368 13.9919 106.089L18.8454 98.4603C17.8999 97.0109 17.0301 95.4725 16.2737 93.8706L7.27275 94.1757C6.93238 94.1884 6.65504 93.9595 6.5668 93.6417L4.38589 85.1869C4.29765 84.8691 4.44892 84.5385 4.73887 84.386L12.7439 80.2158C12.6179 78.4358 12.6305 76.6686 12.7691 74.9395L4.82712 70.6676C4.53717 70.515 4.3985 70.1845 4.47414 69.8666L6.7811 61.4373C6.86935 61.1194 7.15929 60.9033 7.48706 60.916L16.488 61.3356C17.257 59.7718 18.1394 58.2461 19.1227 56.7967L14.3575 49.0921C14.1936 48.8123 14.2315 48.4436 14.471 48.2148L20.6355 42.074C20.875 41.8451 21.228 41.7943 21.5053 41.985L29.0818 46.8798C30.5189 45.9136 32.0443 45.0363 33.6327 44.2735L33.3301 35.2084C33.3175 34.8779 33.5318 34.5727 33.8596 34.4965L42.2428 32.2842C42.558 32.2079 42.8984 32.3478 43.0496 32.6402L47.1845 40.7136C48.9368 40.5991 50.7017 40.5991 52.4162 40.739L56.6519 32.7419C56.8032 32.4495 57.131 32.2969 57.4461 32.3859L65.8167 34.6999C66.1319 34.7889 66.3462 35.094 66.321 35.4119L65.905 44.4896C67.4682 45.2652 68.9809 46.1551 70.4055 47.1468L78.0575 42.3537C78.3349 42.1757 78.7005 42.2138 78.9274 42.4554L85.0162 48.6725C85.2558 48.9141 85.2936 49.2701 85.1171 49.5498L80.2636 57.1908C81.2091 58.6275 82.079 60.1659 82.8353 61.7679L91.8363 61.4627C92.1641 61.45 92.454 61.6789 92.5423 61.9967L94.7232 70.4515C94.8114 70.7693 94.6601 71.1126 94.3702 71.2652L86.3651 75.4353C86.4912 77.2026 86.4786 78.9698 86.3525 80.6989L94.2819 84.9708C94.5719 85.1234 94.7105 85.4666 94.6349 85.7845L92.3279 94.2138C92.2397 94.5317 91.9498 94.7478 91.622 94.7224L82.621 94.3028C81.852 95.8794 80.9696 97.3923 79.9863 98.8417L84.7389 106.559C84.9154 106.839 84.8776 107.195 84.6381 107.436L78.4735 113.577C78.234 113.806 77.881 113.844 77.6037 113.666L70.0273 108.771C68.5901 109.738 67.0648 110.602 65.4764 111.365L65.7789 120.443C65.7915 120.773 65.5646 121.066 65.2495 121.142L56.8662 123.354C56.8032 123.367 56.7402 123.38 56.6897 123.38Z" fill="black"/>
<path d="M367.499 391.288H271.552C265.791 391.288 261.48 385.961 262.64 380.278L277.2 308.952C278.423 302.951 283.654 298.641 289.731 298.641H372.038L367.499 391.288Z" fill="url(#paint2_linear_244_595)"/>
<path d="M289.732 299.354C284.021 299.354 279.041 303.448 277.882 309.093L263.334 380.418C262.817 382.922 263.447 385.491 265.036 387.474C266.649 389.445 269.019 390.589 271.553 390.589H366.832L371.295 299.354H289.732ZM367.5 392H271.553C268.591 392 265.817 390.678 263.952 388.364C262.086 386.05 261.355 383.049 261.947 380.138L276.508 308.813C277.793 302.507 283.353 297.942 289.732 297.942H372.039C372.228 297.942 372.417 298.019 372.543 298.159C372.682 298.298 372.745 298.489 372.732 298.68L368.206 391.326C368.181 391.708 367.879 392 367.5 392Z" fill="black"/>
<path d="M379.78 391.288H361.16C355.412 391.288 351.088 385.961 352.26 380.278L368.283 301.718C368.648 299.925 370.212 298.641 372.027 298.641H376.805C378.797 298.641 380.448 300.18 380.612 302.176L387.167 383.214C387.52 387.563 384.116 391.288 379.78 391.288Z" fill="#99B9FF"/>
<path d="M372.027 299.354C370.552 299.354 369.266 300.409 368.976 301.858L352.941 380.418C352.437 382.922 353.054 385.491 354.655 387.474C356.256 389.445 358.626 390.589 361.16 390.589H379.78C381.683 390.589 383.436 389.813 384.722 388.402C385.995 387.004 386.625 385.173 386.474 383.278L379.919 302.24C379.78 300.625 378.418 299.354 376.817 299.354H372.027ZM379.78 392H361.16C358.21 392 355.437 390.678 353.571 388.364C351.705 386.05 350.974 383.049 351.567 380.138L367.602 301.566C368.031 299.468 369.896 297.942 372.027 297.942H376.817C379.15 297.942 381.116 299.773 381.318 302.113L387.873 383.164C388.05 385.427 387.281 387.69 385.755 389.368C384.217 391.034 382.049 392 379.78 392Z" fill="black"/>
<path d="M349.033 336.796H281.475C281.084 336.796 280.769 336.478 280.769 336.084C280.769 335.703 281.084 335.385 281.475 335.385H349.033C350.949 335.385 352.588 334.075 353.029 332.194L359.647 304.019C359.735 303.638 360.114 303.409 360.492 303.498C360.87 303.587 361.097 303.969 361.009 304.35L354.39 332.524C353.798 335.041 351.604 336.796 349.033 336.796Z" fill="black"/>
<path d="M325.435 336.084L323.329 344.641C322.989 346.09 321.703 347.12 320.228 347.12H305.353C303.726 347.12 302.554 345.556 302.983 343.98L305.163 336.084H325.435Z" fill="white"/>
<path d="M305.704 336.796L303.662 344.17C303.511 344.704 303.624 345.263 303.952 345.708C304.292 346.153 304.797 346.408 305.351 346.408H320.227C321.387 346.408 322.37 345.619 322.647 344.488L324.538 336.796H305.704ZM320.227 347.819H305.351C304.355 347.819 303.435 347.361 302.843 346.573C302.237 345.772 302.048 344.755 302.313 343.788L304.494 335.893C304.57 335.588 304.847 335.385 305.162 335.385H325.433C325.647 335.385 325.849 335.486 325.988 335.652C326.114 335.83 326.164 336.046 326.114 336.262L324.009 344.818C323.593 346.586 322.042 347.819 320.227 347.819Z" fill="black"/>
<path d="M357.001 298.171L358.728 289.233C359.522 283.626 356.585 280.499 352.362 280.499H313.547C309.324 280.499 305.315 284.974 304.609 289.233L302.882 298.171H309.109L310.61 290.568C311.164 287.25 313.181 285.572 316.472 285.572H349.147C352.437 285.572 352.828 287.25 352.274 290.568L350.773 298.171H357.001Z" fill="white"/>
<path d="M351.617 297.459H356.42L358.034 289.093C358.399 286.55 357.945 284.453 356.735 283.029C355.701 281.846 354.201 281.211 352.361 281.211H313.546C309.6 281.211 305.931 285.508 305.288 289.347L303.725 297.459H308.528L309.928 290.428C310.533 286.792 312.789 284.859 316.47 284.859H349.146C350.747 284.859 351.793 285.228 352.449 286.004C353.394 287.135 353.256 288.928 352.966 290.682L351.617 297.459ZM357 298.883H350.76C350.558 298.883 350.356 298.781 350.218 298.616C350.092 298.451 350.029 298.235 350.079 298.031L351.579 290.428C351.894 288.534 351.844 287.479 351.377 286.919C351.012 286.487 350.281 286.271 349.146 286.271H316.47C313.483 286.271 311.806 287.72 311.302 290.682L309.789 298.311C309.726 298.641 309.436 298.883 309.108 298.883H302.868C302.666 298.883 302.465 298.781 302.326 298.616C302.2 298.451 302.137 298.247 302.187 298.031L303.914 289.093C304.646 284.707 308.78 279.799 313.546 279.799H352.361C354.579 279.799 356.508 280.613 357.794 282.101C359.282 283.842 359.849 286.334 359.42 289.335L357.681 298.298C357.618 298.641 357.328 298.883 357 298.883Z" fill="black"/>
<path d="M349.775 279.024H316.961C315.637 279.024 314.389 280.105 314.162 281.44L313.683 284.326C313.456 285.661 314.351 286.742 315.675 286.742H348.489C349.813 286.742 351.061 285.661 351.288 284.326L351.767 281.44C351.994 280.105 351.099 279.024 349.775 279.024Z" fill="#99B9FF"/>
<path d="M316.962 279.736C315.991 279.736 315.021 280.575 314.857 281.554L314.378 284.44C314.302 284.885 314.39 285.292 314.642 285.584C314.882 285.877 315.247 286.029 315.676 286.029H348.49C349.461 286.029 350.432 285.203 350.596 284.211L351.075 281.325C351.15 280.88 351.05 280.473 350.81 280.181C350.57 279.888 350.205 279.736 349.776 279.736H316.962ZM348.49 287.453H315.676C314.831 287.453 314.088 287.11 313.571 286.5C313.054 285.889 312.84 285.076 312.991 284.211L313.47 281.325C313.76 279.634 315.285 278.312 316.962 278.312H349.776C350.621 278.312 351.365 278.655 351.882 279.265C352.398 279.876 352.6 280.702 352.461 281.554L351.982 284.44C351.692 286.131 350.167 287.453 348.49 287.453Z" fill="black"/>
<path d="M360.982 380.723C360.743 380.723 360.503 380.596 360.377 380.367C360.188 380.036 360.302 379.604 360.642 379.4L373.147 372.217V309.105C373.147 308.724 373.463 308.406 373.853 308.406C374.232 308.406 374.547 308.724 374.547 309.105V372.637C374.547 372.891 374.408 373.12 374.194 373.247L361.335 380.634C361.222 380.697 361.108 380.723 360.982 380.723Z" fill="#CADDFF"/>
<defs>
<linearGradient id="paint0_linear_244_595" x1="195.907" y1="0" x2="195.907" y2="376.241" gradientUnits="userSpaceOnUse">
<stop stop-color="#5479F7"/>
<stop offset="1" stop-color="#CADDFF"/>
</linearGradient>
<linearGradient id="paint1_linear_244_595" x1="309.782" y1="40.3328" x2="309.782" y2="62.4677" gradientUnits="userSpaceOnUse">
<stop stop-color="#9354E0"/>
<stop offset="1" stop-color="#802EE3"/>
</linearGradient>
<linearGradient id="paint2_linear_244_595" x1="317.244" y1="298.641" x2="317.244" y2="391.288" gradientUnits="userSpaceOnUse">
<stop stop-color="#5479F7"/>
<stop offset="1" stop-color="#802EE3"/>
</linearGradient>
</defs>
</svg>
