<svg width="390" height="392" viewBox="0 0 390 392" fill="none" xmlns="http://www.w3.org/2000/svg">
<path d="M94.4339 98.8729C135.229 57.6463 123.544 31.8264 151.459 12.7444C194.407 -16.6176 274.574 8.64306 321.868 49.0308C379.797 98.4867 409.678 188.796 375.636 270.504C339.374 357.525 243.988 402.679 158.863 389.07C82.8562 376.913 8.12584 316.777 0.642172 244.657C-0.168668 236.841 -3.74435 194.589 21.3784 158.156C42.1413 128.048 62.0933 131.537 94.4339 98.8729Z" fill="url(#paint0_linear_244_449)"/>
<path d="M37.0359 123.587L372.006 113.241C379.969 113.241 386.455 118.434 386.455 124.799V311.837C386.455 318.215 379.969 323.395 372.006 323.395L250.965 316.83L266.504 362.198L282.947 362.305C288.078 362.305 292.252 365.647 292.252 369.748C292.252 373.85 288.078 377.179 282.947 377.179L145.25 371.932C140.132 371.932 149.716 323.395 149.716 323.395C149.716 323.395 29.0604 123.587 37.0359 123.587Z" fill="#5479F7"/>
<path d="M151.883 299.479H237.3L261.532 370.227H127.65L151.883 299.479Z" fill="#99B9FF"/>
<path d="M200.003 322.743H24.0634C16.5265 322.743 10.4253 317.856 10.4253 311.837V124.8C10.4253 118.781 16.5265 113.894 24.0634 113.894H365.135C372.659 113.894 378.76 118.781 378.76 124.8V311.837C378.76 317.856 372.659 322.743 365.135 322.743H200.003Z" fill="#EAF1FF"/>
<path d="M113.109 362.957H276.075C280.767 362.957 284.555 365.993 284.555 369.748C284.555 373.49 280.767 376.526 276.075 376.526H113.109C108.43 376.526 104.628 373.49 104.628 369.748C104.628 365.993 108.43 362.957 113.109 362.957Z" fill="#99B9FF"/>
<path d="M131.08 360.242L137.885 340.361L131.08 360.242Z" fill="#EAF1FF"/>
<path d="M131.079 360.947C131 360.947 130.92 360.933 130.84 360.907C130.481 360.787 130.282 360.374 130.401 360.015L137.207 340.134C137.34 339.761 137.739 339.561 138.111 339.694C138.483 339.814 138.683 340.213 138.55 340.586L131.744 360.467C131.638 360.76 131.372 360.947 131.079 360.947Z" fill="black"/>
<path d="M113.108 377.234C108.044 377.234 103.923 373.878 103.923 369.75C103.923 365.609 108.044 362.253 113.108 362.253H146.459C146.844 362.253 147.163 362.573 147.163 362.959C147.163 363.345 146.844 363.665 146.459 363.665H113.108C108.828 363.665 105.332 366.394 105.332 369.75C105.332 373.092 108.828 375.822 113.108 375.822C113.507 375.822 113.826 376.142 113.826 376.528C113.826 376.914 113.507 377.234 113.108 377.234Z" fill="black"/>
<path d="M167.953 377.233H124.965C124.58 377.233 124.261 376.913 124.261 376.527C124.261 376.141 124.58 375.822 124.965 375.822H167.953C168.339 375.822 168.658 376.141 168.658 376.527C168.658 376.913 168.339 377.233 167.953 377.233Z" fill="black"/>
<path d="M200.003 322.743H24.0634C16.5265 322.743 10.4253 317.856 10.4253 311.837V124.8C10.4253 118.781 16.5265 113.894 24.0634 113.894H365.135C372.659 113.894 378.76 118.781 378.76 124.8V311.837C378.76 317.856 372.659 322.743 365.135 322.743H200.003Z" fill="#EAF1FF"/>
<path d="M200.003 322.743H24.0634C16.5265 322.743 10.4253 317.856 10.4253 311.837V124.8C10.4253 118.781 16.5265 113.894 24.0634 113.894H365.135C372.659 113.894 378.76 118.781 378.76 124.8V311.837C378.76 317.856 372.659 322.743 365.135 322.743H200.003Z" fill="#EAF1FF"/>
<path d="M365.135 323.449H269.775C269.39 323.449 269.071 323.129 269.071 322.743C269.071 322.357 269.39 322.038 269.775 322.038H365.135C372.26 322.038 378.056 317.457 378.056 311.837V124.8C378.056 119.18 372.26 114.599 365.135 114.599H245.064C244.666 114.599 244.347 114.293 244.347 113.894C244.347 113.508 244.666 113.188 245.064 113.188H365.135C373.044 113.188 379.478 118.395 379.478 124.8V311.837C379.478 318.242 373.044 323.449 365.135 323.449Z" fill="black"/>
<path d="M200.002 323.449H24.0628C16.1538 323.449 9.72021 318.242 9.72021 311.837V124.8C9.72021 118.395 16.1538 113.188 24.0628 113.188H64.8441C65.2296 113.188 65.5486 113.508 65.5486 113.894C65.5486 114.293 65.2296 114.599 64.8441 114.599H24.0628C16.938 114.599 11.1292 119.18 11.1292 124.8V311.837C11.1292 317.457 16.938 322.038 24.0628 322.038H200.002C200.388 322.038 200.707 322.357 200.707 322.743C200.707 323.129 200.388 323.449 200.002 323.449Z" fill="black"/>
<path d="M28.4219 312.343H360.986C363.751 312.343 365.998 310.093 365.998 307.323V129.074C365.998 126.304 363.751 124.067 360.986 124.067H28.4219C25.6438 124.067 23.4106 126.304 23.4106 129.074V307.323C23.4106 310.093 25.6438 312.343 28.4219 312.343Z" fill="#99B9FF"/>
<path d="M190.298 313.849L29.3264 313.756C25.1925 313.756 21.8428 311.012 21.8428 307.63V233.939C21.8428 233.539 22.1485 233.233 22.5473 233.233C22.9328 233.233 23.2518 233.539 23.2518 233.939V307.63C23.2518 310.227 25.9767 312.344 29.3264 312.344L190.298 312.424C190.697 312.424 191.016 312.744 191.016 313.13C191.016 313.529 190.697 313.849 190.298 313.849Z" fill="black"/>
<path d="M366.145 301.011C366.131 301.011 366.131 301.011 366.131 301.011C365.746 301.011 365.427 300.691 365.427 300.305L365.945 138.128C365.945 137.742 366.251 137.423 366.65 137.423C367.035 137.423 367.354 137.742 367.354 138.142L366.849 300.305C366.849 300.691 366.53 301.011 366.145 301.011Z" fill="black"/>
<path d="M366.651 129.714C366.252 129.714 365.946 129.394 365.946 129.008C365.946 126.412 363.221 124.294 359.872 124.294L259.141 125C258.742 125 258.437 124.68 258.423 124.294C258.423 123.908 258.742 123.589 259.128 123.575L359.872 122.883C363.992 122.883 367.355 125.626 367.355 129.008C367.355 129.394 367.036 129.714 366.651 129.714Z" fill="black"/>
<path d="M22.5473 138.849C22.1485 138.849 21.8428 138.529 21.8428 138.143V129.008C21.8428 125.626 25.1925 122.883 29.3264 122.883H49.531C49.9298 122.883 50.2488 123.202 50.2488 123.589C50.2488 123.975 49.9298 124.294 49.531 124.294H29.3264C25.9767 124.294 23.2518 126.412 23.2518 129.008V138.143C23.2518 138.529 22.9328 138.849 22.5473 138.849Z" fill="black"/>
<path d="M24.0099 221.223C23.6244 221.223 23.3054 220.916 23.3054 220.53L21.8432 150.914C21.8299 150.527 22.1356 150.208 22.5344 150.194C22.9066 150.181 23.2389 150.501 23.2522 150.887L24.7144 220.503C24.7277 220.89 24.4086 221.209 24.0232 221.223H24.0099Z" fill="black"/>
<path d="M55.7519 305.221L46.8326 305.088C42.9113 305.034 39.7876 302.717 39.7876 299.894L39.8674 269.081C39.8806 266.191 43.1772 263.861 47.1915 263.914L56.031 264.021C59.9523 264.074 63.1026 266.378 63.1026 269.201C63.1026 277.057 63.1026 292.078 63.1026 300.054C63.1026 302.957 59.7928 305.287 55.7519 305.221Z" fill="#68ADF2"/>
<path d="M87.3609 305.219L78.4283 305.086C74.507 305.032 71.3833 302.729 71.3833 299.906L71.4763 249.637C71.4896 246.735 74.7729 244.418 78.8005 244.458L87.6267 244.564C91.5613 244.617 94.7116 246.908 94.7116 249.744C94.7116 261.116 94.7116 288.494 94.7116 300.052C94.7116 302.955 91.3885 305.285 87.3609 305.219Z" fill="#68ADF2"/>
<path d="M118.957 305.22L110.038 305.087C106.117 305.034 102.98 302.73 102.993 299.907L103.073 259.999C103.086 257.109 106.383 254.779 110.397 254.832L119.237 254.939C123.158 254.979 126.308 257.282 126.308 260.105C126.308 269.693 126.308 290.32 126.308 300.054C126.308 302.957 122.998 305.287 118.957 305.22Z" fill="#68ADF2"/>
<path d="M150.553 305.219L141.634 305.086C137.713 305.032 134.576 302.729 134.589 299.906L134.682 221.407C134.682 218.518 137.978 216.187 142.006 216.227L150.832 216.334C154.767 216.387 157.917 218.691 157.917 221.514C157.917 237.12 157.917 284.179 157.917 300.052C157.917 302.955 154.594 305.285 150.553 305.219Z" fill="#68ADF2"/>
<path d="M182.164 305.219L173.232 305.086C169.31 305.033 166.187 302.729 166.187 299.906L166.293 201.194C166.293 198.304 169.589 195.974 173.604 196.027L182.43 196.134C186.365 196.173 189.515 198.477 189.515 201.3C189.515 219.543 189.515 281.49 189.515 300.039C189.515 302.955 186.192 305.286 182.164 305.219Z" fill="#68ADF2"/>
<path d="M213.76 305.218L204.827 305.085C200.919 305.032 197.782 302.728 197.782 299.905L197.889 186.172C197.889 183.269 201.185 180.939 205.199 180.992L214.039 181.099C217.96 181.139 221.111 183.443 221.111 186.266C221.111 206.306 221.111 279.651 221.111 300.038C221.111 302.954 217.801 305.285 213.76 305.218Z" fill="#68ADF2"/>
<path d="M245.37 305.22L236.438 305.087C232.516 305.034 229.393 302.73 229.393 299.907L229.486 219.105C229.486 216.215 232.782 213.885 236.81 213.938L245.636 214.045C249.571 214.085 252.708 216.388 252.708 219.225C252.708 235.137 252.708 283.861 252.708 300.053C252.708 302.956 249.398 305.287 245.37 305.22Z" fill="#68ADF2"/>
<path d="M276.965 305.22L268.033 305.087C264.112 305.034 260.988 302.73 260.988 299.907L261.094 192.699C261.094 189.796 264.391 187.466 268.405 187.519L277.231 187.626C281.166 187.666 284.316 189.969 284.316 192.806C284.316 212.074 284.316 280.452 284.316 300.053C284.316 302.956 280.993 305.287 276.965 305.22Z" fill="#68ADF2"/>
<path d="M308.561 305.219L299.628 305.086C295.72 305.033 292.583 302.729 292.583 299.906L292.689 160.5C292.689 157.597 295.986 155.267 300.014 155.32L308.84 155.427C312.761 155.466 315.911 157.783 315.911 160.606C315.911 183.497 315.911 276.763 315.911 300.053C315.911 302.955 312.601 305.286 308.561 305.219Z" fill="#68ADF2"/>
<path d="M340.597 305.219L331.665 305.086C327.743 305.032 324.62 302.729 324.62 299.906L324.726 138.861C324.726 135.971 328.023 133.641 332.037 133.681L340.863 133.787C344.798 133.841 347.948 136.144 347.948 138.967C347.948 164.068 347.948 274.499 347.948 300.052C347.948 302.955 344.625 305.285 340.597 305.219Z" fill="#68ADF2"/>
<path d="M224.022 21.3347H83.4676C78.4829 21.3347 74.4287 25.3695 74.4287 30.363V88.9005C74.4287 93.8941 78.4829 97.9288 83.4676 97.9288H224.022C229.007 97.9288 233.061 93.8941 233.061 88.9005V30.363C233.061 25.3695 229.007 21.3347 224.022 21.3347Z" fill="#5479F7"/>
<path d="M221.377 43.9441H142.712C141.688 43.9441 140.864 43.1185 140.864 42.0932V36.6736C140.864 35.6615 141.688 34.8359 142.712 34.8359H221.377C222.387 34.8359 223.224 35.6615 223.224 36.6736V42.0932C223.224 43.1185 222.387 43.9441 221.377 43.9441Z" fill="#68ADF2"/>
<path d="M86.8428 60.057C86.8428 47.2203 97.2242 36.8337 110.038 36.8337C122.852 36.8337 133.247 47.2203 133.247 60.057C133.247 72.8804 122.852 83.2803 110.038 83.2803C97.2242 83.2803 86.8428 72.8804 86.8428 60.057Z" fill="#EAF1FF"/>
<path d="M93.7144 76.9418C97.8882 80.8833 103.524 83.3069 109.719 83.3069C115.913 83.3069 121.549 80.8833 125.723 76.9418C120.897 75.4371 115.461 74.5981 109.719 74.5981C103.976 74.5981 98.5395 75.4371 93.7144 76.9418Z" fill="#99B9FF"/>
<path d="M117.204 46.4879C116.14 45.8088 114.917 45.4492 113.668 45.4492H106.304C104.669 45.4492 103.074 46.0751 101.877 47.1936L101.465 47.5665C99.5512 49.3375 98.8866 52.0939 99.7772 54.5441L102.196 61.2687L117.722 61.1755L119.915 53.825C120.739 51.042 119.636 48.0592 117.204 46.4879Z" fill="black"/>
<path d="M113.481 49.4714H113.468L102.116 56.742V60.9765C102.116 63.4666 103.286 65.6904 105.094 67.1286V73.7866C105.094 76.4099 107.234 78.5405 109.866 78.5405C112.484 78.5405 114.624 76.4099 114.624 73.7866V67.315C116.565 65.8769 117.841 63.5732 117.841 60.9765V56.3425C117.841 53.3065 116.06 50.6965 113.481 49.4714Z" fill="#EAF1FF"/>
<path d="M109.866 79.2458C106.848 79.2458 104.389 76.7957 104.389 73.7862V67.2747H105.811V73.7862C105.811 76.0233 107.619 77.8343 109.866 77.8343C112.099 77.8343 113.907 76.0233 113.907 73.7862V67.4744H115.329V73.7862C115.329 76.7957 112.87 79.2458 109.866 79.2458Z" fill="black"/>
<path d="M109.971 69.5365C109.586 69.5365 109.267 69.2169 109.267 68.8307C109.267 68.4446 109.586 68.125 109.971 68.125C113.919 68.125 117.123 64.9158 117.123 60.9742V56.3402C117.123 52.5452 114.039 49.4558 110.237 49.4558H102.82V60.9742C102.82 63.7706 104.468 66.3273 107.021 67.4858C107.366 67.6456 107.526 68.0717 107.366 68.4179C107.207 68.7775 106.781 68.9373 106.422 68.7775C103.378 67.3793 101.411 64.3299 101.411 60.9742V48.7501C101.411 48.3506 101.73 48.031 102.116 48.031H110.237C114.81 48.031 118.545 51.7595 118.545 56.3402V60.9742C118.545 65.7015 114.704 69.5365 109.971 69.5365Z" fill="black"/>
<path d="M109.692 83.9993C109.519 83.9993 109.333 83.9993 109.16 83.986C102.74 83.8528 96.7586 81.2163 92.3189 76.5823C83.5724 67.4607 83.4129 53.0261 91.9334 43.7182C92.1992 43.4385 92.6379 43.4119 92.9303 43.6782C93.2228 43.9445 93.236 44.384 92.9702 44.6769C84.9548 53.4389 85.1143 67.0213 93.3291 75.6102C97.5162 79.9645 103.152 82.4413 109.187 82.5745C115.235 82.7077 120.964 80.4706 125.324 76.2893C129.697 72.1081 132.17 66.4753 132.303 60.4298C132.436 54.3843 130.202 48.6584 126.015 44.2907C121.496 39.5635 115.142 37.0335 108.602 37.3398C108.203 37.3531 107.884 37.0601 107.871 36.6606C107.844 36.2745 108.15 35.9416 108.536 35.9282C115.488 35.5953 122.227 38.2852 127.039 43.3187C131.479 47.9527 133.858 54.0381 133.712 60.4698C133.579 66.8881 130.947 72.8671 126.308 77.3146C121.802 81.6291 115.913 83.9993 109.692 83.9993Z" fill="black"/>
<path d="M151.591 67.6996L147.683 67.127L145.942 63.5849C145.569 62.8259 144.479 62.8259 144.107 63.5849L142.353 67.127L138.445 67.6996C137.607 67.8194 137.275 68.8581 137.886 69.444L140.704 72.2004L140.04 76.0887C139.893 76.9276 140.771 77.5668 141.528 77.1673L145.024 75.3297L148.507 77.1673C149.265 77.5668 150.142 76.9276 149.996 76.0887L149.331 72.2004L152.162 69.444C152.761 68.8581 152.428 67.8194 151.591 67.6996Z" fill="#EAF1FF"/>
<path d="M169.629 67.6996L165.721 67.127L163.98 63.5849C163.594 62.8259 162.518 62.8259 162.132 63.5849L160.391 67.127L156.483 67.6996C155.645 67.8194 155.313 68.8581 155.911 69.444L158.743 72.2004L158.078 76.0887C157.932 76.9276 158.809 77.5668 159.567 77.1673L163.049 75.3297L166.545 77.1673C167.303 77.5668 168.18 76.9276 168.034 76.0887L167.369 72.2004L170.201 69.444C170.799 68.8581 170.467 67.8194 169.629 67.6996Z" fill="#EAF1FF"/>
<path d="M187.667 67.6996L183.759 67.127L182.004 63.5849C181.632 62.8259 180.542 62.8259 180.17 63.5849L178.428 67.127L174.521 67.6996C173.683 67.8194 173.337 68.8581 173.949 69.444L176.78 72.2004L176.116 76.0887C175.969 76.9276 176.847 77.5668 177.591 77.1673L181.087 75.3297L184.583 77.1673C185.341 77.5668 186.218 76.9276 186.072 76.0887L185.407 72.2004L188.225 69.444C188.837 68.8581 188.504 67.8194 187.667 67.6996Z" fill="#EAF1FF"/>
<path d="M205.705 67.6996L201.797 67.127L200.042 63.5849C199.67 62.8259 198.58 62.8259 198.208 63.5849L196.466 67.127L192.558 67.6996C191.708 67.8194 191.375 68.8581 191.987 69.444L194.818 72.2004L194.153 76.0887C194.007 76.9276 194.885 77.5668 195.629 77.1673L199.125 75.3297L202.621 77.1673C203.378 77.5668 204.256 76.9276 204.11 76.0887L203.445 72.2004L206.263 69.444C206.874 68.8581 206.542 67.8194 205.705 67.6996Z" fill="#FF9F78"/>
<path d="M223.728 67.6996L219.834 67.127L218.079 63.5849C217.707 62.8259 216.617 62.8259 216.245 63.5849L214.49 67.127L210.595 67.6996C209.745 67.8194 209.412 68.8581 210.024 69.444L212.855 72.2004L212.191 76.0887C212.031 76.9276 212.922 77.5668 213.666 77.1673L217.162 75.3297L220.658 77.1673C221.402 77.5668 222.28 76.9276 222.147 76.0887L221.469 72.2004L224.3 69.444C224.911 68.8581 224.579 67.8194 223.728 67.6996Z" fill="#FF9F78"/>
<path d="M224.022 110.044H83.4676C78.4829 110.044 74.4287 114.079 74.4287 119.072V177.61C74.4287 182.604 78.4829 186.638 83.4676 186.638H224.022C229.007 186.638 233.061 182.604 233.061 177.61V119.072C233.061 114.079 229.007 110.044 224.022 110.044Z" fill="#5479F7"/>
<path d="M221.377 132.656H142.712C141.688 132.656 140.864 131.831 140.864 130.805V125.386C140.864 124.374 141.688 123.548 142.712 123.548H221.377C222.387 123.548 223.224 124.374 223.224 125.386V130.805C223.224 131.831 222.387 132.656 221.377 132.656Z" fill="#68ADF2"/>
<path d="M151.591 156.412L147.683 155.839L145.942 152.297C145.569 151.538 144.479 151.538 144.107 152.297L142.353 155.839L138.445 156.412C137.607 156.532 137.275 157.57 137.886 158.156L140.704 160.913L140.04 164.801C139.893 165.64 140.771 166.279 141.528 165.879L145.024 164.042L148.507 165.879C149.265 166.279 150.142 165.64 149.996 164.801L149.331 160.913L152.162 158.156C152.761 157.57 152.428 156.532 151.591 156.412Z" fill="#EAF1FF"/>
<path d="M169.629 156.412L165.721 155.839L163.98 152.297C163.594 151.538 162.518 151.538 162.132 152.297L160.391 155.839L156.483 156.412C155.645 156.532 155.313 157.57 155.911 158.156L158.743 160.913L158.078 164.801C157.932 165.64 158.809 166.279 159.567 165.879L163.049 164.042L166.545 165.879C167.303 166.279 168.18 165.64 168.034 164.801L167.369 160.913L170.187 158.156C170.799 157.57 170.467 156.532 169.629 156.412Z" fill="#EAF1FF"/>
<path d="M187.667 156.412L183.759 155.839L182.004 152.297C181.632 151.538 180.542 151.538 180.17 152.297L178.428 155.839L174.521 156.412C173.683 156.532 173.337 157.57 173.949 158.156L176.78 160.913L176.116 164.801C175.969 165.64 176.847 166.279 177.591 165.879L181.087 164.042L184.583 165.879C185.341 166.279 186.218 165.64 186.072 164.801L185.407 160.913L188.225 158.156C188.837 157.57 188.504 156.532 187.667 156.412Z" fill="#EAF1FF"/>
<path d="M205.704 156.412L201.796 155.839L200.041 152.297C199.669 151.538 198.579 151.538 198.207 152.297L196.466 155.839L192.558 156.412C191.72 156.532 191.375 157.57 191.986 158.156L194.817 160.913L194.153 164.801C194.006 165.64 194.884 166.279 195.628 165.879L199.124 164.042L202.62 165.879C203.378 166.279 204.255 165.64 204.109 164.801L203.444 160.913L206.262 158.156C206.874 157.57 206.541 156.532 205.704 156.412Z" fill="#EAF1FF"/>
<path d="M223.728 156.412L219.82 155.839L218.079 152.297C217.707 151.538 216.617 151.538 216.245 152.297L214.49 155.839L210.595 156.412C209.745 156.532 209.412 157.57 210.024 158.156L212.855 160.913L212.177 164.801C212.044 165.64 212.922 166.279 213.666 165.879L217.162 164.042L220.658 165.879C221.402 166.279 222.28 165.64 222.147 164.801L221.482 160.913L224.3 158.156C224.911 157.57 224.579 156.532 223.728 156.412Z" fill="#FF9F78"/>
<path d="M87.334 148.276C87.334 135.226 97.9015 124.653 110.941 124.653C123.968 124.653 134.536 135.226 134.536 148.276C134.536 161.326 123.968 171.899 110.941 171.899C97.9015 171.899 87.334 161.326 87.334 148.276Z" fill="#EAF1FF"/>
<path d="M94.3276 165.455C98.5679 169.463 104.297 171.926 110.611 171.926C116.912 171.926 122.641 169.463 126.894 165.455C121.976 163.923 116.446 163.071 110.611 163.071C104.762 163.071 99.2459 163.923 94.3276 165.455Z" fill="#99B9FF"/>
<path d="M114.438 137.517C114.425 137.517 114.425 137.504 114.425 137.504L102.874 144.908V149.209C102.874 151.752 104.057 154.016 105.905 155.481V162.245C105.905 164.908 108.071 167.079 110.743 167.079C113.428 167.079 115.595 164.908 115.595 162.245V155.654C117.576 154.202 118.865 151.859 118.865 149.209V144.495C118.865 141.419 117.057 138.756 114.438 137.517Z" fill="#EAF1FF"/>
<path d="M110.742 167.785C107.685 167.785 105.199 165.308 105.199 162.245V155.614H106.608V162.245C106.608 164.522 108.469 166.373 110.742 166.373C113.028 166.373 114.876 164.522 114.876 162.245L115.022 152.431L116.445 152.458L116.298 162.258C116.298 165.308 113.813 167.785 110.742 167.785Z" fill="black"/>
<path d="M105.585 148.715C104.867 149.168 105 150.832 105.013 150.832C105.027 150.832 106.529 146.957 104.947 144.973C104.043 143.814 102.966 144.4 101.318 143.255C99.5633 142.03 98.2075 139.567 98.4733 137.13C98.7924 134.187 101.345 132.522 102.966 131.47C104.561 130.432 106.489 129.34 108.722 129.593C111.646 129.926 111.939 131.857 115.182 132.416C117.814 132.882 118.213 131.697 120.526 132.15C122.466 132.536 127.185 135.292 126.946 138.448C126.8 140.445 124.806 140.685 124.301 143.495C123.995 145.186 124.606 145.719 124.54 147.117C124.38 150.566 120.273 154.667 116.405 154.76C111.154 154.893 107.26 147.636 105.585 148.715Z" fill="black"/>
<path d="M115.74 152.444C115.74 152.444 119.435 152.857 119.582 149.701C119.728 146.545 116.87 147.464 116.87 147.464C116.87 147.464 118.332 140.26 113.361 140.859C108.389 141.459 104.428 140.566 104.428 140.566C104.428 140.566 102.488 147.584 102.66 153.004C102.767 156.279 103.644 158.969 106.183 159.196C113.148 159.795 115.74 152.444 115.74 152.444Z" fill="#EAF1FF"/>
<path d="M104.948 141.379C104.483 143.217 103.233 148.663 103.366 152.991C103.486 156.479 104.456 158.33 106.251 158.49C106.503 158.503 106.756 158.517 106.995 158.517C112.764 158.517 114.97 152.471 115.064 152.205C115.183 151.899 115.489 151.699 115.808 151.739C115.834 151.739 117.35 151.899 118.24 151.14C118.639 150.793 118.839 150.314 118.865 149.675C118.892 149.182 118.839 148.53 118.466 148.25C118.041 147.93 117.27 148.077 117.084 148.143C116.845 148.223 116.579 148.157 116.393 147.997C116.207 147.824 116.127 147.571 116.167 147.331C116.379 146.306 116.659 143.39 115.515 142.138C115.05 141.632 114.372 141.445 113.455 141.552C109.56 142.031 106.304 141.619 104.948 141.379ZM106.995 159.928C106.716 159.928 106.423 159.915 106.131 159.888C104.323 159.742 102.13 158.423 101.957 153.03C101.771 147.558 103.672 140.673 103.752 140.38C103.845 140.021 104.217 139.794 104.589 139.874C104.629 139.888 108.497 140.726 113.282 140.154C114.665 139.981 115.768 140.327 116.552 141.179C117.895 142.644 117.855 145.227 117.695 146.639C118.201 146.625 118.812 146.732 119.33 147.118C120.022 147.651 120.341 148.53 120.287 149.728C120.234 150.78 119.849 151.619 119.144 152.218C118.201 153.017 116.924 153.164 116.207 153.164C115.476 154.802 112.724 159.928 106.995 159.928Z" fill="black"/>
<path d="M110.57 172.604C104.137 172.604 97.7031 170.087 92.9046 165.081C84.0252 155.813 83.8524 141.125 92.5191 131.671C92.7849 131.378 93.2369 131.364 93.516 131.631C93.8084 131.884 93.8217 132.336 93.5692 132.629C85.3943 141.538 85.5671 155.36 93.9281 164.095C102.714 173.27 117.323 173.59 126.495 164.801C130.934 160.54 133.46 154.814 133.593 148.662C133.726 142.51 131.453 136.677 127.199 132.23C122.587 127.423 116.127 124.853 109.467 125.159C109.082 125.172 108.749 124.879 108.736 124.48C108.709 124.094 109.015 123.761 109.414 123.747C116.472 123.415 123.331 126.144 128.209 131.258C132.729 135.972 135.148 142.164 135.002 148.688C134.869 155.213 132.184 161.299 127.478 165.826C122.746 170.354 116.658 172.604 110.57 172.604Z" fill="black"/>
<path d="M224.501 197.811H83.9328C78.9481 197.811 74.9072 201.859 74.9072 206.84V265.377C74.9072 270.371 78.9481 274.419 83.9328 274.419H224.501C229.485 274.419 233.526 270.371 233.526 265.377V206.84C233.526 201.859 229.485 197.811 224.501 197.811Z" fill="#5479F7"/>
<path d="M221.841 220.434H143.176C142.152 220.434 141.328 219.595 141.328 218.583V213.163C141.328 212.138 142.152 211.312 143.176 211.312H221.841C222.864 211.312 223.688 212.138 223.688 213.163V218.583C223.688 219.595 222.864 220.434 221.841 220.434Z" fill="#68ADF2"/>
<path d="M86.8428 236.041C86.8428 223.244 97.397 212.884 110.437 212.884C123.464 212.884 134.031 223.244 134.031 236.041C134.031 248.824 123.464 259.184 110.437 259.184C97.397 259.184 86.8428 248.824 86.8428 236.041Z" fill="#EAF1FF"/>
<path d="M110.437 259.89C97.0381 259.89 86.125 249.184 86.125 236.041C86.125 233.218 86.6301 230.461 87.6005 227.838C87.7334 227.479 88.1455 227.292 88.5044 227.425C88.8765 227.559 89.0626 227.971 88.9297 228.331C88.0125 230.794 87.5473 233.391 87.5473 236.041C87.5473 248.412 97.8091 258.479 110.437 258.479C123.052 258.479 133.327 248.412 133.327 236.041C133.327 223.657 123.052 213.59 110.437 213.59C103.565 213.59 97.1179 216.586 92.7447 221.793C92.4921 222.086 92.0534 222.126 91.7477 221.873C91.442 221.62 91.4154 221.18 91.6547 220.874C96.2937 215.348 103.139 212.178 110.437 212.178C123.836 212.178 134.736 222.885 134.736 236.041C134.736 249.184 123.836 259.89 110.437 259.89Z" fill="black"/>
<path d="M94.248 252.875C98.4751 256.79 104.164 259.187 110.438 259.187C116.699 259.187 122.402 256.79 126.615 252.875C121.737 251.383 116.247 250.558 110.438 250.558C104.629 250.558 99.1397 251.383 94.248 252.875Z" fill="#99B9FF"/>
<path d="M110.571 254.458C108.524 254.458 106.849 252.834 106.849 250.81V232.18H114.293V250.81C114.293 252.834 112.631 254.458 110.571 254.458Z" fill="#EAF1FF"/>
<path d="M124.993 238.973C124.528 233.194 127.133 229.572 121.297 223.033C115.263 216.269 110.079 220.81 110.079 220.81C110.079 220.81 105.759 217.294 100.083 224.645C95.0847 231.143 101.492 236.949 99.3383 240.997C97.1849 245.045 89.874 247.242 89.874 247.242C89.874 247.242 92.2268 251.836 95.1246 253.86H125.937C125.937 253.86 132.304 247.056 132.304 245.138C132.304 245.138 125.458 244.765 124.993 238.973Z" fill="black"/>
<path d="M94.248 252.875C98.4751 256.79 104.164 259.187 110.438 259.187C116.699 259.187 122.402 256.79 126.615 252.875C121.737 251.383 116.247 250.558 110.438 250.558C104.629 250.558 99.1397 251.383 94.248 252.875Z" fill="#99B9FF"/>
<path d="M95.6828 253.194C99.8167 256.616 105.001 258.48 110.437 258.48C115.861 258.48 121.058 256.616 125.179 253.194C120.54 251.915 115.582 251.263 110.437 251.263C105.293 251.263 100.335 251.915 95.6828 253.194ZM110.437 259.892C104.217 259.892 98.3014 257.588 93.7686 253.393L92.8647 252.554L94.0345 252.195C99.1787 250.637 104.695 249.838 110.437 249.838C116.18 249.838 121.696 250.637 126.827 252.195L128.01 252.554L127.106 253.393C122.573 257.588 116.658 259.892 110.437 259.892Z" fill="black"/>
<path d="M110.943 226.108H110.677L103.101 233.592V237.693C103.101 240.423 104.603 242.82 106.849 244.112V250.809C106.849 252.834 108.524 254.458 110.571 254.458C112.631 254.458 114.293 252.834 114.293 250.809V244.231C116.659 242.966 118.267 240.516 118.267 237.693V233.312C118.267 229.331 114.984 226.108 110.943 226.108Z" fill="#EAF1FF"/>
<path d="M110.57 255.177C108.124 255.177 106.144 253.219 106.144 250.809V244.311C106.144 243.925 106.463 243.605 106.848 243.605C107.234 243.605 107.553 243.925 107.553 244.311V250.809C107.553 252.434 108.908 253.752 110.57 253.752C112.232 253.752 113.587 252.434 113.587 250.809V244.418C113.587 244.031 113.906 243.712 114.292 243.712C114.691 243.712 115.01 244.031 115.01 244.418V250.809C115.01 253.219 113.016 255.177 110.57 255.177Z" fill="black"/>
<path d="M110.677 245.843C110.291 245.843 109.972 245.523 109.972 245.137C109.972 244.737 110.291 244.418 110.677 244.418C114.478 244.418 117.562 241.395 117.562 237.693V233.312C117.562 229.823 114.784 226.974 111.235 226.827C111.222 226.827 111.222 226.827 111.222 226.827L103.805 234.018V237.693C103.805 240.316 105.386 242.727 107.832 243.818C108.191 243.978 108.351 244.391 108.191 244.751C108.032 245.11 107.606 245.27 107.261 245.11C104.296 243.792 102.396 240.876 102.396 237.693V233.712C102.396 233.525 102.462 233.339 102.608 233.206L110.451 225.602C110.57 225.482 110.756 225.402 110.943 225.402C111.062 225.402 111.169 225.416 111.288 225.416C115.595 225.602 118.971 229.064 118.971 233.312V237.693C118.971 242.181 115.249 245.843 110.677 245.843Z" fill="black"/>
<path d="M152.056 244.177L148.148 243.618L146.407 240.076C146.035 239.317 144.945 239.317 144.572 240.076L142.831 243.618L138.923 244.177C138.072 244.31 137.74 245.336 138.352 245.935L141.183 248.691L140.505 252.58C140.359 253.419 141.249 254.044 141.994 253.658L145.49 251.821L148.986 253.658C149.73 254.044 150.607 253.419 150.474 252.58L149.796 248.691L152.628 245.935C153.239 245.336 152.893 244.31 152.056 244.177Z" fill="#EAF1FF"/>
<path d="M170.094 244.177L166.186 243.618L164.444 240.076C164.072 239.317 162.982 239.317 162.61 240.076L160.855 243.618L156.947 244.177C156.11 244.31 155.778 245.336 156.389 245.935L159.207 248.691L158.543 252.58C158.396 253.419 159.274 254.044 160.031 253.658L163.527 251.821L167.023 253.658C167.768 254.044 168.645 253.419 168.499 252.58L167.834 248.691L170.665 245.935C171.277 245.336 170.931 244.31 170.094 244.177Z" fill="#EAF1FF"/>
<path d="M188.131 244.177L184.223 243.618L182.482 240.076C182.096 239.317 181.019 239.317 180.647 240.076L178.893 243.618L174.985 244.177C174.147 244.31 173.815 245.336 174.426 245.935L177.244 248.691L176.58 252.58C176.433 253.419 177.311 254.044 178.068 253.658L181.564 251.821L185.06 253.658C185.805 254.044 186.682 253.419 186.536 252.58L185.871 248.691L188.702 245.935C189.301 245.336 188.968 244.31 188.131 244.177Z" fill="#EAF1FF"/>
<path d="M206.169 244.177L202.261 243.618L200.52 240.076C200.134 239.317 199.058 239.317 198.672 240.076L196.931 243.618L193.023 244.177C192.185 244.31 191.853 245.336 192.451 245.935L195.283 248.691L194.618 252.58C194.472 253.419 195.349 254.044 196.107 253.658L199.603 251.821L203.085 253.658C203.843 254.044 204.72 253.419 204.574 252.58L203.909 248.691L206.741 245.935C207.339 245.336 207.007 244.31 206.169 244.177Z" fill="#FF9F78"/>
<path d="M224.209 244.177L220.301 243.618L218.546 240.076C218.174 239.317 217.084 239.317 216.712 240.076L214.97 243.618L211.062 244.177C210.225 244.31 209.893 245.336 210.491 245.935L213.322 248.691L212.658 252.58C212.511 253.419 213.389 254.044 214.133 253.658L217.629 251.821L221.125 253.658C221.883 254.044 222.76 253.419 222.614 252.58L221.949 248.691L224.767 245.935C225.378 245.336 225.046 244.31 224.209 244.177Z" fill="#99B9FF"/>
<path d="M284.661 34.9568C288.596 41.6814 297.847 42.9997 299.921 43.2394C308.362 44.1715 314.582 40.1234 316.271 38.9383C319.182 40.736 326.267 44.5177 335.492 43.812C342.802 43.2527 355.098 39.6041 357.491 31.0685C360.335 20.8417 347.481 8.97709 336.449 4.78252C327.197 1.26707 313.08 0.814325 306.341 7.92511C303.855 10.5484 303.47 13.0119 300.546 13.8774C295.282 15.4088 291.414 8.93714 284.608 9.27004C280.514 9.45647 277.324 12.0132 275.356 13.9839C270.332 15.6484 267.248 18.9908 267.62 21.6806C268.019 24.477 272.1 26.1682 272.897 26.5011C277.045 28.2188 279.238 26.4877 281.697 28.2854C283.864 29.8833 282.986 32.0938 284.661 34.9568Z" fill="black"/>
<path d="M290.856 40.5759C290.856 40.5759 270.558 48.3391 260.15 42.307C255.259 39.4706 236.436 18.5377 232.515 16.7268C230.123 15.6215 226.427 13.9703 223.888 12.8518C222.12 12.0661 220.1 12.0928 218.345 12.905L208.31 17.5657C208.31 17.5657 211.433 19.8028 216.245 18.5644C219.342 17.7654 222.612 17.8986 225.59 19.1103L225.789 19.1902L216.724 22.5858C216.724 22.5858 218.252 24.8363 223.144 23.6644C225.736 23.0386 228.913 23.4514 231.332 23.9707L231.505 24.0506C231.505 24.0506 241.7 48.0329 255.059 54.9706C274.506 65.0642 293.887 56.9413 293.887 56.9413L290.856 40.5759Z" fill="#EAF1FF"/>
<path d="M226.082 22.639C228.023 22.639 229.964 22.9453 231.479 23.2782L231.625 23.3314L232.051 23.5179L232.157 23.7709C232.263 24.0106 242.406 47.6067 255.392 54.3446C272.553 63.2531 289.86 57.6603 293.077 56.4885L290.312 41.5212C286.377 42.9194 269.323 48.4323 259.792 42.9194C257.28 41.4546 251.604 35.7687 245.582 29.7365C239.933 24.0771 234.084 18.2314 232.224 17.3658C229.857 16.2739 226.229 14.6627 223.597 13.5042C222.015 12.7984 220.207 12.8117 218.639 13.5441L209.919 17.5922C211.155 18.0849 213.295 18.5909 216.073 17.8718C219.423 17.0196 222.812 17.2194 225.856 18.4578L227.731 19.2168L218.147 22.7988C218.958 23.2116 220.46 23.5711 222.985 22.9719C223.969 22.7322 225.019 22.639 226.082 22.639ZM276.248 60.6964C269.801 60.6964 262.251 59.4979 254.741 55.5963C241.954 48.9649 232.25 27.526 230.987 24.6231C228.794 24.157 225.75 23.7576 223.318 24.3435C218.001 25.6218 216.219 23.0918 216.14 22.9719L215.635 22.2262L223.69 19.2168C221.377 18.6042 218.891 18.6175 216.419 19.2434C211.341 20.5484 208.031 18.2447 207.898 18.1382L206.901 17.4324L218.04 12.2658C219.981 11.3603 222.214 11.347 224.168 12.1992C226.8 13.371 230.442 14.9956 232.808 16.0875C234.909 17.0463 240.571 22.7322 246.579 28.7378C252.269 34.4371 258.157 40.3228 260.51 41.6943C270.506 47.4868 290.405 39.9899 290.604 39.91L291.402 39.6037L294.685 57.3674L294.153 57.5804C294.034 57.6337 286.537 60.6964 276.248 60.6964Z" fill="black"/>
<path d="M333.752 82.9739C333.752 82.9739 315.754 95.1848 290.645 91.5894C290.645 91.5894 294.034 85.0379 299.843 82.681C305.638 80.324 333.752 82.9739 333.752 82.9739Z" fill="black"/>
<path d="M358.515 113.801C357.398 86.3834 341.607 76.2898 341.607 76.2898L309.04 84.4126L295.602 113.801H358.515Z" fill="black"/>
<path d="M290.763 39.2976L307.897 30.7354C312.23 28.5781 317.481 29.5502 320.737 33.1456C328.208 41.4015 341.075 57.3409 347.548 75.4907C347.548 75.4907 335.917 90.3248 320.525 89.2995C305.145 88.2608 296.08 87.2755 290.643 91.5899C290.643 91.5899 286.11 68.8327 285.193 48.7387C285.02 44.7705 287.214 41.0686 290.763 39.2976Z" fill="#5479F7"/>
<path d="M318.04 85.8755C317.681 85.8755 317.362 85.5959 317.335 85.223C316.75 79.0843 314.836 74.7033 311.633 72.2398C309.2 70.3622 306.608 69.9894 303.856 69.6032C300.919 69.1771 297.875 68.7377 294.764 66.4873C291.494 64.117 289.182 60.4551 287.852 55.6213C287.759 55.2352 287.972 54.849 288.357 54.7425C288.73 54.6493 289.115 54.8623 289.221 55.2485C290.458 59.7626 292.598 63.1582 295.589 65.3421C298.42 67.3928 301.291 67.8056 304.056 68.1917C306.861 68.6045 309.758 69.0173 312.497 71.1213C316.032 73.8377 318.133 78.5383 318.744 85.0898C318.771 85.4893 318.491 85.8355 318.106 85.8622C318.079 85.8622 318.053 85.8755 318.04 85.8755Z" fill="black"/>
<path d="M344.956 112.869L308.8 38.9383C307.338 35.9555 308.574 32.3336 311.552 30.8688C314.33 29.4972 317.693 30.4427 319.341 33.0659C324.166 40.6961 333.405 56.0895 335.478 64.958C338.31 77.1022 342.43 83.1211 344.956 86.9828C346.591 89.4862 348.638 98.3547 349.874 104.32C350.499 107.343 353.609 109.167 356.56 108.235C359.205 107.396 362.077 107.889 364.296 109.54L368.191 112.43C368.616 112.736 368.377 113.415 367.859 113.402L344.956 112.869Z" fill="#EAF1FF"/>
<path d="M345.407 112.161L367.34 112.68L363.884 110.097C361.85 108.592 359.191 108.14 356.785 108.912C355.177 109.405 353.436 109.218 351.987 108.366C350.551 107.527 349.528 106.102 349.182 104.451C347.268 95.263 345.553 89.1909 344.37 87.3666L344.091 86.9538C341.486 82.9723 337.551 76.9534 334.786 65.1154C332.766 56.46 323.873 41.5459 318.742 33.4364C317.28 31.1194 314.329 30.2805 311.87 31.4923C309.238 32.7973 308.148 35.9931 309.438 38.6297L345.407 112.161ZM367.871 114.105C367.858 114.105 367.845 114.105 367.845 114.105L344.517 113.559L344.33 113.173L308.175 39.2423C306.54 35.9132 307.922 31.8651 311.245 30.2273C314.356 28.6959 318.091 29.7479 319.939 32.6774C325.109 40.8668 334.095 55.9406 336.169 64.7958C338.867 76.3941 342.735 82.2799 345.274 86.1815L345.553 86.5943C347.202 89.111 349.182 97.5401 350.565 104.172C350.83 105.423 351.601 106.502 352.705 107.154C353.808 107.793 355.137 107.94 356.347 107.567C359.205 106.662 362.328 107.194 364.721 108.965L368.616 111.855C369.054 112.188 369.227 112.747 369.041 113.266C368.868 113.772 368.403 114.105 367.871 114.105Z" fill="black"/>
<path d="M290.804 24.982C290.83 24.9554 292.585 22.958 291.628 21.4799C290.658 20.0151 288.743 21.9726 288.743 21.9726C288.743 21.9726 287.122 19.1496 283.413 19.2561C283.413 19.2561 281.831 22.8515 277.804 22.8248C277.804 22.8248 278.721 24.9288 280.077 27.2724L280.515 29.7758C280.595 30.162 281.007 30.3617 281.34 30.162C281.592 30.0155 281.911 30.0821 282.084 30.3085C283.081 31.6268 284.171 32.7187 285.234 33.1981C286.723 33.8639 288.052 33.1847 289.049 31.9064C291.415 34.7694 294.898 39.6297 293.276 41.7337C293.276 41.7337 298.593 43.2783 303.844 36.0477L290.804 24.982Z" fill="#EAF1FF"/>
<path d="M294.311 41.1744C295.853 41.241 299.296 40.7882 302.872 36.1542L289.805 25.0619L290.284 24.516C290.31 24.4893 291.679 22.8648 291.041 21.8661C290.895 21.653 290.775 21.653 290.722 21.6397C290.27 21.5998 289.526 22.1857 289.247 22.4653L288.595 23.1311L288.13 22.3188C288.077 22.2256 286.774 20.0684 283.85 19.9619C283.318 20.894 281.79 23.0379 278.879 23.464C279.264 24.2763 279.902 25.5679 280.7 26.9129L280.753 27.0194L281.178 29.4562C281.697 29.2565 282.308 29.4296 282.654 29.8824C283.717 31.2805 284.674 32.1727 285.525 32.5589C286.562 33.025 287.572 32.6521 288.502 31.467L289.047 30.7745L289.606 31.4537C293.234 35.848 294.816 39.1104 294.311 41.1744ZM294.577 42.5859C293.7 42.5859 293.155 42.4394 293.075 42.4128L292.078 42.1332L292.716 41.3076C293.633 40.1224 292.251 37.0331 289.021 32.985C287.811 34.1568 286.349 34.4764 284.94 33.8506C283.89 33.3712 282.787 32.3858 281.59 30.8278C281.258 30.9743 280.872 30.9876 280.54 30.8278C280.168 30.6547 279.902 30.3085 279.822 29.909L279.41 27.5121C278.081 25.2084 277.19 23.1977 277.151 23.1178L276.712 22.1191H277.802C277.815 22.1191 277.815 22.1191 277.828 22.1191C281.338 22.1191 282.76 19.0031 282.773 18.9632L282.946 18.5637L283.398 18.5504C286.309 18.4705 288.077 20.0018 288.861 20.9339C289.366 20.5744 290.111 20.1616 290.855 20.2282C291.254 20.2681 291.799 20.4546 292.224 21.0937C293.115 22.4653 292.331 24.0499 291.772 24.8755L304.799 35.9412L304.413 36.4738C300.572 41.7603 296.651 42.5859 294.577 42.5859Z" fill="black"/>
<path d="M289.061 32.6133C288.901 32.6133 288.728 32.56 288.595 32.4402C288.303 32.1872 288.263 31.7477 288.516 31.4415C289.087 30.7624 289.619 29.2443 289.765 28.725C289.885 28.3521 290.27 28.1258 290.656 28.2456C291.028 28.3521 291.241 28.7383 291.134 29.1245C291.068 29.3375 290.47 31.3216 289.592 32.3603C289.459 32.5201 289.26 32.6133 289.061 32.6133Z" fill="black"/>
<path d="M327.277 372.012C327.277 372.012 336.621 369.096 351.934 339.361C364.868 314.273 353.343 290.025 351.017 273.806C350.778 272.141 348.518 271.902 347.96 273.473C344.079 284.379 337.844 304.193 338.855 316.404C340.303 333.981 327.277 372.012 327.277 372.012Z" fill="white"/>
<path d="M337.405 355.768L340.742 329.428C342.191 317.99 340.316 306.378 335.358 295.992C328.127 280.865 327.556 263.367 333.79 247.787L339.133 234.418C339.824 232.727 337.671 231.355 336.448 232.7L328.925 240.97C311.884 259.719 306.128 286.271 313.864 310.506L327.702 353.903L337.405 355.768Z" fill="white"/>
<path d="M339.014 343.784C338.987 343.784 338.96 343.784 338.921 343.77C338.535 343.73 338.269 343.371 338.309 342.985L340.037 329.336C340.914 322.425 340.569 315.474 339.027 308.683C338.934 308.296 339.173 307.924 339.559 307.83C339.931 307.75 340.316 307.99 340.396 308.363C341.991 315.314 342.337 322.438 341.446 329.509L339.718 343.158C339.665 343.517 339.359 343.784 339.014 343.784Z" fill="#68ADF2"/>
<path d="M333.113 356.632L321.562 327.11C318.278 318.708 311.353 312.303 302.793 309.706L294.91 307.309C292.996 306.737 291.72 309.267 293.302 310.492L298.14 314.26C303.391 318.348 306.515 324.607 306.661 331.291C306.741 335.22 307.857 339.055 309.891 342.397L317.72 355.247L333.113 356.632Z" fill="white"/>
<path d="M331.41 343.463C331.384 343.463 331.357 343.463 331.344 343.463C330.959 343.423 330.666 343.077 330.706 342.691C332.461 323.902 328.685 311.784 325.349 301.104C323.807 296.151 322.345 291.464 321.481 286.417C317.374 262.594 331.371 241.914 331.504 241.701C331.729 241.382 332.168 241.302 332.487 241.528C332.806 241.741 332.899 242.181 332.673 242.5C332.54 242.713 318.862 262.927 322.863 286.177C323.727 291.131 325.163 295.778 326.705 300.692C330.068 311.491 333.896 323.742 332.115 342.824C332.075 343.197 331.769 343.463 331.41 343.463Z" fill="#68ADF2"/>
<path d="M326.508 334.781C326.215 334.781 325.936 334.594 325.83 334.288C324.354 329.814 321.005 325.14 318.439 322.011C318.2 321.704 318.24 321.265 318.545 321.012C318.851 320.772 319.29 320.812 319.542 321.118C322.174 324.341 325.63 329.161 327.172 333.849C327.305 334.221 327.092 334.621 326.734 334.741C326.654 334.767 326.574 334.781 326.508 334.781Z" fill="#68ADF2"/>
<path d="M346.79 330.865C346.764 330.865 346.711 330.852 346.671 330.852C346.298 330.785 346.033 330.426 346.099 330.04C349.236 311.45 348.146 282.821 348.133 282.528C348.12 282.142 348.425 281.809 348.824 281.795C348.824 281.795 348.837 281.795 348.851 281.795C349.223 281.795 349.542 282.102 349.555 282.475C349.568 282.767 350.658 311.544 347.495 330.279C347.442 330.612 347.136 330.865 346.79 330.865Z" fill="#68ADF2"/>
<path d="M319.208 346.285C318.823 346.285 318.504 345.979 318.504 345.579C318.278 322.596 299.908 312.462 299.721 312.356C299.376 312.182 299.243 311.743 299.429 311.41C299.615 311.064 300.04 310.931 300.386 311.117C300.572 311.224 319.687 321.717 319.913 345.566C319.913 345.965 319.607 346.285 319.208 346.285Z" fill="#68ADF2"/>
<path d="M321.721 302.889C321.508 302.889 321.295 302.795 321.162 302.622C316.111 296.137 313.931 287.642 313.851 287.282C313.758 286.896 313.984 286.523 314.357 286.417C314.742 286.323 315.128 286.563 315.221 286.936C315.247 287.016 317.414 295.498 322.279 301.757C322.518 302.063 322.452 302.502 322.146 302.742C322.013 302.849 321.867 302.889 321.721 302.889Z" fill="#68ADF2"/>
<path d="M330.375 390.922C318.292 390.922 308.482 381.122 308.482 369.031V349.496H352.267V369.031C352.267 381.122 342.471 390.922 330.375 390.922Z" fill="#99B9FF"/>
<path d="M309.201 350.201V369.03C309.201 380.708 318.705 390.216 330.375 390.216C342.06 390.216 351.564 380.708 351.564 369.03V350.201H309.201ZM330.375 391.627C317.92 391.627 307.792 381.494 307.792 369.03V349.495C307.792 349.095 308.097 348.776 308.496 348.776H352.268C352.667 348.776 352.973 349.095 352.973 349.495V369.03C352.973 381.494 342.844 391.627 330.375 391.627Z" fill="black"/>
<path d="M347.974 357.511H312.775C312.39 357.511 312.071 357.191 312.071 356.805C312.071 356.419 312.39 356.099 312.775 356.099H347.974C348.359 356.099 348.678 356.419 348.678 356.805C348.678 357.191 348.359 357.511 347.974 357.511Z" fill="#99B9FF"/>
<path d="M9.95861 86.93C9.77251 86.93 9.58642 86.8635 9.4535 86.717C9.17436 86.4374 9.17436 85.9979 9.4535 85.7183L44.7184 50.7769C44.9976 50.4972 45.4495 50.4972 45.7287 50.7769C45.9945 51.0565 45.9945 51.5093 45.7154 51.7756L10.4504 86.717C10.3175 86.8635 10.1314 86.93 9.95861 86.93Z" fill="#802EE3"/>
<path d="M36.7048 77.7792C36.532 77.7792 36.3459 77.7126 36.213 77.5661C35.9339 77.2998 35.9339 76.8471 36.1997 76.5674L65.616 46.7527C65.8951 46.4731 66.3471 46.4731 66.6129 46.7527C66.892 47.019 66.9053 47.4718 66.6262 47.7514L37.2099 77.5661C37.077 77.6993 36.8909 77.7792 36.7048 77.7792Z" fill="#802EE3"/>
<path d="M52.6548 46.8863C50.3552 46.8863 48.481 45.0087 48.481 42.7184C48.481 42.3189 48.8 42.0126 49.1988 42.0126C49.5842 42.0126 49.9033 42.3189 49.9033 42.7184C49.9033 44.2364 51.1395 45.4748 52.6548 45.4748C54.1834 45.4748 55.4196 44.2364 55.4196 42.7184C55.4196 41.187 54.1834 39.9486 52.6548 39.9486C52.2693 39.9486 51.9503 39.6423 51.9503 39.2429C51.9503 38.8567 52.2693 38.5371 52.6548 38.5371C54.9677 38.5371 56.8286 40.4147 56.8286 42.7184C56.8286 45.0087 54.9677 46.8863 52.6548 46.8863Z" fill="#68ADF2"/>
<path d="M255.352 89.3115C255.166 89.3115 254.993 89.2449 254.847 89.0984C254.567 88.8321 254.567 88.3793 254.847 88.0997L274.878 68.0723C275.144 67.806 275.596 67.806 275.875 68.0723C276.154 68.3519 276.154 68.8047 275.875 69.071L255.844 89.0984C255.711 89.2449 255.524 89.3115 255.352 89.3115Z" fill="black"/>
<path d="M249.371 104.211C249.184 104.211 249.012 104.132 248.865 103.998C248.6 103.719 248.6 103.279 248.865 103L268.365 83.5049C268.631 83.2253 269.083 83.2253 269.362 83.5049C269.642 83.7845 269.642 84.224 269.362 84.5036L249.876 103.998C249.729 104.132 249.557 104.211 249.371 104.211Z" fill="black"/>
<path d="M259.817 360.493L259.219 371.239L251.842 372.451L251.19 359.774L259.817 360.493Z" fill="#EAF1FF"/>
<path d="M251.935 360.548L252.506 371.627L258.541 370.628L259.073 361.134L251.935 360.548ZM251.842 373.158C251.682 373.158 251.523 373.105 251.403 372.999C251.244 372.879 251.151 372.692 251.137 372.479L250.473 359.816C250.473 359.603 250.552 359.416 250.699 359.27C250.845 359.123 251.044 359.057 251.244 359.07L259.884 359.789C260.256 359.816 260.548 360.149 260.522 360.535L259.924 371.281C259.91 371.6 259.658 371.88 259.339 371.933L251.961 373.145C251.922 373.158 251.882 373.158 251.842 373.158Z" fill="black"/>
<path d="M251.644 391.108C254.754 391.387 259.845 391.507 265.76 390.415C267.701 390.056 268.897 388.151 268.326 386.3C266.744 381.174 263.979 371.453 259.872 367.085L259.034 369.602L257.585 367.338C257.386 367.032 257.04 366.832 256.668 366.806L253.73 366.579C253.119 366.539 252.574 366.952 252.481 367.551L252.122 369.722L250.966 366.952L248.639 387.632C248.493 389.39 249.822 390.948 251.644 391.108Z" fill="#5479F7"/>
<path d="M251.697 390.402C254.86 390.682 259.845 390.788 265.64 389.71C266.372 389.576 267.023 389.137 267.408 388.498C267.781 387.899 267.86 387.193 267.661 386.514L267.315 385.408C265.84 380.588 263.447 372.758 260.137 368.497L259.699 369.829C259.619 370.082 259.393 370.268 259.114 370.308C258.848 370.335 258.582 370.215 258.436 369.988L256.987 367.725C256.907 367.592 256.774 367.512 256.615 367.512L253.677 367.285C253.425 367.272 253.212 367.432 253.172 367.658L252.826 369.829C252.773 370.148 252.521 370.388 252.215 370.428C251.896 370.455 251.604 370.281 251.471 369.988L251.364 369.735L249.344 387.712C249.224 389.07 250.288 390.282 251.697 390.402ZM256.043 392C254.329 392 252.813 391.92 251.577 391.814C249.384 391.627 247.749 389.723 247.935 387.579L250.261 366.872C250.301 366.553 250.54 366.3 250.859 366.247C251.178 366.207 251.497 366.38 251.617 366.673L251.83 367.205C252.082 366.366 252.88 365.807 253.784 365.874L256.721 366.1C257.319 366.14 257.851 366.46 258.17 366.952L258.821 367.964L259.194 366.859C259.273 366.619 259.473 366.446 259.712 366.393C259.965 366.34 260.217 366.42 260.377 366.593C264.324 370.787 267.049 379.683 268.671 384.996L269.003 386.101C269.336 387.153 269.19 388.298 268.618 389.23C268.02 390.216 267.036 390.895 265.893 391.108C262.211 391.787 258.848 392 256.043 392Z" fill="black"/>
<path d="M258.355 388.47C254.195 388.47 251.058 387.778 250.858 387.724C250.473 387.645 250.233 387.258 250.313 386.886C250.406 386.499 250.778 386.26 251.164 386.353C251.244 386.366 258.9 388.044 266.025 386.1C266.41 385.993 266.796 386.22 266.889 386.593C266.995 386.965 266.783 387.365 266.397 387.458C263.619 388.217 260.801 388.47 258.355 388.47Z" fill="black"/>
<path d="M254.475 380.509C254.089 380.509 253.77 380.203 253.77 379.817C253.757 379.417 254.076 379.098 254.462 379.098L261.427 378.978C261.812 378.964 262.145 379.284 262.158 379.67C262.158 380.07 261.852 380.389 261.453 380.389L254.488 380.509C254.475 380.509 254.475 380.509 254.475 380.509Z" fill="black"/>
<path d="M224.753 356.513L224.447 372.16L215.514 372.599L214.292 357.019L224.753 356.513Z" fill="#EAF1FF"/>
<path d="M215.05 357.698L216.167 371.853L223.757 371.48L224.023 357.258L215.05 357.698ZM215.515 373.304C215.143 373.304 214.837 373.025 214.811 372.652L213.588 357.072C213.575 356.885 213.628 356.699 213.761 356.553C213.88 356.406 214.066 356.326 214.253 356.313L224.714 355.807C224.913 355.794 225.099 355.86 225.245 356.007C225.378 356.14 225.458 356.326 225.458 356.526L225.152 372.172C225.152 372.545 224.847 372.851 224.488 372.865L215.542 373.304C215.529 373.304 215.529 373.304 215.515 373.304Z" fill="black"/>
<path d="M227.238 380.855C227.331 382.32 226.361 383.665 224.912 384.078C219.834 385.489 208.389 388.645 205.119 389.284C200.866 390.123 195.535 389.098 193.143 386.781C190.763 384.45 197.782 378.272 201.158 375.981C206.156 372.572 210.808 366.114 212.869 365.728C214.942 365.355 219.129 371.041 219.129 371.041L225.35 368.125C225.35 368.125 226.733 373.371 227.238 380.855Z" fill="#5479F7"/>
<path d="M213.109 366.42C213.07 366.42 213.043 366.42 213.003 366.42C212.192 366.579 210.371 368.43 208.603 370.228C206.503 372.385 204.11 374.822 201.558 376.566C198.262 378.804 193.583 383.145 193.383 385.448C193.343 385.808 193.423 386.061 193.649 386.261C195.789 388.351 200.867 389.403 204.988 388.591C208.258 387.952 219.875 384.743 224.714 383.398C225.844 383.078 226.601 382.026 226.535 380.894C226.149 375.262 225.272 370.881 224.873 369.136L219.437 371.679C219.131 371.813 218.772 371.733 218.559 371.453C216.725 368.963 214.16 366.42 213.109 366.42ZM202.05 390.282C198.328 390.282 194.58 389.15 192.652 387.286C192.134 386.78 191.895 386.101 191.961 385.328C192.267 381.893 198.581 376.873 200.761 375.395C203.193 373.73 205.533 371.347 207.593 369.243C210.079 366.699 211.554 365.261 212.751 365.035C214.864 364.649 218.014 368.404 219.357 370.148L225.059 367.485C225.245 367.392 225.458 367.392 225.658 367.485C225.844 367.578 225.99 367.751 226.043 367.951C226.096 368.164 227.439 373.344 227.944 380.801C228.063 382.599 226.867 384.263 225.099 384.756C220.234 386.114 208.577 389.337 205.254 389.989C204.217 390.189 203.14 390.282 202.05 390.282Z" fill="black"/>
<path d="M201.649 387.42C198.831 387.42 196.359 386.887 194.644 385.529C194.339 385.289 194.285 384.837 194.525 384.53C194.764 384.224 195.216 384.171 195.522 384.424C202.354 389.844 224.353 379.896 224.579 379.803C224.938 379.63 225.363 379.79 225.523 380.149C225.682 380.509 225.523 380.922 225.164 381.082C224.446 381.414 211.14 387.42 201.649 387.42Z" fill="black"/>
<path d="M212.243 377.459C212.084 377.459 211.938 377.419 211.805 377.313L207.046 373.544C206.74 373.305 206.687 372.865 206.94 372.559C207.179 372.24 207.618 372.2 207.923 372.439L212.682 376.208C212.988 376.447 213.041 376.887 212.788 377.193C212.656 377.38 212.443 377.459 212.243 377.459Z" fill="black"/>
<path d="M252.78 251.02C252.78 251.02 261.008 300.302 263.321 317.067C265.647 333.819 262.205 361.117 262.205 361.117L248.38 361.09C248.38 361.09 245.735 328.24 244.233 319.158C244.233 319.158 237.773 307.054 235.473 296.094C233.174 285.135 226.395 267.984 226.395 267.984C226.395 267.984 226.129 355.285 226.023 362.142C226.023 362.142 215.229 363.141 211.228 360.957C211.228 360.957 202.708 329.558 202.801 312.234C202.894 294.909 203.093 251.552 203.093 251.552L252.78 251.02Z" fill="black"/>
<path d="M247.855 321.053C247.483 321.053 247.177 320.76 247.151 320.387C247.138 319.988 247.43 319.655 247.829 319.642L252.042 319.429C252.428 319.415 252.76 319.722 252.787 320.108C252.8 320.494 252.494 320.827 252.109 320.853L247.895 321.053C247.882 321.053 247.869 321.053 247.855 321.053Z" fill="#EAF1FF"/>
<path d="M219.143 347.843C218.771 347.843 218.465 347.563 218.439 347.191C217.894 339.454 207.924 325.286 207.831 325.139C207.605 324.82 207.685 324.38 207.991 324.154C208.31 323.927 208.762 324.007 208.988 324.327C209.4 324.913 219.276 338.975 219.848 347.097C219.874 347.484 219.582 347.816 219.196 347.843C219.17 347.843 219.156 347.843 219.143 347.843Z" fill="#EAF1FF"/>
<path d="M216.312 180.221C200.494 209.05 201.996 221.754 179.718 192.019L177.325 203.764C177.325 203.764 219.821 266.962 212.298 205.628L216.312 180.221Z" fill="#EAF1FF"/>
<path d="M178.069 203.617C184.117 212.539 200.825 234.244 208.282 231.461C211.1 230.409 213.972 225.083 211.592 205.708C211.579 205.655 211.579 205.588 211.592 205.522L214.955 184.229C213.094 187.758 211.499 191.007 210.05 193.95C205.345 203.524 202.513 209.29 198.14 209.703C194.086 210.076 189.314 205.854 180.089 193.697L178.069 203.617ZM206.953 233.099C196.332 233.113 177.577 205.402 176.726 204.15C176.62 204.004 176.58 203.804 176.62 203.617L179.026 191.873C179.079 191.606 179.291 191.38 179.557 191.327C179.836 191.26 180.116 191.367 180.275 191.593C189.527 203.937 194.485 208.611 198.007 208.291C201.583 207.958 204.454 202.139 208.787 193.324C210.728 189.369 212.935 184.895 215.686 179.875C215.846 179.569 216.205 179.435 216.537 179.542C216.856 179.662 217.055 179.981 217.002 180.328L213.001 205.641C215.022 222.1 213.639 230.982 208.787 232.793C208.203 233.006 207.591 233.099 206.953 233.099Z" fill="black"/>
<path d="M253.625 254.431L203.618 256.615L208.763 207.998L200.242 204.656L205.825 189.795C208.829 181.805 216.3 176.226 225.006 175.48C232.304 174.854 242.047 174.375 253.545 174.681C259.806 174.841 265.748 177.371 270.121 181.712C276.222 187.758 284.503 196.986 286.776 204.456L259.473 214.496L256.868 210.768C256.868 210.768 252.495 233.911 253.625 254.431Z" fill="#5479F7"/>
<path d="M201.145 204.244L209.519 207.533L204.415 255.883L252.88 253.753C251.896 233.566 256.136 210.862 256.176 210.635L256.482 208.971L259.738 213.645L285.885 204.031C283.439 196.906 275.743 188.278 269.628 182.219C265.335 177.971 259.619 175.547 253.531 175.388C243.801 175.135 234.217 175.401 225.058 176.187C216.671 176.906 209.387 182.339 206.489 190.049L201.145 204.244ZM202.833 257.362L208.004 208.452L199.337 205.056L205.16 189.543C208.257 181.34 216.019 175.534 224.939 174.775C234.15 173.99 243.787 173.71 253.557 173.976C260.018 174.136 266.079 176.719 270.625 181.207C277.045 187.572 285.167 196.733 287.453 204.257L287.639 204.896L259.207 215.349L257.266 212.58C256.309 218.252 253.385 237.347 254.328 254.392L254.368 255.111L202.833 257.362Z" fill="black"/>
<path d="M256.867 211.474C256.601 211.474 256.348 211.327 256.229 211.061L251.417 201.034C251.257 200.688 251.404 200.262 251.749 200.102C252.108 199.929 252.534 200.075 252.693 200.435L257.505 210.462C257.678 210.808 257.532 211.234 257.173 211.394C257.08 211.447 256.973 211.474 256.867 211.474Z" fill="black"/>
<path d="M222.586 154.174H222.599H222.586ZM222.36 151.497C222.147 151.497 221.35 151.95 220.672 153.242C219.994 154.547 220.114 155.466 220.247 155.572C220.419 155.625 221.257 155.186 221.961 153.841C222.653 152.536 222.52 151.617 222.4 151.511C222.387 151.511 222.373 151.497 222.36 151.497ZM220.26 156.984C220.034 156.984 219.821 156.944 219.609 156.837C219.25 156.664 218.984 156.344 218.851 155.905C218.572 155.053 218.784 153.801 219.422 152.589C220.419 150.685 221.935 149.7 223.025 150.246C223.384 150.419 223.649 150.738 223.796 151.178C224.075 152.03 223.862 153.268 223.224 154.493C222.413 156.051 221.244 156.984 220.26 156.984Z" fill="black"/>
<path d="M231.345 178.823C233.312 178.823 235.2 178.504 236.981 177.944C238.589 177.438 240.091 176.719 241.474 175.827C235.492 173.79 237.592 164.921 237.592 164.921C242.112 155.227 238.603 149.062 233.259 147.77C225.682 145.959 224.712 150.234 224.712 150.234C224.14 151.392 222.798 154.069 222.293 154.388C221.655 154.761 220.126 155.134 219.887 155.44C219.634 155.76 219.78 156.759 220.724 157.611C220.724 157.611 217.973 163.23 218.89 164.908C219.807 166.599 226.347 168.011 226.347 168.011C226.347 168.011 227.889 174.815 223.635 177.145C225.257 177.891 226.998 178.397 228.833 178.65C229.657 178.757 230.494 178.823 231.345 178.823Z" fill="#EAF1FF"/>
<path d="M225.085 176.985C226.321 177.451 227.611 177.771 228.927 177.944C231.652 178.317 234.257 178.064 236.769 177.265C237.886 176.919 238.963 176.453 239.96 175.907C236.052 173.55 236.198 167.744 236.902 164.761C236.916 164.708 236.929 164.668 236.955 164.615C239.162 159.887 239.561 155.56 238.059 152.457C237.075 150.42 235.32 148.995 233.101 148.462C226.375 146.851 225.444 150.26 225.404 150.406C225.391 150.446 225.378 150.513 225.351 150.553C223.876 153.522 223.171 154.681 222.653 154.987C222.307 155.187 221.815 155.373 221.337 155.546C221.058 155.653 220.685 155.786 220.486 155.879C220.499 156.106 220.659 156.598 221.204 157.091C221.443 157.304 221.51 157.637 221.363 157.93C220.114 160.473 219.05 163.736 219.516 164.575C219.981 165.44 223.503 166.665 226.508 167.318C226.773 167.371 226.986 167.584 227.039 167.85C227.106 168.117 228.382 174.003 225.085 176.985ZM231.346 179.529C230.495 179.529 229.618 179.462 228.741 179.356C226.88 179.103 225.059 178.57 223.344 177.798C223.105 177.678 222.945 177.451 222.932 177.185C222.919 176.905 223.065 176.666 223.304 176.533C226.468 174.788 225.976 170.048 225.737 168.596C223.969 168.183 219.197 166.945 218.266 165.254C217.349 163.549 219.13 159.341 219.875 157.757C218.984 156.732 218.878 155.573 219.33 155C219.582 154.694 220.047 154.508 220.845 154.215C221.244 154.068 221.696 153.909 221.922 153.775C222.094 153.629 222.639 152.817 224.062 149.98C224.168 149.634 224.607 148.436 225.989 147.57C227.744 146.491 230.243 146.318 233.433 147.091C236.065 147.717 238.165 149.408 239.335 151.845C241.01 155.32 240.637 160.047 238.271 165.147C238.099 165.933 236.65 173.43 241.701 175.161C241.953 175.241 242.14 175.467 242.179 175.747C242.206 176.013 242.086 176.28 241.86 176.426C240.425 177.358 238.856 178.091 237.195 178.623C235.294 179.222 233.327 179.529 231.346 179.529Z" fill="black"/>
<path d="M237.514 145.134C235.614 144.601 233.381 144.708 232.463 144.308C230.988 143.682 231.174 141.978 229.034 141.632C227.16 141.325 225.378 141.512 224.302 142.843C224.116 143.057 223.956 143.31 223.823 143.602C221.976 147.451 223.863 149.541 224.714 150.234C224.714 150.234 230.23 153.416 231.161 154.269C232.025 155.068 232.968 156.879 232.144 159.329C232.038 159.635 232.158 159.981 232.437 160.154L232.45 160.168C232.782 160.394 233.234 160.327 233.487 160.035C234.284 159.089 236.026 157.278 237.142 157.824C238.511 158.49 238.631 162.112 235.693 162.485C235.162 162.551 234.856 163.097 235.069 163.577C235.401 164.322 236.119 165.161 237.594 164.922C237.594 164.922 244.174 161.14 245.397 155.547C246.633 149.954 240.053 145.84 237.514 145.134Z" fill="black"/>
<path d="M226.308 152.99C225.763 152.99 224.952 153.576 224.434 154.574C224.035 155.32 223.902 156.132 224.088 156.678C224.154 156.891 224.274 157.038 224.407 157.104C224.912 157.357 225.936 156.758 226.56 155.586C226.946 154.841 227.079 154.028 226.893 153.482C226.826 153.269 226.72 153.123 226.574 153.043C226.494 153.003 226.401 152.99 226.308 152.99ZM224.659 158.582C224.354 158.582 224.061 158.516 223.782 158.383C223.29 158.13 222.931 157.704 222.745 157.118C222.44 156.199 222.612 155 223.171 153.908C224.141 152.071 225.896 151.139 227.198 151.778C227.69 152.018 228.049 152.457 228.248 153.043C228.541 153.962 228.381 155.16 227.81 156.239C227.052 157.69 225.789 158.582 224.659 158.582Z" fill="black"/>
<path d="M223.861 154.733C223.596 154.733 223.343 154.573 223.223 154.32C223.183 154.24 223.064 154.08 222.984 154.08C222.971 154.08 222.957 154.08 222.944 154.08C222.572 154.08 222.253 153.787 222.24 153.414C222.226 153.015 222.532 152.682 222.918 152.669C223.782 152.642 224.313 153.321 224.499 153.721C224.659 154.08 224.513 154.493 224.154 154.666C224.061 154.706 223.954 154.733 223.861 154.733Z" fill="black"/>
<path d="M234.03 158.236C233.937 158.236 233.831 158.209 233.738 158.169L227.371 155.306C227.012 155.147 226.853 154.734 227.012 154.374C227.172 154.015 227.584 153.855 227.942 154.015L234.323 156.878C234.682 157.038 234.841 157.464 234.682 157.81C234.562 158.076 234.296 158.236 234.03 158.236Z" fill="black"/>
<path d="M139.534 195.427C115.156 201.246 90.5249 186.545 84.4901 162.603C78.4686 138.661 93.3296 114.545 117.708 108.74C142.073 102.92 166.704 117.621 172.739 141.564C178.76 165.506 163.899 189.621 139.534 195.427ZM116.046 102.148C87.9727 108.846 70.852 136.623 77.7907 164.201C84.7427 191.779 113.122 208.703 141.183 202.019C169.256 195.321 186.377 167.543 179.438 139.966C172.486 112.388 144.107 95.4634 116.046 102.148Z" fill="black"/>
<path d="M274.865 267.042L272.605 269.825C270.292 272.569 265.493 269.666 258.94 264.299L165.454 187.652L171.595 176.213L267.328 254.339C273.894 259.719 277.191 264.299 274.865 267.042Z" fill="black"/>
<path d="M180.235 204.176C176.022 203.63 168.285 201.419 172.659 192.604C173.084 191.752 174.147 191.419 175.011 191.818C177.683 193.083 181.844 197.438 182.681 201.686C182.96 203.11 181.711 204.375 180.235 204.176Z" fill="#EAF1FF"/>
<path d="M180.329 203.485C180.821 203.551 181.3 203.378 181.632 203.019C181.938 202.699 182.071 202.26 181.991 201.834C181.193 197.786 177.219 193.644 174.707 192.459C174.188 192.219 173.55 192.432 173.298 192.925C171.942 195.655 171.716 197.905 172.62 199.597C174.055 202.286 178.07 203.179 180.329 203.485ZM180.529 204.91C180.396 204.91 180.276 204.896 180.143 204.883C177.046 204.47 173.005 203.352 171.37 200.262C170.24 198.145 170.466 195.455 172.035 192.286C172.62 191.101 174.095 190.608 175.318 191.181C178.03 192.472 182.456 196.907 183.373 201.554C183.546 202.433 183.294 203.325 182.669 203.991C182.111 204.577 181.326 204.91 180.529 204.91Z" fill="black"/>
<path d="M281.765 205.736L261.467 213.019C261.467 213.019 264.897 243.86 242.991 254.472C242.991 254.472 231.107 253.048 227 259.905C227 259.905 235.308 259.546 242.273 261.41C249.225 263.274 290.684 251.636 281.765 205.736Z" fill="#EAF1FF"/>
<path d="M244.278 262.328C243.401 262.328 242.657 262.248 242.085 262.089C235.319 260.278 227.118 260.611 227.025 260.611C226.786 260.624 226.533 260.491 226.387 260.264C226.254 260.051 226.254 259.772 226.387 259.545C230.428 252.807 241.155 253.58 242.856 253.753C263.872 243.406 260.788 214.51 260.761 214.217C260.708 213.831 260.987 213.485 261.386 213.432C261.771 213.392 262.117 213.671 262.17 214.058C262.197 214.364 263.008 221.701 261.133 230.476C258.621 242.154 252.453 250.677 243.295 255.111C243.175 255.164 243.029 255.191 242.896 255.178C242.79 255.164 232.794 254.032 228.394 259.172C231.092 259.146 237.114 259.292 242.457 260.73C246.007 261.676 259.591 259.026 269.747 249.545C277.27 242.527 285.326 229.464 280.966 207.04C280.899 206.654 281.139 206.281 281.524 206.201C281.909 206.134 282.282 206.374 282.361 206.76C286.841 229.824 278.507 243.326 270.717 250.584C261.758 258.946 250.034 262.328 244.278 262.328Z" fill="black"/>
<path d="M259.472 215.202C259.18 215.202 258.914 215.016 258.807 214.736C258.675 214.363 258.861 213.964 259.233 213.831L286.536 203.79C286.894 203.657 287.307 203.843 287.439 204.216C287.572 204.576 287.386 204.989 287.014 205.122L259.711 215.149C259.632 215.189 259.552 215.202 259.472 215.202Z" fill="black"/>
<path d="M45.9029 360.588C39.6688 359.363 35.6013 353.304 36.8375 347.072C38.0604 340.84 44.1085 336.779 50.3426 338.004C56.5901 339.229 60.6443 345.288 59.4081 351.52C58.1852 357.752 52.1371 361.813 45.9029 360.588ZM70.7865 348.79C70.7998 348.524 70.627 348.271 70.3611 348.204L66.5727 347.139C66.3601 347.072 66.2006 346.886 66.1607 346.659C66.0543 345.887 65.8948 345.141 65.6954 344.409C65.6423 344.196 65.7087 343.956 65.8815 343.81L68.9122 341.306C69.1116 341.133 69.1781 340.84 69.0584 340.601L67.5032 337.525C67.3836 337.285 67.1044 337.152 66.8386 337.218L63.0237 338.19C62.811 338.244 62.5717 338.164 62.4388 337.991C61.9603 337.391 61.4551 336.819 60.9101 336.286C60.7373 336.126 60.6842 335.887 60.7639 335.66L62.1331 331.972C62.2261 331.719 62.1331 331.439 61.9071 331.293L59.0226 329.415C58.7966 329.255 58.5042 329.295 58.3048 329.482L55.4868 332.211C55.3273 332.371 55.088 332.424 54.8754 332.345C54.1709 332.052 53.4398 331.825 52.6954 331.625C52.4694 331.572 52.2966 331.399 52.2567 331.173L51.6054 327.298C51.5655 327.018 51.3396 326.818 51.0604 326.805L47.631 326.619C47.3651 326.605 47.1126 326.778 47.0461 327.045L45.9694 330.827C45.9029 331.053 45.7168 331.213 45.4909 331.239C44.7332 331.359 43.9755 331.506 43.2444 331.719C43.0318 331.772 42.7925 331.705 42.6463 331.532L40.1473 328.496C39.9745 328.296 39.6821 328.23 39.4428 328.35L36.3722 329.908C36.133 330.041 36 330.307 36.0665 330.574L37.0369 334.395C37.09 334.608 37.0103 334.835 36.8242 334.981C36.226 335.461 35.6544 335.967 35.1227 336.512C34.9632 336.672 34.724 336.739 34.5113 336.659L30.8293 335.287C30.5634 335.194 30.2843 335.287 30.1381 335.514L28.2505 338.39C28.1043 338.616 28.1309 338.923 28.3303 339.122L31.0552 341.932C31.2147 342.092 31.2679 342.332 31.1749 342.545C30.8957 343.25 30.6698 343.983 30.4704 344.729C30.4172 344.955 30.2311 345.128 30.0051 345.168L26.137 345.82C25.8712 345.86 25.6718 346.087 25.6585 346.366L25.4724 349.802C25.4591 350.068 25.6319 350.321 25.8845 350.388L29.6728 351.453C29.8855 351.52 30.045 351.706 30.0849 351.933C30.1912 352.705 30.3507 353.451 30.5501 354.183C30.6166 354.409 30.5368 354.636 30.364 354.782L27.3466 357.286C27.134 357.459 27.0675 357.752 27.1871 358.005L28.7423 361.067C28.8753 361.307 29.1411 361.44 29.407 361.374L33.2219 360.402C33.4479 360.348 33.6739 360.428 33.8201 360.601C34.2853 361.214 34.8037 361.773 35.3487 362.319C35.5082 362.479 35.5614 362.705 35.4816 362.932L34.1125 366.62C34.0195 366.873 34.1125 367.153 34.3385 367.299L37.2229 369.177C37.4489 369.337 37.7547 369.297 37.9407 369.11L40.7587 366.367C40.9183 366.207 41.1575 366.167 41.3702 366.261C42.0747 366.54 42.8058 366.767 43.5502 366.966C43.7761 367.02 43.9489 367.193 43.9888 367.419L44.6402 371.307C44.68 371.574 44.906 371.773 45.1851 371.787L48.6146 371.973C48.8937 371.987 49.133 371.813 49.2128 371.547L50.2762 367.765C50.3426 367.539 50.5287 367.379 50.7547 367.353C51.5124 367.246 52.27 367.086 53.0011 366.886C53.2138 366.82 53.4531 366.886 53.5993 367.06L56.0983 370.096C56.2711 370.295 56.5635 370.362 56.8161 370.242L59.8733 368.684C60.1259 368.551 60.2455 368.285 60.1791 368.018L59.222 364.21C59.1555 363.984 59.2353 363.757 59.4214 363.611C60.0196 363.131 60.5911 362.625 61.1228 362.079C61.2823 361.92 61.5216 361.853 61.7343 361.946L65.4296 363.304C65.6822 363.398 65.9613 363.304 66.1075 363.078L67.995 360.202C68.1413 359.975 68.1147 359.669 67.9286 359.483L65.1903 356.66C65.0308 356.5 64.9776 356.26 65.0707 356.047C65.3498 355.341 65.5891 354.609 65.7752 353.863C65.8284 353.637 66.0145 353.464 66.2404 353.437L70.1085 352.771C70.3744 352.731 70.5738 352.505 70.6004 352.225L70.7865 348.79Z" fill="#99B9FF"/>
<path d="M46.034 359.896C48.8653 360.455 51.7365 359.869 54.1424 358.272C56.5351 356.66 58.1568 354.21 58.715 351.387C59.2733 348.551 58.7018 345.674 57.0934 343.278C55.485 340.881 53.0392 339.256 50.2079 338.697C44.3592 337.552 38.6833 341.373 37.5268 347.206C36.3704 353.052 40.1986 358.738 46.034 359.896ZM48.1475 361.521C47.35 361.521 46.5524 361.441 45.7682 361.281C39.1485 359.976 34.8418 353.544 36.1444 346.94C37.4471 340.321 43.8673 336.007 50.487 337.312C53.6905 337.938 56.442 339.789 58.2631 342.492C60.0842 345.195 60.7355 348.458 60.1108 351.653C59.4727 354.863 57.6384 357.619 54.9267 359.443C52.8929 360.815 50.5402 361.521 48.1475 361.521ZM45.3162 371.082L48.5463 371.255L49.5964 367.566C49.7293 367.087 50.1547 366.727 50.6465 366.647C51.3909 366.541 52.1087 366.394 52.8132 366.195C53.2917 366.061 53.8234 366.221 54.1424 366.621L56.575 369.564L59.4727 368.099L58.529 364.384C58.4093 363.891 58.5821 363.372 58.9809 363.052C59.5525 362.599 60.1108 362.107 60.6159 361.587C60.9748 361.228 61.5065 361.108 61.985 361.281L65.574 362.613L67.3419 359.896L64.6834 357.153C64.3245 356.793 64.2181 356.261 64.4042 355.781C64.6701 355.102 64.9093 354.41 65.0821 353.691C65.2151 353.185 65.6138 352.812 66.119 352.732L69.894 352.093L70.0668 348.857L66.3848 347.818C65.893 347.672 65.5341 347.259 65.4676 346.753C65.3613 346.021 65.2018 345.302 65.0157 344.596C64.8828 344.116 65.0423 343.584 65.4278 343.264L68.3787 340.827L66.9165 337.938L63.1946 338.883C62.7161 339.003 62.1844 338.817 61.8787 338.417C61.4267 337.845 60.9216 337.299 60.4032 336.779C60.0443 336.433 59.9247 335.887 60.0975 335.421L61.44 331.826L58.7283 330.055L55.9768 332.731C55.6179 333.077 55.0862 333.184 54.6077 332.998C53.9298 332.731 53.2253 332.505 52.5208 332.318C52.0156 332.185 51.6435 331.786 51.5637 331.293L50.9257 327.511L47.6956 327.338L46.6455 331.027C46.5126 331.506 46.1005 331.866 45.5954 331.946C44.8643 332.052 44.1332 332.199 43.442 332.398C42.9502 332.532 42.4185 332.372 42.0994 331.972L39.6669 329.029L36.7825 330.494L37.7129 334.209C37.8459 334.702 37.6598 335.221 37.261 335.541C36.6894 335.994 36.1444 336.486 35.626 337.006C35.2671 337.365 34.7354 337.498 34.2569 337.312L30.6679 335.98L28.9 338.697L31.5718 341.44C31.9174 341.8 32.0237 342.345 31.8377 342.812C31.5718 343.491 31.3458 344.196 31.1597 344.915C31.0268 345.408 30.628 345.781 30.1229 345.861L26.3479 346.5L26.1751 349.736L29.8571 350.775C30.3489 350.921 30.7078 351.334 30.7743 351.84C30.8806 352.572 31.0401 353.291 31.2262 353.997C31.3591 354.49 31.1996 355.009 30.8141 355.329L27.8632 357.765L29.3254 360.655L33.0473 359.723C33.5391 359.59 34.0575 359.776 34.3632 360.176C34.8152 360.748 35.3203 361.294 35.8387 361.814C36.1976 362.16 36.3172 362.706 36.1444 363.172L34.8152 366.767L37.5268 368.538L40.2651 365.862C40.624 365.515 41.169 365.409 41.6342 365.595C42.3121 365.862 43.0166 366.088 43.7344 366.274C44.2262 366.408 44.5984 366.807 44.6782 367.313L45.3162 371.082ZM48.6526 372.68C48.6261 372.68 48.5995 372.68 48.5729 372.68L45.1434 372.493C44.532 372.453 44.0401 372.014 43.9471 371.414L43.2958 367.633C42.578 367.433 41.8735 367.207 41.1823 366.94L38.4307 369.617C38.0054 370.043 37.3407 370.11 36.8356 369.777L33.9512 367.899C33.446 367.566 33.2334 366.94 33.446 366.368L34.7886 362.759C34.2702 362.24 33.7651 361.68 33.3131 361.108L29.5779 362.053C28.9931 362.2 28.3949 361.933 28.1158 361.387L26.5605 358.311C26.2814 357.779 26.4143 357.126 26.8928 356.74L29.8438 354.29C29.6577 353.584 29.4982 352.852 29.3918 352.119L25.6965 351.067C25.1117 350.908 24.7262 350.362 24.7528 349.763L24.9389 346.327C24.9787 345.714 25.4174 345.222 26.0155 345.129L29.8039 344.476C29.99 343.757 30.2293 343.051 30.4951 342.359L27.8233 339.616C27.398 339.176 27.3315 338.51 27.6638 338.004L29.5381 335.128C29.8704 334.622 30.4951 334.409 31.0667 334.622L34.669 335.967C35.1874 335.434 35.7456 334.942 36.3172 334.476L35.3867 330.747C35.2272 330.161 35.5064 329.562 36.0514 329.282L39.1086 327.724C39.6536 327.445 40.305 327.578 40.6904 328.057L43.1363 331.013C43.8408 330.814 44.5718 330.667 45.3162 330.561L46.353 326.859C46.5258 326.273 47.0708 325.887 47.669 325.913L51.0985 326.1C51.7099 326.14 52.2017 326.579 52.3081 327.178L52.9461 330.96C53.6639 331.16 54.3684 331.386 55.0596 331.653L57.8112 328.976C58.2498 328.55 58.9011 328.483 59.4063 328.816L62.2907 330.694C62.7958 331.027 63.0085 331.653 62.7958 332.225L61.4533 335.834C61.9717 336.353 62.4768 336.899 62.9421 337.485L66.664 336.54C67.2488 336.393 67.847 336.659 68.1261 337.205L69.6814 340.268C69.9605 340.814 69.8276 341.467 69.3623 341.853L66.3981 344.303C66.5842 345.009 66.7437 345.741 66.8501 346.473L70.5454 347.525C71.1302 347.685 71.5157 348.231 71.4891 348.83L71.303 352.266C71.2632 352.878 70.8245 353.371 70.2263 353.464L66.438 354.117C66.2519 354.836 66.0126 355.542 65.7468 356.234L68.4319 358.977C68.8439 359.417 68.9104 360.082 68.5781 360.589L66.7038 363.465C66.3715 363.984 65.7468 364.184 65.1752 363.971L61.5729 362.639C61.0545 363.159 60.4962 363.651 59.9247 364.117L60.8684 367.846C61.0146 368.432 60.7355 369.031 60.2038 369.311L57.1332 370.869C56.5883 371.148 55.9369 371.015 55.5514 370.549L53.1056 367.579C52.4011 367.779 51.67 367.926 50.9389 368.046L49.8888 371.747C49.7293 372.307 49.2242 372.68 48.6526 372.68Z" fill="#802EE3"/>
<path d="M84.5301 373.65C79.891 373.437 76.3153 369.495 76.5413 364.848C76.754 360.214 80.7019 356.632 85.3276 356.845C89.9667 357.071 93.5557 361.013 93.3297 365.647C93.1037 370.281 89.1692 373.876 84.5301 373.65ZM101.731 367.684L101.89 364.422L98.4473 363.463C98.341 362.704 98.1815 361.958 97.9688 361.239L100.694 358.949L99.205 356.046L95.7489 356.951C95.2837 356.339 94.7786 355.78 94.2203 355.26L95.4432 351.905L92.6917 350.147L90.1528 352.65C89.4616 352.357 88.7305 352.131 87.9861 351.958L87.3747 348.443L84.1047 348.283L83.161 351.732C82.39 351.825 81.6456 351.985 80.9278 352.211L78.6415 349.481L75.7438 350.973L76.6344 354.435C76.0362 354.887 75.4779 355.407 74.9595 355.966L71.6098 354.741L69.8419 357.484L72.3409 360.028C72.0485 360.72 71.8225 361.452 71.6497 362.198L68.1405 362.811L67.981 366.086L71.4237 367.032C71.5168 367.791 71.6763 368.536 71.9022 369.256L69.164 371.546L70.666 374.449L74.1221 373.557C74.574 374.156 75.0924 374.715 75.6507 375.234L74.4278 378.59L77.1661 380.361L79.7049 377.858C80.4094 378.137 81.1272 378.377 81.8716 378.537L82.4963 382.052L85.753 382.212L86.7101 378.777C87.4677 378.67 88.2121 378.51 88.9299 378.284L91.2162 381.014L94.1273 379.522L93.2234 376.073C93.8215 375.607 94.3931 375.088 94.9115 374.542L98.2612 375.754L100.029 373.011L97.5301 370.467C97.8093 369.775 98.0485 369.056 98.2213 368.297L101.731 367.684Z" fill="#FF9F78"/>
<defs>
<linearGradient id="paint0_linear_244_449" x1="195" y1="0" x2="195" y2="391.461" gradientUnits="userSpaceOnUse">
<stop stop-color="#CADDFF"/>
<stop offset="1" stop-color="#A052FF"/>
</linearGradient>
</defs>
</svg>
