<svg width="390" height="392" viewBox="0 0 390 392" fill="none" xmlns="http://www.w3.org/2000/svg">
<path d="M383.385 74.0596C370.322 47.5758 344.236 33.2673 328.057 24.396C258.095 -13.9769 162.813 -3.76579 99.4739 32.0055C36.9525 67.3216 -17.5313 150.922 5.30876 241.756C28.2398 332.927 117.471 379.82 184.965 389.758C292.128 405.536 382.177 333.733 387.111 308.811C388.63 301.123 388.228 294.307 388.228 294.307C386.332 276.317 371.607 265.638 368.179 224.624C361.856 149.179 406.29 120.51 383.385 74.0596Z" fill="#CDE4FB"/>
<path d="M137.702 295.165C138.325 294.827 138.948 294.489 139.585 294.177C145.181 291.367 151.219 289.273 157.075 287.127C178.811 279.205 201.223 273.364 223.362 266.744C231.205 264.402 239.047 262.087 246.929 259.94C277.287 195.955 331.888 79.4188 326.798 79.4188L31.4089 67.959C24.3972 67.959 18.6709 73.7084 18.6709 80.7586V288.024C18.6709 295.087 24.3972 300.824 31.4089 300.824L138.143 293.566L137.702 295.165Z" fill="black"/>
<path d="M225.518 274.327H150.194L128.821 352.725H246.891L225.518 274.327Z" fill="white"/>
<path d="M129.755 352.023H245.955L224.985 275.043H150.725L129.755 352.023ZM246.89 353.428H128.82C128.599 353.428 128.405 353.337 128.262 353.154C128.132 352.985 128.093 352.751 128.145 352.543L149.518 274.145C149.596 273.833 149.881 273.625 150.193 273.625H225.517C225.842 273.625 226.114 273.833 226.192 274.145L247.565 352.543C247.63 352.751 247.578 352.985 247.448 353.154C247.318 353.337 247.111 353.428 246.89 353.428Z" fill="black"/>
<path d="M338.237 68.687H37.4723C30.8371 68.687 25.4614 74.0852 25.4614 80.7582V288.024C25.4614 294.697 30.8371 300.108 37.4723 300.108H338.237C344.872 300.108 350.261 294.697 350.261 288.024V80.7582C350.261 74.0852 344.872 68.687 338.237 68.687Z" fill="white"/>
<path d="M37.4731 69.3905C31.2404 69.3905 26.1634 74.4895 26.1634 80.7593V288.025C26.1634 294.295 31.2404 299.394 37.4731 299.394H338.238C344.471 299.394 349.548 294.295 349.548 288.025V80.7593C349.548 74.4895 344.471 69.3905 338.238 69.3905H37.4731ZM338.238 300.812H37.4731C30.4613 300.812 24.748 295.075 24.748 288.025V80.7593C24.748 73.7091 30.4613 67.9727 37.4731 67.9727H338.238C345.25 67.9727 350.963 73.7091 350.963 80.7593V288.025C350.963 295.075 345.25 300.812 338.238 300.812Z" fill="black"/>
<path d="M259.707 344.673H116.006C111.876 344.673 108.526 348.042 108.526 352.192C108.526 356.341 111.876 359.71 116.006 359.71H259.707C263.836 359.71 267.187 356.341 267.187 352.192C267.187 348.042 263.836 344.673 259.707 344.673Z" fill="white"/>
<path d="M116.006 345.375C112.266 345.375 109.228 348.432 109.228 352.191C109.228 355.937 112.266 358.994 116.006 358.994H259.707C263.447 358.994 266.485 355.937 266.485 352.191C266.485 348.432 263.447 345.375 259.707 345.375H116.006ZM259.707 360.412H116.006C111.487 360.412 107.825 356.718 107.825 352.191C107.825 347.651 111.487 343.957 116.006 343.957H259.707C264.226 343.957 267.888 347.651 267.888 352.191C267.888 356.718 264.226 360.412 259.707 360.412Z" fill="black"/>
<path d="M333.589 79.4185H42.1207C38.8096 79.4185 36.1348 82.1111 36.1348 85.428V283.354C36.1348 286.671 38.8096 289.364 42.1207 289.364H333.589C336.9 289.364 339.574 286.671 339.574 283.354V85.428C339.574 82.1111 336.9 79.4185 333.589 79.4185Z" fill="white"/>
<path d="M42.1207 80.1342C39.2121 80.1342 36.8489 82.5016 36.8489 85.4283V283.354C36.8489 286.281 39.2121 288.662 42.1207 288.662H333.601C336.497 288.662 338.873 286.281 338.873 283.354V85.4283C338.873 82.5016 336.497 80.1342 333.601 80.1342H42.1207ZM333.601 290.079H42.1207C38.4331 290.079 35.4336 287.062 35.4336 283.354V85.4283C35.4336 81.7211 38.4331 78.7163 42.1207 78.7163H333.601C337.276 78.7163 340.276 81.7211 340.276 85.4283V283.354C340.276 287.062 337.276 290.079 333.601 290.079Z" fill="black"/>
<path d="M297.713 288.584H72.8174V12.7544H297.713V288.584Z" fill="white"/>
<path d="M73.5186 287.869H297.011V13.4569H73.5186V287.869ZM297.726 289.286H72.8174C72.4278 289.286 72.1162 288.974 72.1162 288.584V12.7545C72.1162 12.3643 72.4278 12.0391 72.8174 12.0391H297.726C298.115 12.0391 298.427 12.3643 298.427 12.7545V288.584C298.427 288.974 298.115 289.286 297.726 289.286Z" fill="black"/>
<path d="M197.989 36.1155H89.4238V29.2344H197.989V36.1155Z" fill="#CDE4FB"/>
<path d="M252.851 48.0828H125.938V40.9155H252.851V48.0828Z" fill="#5479F7"/>
<path d="M281.105 59.8938H154.205V52.7266H281.105V59.8938Z" fill="#5479F7"/>
<path d="M265.808 71.7176H200.209V64.5503H265.808V71.7176Z" fill="#5479F7"/>
<path d="M197.989 130.657H89.4238V123.776H197.989V130.657Z" fill="#CDE4FB"/>
<path d="M252.851 142.611H125.938V135.443H252.851V142.611Z" fill="#5479F7"/>
<path d="M281.105 154.435H154.205V147.268H281.105V154.435Z" fill="#5479F7"/>
<path d="M281.104 166.245H200.209V159.078H281.104V166.245Z" fill="#5479F7"/>
<path d="M252.851 83.5296H125.938V76.3623H252.851V83.5296Z" fill="#5479F7"/>
<path d="M281.105 95.3538H154.205V88.1865H281.105V95.3538Z" fill="#5479F7"/>
<path d="M250.499 118.975H200.209V111.808H250.499V118.975Z" fill="#5479F7"/>
<path d="M281.117 107.164H200.209V99.9971H281.117V107.164Z" fill="#5479F7"/>
<path d="M197.989 177.927H89.4238V171.033H197.989V177.927Z" fill="#CDE4FB"/>
<path d="M252.851 189.88H125.938V182.713H252.851V189.88Z" fill="#5479F7"/>
<path d="M277.027 201.692H154.205V194.525H277.027V201.692Z" fill="#5479F7"/>
<path d="M281.104 213.516H200.209V206.349H281.104V213.516Z" fill="#CDE4FB"/>
<path d="M222.777 272.597H154.205V265.43H222.777V272.597Z" fill="#CDE4FB"/>
<path d="M252.851 225.327H125.938V218.16H252.851V225.327Z" fill="#5479F7"/>
<path d="M281.105 237.151H154.205V229.984H281.105V237.151Z" fill="#5479F7"/>
<path d="M281.104 260.773H200.209V253.606H281.104V260.773Z" fill="#5479F7"/>
<path d="M246.526 248.961H200.209V241.794H246.526V248.961Z" fill="#5479F7"/>
<path d="M261.822 68.2585C251.045 74.5283 237.242 70.8341 231.009 59.9986C224.764 49.1631 228.451 35.2969 239.229 29.0141C250.006 22.7444 263.809 26.4516 270.054 37.2871C276.287 48.1225 272.612 61.9888 261.822 68.2585ZM291.947 29.6255L287.558 22.0029L278.43 24.8777C277.105 23.2907 275.651 21.8469 274.119 20.5331L276.949 11.3626L269.353 6.96598L262.874 14.0422C260.952 13.3528 258.978 12.8195 256.979 12.4553L254.862 3.07666L246.098 3.08967L244.007 12.4553C242.02 12.8195 240.047 13.3528 238.112 14.0682L231.62 7.005L224.037 11.4146L226.88 20.5981C225.309 21.9379 223.868 23.3818 222.569 24.9297L213.441 22.094L209.065 29.7165L216.103 36.2334C215.415 38.1586 214.895 40.1488 214.532 42.165L205.196 44.2852L205.209 53.0915L214.532 55.1987C214.895 57.1889 215.428 59.1661 216.129 61.1173L209.104 67.6472L213.493 75.2697L222.634 72.408C223.959 73.9819 225.4 75.4388 226.945 76.7396L224.115 85.9231L231.711 90.3197L238.19 83.2435C240.112 83.9329 242.072 84.4532 244.085 84.8174L246.202 94.209L254.953 94.196L257.057 84.8174C259.03 84.4662 261.004 83.9199 262.939 83.2175L269.444 90.2807L277.027 85.858L274.171 76.6876C275.742 75.3478 277.196 73.8909 278.494 72.343L287.623 75.1917L291.999 67.5691L284.961 61.0392C285.636 59.1141 286.168 57.1369 286.532 55.1207L295.855 53.0004V44.1812L286.532 42.0869C286.168 40.0967 285.623 38.1066 284.922 36.1554L291.947 29.6255Z" fill="white"/>
<path d="M246.331 25.5664C242.617 25.5664 238.852 26.5159 235.411 28.5191C224.984 34.5808 221.413 48.0438 227.451 58.528C230.373 63.6011 235.086 67.2302 240.735 68.7391C246.37 70.261 252.252 69.4676 257.303 66.5278C262.367 63.5881 265.964 58.8532 267.47 53.1819C268.976 47.5105 268.197 41.6049 265.276 36.5189C261.224 29.4947 253.875 25.5664 246.331 25.5664ZM246.396 70.9114C244.396 70.9114 242.371 70.6513 240.371 70.1049C234.359 68.505 229.347 64.6417 226.231 59.2305C219.803 48.0828 223.608 33.7483 234.71 27.2964C245.812 20.8316 260.069 24.6558 266.496 35.8165C269.613 41.2147 270.444 47.5105 268.834 53.5461C267.236 59.5817 263.393 64.6287 258.017 67.7635C254.42 69.8448 250.447 70.9114 246.396 70.9114ZM234.021 81.4087C234.099 81.4087 234.177 81.4347 234.268 81.4607C236.138 82.1371 238.086 82.6444 240.033 83.0086C240.319 83.0607 240.54 83.2688 240.605 83.542L242.591 92.3742H250.226L252.2 83.542C252.265 83.2688 252.486 83.0607 252.758 83.0086C254.693 82.6574 256.641 82.1241 258.537 81.4347C258.809 81.3306 259.108 81.4087 259.29 81.6168L265.419 88.2638L272.015 84.4135L269.327 75.7763C269.249 75.5032 269.34 75.204 269.548 75.0219C271.093 73.7081 272.521 72.2772 273.781 70.7813C273.975 70.5602 274.261 70.4692 274.534 70.5472L283.13 73.2268L286.934 66.5798L280.312 60.4532C280.104 60.2581 280.026 59.9589 280.13 59.6857C280.792 57.7996 281.312 55.8484 281.662 53.8843C281.714 53.5981 281.922 53.377 282.208 53.3119L290.985 51.3087V43.6342L282.208 41.657C281.922 41.5919 281.714 41.3708 281.662 41.0976C281.312 39.1465 280.792 37.1953 280.104 35.2832C280 35.023 280.078 34.7238 280.286 34.5287L286.895 28.3761L283.065 21.7421L274.482 24.4347C274.209 24.5258 273.911 24.4347 273.729 24.2136C272.417 22.6657 270.989 21.2348 269.496 19.96C269.275 19.7779 269.197 19.4788 269.275 19.2056L271.937 10.5684L265.328 6.74416L259.225 13.4041C259.03 13.6123 258.731 13.6903 258.472 13.5862C256.589 12.9098 254.641 12.3895 252.681 12.0383C252.408 11.9863 252.187 11.7782 252.122 11.505L250.136 2.67273L242.501 2.68574L240.527 11.505C240.462 11.7782 240.241 11.9863 239.968 12.0383C238.034 12.3895 236.086 12.9228 234.19 13.6123C233.918 13.7163 233.619 13.6383 233.437 13.4301L227.308 6.78318L220.712 10.6335L223.387 19.2706C223.478 19.5438 223.387 19.83 223.179 20.0251C221.634 21.3389 220.206 22.7697 218.933 24.2786C218.751 24.4867 218.466 24.5778 218.193 24.4997L209.597 21.8201L205.793 28.4671L212.415 34.5938C212.623 34.7889 212.701 35.0881 212.61 35.3612C211.935 37.2473 211.415 39.1985 211.065 41.1627C211.013 41.4489 210.805 41.67 210.519 41.735L201.742 43.7382V51.4128L210.519 53.39C210.805 53.455 211.013 53.6761 211.065 53.9493C211.415 55.9005 211.935 57.8516 212.623 59.7638C212.727 60.0239 212.649 60.3231 212.441 60.5182L205.832 66.6709L209.662 73.3048L218.258 70.6122C218.531 70.5212 218.816 70.6122 218.998 70.8334C220.31 72.3813 221.725 73.8122 223.231 75.0869C223.452 75.269 223.53 75.5682 223.452 75.8414L220.79 84.4655L227.399 88.3028L233.502 81.6428C233.645 81.4997 233.827 81.4087 234.021 81.4087ZM242.033 93.7921C241.695 93.7921 241.41 93.5709 241.345 93.2457L239.332 84.3094C237.605 83.9842 235.891 83.5159 234.229 82.9436L228.062 89.6816C227.828 89.9288 227.477 89.9808 227.192 89.8117L219.595 85.4151C219.31 85.246 219.18 84.9078 219.271 84.5956L221.972 75.8674C220.647 74.7227 219.401 73.4609 218.232 72.1081L209.532 74.8268C209.221 74.9308 208.883 74.8007 208.714 74.5146L204.325 66.892C204.17 66.6059 204.222 66.2416 204.455 66.0075L211.142 59.8028C210.558 58.1118 210.091 56.3818 209.766 54.6647L200.885 52.6615C200.56 52.5965 200.339 52.3103 200.339 51.9721L200.326 43.1659C200.326 42.8407 200.56 42.5545 200.872 42.4765L209.766 40.4603C210.091 38.7172 210.545 37.0002 211.116 35.3222L204.429 29.1175C204.183 28.8964 204.131 28.5321 204.287 28.246L208.662 20.6104C208.831 20.3243 209.169 20.1942 209.48 20.2982L218.167 23.0039C219.31 21.6771 220.556 20.4153 221.907 19.2446L219.193 10.5164C219.102 10.1912 219.232 9.85301 219.518 9.68391L227.101 5.27428C227.386 5.10518 227.75 5.15721 227.971 5.40436L234.151 12.1294C235.826 11.531 237.553 11.0757 239.254 10.7375L241.241 1.81422C241.319 1.48902 241.605 1.25488 241.929 1.25488H250.694C251.018 1.25488 251.304 1.48902 251.382 1.80121L253.395 10.7375C255.122 11.0627 256.836 11.531 258.498 12.1034L264.665 5.36533C264.886 5.11819 265.25 5.06616 265.535 5.23526L273.131 9.63188C273.417 9.78797 273.547 10.1392 273.456 10.4514L270.755 19.1796C272.08 20.3243 273.326 21.586 274.495 22.9388L283.182 20.2202C283.506 20.1161 283.844 20.2462 284.013 20.5324L288.401 28.1549C288.557 28.4411 288.505 28.8053 288.272 29.0264L281.584 35.2442C282.169 36.9352 282.636 38.6652 282.961 40.3822L291.842 42.3854C292.167 42.4505 292.388 42.7366 292.388 43.0748L292.401 51.8811C292.401 52.2063 292.167 52.4924 291.855 52.5705L282.961 54.5997C282.636 56.3297 282.182 58.0468 281.61 59.7248L288.311 65.9164C288.544 66.1506 288.609 66.5148 288.44 66.801L284.065 74.4235C283.896 74.7227 283.558 74.8528 283.247 74.7487L274.56 72.0431C273.417 73.3699 272.171 74.6316 270.82 75.8023L273.534 84.5436C273.625 84.8557 273.495 85.1939 273.209 85.363L265.626 89.7727C265.341 89.9418 264.99 89.8897 264.756 89.6426L258.576 82.9176C256.901 83.5159 255.174 83.9842 253.473 84.3094L251.473 93.2327C251.408 93.5579 251.122 93.7791 250.798 93.7791L242.033 93.7921Z" fill="#FF9F78"/>
<path d="M310.775 264.402L310.438 276.304H304.841L302.958 263.309L310.775 264.402Z" fill="white"/>
<path d="M305.452 275.601H309.763L310.061 265.013L303.79 264.142L305.452 275.601ZM310.451 277.006H304.841C304.491 277.006 304.192 276.759 304.153 276.408L302.257 263.413C302.231 263.192 302.309 262.971 302.465 262.815C302.621 262.646 302.842 262.581 303.062 262.607L310.879 263.699C311.23 263.751 311.489 264.063 311.477 264.415L311.152 276.33C311.139 276.707 310.827 277.006 310.451 277.006Z" fill="black"/>
<path d="M281.87 286.243H310.93C312.436 286.243 313.605 284.903 313.384 283.394C312.878 279.973 311.995 274.432 311.242 272.181C310.099 268.799 306.425 274.184 306.425 274.184L304.269 272.363C304.269 272.363 285.117 277.996 280.715 283.927C280.014 284.89 280.676 286.243 281.87 286.243Z" fill="black"/>
<path d="M310.776 284.733H283.625C283.235 284.733 282.924 284.408 282.924 284.017C282.924 283.627 283.235 283.315 283.625 283.315H310.776C311.166 283.315 311.477 283.627 311.477 284.017C311.477 284.408 311.166 284.733 310.776 284.733Z" fill="white"/>
<path d="M352.301 251.745L362.949 265.3L368.597 261.059L359.469 246.1L352.301 251.745Z" fill="white"/>
<path d="M353.301 251.863L363.078 264.324L367.662 260.877L359.287 247.141L353.301 251.863ZM362.961 266.015C362.753 266.015 362.546 265.911 362.403 265.742L351.755 252.175C351.639 252.032 351.587 251.85 351.6 251.655C351.626 251.473 351.716 251.303 351.872 251.186L359.04 245.541C359.196 245.411 359.403 245.359 359.598 245.398C359.793 245.437 359.975 245.554 360.079 245.723L369.194 260.682C369.389 260.994 369.311 261.397 369.012 261.619L363.377 265.872C363.247 265.963 363.104 266.015 362.961 266.015Z" fill="black"/>
<path d="M351.704 285.111C356.573 282.822 369.142 276.396 376.232 268.019C376.881 267.264 376.894 266.159 376.297 265.365C374.791 263.349 371.726 259.603 368.597 257.86C368.597 257.86 362.235 260.084 363.935 263.102L361.611 262.725C361.611 262.725 351.366 274.302 349.86 283.719C349.691 284.76 350.756 285.553 351.704 285.111Z" fill="black"/>
<path d="M351.936 283.38C351.689 283.38 351.443 283.25 351.313 283.016C351.131 282.678 351.248 282.235 351.586 282.053C351.741 281.962 366.518 273.65 374.283 265.351C374.556 265.065 374.997 265.052 375.283 265.312C375.568 265.585 375.581 266.028 375.309 266.314C367.401 274.782 352.43 283.211 352.274 283.289C352.17 283.354 352.053 283.38 351.936 283.38Z" fill="white"/>
<path d="M285.273 163.892C285.273 163.892 290.493 199.364 293.48 218.017C296.466 236.683 302.881 266.731 302.881 266.731H312.087C312.087 266.731 315.125 246.322 315.852 235.005C316.593 223.689 312.866 220.502 312.139 211.396C311.399 202.291 316.008 172.854 316.008 172.854L302.348 159.443L285.273 163.892Z" fill="#5479F7"/>
<path d="M308.424 171.735C308.424 171.735 324.772 219.018 353.222 255.622L362.869 247.961C362.869 247.961 355.208 223.025 353.299 219.812C351.404 216.612 346.327 208.313 344.807 203.955C339.86 189.816 334.627 162.838 334.627 162.838L308.424 171.735Z" fill="#5479F7"/>
<path d="M287.869 101.246C286.389 99.7635 286.701 98.827 286.973 98.7619C287.22 98.6969 288.726 97.9555 289.194 97.5392C290.311 96.5506 290.674 95.1328 289.999 94.3653C289.635 93.9491 289.051 93.819 288.428 93.9231C288.597 91.8678 287.999 90.8792 287.519 89.4614C285.818 84.5965 281.585 85.6111 280.053 87.3672C278.728 88.8891 278.819 90.2028 275.923 91.6727C275.651 91.8158 275.651 92.2321 275.807 92.5052L276.56 94.0531C276.729 94.3653 276.664 95.1068 276.56 95.445C276.222 96.4856 275.443 98.6709 275.664 99.0871C276.092 99.9066 279.494 101.142 279.494 101.142L285.506 110.274C285.259 112.199 284.169 113.279 283.351 113.825C282.844 114.163 282.844 114.918 283.364 115.243C284.338 115.854 286.285 116.804 290.233 118.209C295.439 120.056 301.088 113.188 301.088 113.188C301.088 113.188 299.504 112.953 287.869 101.246Z" fill="white"/>
<path d="M301.193 112.485C301.193 112.485 301.193 112.485 301.206 112.485C301.193 112.485 301.193 112.485 301.193 112.485ZM276.327 98.8137C276.665 99.1649 278.197 99.9193 279.729 100.479C279.872 100.518 280.002 100.622 280.08 100.752L286.105 109.883C286.196 110.026 286.235 110.195 286.209 110.365C285.936 112.524 284.715 113.76 283.742 114.41C283.69 114.462 283.677 114.514 283.677 114.54C283.677 114.605 283.716 114.631 283.729 114.644C284.573 115.164 286.429 116.101 290.468 117.532C294.272 118.885 298.492 114.943 299.985 113.356C298.518 112.355 295.142 109.558 287.377 101.74C285.897 100.258 285.988 99.2039 286.092 98.8267C286.209 98.4365 286.468 98.1503 286.806 98.0722C287.053 97.9942 288.377 97.3178 288.728 97.0056C289.611 96.2251 289.818 95.2365 289.468 94.8333C289.286 94.6252 288.948 94.5471 288.546 94.6252C288.325 94.6642 288.104 94.5862 287.949 94.4431C287.78 94.3 287.702 94.0789 287.715 93.8577C287.845 92.3488 287.533 91.5163 287.131 90.4627C287.04 90.2156 286.949 89.9684 286.845 89.6952C286.248 87.9782 285.261 86.9376 283.975 86.6774C282.638 86.4173 281.261 87.0547 280.586 87.8221C280.21 88.2514 279.963 88.6676 279.703 89.0969C279.093 90.0985 278.457 91.1261 276.444 92.2057L277.197 93.7407C277.496 94.287 277.353 95.2886 277.236 95.6658C277.184 95.8349 277.119 96.017 277.054 96.2251C276.834 96.8625 276.353 98.3324 276.327 98.8137ZM292.104 119.236C291.402 119.236 290.701 119.119 290 118.872C286.663 117.688 284.3 116.66 282.988 115.841C282.547 115.568 282.274 115.086 282.274 114.566C282.261 114.033 282.521 113.538 282.962 113.239C283.651 112.771 284.508 111.912 284.78 110.43L279.028 101.727C277.833 101.285 275.509 100.323 275.042 99.425C274.756 98.8917 274.964 98.0462 275.717 95.7699C275.782 95.5747 275.834 95.3926 275.886 95.2365C275.964 94.9894 275.99 94.5081 275.938 94.378L275.172 92.8171C274.99 92.5049 274.938 92.0757 275.055 91.7114C275.146 91.4123 275.34 91.1781 275.613 91.035C277.431 90.1115 277.924 89.305 278.496 88.3554C278.781 87.8872 279.08 87.4189 279.534 86.8856C280.443 85.858 282.313 84.9084 284.248 85.2856C285.507 85.5328 287.208 86.4173 288.182 89.24C288.273 89.4871 288.364 89.7213 288.455 89.9554C288.793 90.8659 289.156 91.8025 289.156 93.1943C289.714 93.2594 290.195 93.5065 290.533 93.8968C291.467 94.9764 291.091 96.8105 289.65 98.0722C289.221 98.4625 288.065 99.0738 287.455 99.321C287.494 99.5681 287.689 100.062 288.364 100.739C298.882 111.314 301.102 112.42 301.284 112.498C301.505 112.563 301.673 112.719 301.751 112.927C301.842 113.161 301.803 113.434 301.634 113.63C301.427 113.89 296.973 119.223 292.104 119.236Z" fill="black"/>
<path d="M281.754 88.719C281.754 88.719 276.43 84.4524 277.91 81.0314C278.04 80.7322 278.443 79.7827 279.365 79.3664C281.247 78.5209 283.676 80.5761 284.221 81.0314C288.947 84.9858 292.09 85.376 294.089 87.4442C294.816 88.1987 295.635 89.5905 295.531 92.3742C295.154 94.3514 294.336 95.392 293.661 95.9903C292.284 97.2001 291.09 96.8488 290.116 98.1236C289.025 99.5545 289.7 101.063 288.947 101.519C288.35 101.857 287.052 101.48 284.013 98.4488C285.831 96.4066 286.727 94.3904 286.091 93.3758C285.909 93.0896 285.39 92.6083 284.857 92.6083C284.143 92.6083 283.663 93.3758 283.663 93.3758L281.754 88.719Z" fill="black"/>
<path d="M223.946 103.704L217.311 99.7369C216.688 99.3597 216.194 98.8263 215.857 98.189L214.208 94.989C213.961 94.5208 214.532 94.0525 214.935 94.3907L218.635 97.3955C219.142 97.8247 219.752 98.1239 220.414 98.267L225.738 99.5938L226.959 97.0963C227.322 96.3549 228.075 95.9126 228.893 95.9516L227.504 101.974L229.14 107.633L225.024 108.959L223.946 103.704Z" fill="white"/>
<path d="M215.313 95.6008L216.481 97.8642C216.754 98.3845 217.17 98.8267 217.676 99.1259L224.311 103.093C224.48 103.184 224.597 103.366 224.636 103.562L225.558 108.036L228.272 107.165L226.83 102.17C226.804 102.066 226.791 101.936 226.83 101.819L227.934 96.9666C227.791 97.0837 227.674 97.2398 227.583 97.4089L226.376 99.9064C226.22 100.206 225.895 100.362 225.571 100.284L220.247 98.9568C219.494 98.7877 218.793 98.4365 218.182 97.9422L215.313 95.6008ZM225.025 109.662C224.896 109.662 224.779 109.636 224.662 109.571C224.493 109.467 224.376 109.298 224.324 109.103L223.311 104.147L216.949 100.349C216.222 99.9064 215.624 99.269 215.235 98.5146L213.573 95.3147C213.313 94.8073 213.443 94.196 213.872 93.8318C214.326 93.4806 214.936 93.4806 215.391 93.8318L219.078 96.8496C219.507 97.2008 220.026 97.4609 220.572 97.578L225.35 98.7617L226.324 96.7845C226.804 95.7959 227.843 95.1846 228.921 95.2366C229.142 95.2496 229.323 95.3537 229.453 95.5228C229.583 95.6919 229.622 95.9 229.583 96.1081L228.233 101.962L229.817 107.438C229.921 107.802 229.713 108.192 229.349 108.309L225.233 109.636C225.168 109.662 225.09 109.662 225.025 109.662Z" fill="black"/>
<path d="M305.84 42.2421C305.84 42.2421 303.905 39.9137 301.802 40.1219C299.698 40.33 297.945 40.2259 297.945 40.2259C297.945 40.2259 298.062 38.5089 299.218 38.5739C300.374 38.639 300.374 38.639 300.374 38.639L301.49 38.2227L297.088 29.2344L299.984 29.7287C300.568 29.8327 301.088 30.1449 301.451 30.6132L308.749 40.1479L305.84 42.2421Z" fill="white"/>
<path d="M302.064 39.4069C303.739 39.4069 305.219 40.6036 305.933 41.306L307.751 39.9922L300.895 31.0559C300.636 30.7177 300.272 30.4966 299.87 30.4315L298.337 30.1714L302.129 37.911C302.22 38.0931 302.22 38.3012 302.155 38.4833C302.077 38.6785 301.921 38.8215 301.739 38.8866L300.61 39.3028C300.519 39.3419 300.428 39.3549 300.324 39.3419L299.168 39.2768C299.038 39.2768 298.922 39.3939 298.844 39.537C299.545 39.55 300.584 39.537 301.739 39.4199C301.843 39.4069 301.96 39.4069 302.064 39.4069ZM305.842 42.945C305.648 42.945 305.44 42.867 305.31 42.6979C304.83 42.1255 303.271 40.6817 301.869 40.8247C299.74 41.0459 297.974 40.9288 297.909 40.9288C297.714 40.9158 297.545 40.8378 297.415 40.6947C297.299 40.5516 297.234 40.3695 297.247 40.1744C297.325 39.0167 297.974 37.7939 299.246 37.872L300.259 37.924L300.519 37.833L296.455 29.547C296.338 29.3129 296.364 29.0267 296.532 28.8186C296.688 28.5975 296.948 28.4934 297.208 28.5454L300.103 29.0397C300.856 29.1568 301.532 29.573 302.012 30.1844L309.309 39.7191C309.426 39.8622 309.478 40.0573 309.452 40.2524C309.426 40.4345 309.322 40.6036 309.167 40.7207L306.258 42.8149C306.141 42.906 305.985 42.945 305.842 42.945Z" fill="black"/>
<path d="M274.016 136.497L278.106 167.676C278.106 167.676 288.779 169.328 299.66 168.418C299.66 168.418 285.858 135.573 274.016 136.497Z" fill="white"/>
<path d="M278.743 167.053C280.924 167.352 289.637 168.419 298.622 167.781C296.363 162.669 284.781 137.681 274.821 137.2L278.743 167.053ZM292.779 169.394C284.716 169.394 278.081 168.38 278.003 168.38C277.691 168.328 277.457 168.08 277.405 167.768L273.315 136.589C273.289 136.394 273.354 136.198 273.471 136.055C273.588 135.899 273.77 135.808 273.964 135.795C286.17 134.846 299.739 166.78 300.31 168.145C300.401 168.354 300.388 168.588 300.272 168.783C300.155 168.978 299.947 169.108 299.726 169.121C297.376 169.316 295.026 169.394 292.779 169.394Z" fill="black"/>
<path d="M229.478 103.535C227.192 105.148 224.907 106.774 222.635 108.4C231.231 128.432 241.437 135.352 249.046 138.018C262.147 142.61 270.263 135.586 279.638 142.142C290.194 149.53 284.221 161.51 296.102 173.113C306.75 183.519 321.293 183.389 324.214 183.35C327.188 183.324 344.081 183.168 348.716 173.113C350.339 169.575 349.872 166.076 349.534 163.553C348.911 158.883 346.73 155.436 338.679 145.368C332.797 138.018 331.992 137.446 330.187 135.053C326.292 129.849 321.838 121.537 320.241 108.191C322.89 103.157 328.162 91.4635 327.071 76.0753C325.591 55.0418 313.268 41.6438 309.697 38.0146C307.788 39.4195 305.88 40.8373 303.971 42.2422C306.1 45.8843 312.216 57.3962 310.359 72.7714C308.555 87.7303 300.309 97.1089 297.686 100.01C294.09 103.977 280.17 118.064 259.213 116.829C243.242 115.892 232.698 106.618 229.478 103.535Z" fill="black"/>
<path d="M275.469 114.618C275.469 114.618 273.924 111.405 275.469 110.767C277.014 110.13 294.206 101.48 296.985 97.6685C299.75 93.8572 312.735 95.3791 315.423 97.6685C318.111 99.9579 314.358 109.401 308.359 113.161C302.373 116.92 289.635 109.935 275.469 114.618Z" fill="white"/>
<path d="M304.841 96.0562C303.932 96.0562 303.049 96.0952 302.205 96.1993C299.881 96.4855 298.232 97.1489 297.544 98.0854C294.544 102.222 276.665 111.041 275.743 111.418C275.652 111.457 275.587 111.509 275.548 111.627C275.366 112.082 275.587 113.005 275.859 113.747C283.507 111.392 290.727 112.303 296.57 113.031C301.543 113.656 305.478 114.137 307.984 112.563C312.204 109.909 315.32 104.238 315.58 100.609C315.671 99.4773 315.45 98.6187 314.969 98.2025C313.645 97.0838 309.1 96.0562 304.841 96.0562ZM275.47 115.321C275.197 115.321 274.951 115.178 274.834 114.93C274.717 114.683 273.704 112.511 274.223 111.119C274.405 110.651 274.743 110.3 275.197 110.118C276.677 109.506 293.778 100.882 296.414 97.2529C297.349 95.9522 299.245 95.1327 302.037 94.7945C306.945 94.2091 313.814 95.3668 315.878 97.1229C316.722 97.8513 317.112 99.087 316.995 100.713C316.709 104.68 313.476 110.794 308.737 113.76C305.802 115.607 301.647 115.087 296.388 114.436C290.545 113.708 283.248 112.784 275.691 115.295C275.613 115.308 275.535 115.321 275.47 115.321Z" fill="black"/>
<path d="M208.767 368.087H140.714C140.325 368.087 140.013 367.775 140.013 367.371C140.013 366.981 140.325 366.669 140.714 366.669H208.066V320.075C208.066 319.685 208.378 319.373 208.767 319.373H265.108V285.345C265.108 284.954 265.42 284.642 265.809 284.642H376.724C377.114 284.642 377.426 284.954 377.426 285.345C377.426 285.735 377.114 286.06 376.724 286.06H266.51V320.075C266.51 320.465 266.199 320.791 265.809 320.791H209.468V367.371C209.468 367.775 209.157 368.087 208.767 368.087Z" fill="black"/>
<path d="M189.393 74.0603C186.536 74.0603 184.199 71.7189 184.199 68.8572C184.199 65.9825 186.536 63.6411 189.393 63.6411C189.783 63.6411 190.094 63.9663 190.094 64.3565C190.094 64.7468 189.783 65.059 189.393 65.059C187.316 65.059 185.615 66.763 185.615 68.8572C185.615 70.9385 187.316 72.6425 189.393 72.6425C191.484 72.6425 193.172 70.9385 193.172 68.8572C193.172 68.467 193.483 68.1418 193.873 68.1418C194.275 68.1418 194.587 68.467 194.587 68.8572C194.587 71.7189 192.25 74.0603 189.393 74.0603Z" fill="black"/>
<path d="M63.5588 351.684C63.4159 351.684 63.2731 351.645 63.1562 351.554C40.0435 335.099 20.5404 313.311 6.77664 288.544C6.58186 288.206 6.71171 287.777 7.04932 287.581C7.38692 287.386 7.81541 287.516 8.01018 287.855C21.6701 312.439 41.0173 334.071 63.9613 350.396C64.2859 350.63 64.3638 351.072 64.1301 351.385C64.0003 351.58 63.7795 351.684 63.5588 351.684Z" fill="black"/>
<path d="M40.2245 352.568C40.0687 352.568 39.9129 352.516 39.783 352.412C30.8885 345.037 22.6172 336.803 15.203 327.945C14.9563 327.646 14.9952 327.203 15.2939 326.956C15.5925 326.696 16.034 326.735 16.2937 327.034C23.643 335.828 31.8494 343.996 40.679 351.32C40.9776 351.567 41.0166 352.022 40.7699 352.321C40.627 352.49 40.4323 352.568 40.2245 352.568Z" fill="black"/>
<path d="M64.8571 34.3604L35.4727 63.4327L64.8571 34.3604Z" fill="white"/>
<path d="M35.4743 64.1473C35.2925 64.1473 35.1107 64.0822 34.9809 63.9391C34.7082 63.653 34.7082 63.2107 34.9809 62.9375L64.3653 33.8522C64.638 33.579 65.0924 33.579 65.3651 33.8652C65.6378 34.1384 65.6378 34.5936 65.3521 34.8668L35.9677 63.9391C35.8379 64.0822 35.6561 64.1473 35.4743 64.1473Z" fill="black"/>
<path d="M64.664 18.3862L49.1992 33.6964L64.664 18.3862Z" fill="white"/>
<path d="M49.1976 34.3995C49.0158 34.3995 48.834 34.3344 48.6912 34.1914C48.4185 33.9182 48.4185 33.4629 48.7042 33.1898L64.169 17.8796C64.4416 17.6065 64.8961 17.6195 65.1688 17.8926C65.4415 18.1658 65.4285 18.6211 65.1558 18.8942L49.691 34.2044C49.5482 34.3344 49.3794 34.3995 49.1976 34.3995Z" fill="black"/>
<path d="M339.757 330.898C339.588 330.898 339.407 330.833 339.277 330.689C338.991 330.429 338.978 329.974 339.251 329.688L341.471 327.359C341.744 327.086 342.185 327.073 342.471 327.346C342.744 327.607 342.757 328.062 342.484 328.348L340.277 330.676C340.134 330.82 339.952 330.898 339.757 330.898Z" fill="black"/>
<path d="M331.993 339.054C331.824 339.054 331.643 338.989 331.513 338.846C331.227 338.586 331.214 338.13 331.487 337.844L333.707 335.516C333.98 335.243 334.421 335.23 334.707 335.503C334.98 335.763 334.993 336.218 334.72 336.504L332.499 338.833C332.37 338.976 332.175 339.054 331.993 339.054Z" fill="black"/>
<path d="M334.173 331.016C333.991 331.016 333.822 330.951 333.68 330.808L331.433 328.583C331.148 328.31 331.148 327.855 331.42 327.582C331.693 327.308 332.134 327.295 332.42 327.569L334.666 329.806C334.952 330.079 334.952 330.534 334.679 330.808C334.537 330.951 334.355 331.016 334.173 331.016Z" fill="black"/>
<path d="M342.056 338.82C341.874 338.82 341.693 338.755 341.563 338.624L339.316 336.387C339.031 336.114 339.031 335.672 339.303 335.386C339.576 335.112 340.018 335.099 340.303 335.386L342.55 337.61C342.822 337.883 342.835 338.338 342.563 338.611C342.42 338.755 342.238 338.82 342.056 338.82Z" fill="black"/>
<path d="M358.012 306.911C356.181 307.743 355.35 309.941 356.155 311.828C356.545 312.751 357.272 313.454 358.181 313.805C359.064 314.156 360.038 314.13 360.908 313.74C362.739 312.907 363.57 310.709 362.765 308.823C362.362 307.899 361.648 307.197 360.739 306.846C359.843 306.494 358.882 306.52 358.012 306.911ZM359.467 315.47C358.856 315.47 358.246 315.353 357.675 315.132C356.402 314.637 355.402 313.662 354.857 312.387C353.753 309.798 354.909 306.768 357.428 305.623C358.648 305.077 359.999 305.037 361.245 305.519C362.518 306.013 363.505 306.989 364.063 308.263C365.167 310.852 364.011 313.883 361.479 315.027C360.843 315.327 360.155 315.47 359.467 315.47Z" fill="black"/>
<path d="M308.218 13.248C308.036 13.248 307.855 13.1829 307.725 13.0398L305.673 10.9846C305.401 10.6984 305.401 10.2562 305.673 9.97001C305.946 9.69685 306.4 9.69685 306.673 9.97001L308.712 12.0382C308.997 12.3114 308.997 12.7667 308.712 13.0398C308.582 13.1829 308.4 13.248 308.218 13.248Z" fill="black"/>
<path d="M315.386 20.4547C315.204 20.4547 315.022 20.3896 314.892 20.2465L312.841 18.1913C312.568 17.9051 312.568 17.4629 312.841 17.1897C313.113 16.9036 313.568 16.9036 313.841 17.1897L315.879 19.245C316.165 19.5181 316.165 19.9734 315.879 20.2465C315.749 20.3896 315.568 20.4547 315.386 20.4547Z" fill="black"/>
<path d="M306.167 20.4547C305.998 20.4547 305.816 20.3896 305.673 20.2465C305.401 19.9734 305.401 19.5181 305.673 19.245L307.725 17.1897C307.998 16.9036 308.439 16.9036 308.725 17.1897C308.997 17.4629 308.997 17.9051 308.725 18.1913L306.673 20.2465C306.53 20.3896 306.348 20.4547 306.167 20.4547Z" fill="black"/>
<path d="M313.334 13.248C313.152 13.248 312.984 13.1829 312.841 13.0398C312.568 12.7667 312.568 12.3114 312.841 12.0382L314.892 9.97001C315.165 9.69685 315.606 9.69685 315.879 9.97001C316.152 10.2562 316.152 10.6984 315.879 10.9846L313.841 13.0398C313.698 13.1829 313.516 13.248 313.334 13.248Z" fill="black"/>
<path d="M363.285 70.9769C362.96 70.9769 362.636 71.042 362.337 71.185C361.13 71.7184 360.584 73.1752 361.117 74.411C361.376 75.0223 361.844 75.4776 362.441 75.7117C363.025 75.9459 363.662 75.9329 364.233 75.6727C365.44 75.1264 365.986 73.6695 365.453 72.4338C365.194 71.8224 364.726 71.3672 364.129 71.133C363.856 71.029 363.571 70.9769 363.285 70.9769ZM363.285 77.2857C362.831 77.2857 362.376 77.2076 361.935 77.0385C360.987 76.6613 360.234 75.9329 359.818 74.9703C358.987 73.0321 359.857 70.7428 361.753 69.8843C362.675 69.468 363.7 69.442 364.635 69.8062C365.583 70.1834 366.336 70.9119 366.752 71.8745C367.583 73.8126 366.713 76.102 364.817 76.9605C364.324 77.1816 363.804 77.2857 363.285 77.2857Z" fill="black"/>
<path d="M89.4629 356.601L91.5924 371.664H96.2149L96.4746 356.848L89.4629 356.601Z" fill="white"/>
<path d="M92.2042 370.949H95.5283L95.762 357.525L90.2695 357.33L92.2042 370.949ZM96.2165 372.367H91.5939C91.2433 372.367 90.9447 372.106 90.8928 371.768L88.7633 356.692C88.7373 356.484 88.7892 356.276 88.9321 356.12C89.0749 355.964 89.2827 355.886 89.4774 355.886L96.5022 356.133C96.8787 356.146 97.1903 356.471 97.1774 356.861L96.9177 371.677C96.9177 372.067 96.606 372.367 96.2165 372.367Z" fill="black"/>
<path d="M91.4122 386.064C93.6196 386.311 97.2423 386.468 101.462 385.739C102.839 385.492 103.722 384.113 103.332 382.747C102.28 378.975 99.995 371.808 97.1254 368.543L96.5022 370.39L95.5023 368.712C95.3595 368.478 95.1258 368.322 94.8531 368.296L92.7755 368.114C92.3471 368.062 91.9445 368.374 91.8666 368.803L91.5939 370.39L90.8019 368.348L89.3216 383.476C89.1918 384.777 90.1267 385.934 91.4122 386.064Z" fill="white"/>
<path d="M91.4887 385.361C93.7221 385.608 97.241 385.738 101.344 385.036C101.812 384.958 102.214 384.685 102.461 384.281C102.721 383.878 102.785 383.397 102.656 382.941C101.682 379.455 99.773 373.446 97.3708 370.012L97.1631 370.61C97.0851 370.87 96.8514 371.065 96.5787 371.091C96.3061 371.117 96.0334 370.987 95.9035 370.753L94.8907 369.075C94.8777 369.036 94.8388 369.01 94.7869 369.01L92.7093 368.815C92.6444 368.802 92.5795 368.854 92.5665 368.919L92.2808 370.506C92.2289 370.818 91.9822 371.065 91.6575 371.091C91.5147 371.104 91.3719 371.078 91.255 371L90.0215 383.553C89.9306 384.45 90.5928 385.27 91.4887 385.361ZM95.1894 386.974C93.6702 386.974 92.3717 386.883 91.3329 386.779C89.6709 386.597 88.4503 385.088 88.6191 383.41L90.0994 368.269C90.1383 367.944 90.385 367.683 90.7097 367.644C91.0083 367.592 91.3199 367.761 91.4368 368.048C91.7484 367.605 92.2808 367.345 92.8391 367.397L94.9297 367.592C95.4101 367.644 95.8516 367.918 96.0983 368.347L96.319 368.711L96.4619 368.321C96.5398 368.074 96.7475 367.905 96.9943 367.852C97.241 367.8 97.4877 367.892 97.6565 368.074C100.591 371.417 102.902 378.584 104.019 382.564C104.253 383.397 104.123 384.294 103.655 385.036C103.188 385.777 102.435 386.284 101.578 386.428C99.2276 386.831 97.0462 386.974 95.1894 386.974Z" fill="black"/>
<path d="M96.6588 384.398C93.4646 384.398 90.9975 383.8 90.8417 383.761C90.4651 383.67 90.2314 383.28 90.3353 382.903C90.4262 382.525 90.8027 382.291 91.1923 382.382C91.2442 382.395 96.6199 383.722 101.645 382.382C102.022 382.291 102.411 382.512 102.502 382.89C102.606 383.267 102.385 383.657 102.009 383.761C100.165 384.242 98.3209 384.398 96.6588 384.398Z" fill="black"/>
<path d="M98.528 378.519H93.5679C93.1783 378.519 92.8667 378.194 92.8667 377.803C92.8667 377.413 93.1783 377.101 93.5679 377.101H98.528C98.9176 377.101 99.2292 377.413 99.2292 377.803C99.2292 378.194 98.9176 378.519 98.528 378.519Z" fill="black"/>
<path d="M50.2359 357.941L48.3142 375.501L40.9648 377.049L41.4193 356.458L50.2359 357.941Z" fill="white"/>
<path d="M42.1075 357.291L41.692 376.178L47.6779 374.916L49.4698 358.527L42.1075 357.291ZM40.9648 377.765C40.809 377.765 40.6402 377.7 40.5234 377.596C40.3546 377.453 40.2637 377.245 40.2637 377.037L40.7052 356.445C40.7181 356.237 40.809 356.042 40.9648 355.912C41.1207 355.782 41.3284 355.73 41.5362 355.756L50.3528 357.239C50.7293 357.304 50.9761 357.642 50.9371 358.019L49.0154 375.58C48.9894 375.879 48.7557 376.139 48.457 376.191L41.1077 377.739C41.0687 377.752 41.0168 377.765 40.9648 377.765Z" fill="black"/>
<path d="M51.4195 384.711C51.4195 384.711 52.3674 376.256 49.7315 372.406L43.8494 374.5V373.238C43.8494 372.835 43.5637 372.497 43.1872 372.484L39.915 372.288C38.6945 372.223 37.4739 372.471 36.3572 373.03C32.4229 374.968 23.3855 379.976 23.6712 384.763C23.6712 384.763 30.7868 386.545 51.4195 384.711Z" fill="white"/>
<path d="M51.4182 384.711H51.4312H51.4182ZM24.3841 384.191C26.3837 384.529 34.0447 385.505 50.769 384.061C50.9118 382.214 51.1975 376.425 49.4316 373.264L44.0819 375.176C43.8741 375.254 43.6274 375.215 43.4456 375.085C43.2508 374.955 43.147 374.734 43.147 374.5V373.238C43.147 373.199 43.134 373.186 43.121 373.173L39.8748 373.004C38.7841 372.939 37.6674 373.16 36.6676 373.668C29.2403 377.336 24.7346 381.212 24.3841 384.191ZM34.7459 386.259C26.8382 386.259 23.6959 385.505 23.5011 385.453C23.2024 385.374 22.9817 385.114 22.9687 384.815C22.6701 379.781 31.0322 374.864 36.0443 372.393C37.2649 371.781 38.6153 371.508 39.9527 371.586L43.2379 371.768C43.978 371.82 44.5493 372.458 44.5493 373.238V373.498L49.4965 371.729C49.7951 371.625 50.1327 371.742 50.3145 372.003C53.0543 376.035 52.1584 384.438 52.1194 384.789C52.0804 385.127 51.8207 385.387 51.4831 385.414C44.4065 386.038 38.9139 386.259 34.7459 386.259Z" fill="black"/>
<path d="M41.4071 383.644C32.6165 383.644 25.8904 382.304 25.7995 382.291C25.4229 382.213 25.1762 381.836 25.2541 381.446C25.332 381.069 25.6956 380.822 26.0851 380.9C26.189 380.926 37.6415 383.202 50.0809 381.745C50.4704 381.706 50.821 381.979 50.873 382.37C50.9119 382.76 50.6392 383.111 50.2497 383.163C47.1983 383.514 44.1988 383.644 41.4071 383.644Z" fill="black"/>
<path d="M34.4221 379.196C34.2013 379.196 33.9806 379.092 33.8507 378.896C33.617 378.571 33.6949 378.129 34.0066 377.908L39.6679 373.81C39.9795 373.589 40.421 373.654 40.6547 373.979C40.8755 374.292 40.8105 374.734 40.4859 374.968L34.8246 379.052C34.7077 379.144 34.5649 379.196 34.4221 379.196Z" fill="black"/>
<path d="M47.9525 243.98C47.9525 243.98 37.4089 311.347 39.6553 359.84L51.3675 360.139C51.3675 360.139 63.9497 291.77 70.2213 279.53C70.2213 279.53 87.2572 341.876 87.9195 359.619C87.9195 359.619 95.5025 360.386 98.528 359.294C100.151 342.162 100.644 327.594 100.722 316.472C100.956 284.616 97.9177 270.152 96.2686 263.296C94.7364 256.988 93.1004 251.863 91.9058 248.403L87.9195 236.969L47.9525 243.98Z" fill="#FF9F78"/>
<path d="M40.3299 359.15L50.7955 359.424C52.12 352.23 63.5855 290.925 69.5974 279.205C69.7272 278.945 69.9999 278.802 70.2986 278.828C70.5842 278.854 70.818 279.062 70.8959 279.348C71.5841 281.858 87.5942 340.601 88.594 358.968C90.321 359.111 95.3331 359.437 97.8651 358.76C99.1896 344.66 99.9167 330.442 100.021 316.472C100.228 286.307 97.5924 271.764 95.5798 263.452C94.3722 258.457 92.905 253.475 91.2429 248.637L87.4514 237.762L48.5622 244.591C47.6143 250.835 38.3302 313.532 40.3299 359.15ZM51.3669 360.854C51.3669 360.854 51.3669 360.854 51.3539 360.854L39.6287 360.542C39.2651 360.542 38.9665 360.243 38.9405 359.866C36.7201 311.867 47.1468 244.552 47.2507 243.876C47.3027 243.577 47.5364 243.329 47.822 243.277L87.802 236.266C88.1396 236.214 88.4642 236.409 88.581 236.734L92.5803 248.168C94.2554 253.046 95.7226 258.08 96.9432 263.127C98.9818 271.504 101.644 286.151 101.423 316.472C101.319 330.65 100.579 345.076 99.2285 359.359C99.2025 359.632 99.0208 359.866 98.7611 359.957C95.6317 361.089 88.1655 360.36 87.8539 360.321C87.5033 360.295 87.2306 359.996 87.2176 359.645C86.6333 343.918 72.9085 292.2 70.0519 281.624C63.6764 297.338 52.1849 359.619 52.068 360.269C52.0031 360.607 51.7175 360.854 51.3669 360.854Z" fill="black"/>
<path d="M69.5961 278.827C69.2844 278.827 68.9988 278.619 68.9209 278.294L67.2199 271.712L63.1686 270.867C62.7921 270.789 62.5454 270.411 62.6233 270.034C62.7012 269.644 63.0647 269.397 63.4543 269.475L67.934 270.411C68.1937 270.463 68.4015 270.659 68.4794 270.919L70.2842 277.943C70.3751 278.32 70.1544 278.71 69.7778 278.801C69.7129 278.827 69.661 278.827 69.5961 278.827Z" fill="black"/>
<path d="M48.9768 184.235C55.8327 183.455 70.3496 182.063 80.5686 182.921C83.6979 183.181 86.6844 184.417 89.0865 186.459C96.345 192.612 112.056 208.039 112.251 226.289L96.1632 223.948C96.1632 223.948 101.851 244.409 101.461 247.7C101.071 250.991 91.1122 256.584 78.6468 251.992C66.1815 247.401 48.2496 247.973 42.4455 251.992L41.8871 226.744H17.3979C17.3979 226.744 25.5004 200.261 41.2119 187.474C43.4323 185.666 46.1331 184.547 48.9768 184.235Z" fill="black"/>
<path d="M17.3998 226.745C17.3998 226.745 15.4911 235.551 24.2038 238.192C32.9036 240.845 41.1748 224.911 41.1748 224.911L35.111 221.373L17.3998 226.745Z" fill="white"/>
<path d="M18.0224 227.304C17.7757 228.982 17.3601 235.382 24.3979 237.515C31.5394 239.687 38.6421 227.98 40.2262 225.171L35.0194 222.14L18.0224 227.304ZM26.2027 239.206C25.4756 239.206 24.7355 239.102 23.9953 238.881C14.7632 236.071 16.6979 226.693 16.7109 226.589C16.7628 226.341 16.9576 226.146 17.2043 226.068L34.9155 220.696C35.0973 220.631 35.305 220.657 35.4738 220.761L41.5377 224.286C41.8623 224.481 41.9792 224.898 41.7974 225.236C41.4857 225.847 34.448 239.206 26.2027 239.206Z" fill="black"/>
<path d="M73.8952 246.816H31.0846C30.0069 246.816 29.059 246.075 28.7993 245.008L20.1515 209.991C19.7879 208.495 20.9176 207.051 22.4498 207.051H65.2474C66.3381 207.051 67.286 207.793 67.5457 208.846L76.1805 243.876C76.5571 245.372 75.4274 246.816 73.8952 246.816Z" fill="#5479F7"/>
<path d="M22.4496 207.753C21.9302 207.753 21.4628 207.987 21.1382 208.391C20.8265 208.794 20.7097 209.314 20.8395 209.822L29.4744 244.838C29.6691 245.58 30.3184 246.1 31.0845 246.1H73.8951C74.4015 246.1 74.8819 245.866 75.1935 245.463C75.5181 245.06 75.622 244.539 75.5052 244.045L66.8573 209.015C66.6756 208.274 66.0133 207.753 65.2472 207.753H22.4496ZM73.8951 247.518H31.0845C29.6691 247.518 28.4486 246.555 28.111 245.177L19.4631 210.16C19.2424 209.236 19.4502 208.274 20.0345 207.519C20.6188 206.765 21.4888 206.335 22.4496 206.335H65.2472C66.6626 206.335 67.8831 207.298 68.2337 208.677L76.8686 243.694C77.1023 244.63 76.8945 245.593 76.3102 246.334C75.7259 247.089 74.8429 247.518 73.8951 247.518Z" fill="black"/>
<path d="M23.3312 224.455L24.5907 227.968L34.8746 223.038C34.8746 223.038 40.536 227.968 26.8241 234.276C21.0979 236.904 23.3312 224.455 23.3312 224.455Z" fill="white"/>
<path d="M23.6703 227.487C23.4885 230.088 23.6443 232.885 24.6961 233.704C24.8519 233.821 25.3193 234.186 26.5269 233.626C33.3439 230.491 35.0578 227.838 35.3046 226.16C35.4474 225.106 35.0189 224.313 34.7073 223.897L24.8908 228.605C24.709 228.683 24.5013 228.696 24.3195 228.618C24.1377 228.54 23.9949 228.384 23.93 228.202L23.6703 227.487ZM25.3972 235.343C24.6961 235.343 24.1767 235.096 23.8261 234.823C21.2161 232.781 22.4886 225.184 22.6315 224.326C22.6964 224.014 22.9561 223.779 23.2677 223.753C23.5923 223.727 23.891 223.91 23.9949 224.222L24.9817 226.979L34.5774 222.388C34.8241 222.271 35.1358 222.31 35.3435 222.505C35.4084 222.557 37.0315 224.001 36.6939 226.368C36.2784 229.308 33.0582 232.182 27.1112 234.914C26.449 235.226 25.8777 235.343 25.3972 235.343Z" fill="black"/>
<path d="M83.8803 206.622C83.8803 206.622 103.124 217.483 107.084 220.891C111.057 224.299 115.368 226.888 109.772 234.341C104.175 241.795 80.3225 211.942 80.3225 211.942C80.3225 211.942 75.7389 212.709 74.1288 206.427C74.1288 206.427 66.3899 206.713 66.1172 204.267L77.0243 202.303C78.4397 202.056 79.881 202.524 80.8808 203.552L83.8803 206.622Z" fill="white"/>
<path d="M80.3086 211.239C80.5294 211.239 80.7241 211.33 80.867 211.499C86.0609 218.003 100.902 234.835 107.291 234.835C107.304 234.835 107.317 234.835 107.343 234.835C108.148 234.822 108.758 234.523 109.2 233.925C113.965 227.577 111.277 225.326 107.564 222.218C107.252 221.957 106.94 221.697 106.629 221.437C102.759 218.107 83.7236 207.35 83.5288 207.246C83.4769 207.207 83.412 207.168 83.373 207.116L80.3865 204.046C79.5425 203.174 78.335 202.784 77.1533 203.005L67.3109 204.774C68.4666 205.451 71.4401 205.815 74.1019 205.724C74.4266 205.711 74.7382 205.932 74.8161 206.257C76.2314 211.785 80.036 211.265 80.2048 211.239C80.2437 211.239 80.2697 211.239 80.3086 211.239ZM107.291 236.253C99.3312 236.253 82.2823 215.506 79.997 212.67C78.7505 212.709 75.1407 212.293 73.5955 207.155C71.1934 207.194 65.7138 206.986 65.4152 204.345C65.3762 203.981 65.6229 203.643 65.9865 203.564L76.9066 201.613C78.5427 201.314 80.2177 201.847 81.3864 203.057L84.3079 206.062C85.905 206.959 103.668 217.027 107.551 220.357C107.849 220.618 108.161 220.878 108.459 221.125C112.121 224.195 115.9 227.356 110.329 234.77C109.602 235.733 108.615 236.227 107.356 236.253C107.343 236.253 107.317 236.253 107.291 236.253Z" fill="black"/>
<path d="M56.7282 171.604C56.3776 172.203 57.0918 173.386 57.1047 173.386C57.1177 173.373 56.7542 169.939 54.8454 169.068C53.7417 168.561 53.1704 169.406 51.5213 169.172C49.7684 168.938 47.8466 167.637 47.1195 165.725C46.2495 163.423 47.509 161.237 48.3011 159.845C49.0932 158.48 50.093 156.945 51.833 156.281C54.1053 155.423 55.0532 156.75 57.6501 155.93C59.7666 155.267 59.6108 154.252 61.4936 153.706C63.0647 153.263 67.5834 153.524 68.5962 155.93C69.2325 157.465 67.8431 158.402 68.5443 160.665C68.9468 162.031 69.609 162.2 70.0765 163.253C71.2581 165.855 69.7778 170.447 66.9731 171.982C63.1556 174.063 57.5462 170.174 56.7282 171.604Z" fill="black"/>
<path d="M58.3523 173.452L57.4694 180.775C57.3006 182.167 56.3007 183.312 54.9503 183.676L51.1978 184.652L62.7541 193.497L75.7389 183.598L71.0773 182.557C69.7399 182.258 68.7141 181.179 68.4674 179.813L66.5327 169.029L58.3523 173.452Z" fill="white"/>
<path d="M52.7821 184.977L62.7544 192.599L74.103 183.962L70.9218 183.247C69.3117 182.882 68.0651 181.582 67.7795 179.943L66.0136 170.122L59.0148 173.894L58.1708 180.853C57.963 182.557 56.7684 183.923 55.1324 184.352L52.7821 184.977ZM62.7544 194.199C62.5986 194.199 62.4557 194.16 62.3259 194.056L50.7695 185.211C50.5618 185.055 50.4579 184.781 50.5098 184.508C50.5618 184.248 50.7565 184.04 51.0292 183.962L54.7688 182.986C55.8465 182.7 56.6386 181.803 56.7684 180.684L57.6644 173.361C57.6904 173.14 57.8202 172.931 58.028 172.827L66.1953 168.405C66.4031 168.301 66.6368 168.288 66.8446 168.392C67.0394 168.496 67.1822 168.678 67.2341 168.899L69.1688 179.695C69.3506 180.775 70.1687 181.621 71.2334 181.855L75.8819 182.908C76.1546 182.96 76.3624 183.181 76.4273 183.442C76.4792 183.715 76.3754 183.988 76.1546 184.157L63.1829 194.056C63.053 194.16 62.8972 194.199 62.7544 194.199Z" fill="black"/>
<path d="M65.5971 170.512C65.5971 170.512 68.4797 169.433 67.4019 167.039C66.3242 164.646 64.5583 166.415 64.5583 166.415C64.5583 166.415 62.9222 160.522 59.4943 162.851C56.0533 165.166 52.8071 166.012 52.8071 166.012C52.8071 166.012 54.0147 171.93 56.1832 175.871C57.4946 178.252 59.1567 179.904 61.1173 179.11C66.467 176.925 65.5971 170.512 65.5971 170.512Z" fill="white"/>
<path d="M53.6383 166.506C54.0149 168.119 55.1186 172.476 56.8066 175.533C58.17 178.017 59.5334 178.993 60.8448 178.46C65.6362 176.496 64.9091 170.668 64.9091 170.616C64.8571 170.291 65.0519 169.979 65.3505 169.862C65.6752 169.732 66.5581 169.263 66.8438 168.561C66.9866 168.184 66.9606 167.793 66.7529 167.338C66.5971 166.987 66.3504 166.558 66.0128 166.506C65.6362 166.428 65.1558 166.818 65.0649 166.909C64.8831 167.091 64.6234 167.169 64.3767 167.104C64.143 167.039 63.9482 166.844 63.8833 166.61C63.6495 165.79 62.7796 163.566 61.5201 163.098C61.0266 162.915 60.4943 163.033 59.884 163.436C57.2741 165.205 54.781 166.128 53.6383 166.506ZM60.1307 180.021C58.8192 180.021 57.1961 179.175 55.5731 176.222C53.3786 172.229 52.1711 166.402 52.1191 166.154C52.0412 165.79 52.262 165.426 52.6255 165.322C52.6645 165.322 55.8198 164.476 59.1049 162.265C60.3384 161.42 61.3642 161.537 62.0135 161.771C63.5457 162.343 64.4806 164.177 64.935 165.309C65.2986 165.14 65.7661 165.01 66.2725 165.114C67.0126 165.244 67.6099 165.79 68.0384 166.74C68.4019 167.559 68.4409 168.379 68.1423 169.107C67.7527 170.057 66.8957 170.655 66.3374 170.954C66.4153 172.619 66.2335 177.783 61.3772 179.774C61.0007 179.917 60.5852 180.021 60.1307 180.021Z" fill="black"/>
<path d="M137.508 341.147C137.261 341.538 127.536 355.521 127.536 355.521C127.536 355.521 127.782 359.085 130.301 359.775L141.858 347.196L137.508 341.147Z" fill="white"/>
<path d="M128.263 355.704C128.354 356.38 128.743 358.292 130.107 358.956L140.962 347.145L137.521 342.371C135.612 345.154 129.561 353.844 128.263 355.704ZM130.301 360.491C130.236 360.491 130.172 360.478 130.107 360.465C127.146 359.645 126.834 355.743 126.834 355.574C126.821 355.405 126.86 355.248 126.951 355.118C129.652 351.242 136.69 341.122 136.924 340.758C137.04 340.563 137.261 340.446 137.495 340.433C137.729 340.433 137.949 340.537 138.079 340.732L142.429 346.78C142.637 347.054 142.611 347.431 142.377 347.678L130.821 360.256C130.678 360.4 130.496 360.491 130.301 360.491Z" fill="black"/>
<path d="M122.238 357.98C122.238 357.98 123.056 369.011 127.913 374.825C132.756 380.627 140.547 378.78 140.547 378.78C140.547 378.78 141.131 373.863 140.118 372.588C139.118 371.313 133.535 364.484 133.548 358.345L130.587 354.286L128.835 356.563L128.081 352.842L122.238 357.98Z" fill="white"/>
<path d="M122.965 358.279C123.16 360.178 124.276 369.374 128.444 374.369C132.301 378.974 138.183 378.441 139.897 378.181C140.066 376.308 140.079 373.68 139.572 373.03L139.468 372.886C134.132 366.174 132.898 361.427 132.846 358.578L130.574 355.456L129.392 356.991C129.224 357.212 128.938 357.316 128.678 357.251C128.406 357.186 128.198 356.978 128.146 356.705L127.639 354.181L122.965 358.279ZM137.586 379.781C134.742 379.781 130.509 379.039 127.367 375.28C122.433 369.361 121.563 358.487 121.537 358.032C121.511 357.81 121.602 357.589 121.77 357.446L127.626 352.308C127.808 352.139 128.068 352.087 128.315 352.178C128.548 352.256 128.73 352.451 128.769 352.698L129.224 354.897L130.029 353.856C130.158 353.674 130.379 353.583 130.587 353.57C130.808 353.583 131.015 353.687 131.145 353.869L134.119 357.928C134.21 358.045 134.249 358.188 134.249 358.344C134.249 360.945 135.339 365.42 140.559 372.002L140.676 372.145C141.806 373.576 141.351 377.986 141.247 378.857C141.208 379.156 140.988 379.39 140.702 379.468C140.572 379.494 139.339 379.781 137.586 379.781Z" fill="black"/>
<path d="M124.186 358.41C124.186 358.41 125.445 376.738 138.988 376.347L124.186 358.41Z" fill="white"/>
<path d="M138.559 377.063C124.925 377.063 123.497 358.644 123.484 358.448C123.458 358.058 123.757 357.72 124.146 357.694C124.536 357.668 124.86 357.967 124.886 358.357C124.938 359.073 126.237 375.645 138.559 375.645C138.689 375.645 138.832 375.645 138.962 375.632C139.351 375.619 139.676 375.931 139.689 376.321C139.702 376.711 139.39 377.036 139.001 377.05C138.858 377.063 138.702 377.063 138.559 377.063Z" fill="black"/>
<path d="M159.283 243.577C159.283 243.577 170.736 277.423 170.788 299.706C170.853 322.001 139.469 351.555 139.469 351.555L132.989 345.909C132.989 345.909 144.533 333.617 146.74 316.967C148.947 300.33 142.247 268.916 142.247 268.916L139.741 246.712L159.283 243.577Z" fill="black"/>
<path d="M142.416 353.141C142.364 353.74 142.975 362.117 145.559 367.372C145.559 367.372 144.364 371.235 140.715 370.546C140.715 370.546 135.093 359.801 133.924 352.842L142.416 353.141Z" fill="white"/>
<path d="M141.169 369.895C143.48 370.143 144.506 368.139 144.791 367.411C142.649 362.832 141.857 356.133 141.727 353.831L134.78 353.584C136.066 359.658 140.286 368.152 141.169 369.895ZM141.558 371.339C141.247 371.339 140.922 371.3 140.584 371.235C140.364 371.196 140.195 371.066 140.091 370.871C139.857 370.429 134.404 359.945 133.222 352.959C133.183 352.751 133.248 352.53 133.391 352.374C133.534 352.218 133.728 352.127 133.949 352.14L142.441 352.439C142.636 352.439 142.818 352.53 142.948 352.673C143.077 352.816 143.129 353.011 143.116 353.207C143.09 353.74 143.649 361.883 146.194 367.06C146.272 367.229 146.285 367.411 146.233 367.593C145.804 368.972 144.311 371.339 141.558 371.339Z" fill="black"/>
<path d="M138.675 366.526C138.675 366.526 137.741 377.518 139.117 380.627C139.117 380.627 149.518 386.012 161.606 385.986C162.45 385.986 163.165 385.297 163.152 384.425C163.139 382.357 162.593 378.559 159.282 375.554C154.478 371.183 144.168 364.003 144.168 364.003L142.09 366.539L142.96 370.546L138.675 366.526Z" fill="white"/>
<path d="M139.676 380.107C141.26 380.887 150.791 385.284 161.555 385.284C161.802 385.284 162.035 385.206 162.204 385.024C162.36 384.868 162.451 384.659 162.451 384.438C162.425 382.539 161.931 378.923 158.815 376.074C154.725 372.354 146.467 366.488 144.298 364.966L142.857 366.722L143.649 370.39C143.714 370.689 143.584 371.001 143.311 371.157C143.052 371.313 142.714 371.274 142.48 371.066L139.273 368.049C139.039 371.587 138.845 377.804 139.676 380.107ZM161.555 386.702C149.466 386.702 139.221 381.473 138.793 381.251C138.65 381.186 138.533 381.056 138.468 380.913C137.04 377.674 137.936 366.917 137.975 366.462C138.001 366.188 138.169 365.967 138.416 365.863C138.676 365.772 138.961 365.824 139.156 366.006L141.792 368.478L141.403 366.696C141.351 366.475 141.416 366.253 141.545 366.084L143.623 363.561C143.857 363.275 144.272 363.223 144.571 363.431C144.675 363.496 154.972 370.676 159.763 375.021C163.282 378.234 163.84 382.292 163.853 384.425C163.866 385.024 163.632 385.596 163.204 386.025C162.775 386.455 162.204 386.702 161.607 386.702C161.581 386.702 161.568 386.702 161.555 386.702Z" fill="black"/>
<path d="M139.923 377.375C139.923 377.375 149.818 383.657 161.66 382.942L139.923 377.375Z" fill="white"/>
<path d="M159.724 383.709C148.713 383.709 139.935 378.22 139.546 377.973C139.221 377.765 139.117 377.335 139.325 376.997C139.533 376.672 139.974 376.568 140.299 376.776C140.403 376.841 150.154 382.929 161.62 382.226C161.996 382.2 162.334 382.5 162.36 382.89C162.386 383.28 162.087 383.618 161.697 383.644C161.035 383.683 160.386 383.709 159.724 383.709Z" fill="black"/>
<path d="M124.172 243.577C124.172 243.577 116.926 292.421 133.923 357.005L144.168 355.522C144.168 355.522 138.637 299.068 151.894 269.229L154.842 242.25L124.172 243.577Z" fill="black"/>
<path d="M127.457 168.613C126.081 171.384 128.041 172.359 127.081 177.744C126.379 181.699 124.977 183.208 125.912 185.185C126.756 186.954 128.795 187.591 130.132 188.008C136.235 189.92 142.13 186.811 145.74 184.899C148.661 183.364 152.66 181.243 152.388 179.097C152.128 176.977 147.999 177.263 146.051 173.712C144.493 170.85 146.285 169.055 144.649 166.636C142.519 163.501 137.559 163.631 136.754 163.657C133.56 163.748 129.145 165.205 127.457 168.613Z" fill="black"/>
<path d="M161.567 185.003L145.518 189.035C145.22 189.1 144.934 188.931 144.83 188.658C143.739 185.562 145.44 182.102 145.934 181.205C146.012 181.062 146.141 180.957 146.297 180.918C147.089 180.71 147.803 180.424 148.453 180.073C149.258 179.657 149.582 178.668 149.219 177.849C148.635 176.509 147.985 174.701 147.635 173.972C147.544 173.79 147.544 173.569 147.648 173.413C147.933 172.997 148.349 172.685 148.297 172.086C148.284 171.852 148.128 171.644 147.907 171.579C145.882 170.981 144.324 167.937 142.973 167.013C142.337 166.571 141.895 166.454 141.181 166.051C141.064 165.986 140.922 165.96 140.779 165.986C137.351 166.74 142.61 171.007 138.117 173.517C137.896 173.647 137.766 173.894 137.805 174.154C137.883 174.519 137.87 175.026 137.831 175.494C137.831 175.494 137.831 175.494 137.818 175.507C137.779 175.963 137.234 176.197 136.87 175.897C136.195 175.338 135.494 175.182 135.091 175.429C134.507 175.767 134.546 176.886 134.754 177.575C135.156 178.915 136.559 179.54 137.351 179.787C137.662 179.891 137.831 180.203 137.74 180.515C137.208 182.362 135.611 188.164 135.481 190.791C135.468 191.065 135.286 191.299 135.027 191.351L131.962 192.027C127.34 193.042 121.873 195.851 118.341 198.999L113.784 202.837C113.433 203.162 111.836 204.098 112.16 204.449C121.704 214.192 140.441 208.092 147.375 205.009C154.101 202.004 160.801 188.008 163.281 190.804C164.904 192.638 162.022 184.899 161.567 185.003Z" fill="white"/>
<path d="M113.017 204.293C123.574 214.4 144.687 205.425 147.089 204.358C150.219 202.953 153.53 198.83 156.192 195.526C159.126 191.845 160.866 189.777 162.463 189.738C162.593 189.725 162.723 189.738 162.853 189.764C162.476 188.489 161.723 186.538 161.321 185.796L145.687 189.725C145.025 189.868 144.389 189.516 144.168 188.892C142.986 185.549 144.739 181.907 145.31 180.866C145.479 180.554 145.765 180.333 146.116 180.242C146.843 180.047 147.518 179.774 148.128 179.448C148.596 179.201 148.79 178.629 148.57 178.135C148.284 177.471 147.985 176.704 147.713 176.027C147.44 175.312 147.167 174.636 146.998 174.284C146.791 173.868 146.817 173.387 147.063 173.01C147.141 172.892 147.232 172.788 147.323 172.671C147.505 172.437 147.583 172.333 147.596 172.229C146.193 171.761 145.077 170.395 144.09 169.198C143.532 168.522 143.012 167.897 142.584 167.598C142.233 167.364 141.96 167.234 141.623 167.065C141.389 166.961 141.155 166.844 140.883 166.701C140.662 166.753 140.415 166.844 140.324 166.987C140.156 167.247 140.298 167.924 140.454 168.561C140.805 170.122 141.35 172.489 138.519 174.102C138.584 174.479 138.584 174.961 138.532 175.559C138.481 176.04 138.182 176.457 137.74 176.639C137.299 176.821 136.793 176.756 136.429 176.444C135.91 176.014 135.52 175.988 135.442 176.027C135.325 176.118 135.234 176.743 135.429 177.367C135.741 178.395 136.896 178.902 137.572 179.11C138.247 179.331 138.61 180.034 138.416 180.71C137.922 182.44 136.312 188.255 136.182 190.83C136.156 191.416 135.741 191.923 135.169 192.04L132.105 192.716C127.599 193.705 122.25 196.45 118.809 199.532L114.238 203.383C114.134 203.474 113.965 203.591 113.745 203.747C113.576 203.877 113.251 204.098 113.017 204.293ZM126.846 210.446C121.289 210.446 115.718 209.093 111.667 204.944C111.485 204.761 111.394 204.514 111.42 204.254C111.472 203.682 112.018 203.24 112.927 202.602C113.095 202.472 113.238 202.381 113.316 202.303L117.887 198.453C121.484 195.24 127.08 192.378 131.806 191.337L134.78 190.674C134.936 188.047 136.377 182.726 137.039 180.437C136.091 180.112 134.559 179.37 134.079 177.783C133.806 176.899 133.767 175.377 134.728 174.818C135.377 174.427 136.286 174.583 137.143 175.208C137.182 174.727 137.156 174.44 137.117 174.297C137.013 173.751 137.273 173.179 137.779 172.905C139.753 171.8 139.441 170.447 139.078 168.886C138.857 167.91 138.649 166.987 139.13 166.232C139.428 165.764 139.922 165.452 140.636 165.296C140.922 165.231 141.246 165.283 141.519 165.439C141.779 165.582 142.012 165.686 142.22 165.79C142.584 165.959 142.934 166.128 143.376 166.428C143.973 166.831 144.557 167.546 145.181 168.301C146.064 169.367 147.063 170.59 148.102 170.902C148.596 171.045 148.959 171.501 148.998 172.021C149.063 172.762 148.674 173.257 148.414 173.569C148.375 173.621 148.336 173.673 148.297 173.725C148.492 174.141 148.738 174.779 149.024 175.507C149.284 176.17 149.582 176.925 149.855 177.562C150.375 178.733 149.894 180.112 148.79 180.71C148.089 181.074 147.336 181.374 146.518 181.595C146.129 182.336 144.544 185.549 145.466 188.32L161.399 184.313C161.412 184.313 161.412 184.313 161.424 184.313C162.061 184.17 162.437 184.651 163.255 186.668C165.034 191.077 164.437 191.455 164.073 191.676C163.788 191.858 163.333 191.936 162.749 191.272C162.645 191.155 162.567 191.142 162.502 191.142C161.476 191.168 159.256 193.952 157.282 196.41C154.387 200.027 151.102 204.111 147.661 205.646C146.064 206.361 136.481 210.446 126.846 210.446Z" fill="black"/>
<path d="M141.272 181.087C141.272 181.087 143.414 181.957 145.882 181.035L141.272 181.087Z" fill="white"/>
<path d="M143.506 182.167C142.078 182.167 141.078 181.777 141.013 181.751C140.65 181.608 140.481 181.191 140.624 180.827C140.767 180.463 141.182 180.294 141.533 180.437C141.559 180.437 143.48 181.191 145.623 180.372C145.987 180.242 146.402 180.424 146.532 180.788C146.675 181.152 146.493 181.556 146.129 181.699C145.181 182.05 144.273 182.167 143.506 182.167Z" fill="black"/>
<path d="M129.819 167.182C129.819 167.182 128.793 160.886 123.833 162.59C118.86 164.294 123.677 169.472 127.43 169.875C131.183 170.265 129.819 167.182 129.819 167.182Z" fill="black"/>
<path d="M224.648 143.391L230.79 137.421C231.206 137.004 231.868 136.965 232.348 137.304C232.894 137.707 233.024 138.461 232.634 139.021L230.686 141.791L232.258 145.681C232.738 146.877 232.426 148.243 231.478 149.115L228.959 151.404C227.7 152.549 225.856 152.809 224.337 152.041L223.311 151.534C221.74 150.741 220.831 149.037 221.065 147.281L221.337 145.212C221.506 143.912 222.727 143.027 223.999 143.261L224.648 143.391Z" fill="white"/>
<path d="M223.569 143.937C223.245 143.937 222.933 144.042 222.66 144.237C222.31 144.484 222.089 144.861 222.024 145.303L221.764 147.372C221.57 148.828 222.323 150.246 223.634 150.897L224.647 151.417C225.92 152.054 227.426 151.846 228.478 150.884L230.997 148.581C231.737 147.918 231.97 146.864 231.607 145.941L230.036 142.051C229.945 141.83 229.984 141.57 230.114 141.375L232.061 138.604C232.217 138.37 232.165 138.045 231.932 137.889C231.737 137.733 231.451 137.759 231.269 137.928L225.141 143.898C224.972 144.055 224.751 144.133 224.517 144.081L223.868 143.963C223.764 143.937 223.673 143.937 223.569 143.937ZM226.192 153.199C225.452 153.199 224.712 153.03 224.024 152.679L222.998 152.171C221.154 151.248 220.089 149.245 220.362 147.189L220.635 145.108C220.739 144.302 221.18 143.56 221.829 143.079C222.492 142.598 223.336 142.416 224.128 142.572L224.426 142.624L230.295 136.913C230.958 136.263 231.996 136.185 232.763 136.731C233.62 137.356 233.814 138.565 233.204 139.424L231.49 141.882L232.905 145.407C233.503 146.877 233.113 148.568 231.944 149.635L229.425 151.924C228.517 152.757 227.361 153.199 226.192 153.199Z" fill="black"/>
<path d="M224.648 143.391L226.947 145.095C226.947 145.095 226.181 147.319 224.648 146.408V143.391Z" fill="white"/>
<path d="M225.362 147.333C225.051 147.333 224.687 147.255 224.297 147.021C223.96 146.812 223.843 146.383 224.051 146.045C224.245 145.707 224.674 145.603 225.012 145.798C225.297 145.967 225.44 145.915 225.505 145.889C225.713 145.811 225.907 145.564 226.063 145.317L224.232 143.964C223.921 143.73 223.856 143.287 224.09 142.975C224.31 142.65 224.765 142.585 225.063 142.819L227.362 144.523C227.608 144.705 227.712 145.03 227.608 145.33C227.557 145.473 227.076 146.825 225.985 147.229C225.817 147.281 225.609 147.333 225.362 147.333Z" fill="black"/>
<path d="M231.1 142.831L228.529 146.044L231.1 142.831Z" fill="white"/>
<path d="M228.53 146.76C228.374 146.76 228.218 146.708 228.088 146.604C227.777 146.357 227.725 145.901 227.972 145.602L230.556 142.389C230.802 142.077 231.244 142.038 231.555 142.285C231.854 142.532 231.893 142.975 231.659 143.274L229.075 146.5C228.933 146.669 228.725 146.76 228.53 146.76Z" fill="black"/>
<path d="M231.892 145.355L229.814 147.892L231.892 145.355Z" fill="white"/>
<path d="M229.815 148.607C229.659 148.607 229.503 148.555 229.374 148.438C229.062 148.191 229.023 147.749 229.27 147.45L231.347 144.9C231.594 144.601 232.048 144.562 232.347 144.809C232.646 145.056 232.685 145.499 232.438 145.811L230.36 148.347C230.218 148.516 230.023 148.607 229.815 148.607Z" fill="black"/>
<path d="M121.653 257.235C121.653 257.235 127.119 253.111 130.262 252.422C133.404 251.733 136.494 253.853 136.494 253.853C136.494 253.853 133.118 255.739 131.482 255.947C129.846 256.168 125.587 264.064 120.497 261.527L121.653 257.235Z" fill="white"/>
<path d="M121.342 261.124C124.212 262.087 126.848 259.329 128.808 257.274C129.912 256.116 130.652 255.349 131.392 255.245C132.262 255.141 133.833 254.425 135.002 253.84C133.911 253.333 132.145 252.734 130.406 253.125C127.783 253.697 123.251 256.936 122.264 257.664L121.342 261.124ZM122.563 262.75C121.797 262.75 121.005 262.581 120.187 262.165C119.875 262.022 119.732 261.671 119.81 261.346L120.966 257.053C121.018 256.897 121.095 256.767 121.225 256.676C121.459 256.507 126.861 252.448 130.107 251.733C133.509 250.991 136.755 253.177 136.898 253.268C137.093 253.398 137.209 253.632 137.197 253.879C137.184 254.126 137.054 254.347 136.833 254.464C136.482 254.673 133.301 256.429 131.574 256.65C131.288 256.728 130.444 257.612 129.821 258.263C128.042 260.123 125.536 262.75 122.563 262.75Z" fill="black"/>
<path d="M126.483 192.938L129.131 191.91C129.131 191.91 145.194 202.238 152.166 186.59L155.841 185.536L163.281 206.726L125.885 216.729L126.483 192.938Z" fill="#CDE4FB"/>
<path d="M224.932 154.434C222.335 153.601 219.738 152.782 217.141 151.962C206.208 164.762 195.522 171.331 187.406 174.986C177.408 179.487 160.204 184.586 160.204 184.586C160.204 184.586 160.242 192.781 146.777 202.133C133.312 211.486 112.692 202.198 112.692 202.198C112.692 202.198 89.8524 221.801 88.5279 233.573C86.3335 253.137 120.224 262.528 120.224 262.528L121.652 257.234C121.652 257.234 108.005 246.087 110.966 234.77C113.926 223.453 121.548 218.445 121.548 218.445C123.82 231.505 122.847 246.711 122.847 246.711C145.232 252.447 164.553 245.072 173.097 240.844C175.993 239.414 177.616 236.24 177.123 233.027C175.24 220.917 170.526 205.645 170.526 205.645C175.694 205.372 181.278 204.371 186.939 202.159C214.609 191.363 223.491 159.871 224.932 154.434Z" fill="#5479F7"/>
<path d="M148.246 240.624C147.973 240.624 147.7 240.455 147.597 240.181C147.454 239.817 147.622 239.401 147.986 239.258C164.347 232.52 166.736 213.919 166.762 213.724C166.814 213.333 167.164 213.06 167.554 213.112C167.931 213.151 168.216 213.503 168.164 213.893C168.138 214.088 165.632 233.508 148.518 240.572C148.428 240.598 148.337 240.624 148.246 240.624Z" fill="#CDE4FB"/>
<path d="M145.466 299.263C145.076 299.263 144.765 298.951 144.752 298.56C144.713 291.159 146.751 276.863 149.932 272.194C150.153 271.868 150.595 271.79 150.906 272.012C151.231 272.233 151.322 272.675 151.101 273C148.179 277.28 146.128 291.237 146.167 298.547C146.167 298.938 145.855 299.263 145.466 299.263Z" fill="white"/>
<path d="M143.442 341.85C143.078 341.85 142.766 341.564 142.74 341.187C142.364 334.279 143.468 322.937 143.468 322.82C143.507 322.429 143.857 322.143 144.247 322.182C144.636 322.221 144.909 322.573 144.87 322.963C144.87 323.067 143.779 334.306 144.156 341.109C144.169 341.499 143.87 341.824 143.481 341.85C143.481 341.85 143.455 341.85 143.442 341.85Z" fill="white"/>
</svg>
