<svg width="390" height="392" viewBox="0 0 390 392" fill="none" xmlns="http://www.w3.org/2000/svg">
<path d="M386.01 148.94C368.497 59.5907 280.431 7.75464 206.271 0.861013C144.827 -4.84758 64.5671 17.7064 36.2113 72.2184C18.3702 106.508 39.8048 117.39 25.2156 195.055C12.5877 262.284 -9.51745 286.354 4.48966 320.618C15.9408 348.626 42.715 361.878 59.8222 370.339C127.264 403.724 229.717 399.812 303.473 338.917C320.732 324.671 405.799 250.026 386.01 148.94Z" fill="#CADDFF"/>
<path d="M316.683 223.331C321.757 224.045 328.096 220.018 331.437 216.54C332.461 215.469 339.838 207.785 338.371 199.783C337.143 193.017 330.703 191.972 331.108 187.474C331.55 182.543 338.649 181.141 341.445 177.892C345.735 172.91 341.142 167.8 339.193 162.971C336.131 155.351 341.774 151.298 347.835 147.833C350.745 146.163 354.048 144.112 355.402 140.862C356.794 137.511 355.731 134.084 358.211 130.872C359.792 128.821 362.108 127.33 363.323 125.036C364.664 122.513 364.449 119.481 364.196 116.639C363.576 109.478 364.879 98.8253 359.691 93.3334C353.618 86.8985 343.887 88.9245 336.839 92.5306C329.981 96.0475 326.16 104.088 318.543 106.331C315.709 107.172 312.634 107.019 309.812 107.962C300.019 111.211 300.942 123.367 302.068 131.535C302.891 137.422 303.422 143.997 299.108 148.725C297.804 150.139 296.172 151.298 295.274 152.993C292.452 158.269 295.552 163.901 299.12 167.902C301.018 170.043 303.207 171.928 305.51 173.61C307.168 174.834 311.267 176.541 311.128 179C311.078 180.058 310.192 180.848 309.306 181.409C307.56 182.505 305.51 183.142 303.941 184.505C293.793 193.259 313.735 205.861 318.632 211.124C319.745 212.335 320.846 213.672 321.137 215.304C321.782 218.91 318.594 220.936 316.683 223.331Z" fill="white"/>
<path d="M311.419 227.459C311.103 227.459 310.812 227.242 310.723 226.911C310.634 226.529 310.875 226.146 311.254 226.057C313.722 225.471 317.391 223.955 320.921 220.106C321.124 219.877 326.147 214.321 327.855 206.179C329.311 199.209 327.526 194.303 325.059 187.524C323.857 184.211 322.49 180.465 321.301 175.878C319.732 169.85 314.987 151.54 318.796 135.917C323.718 115.734 342.116 105.055 349.796 101.398C350.15 101.233 350.568 101.386 350.732 101.742C350.91 102.099 350.758 102.52 350.403 102.685C342.9 106.253 324.958 116.664 320.175 136.249C316.442 151.527 321.124 169.583 322.668 175.508C323.844 180.044 325.198 183.752 326.388 187.04C328.842 193.781 330.778 199.107 329.235 206.472C327.476 214.857 322.516 220.463 321.959 221.075C318.188 225.178 314.241 226.796 311.583 227.433C311.52 227.446 311.47 227.459 311.419 227.459Z" fill="#CADDFF"/>
<path d="M303.916 243.336C304.295 243.183 308.547 246.33 309.217 246.674C311.09 247.63 313.064 248.433 315.088 249.006C318.758 250.064 322.68 250.446 326.464 249.771C329.981 249.134 331.841 247.656 334.46 245.502C337.776 242.788 341.243 241.042 343.925 237.525C346.759 233.805 347.911 229.052 350.808 225.382C353.466 222.018 357.806 220.973 361.247 218.641C364.967 216.131 367.587 212.232 369.219 208.052C371.041 203.401 372.673 197.438 371.471 192.507C370.484 188.493 366.688 183.676 369.193 179.522C370.218 177.815 372.129 176.91 373.774 175.801C378.241 172.769 379.835 168.474 381.619 163.683C383.327 159.109 383.555 153.553 380.961 149.259C374.204 138.097 352.023 139.575 348.581 152.572C347.329 157.299 343.862 161.377 339.408 163.377C337.522 164.218 335.473 164.715 333.701 165.786C328.868 168.704 329.045 175.062 330.209 179.815C331.36 184.492 333.271 189.805 330.31 194.227C327.273 198.738 323.085 196.635 320.162 201.044C315.367 208.282 324.477 217.278 321.908 227.357C320.656 232.25 316.468 238.201 303.916 243.336Z" fill="#99B9FF"/>
<path d="M306.877 243.987C305.51 243.987 304.131 243.91 302.752 243.744C302.372 243.694 302.094 243.337 302.145 242.954C302.183 242.559 302.537 242.292 302.929 242.33C307.358 242.865 311.736 242.508 315.937 241.247C321.972 239.45 326.882 236.328 330.526 231.971C334.322 227.447 335.486 223 337.422 215.648C338.776 210.512 339.054 207.505 339.32 204.6C339.598 201.707 339.851 198.968 341.079 194.444C342.078 190.711 343.951 183.779 348.658 176.63C353.377 169.482 360.236 163.442 368.485 159.186C368.827 159.008 369.257 159.135 369.434 159.492C369.612 159.836 369.472 160.256 369.131 160.448C361.096 164.589 354.428 170.463 349.835 177.42C345.254 184.365 343.419 191.157 342.432 194.814C341.256 199.223 341.003 201.898 340.737 204.727C340.459 207.696 340.168 210.754 338.788 216.004C336.802 223.561 335.6 228.11 331.614 232.888C327.78 237.45 322.643 240.725 316.342 242.61C313.254 243.528 310.078 243.987 306.877 243.987Z" fill="#CADDFF"/>
<path d="M107.044 104.228L2.64223 313.19C2.41447 313.636 2.50304 314.171 2.84468 314.528L14.5236 326.429L56.2919 306.768L144.7 290.343V104.228H107.044Z" fill="#5479F7"/>
<path d="M161.25 298.511L14.8398 325.805L121.089 113.198L272.371 104.151L161.25 298.511Z" fill="white"/>
<path d="M121.533 113.886L16.1059 324.836L160.795 297.873L271.106 104.928L121.533 113.886ZM14.828 326.506C14.6129 326.506 14.4104 326.404 14.2712 326.225C14.1067 326.009 14.0814 325.728 14.208 325.486L120.457 112.88C120.571 112.65 120.786 112.51 121.039 112.484L272.321 103.437C272.587 103.425 272.827 103.552 272.966 103.781C273.105 103.998 273.105 104.278 272.979 104.495L161.858 298.867C161.757 299.046 161.58 299.173 161.378 299.211L14.9671 326.493C14.9165 326.506 14.8786 326.506 14.828 326.506Z" fill="black"/>
<path d="M121.089 113.912C120.963 113.912 120.836 113.873 120.722 113.81L107.74 106.024C107.398 105.82 107.297 105.387 107.5 105.056C107.689 104.712 108.132 104.61 108.461 104.801L121.444 112.587C121.785 112.79 121.886 113.224 121.697 113.555C121.557 113.784 121.33 113.912 121.089 113.912Z" fill="black"/>
<path d="M253.898 70.2437L127.935 94.365L57.1528 356.68L72.4379 366.428L111.385 337.706L197.199 312.578L253.898 70.2437Z" fill="#FF9F78"/>
<path d="M57.9749 356.361L72.4122 365.574L110.954 337.133C111.03 337.082 111.106 337.044 111.182 337.031L196.604 312.018L252.948 71.1484L128.491 94.9767L57.9749 356.361ZM72.4375 367.141C72.2983 367.141 72.1718 367.103 72.0579 367.027L56.7728 357.279C56.5198 357.113 56.3932 356.794 56.4691 356.501L127.251 94.1867C127.315 93.9191 127.53 93.7279 127.795 93.677L253.758 69.5429C253.986 69.5047 254.226 69.5811 254.403 69.7468C254.568 69.9252 254.631 70.1673 254.581 70.4094L197.894 312.744C197.831 312.986 197.641 313.19 197.401 313.254L111.7 338.356L72.8551 367.014C72.7285 367.103 72.5767 367.141 72.4375 367.141Z" fill="black"/>
<path d="M216.026 324.39L72.4375 366.44L144.232 99.512L272.017 80.1309L216.026 324.39Z" fill="#CADDFF"/>
<path d="M144.801 100.137L73.4497 365.408L215.431 323.83L271.106 80.9984L144.801 100.137ZM72.4375 367.141C72.2477 367.141 72.0705 367.078 71.944 366.938C71.7542 366.759 71.6909 366.504 71.7542 366.249L143.549 99.3219C143.624 99.0543 143.852 98.8504 144.131 98.8122L271.915 79.431C272.156 79.4056 272.384 79.482 272.535 79.6604C272.7 79.8261 272.763 80.0682 272.713 80.2975L216.722 324.544C216.659 324.798 216.482 325.002 216.229 325.066L72.6399 367.116C72.564 367.141 72.5007 367.141 72.4375 367.141Z" fill="black"/>
<path d="M144.7 100.15C144.637 100.15 144.573 100.137 144.498 100.112L127.732 95.0402C127.352 94.9255 127.137 94.5305 127.251 94.1609C127.365 93.7914 127.757 93.5748 128.137 93.6895L144.915 98.7609C145.282 98.8756 145.497 99.2706 145.383 99.6402C145.295 99.946 145.016 100.15 144.7 100.15Z" fill="black"/>
<path d="M297.058 52.4427C296.931 52.4299 296.805 52.4299 296.678 52.4427L157.657 75.8887V381.234C157.657 381.68 157.898 382.075 158.277 382.279L174.764 391.518L301.259 339.898L318.669 56.1125L297.058 52.4427Z" fill="#5479F7"/>
<path d="M318.669 348.958L175.067 391.008V82.617L318.669 56.1128V348.958Z" fill="white"/>
<path d="M318.67 348.958H318.683H318.67ZM175.777 83.2029V390.065L317.961 348.423V56.9664L175.777 83.2029ZM175.081 391.709C174.929 391.709 174.777 391.671 174.651 391.569C174.474 391.441 174.373 391.225 174.373 391.008V82.6041C174.373 82.2728 174.613 81.9797 174.942 81.916L318.543 55.4118C318.746 55.3736 318.961 55.4373 319.125 55.5775C319.29 55.7049 319.378 55.9088 319.378 56.1126V348.958C319.378 349.277 319.176 349.557 318.872 349.646L175.271 391.683C175.208 391.709 175.144 391.709 175.081 391.709Z" fill="black"/>
<path d="M173.183 82.9733C173.12 82.9733 173.031 82.9606 172.968 82.9351L159.859 78.4498C159.492 78.3223 159.29 77.9146 159.416 77.545C159.543 77.1755 159.948 76.9716 160.315 77.0991L173.423 81.5971C173.79 81.7245 173.98 82.1196 173.854 82.4891C173.752 82.7822 173.487 82.9733 173.183 82.9733Z" fill="black"/>
<path d="M210.155 340.369C210.003 340.369 209.839 340.305 209.7 340.19C209.409 339.948 209.371 339.49 209.624 339.196L234.829 309.494C235.082 309.201 235.525 309.163 235.829 309.418C236.12 309.672 236.158 310.118 235.905 310.411L210.699 340.114C210.56 340.28 210.358 340.369 210.155 340.369Z" fill="#CADDFF"/>
<path d="M206.296 321.422C206.132 321.422 205.98 321.371 205.841 321.256C205.55 321.001 205.512 320.555 205.765 320.249L213.774 310.82C214.028 310.514 214.47 310.476 214.761 310.731C215.065 310.986 215.09 311.432 214.85 311.738L206.841 321.167C206.701 321.333 206.499 321.422 206.296 321.422Z" fill="#CADDFF"/>
<path d="M282.203 109.567C282.051 109.567 281.886 109.516 281.76 109.401C281.456 109.146 281.418 108.7 281.671 108.407L289.681 98.9652C289.934 98.6721 290.377 98.6339 290.68 98.8887C290.971 99.1436 291.009 99.5896 290.756 99.8826L282.747 109.325C282.607 109.49 282.405 109.567 282.203 109.567Z" fill="#CADDFF"/>
<path d="M366.929 327.117L355.123 331.118L353.301 319.433L367.764 319.484L366.929 327.117Z" fill="white"/>
<path d="M366.929 327.118H366.941H366.929ZM354.123 320.148L355.692 330.176L366.283 326.583L366.966 320.186L354.123 320.148ZM355.123 331.833C354.997 331.833 354.87 331.794 354.756 331.731C354.592 331.629 354.465 331.438 354.427 331.234L352.592 319.549C352.567 319.345 352.63 319.128 352.757 318.976C352.896 318.823 353.086 318.733 353.301 318.733L367.764 318.772C367.953 318.772 368.156 318.861 368.282 319.014C368.422 319.154 368.485 319.358 368.46 319.562L367.637 327.194C367.612 327.462 367.422 327.691 367.156 327.78L355.351 331.794C355.275 331.82 355.199 331.833 355.123 331.833Z" fill="black"/>
<path d="M356.287 371.244L363.575 374.468L363.196 355.316L353.491 354.717L357.008 366.631C357.034 366.746 357.046 366.848 357.021 366.962L356.287 371.244ZM364.296 376.277C364.208 376.277 364.107 376.264 364.018 376.213L355.211 372.314C354.908 372.187 354.743 371.868 354.794 371.537L355.604 366.886L351.858 354.144C351.795 353.927 351.833 353.685 351.985 353.506C352.124 353.328 352.339 353.226 352.58 353.239L363.93 353.94C364.296 353.965 364.588 354.271 364.6 354.641L365.005 375.551C365.018 375.793 364.891 376.022 364.689 376.162C364.575 376.239 364.436 376.277 364.296 376.277Z" fill="black"/>
<path d="M374.837 317.522C374.837 317.522 386.44 331.691 389.882 343.274C390.464 345.236 388.806 347.122 386.795 346.842C385.63 346.689 384.137 346.37 382.201 345.784C374.964 343.618 359.957 329.449 359.957 329.449L360.311 326.314C360.438 325.205 361.475 324.454 362.564 324.683L364.019 325.001L362.602 320.389C362.285 319.344 362.893 318.235 363.955 317.968C366.106 317.432 369.953 316.821 374.837 317.522Z" fill="#FF9F78"/>
<path d="M387.048 345.735C386.668 345.735 386.314 345.506 386.175 345.136C381.543 332.993 371.56 320.033 371.459 319.906C371.143 319.498 371.218 318.899 371.623 318.581C372.028 318.262 372.623 318.326 372.952 318.747C373.053 318.874 383.214 332.05 387.921 344.461C388.111 344.945 387.87 345.493 387.389 345.671C387.275 345.722 387.162 345.735 387.048 345.735Z" fill="black"/>
<path d="M373.559 340.637C373.331 340.637 373.103 340.548 372.926 340.382C372.534 340.038 372.508 339.44 372.863 339.045L376.304 335.273C376.659 334.878 377.253 334.852 377.646 335.209C378.025 335.566 378.05 336.165 377.696 336.547L374.254 340.332C374.065 340.523 373.812 340.637 373.559 340.637Z" fill="black"/>
<path d="M369.257 336.546C369.029 336.546 368.802 336.47 368.624 336.304C368.245 335.947 368.219 335.348 368.561 334.966L372.901 330.213C373.243 329.831 373.838 329.805 374.23 330.162C374.609 330.506 374.635 331.105 374.28 331.487L369.953 336.24C369.763 336.444 369.523 336.546 369.257 336.546Z" fill="black"/>
<path d="M365.132 365.486C366.814 366.824 370.939 370.264 373.875 373.807C375.279 375.514 374.849 378.088 372.951 379.222C367.08 382.688 354.022 389.633 340.04 391.965C337.965 392.296 336.32 390.27 337.016 388.295C338.307 384.612 342.103 378.712 352.858 371.398L356.439 369.028L362.765 371.437C362.765 371.437 361.981 367.639 363.234 365.779C363.651 365.142 364.537 365.002 365.132 365.486Z" fill="#FF9F78"/>
<path d="M339.838 389.53C339.407 389.53 339.015 389.237 338.914 388.803C338.8 388.294 339.116 387.784 339.622 387.669C353.478 384.509 371.395 374.621 371.572 374.519C372.027 374.264 372.609 374.43 372.862 374.889C373.103 375.347 372.938 375.921 372.483 376.176C372.306 376.278 354.148 386.293 340.04 389.517C339.977 389.53 339.901 389.53 339.838 389.53Z" fill="black"/>
<path d="M356.579 378.239C356.351 378.239 356.136 378.163 355.959 378.01L350.961 373.729C350.568 373.397 350.518 372.798 350.859 372.403C351.188 371.996 351.783 371.957 352.188 372.289L357.186 376.57C357.578 376.914 357.629 377.513 357.287 377.908C357.097 378.125 356.844 378.239 356.579 378.239Z" fill="black"/>
<path d="M350.809 380.584C350.594 380.584 350.366 380.508 350.189 380.355L346.595 377.271C346.203 376.927 346.152 376.328 346.494 375.933C346.836 375.538 347.43 375.487 347.823 375.831L351.416 378.915C351.808 379.259 351.859 379.858 351.517 380.253C351.328 380.469 351.075 380.584 350.809 380.584Z" fill="black"/>
<path d="M303.118 243.68C303.118 243.68 287.681 282.022 292.363 308.004C297.057 333.985 341.255 336.98 356.667 332.354L355.148 317.038C355.148 317.038 334.233 321.816 321.719 307.214C309.192 292.598 336.637 272.287 336.637 272.287L340.293 245.209L303.118 243.68Z" fill="black"/>
<path d="M346.405 238.735C346.405 238.735 347.658 245.833 347.658 254.867C347.658 263.647 349.417 272.337 352.744 280.479C358.957 295.681 368.042 326.021 365.246 360.31L352.529 359.52C352.529 359.52 324.173 282.824 316.366 268.183C308.559 253.542 304.219 242.214 304.219 242.214L346.405 238.735Z" fill="black"/>
<path d="M342.369 335.004C342.091 335.004 341.825 334.839 341.711 334.558L336.599 321.128C336.46 320.758 336.637 320.35 337.004 320.21C337.371 320.07 337.776 320.261 337.915 320.618L343.04 334.048C343.179 334.418 342.989 334.826 342.635 334.966C342.546 334.991 342.458 335.004 342.369 335.004Z" fill="white"/>
<path d="M323.402 286.33C323.111 286.33 322.845 286.151 322.744 285.871L319.859 278.302C319.72 277.932 319.897 277.525 320.264 277.384C320.631 277.244 321.036 277.435 321.175 277.805L324.06 285.361C324.199 285.731 324.022 286.138 323.655 286.279C323.566 286.317 323.478 286.33 323.402 286.33Z" fill="#CADDFF"/>
<path d="M348.303 256.665C347.911 256.665 347.594 256.359 347.594 255.964L347.557 251.938C347.544 251.543 347.86 251.224 348.252 251.224C348.252 251.224 348.252 251.224 348.265 251.224C348.645 251.224 348.961 251.543 348.961 251.925L348.999 255.952C349.012 256.347 348.695 256.665 348.303 256.665Z" fill="#CADDFF"/>
<path d="M254.024 146.812C254.024 146.812 251.455 141.83 251.683 140.416C251.974 138.645 253.429 134.694 252.113 131.967C250.43 128.412 246.723 126.412 246.103 127.189C245.47 127.954 250.228 134.643 247.621 137.485C247.621 137.485 245.951 137.561 243.344 133.892C243.053 133.484 242.446 133.599 242.256 134.083C242.016 134.745 242.104 136.848 242.522 138.415C243.053 140.403 244.407 141.537 245.824 142.799C246.672 143.538 247.469 149.679 247.672 149.59L254.024 146.812Z" fill="white"/>
<path d="M242.889 134.466C242.762 135.065 242.813 136.772 243.205 138.225C243.661 139.932 244.8 140.952 246.128 142.124L246.293 142.264C246.9 142.812 247.305 144.43 247.925 147.641C248.001 147.973 248.064 148.33 248.127 148.623L253.062 146.469C252.24 144.813 250.785 141.614 250.987 140.302C251.05 139.907 251.164 139.435 251.303 138.887C251.734 137.027 252.404 134.211 251.481 132.274C250.228 129.624 247.824 128.031 246.837 127.763C246.963 128.158 247.229 128.77 247.444 129.292C248.532 131.854 250.177 135.74 248.14 137.97L247.938 138.174L247.647 138.199C247.318 138.225 245.521 138.097 242.889 134.466ZM247.647 150.368L247.33 150.215C246.951 150.024 246.913 149.82 246.546 147.922C246.305 146.673 245.736 143.768 245.344 143.322L245.192 143.182C243.825 141.971 242.408 140.722 241.839 138.594C241.434 137.116 241.257 134.759 241.598 133.829C241.776 133.344 242.206 133.013 242.699 132.949C243.18 132.873 243.636 133.077 243.914 133.472C245.597 135.829 246.799 136.505 247.33 136.696C248.355 135.039 247.039 131.943 246.141 129.853C245.432 128.171 245.078 127.317 245.559 126.731C245.749 126.502 246.116 126.247 246.799 126.323C248.279 126.502 251.253 128.515 252.759 131.65C253.897 134.045 253.163 137.154 252.67 139.219C252.543 139.728 252.442 140.187 252.392 140.531C252.265 141.257 253.467 144.188 254.657 146.495L254.998 147.157L247.647 150.368Z" fill="black"/>
<path d="M347.468 209.761C346.177 193.208 346.962 174.044 323.376 163.697C323.275 163.646 323.161 163.493 322.946 163.417C315.24 160.945 314.81 161.875 309.42 161.786C304.434 161.697 303.359 161.505 295.982 165.15C285.669 165.8 275.281 162.869 266.753 156.396C261.666 152.535 258.402 150.063 254.024 142.736L244.724 146.406C244.724 146.406 252.936 195.018 299.095 190.494C299.095 190.494 304.649 224.644 299.689 247.516C299.689 247.516 343.115 261.737 355.161 240.495C355.161 240.495 348.796 226.81 347.468 209.761Z" fill="#5479F7"/>
<path d="M237.917 172.909L232.564 181.064C232.564 181.064 258.402 219.393 311.28 201.273L295.742 178.337C295.742 178.337 263.717 190.442 237.917 172.909Z" fill="#5479F7"/>
<path d="M237.828 176.132C238.144 175.826 238.827 175.1 238.84 174.666C238.903 173.29 238.448 170.054 238.056 169.072C237.524 167.785 236.651 162.153 235.626 161.389C234.601 160.624 233.526 163.338 233.703 164.74C233.88 166.142 234.728 168.282 234.07 168.563C233.424 168.856 226.604 160.815 225.213 161.147C223.808 161.491 214.66 162.128 226.06 175.737C227.642 177.623 230.97 179.712 232.437 180.171C233.058 180.362 233.715 180.197 234.171 179.751L237.828 176.132Z" fill="white"/>
<path d="M225.314 161.848C225.225 161.874 225.112 161.899 224.985 161.912C223.985 162.103 221.885 162.498 221.29 164.167C220.746 165.696 221.227 168.869 226.605 175.279C228.11 177.088 231.312 179.089 232.653 179.496C233.007 179.611 233.412 179.509 233.678 179.242L237.335 175.636C237.942 175.037 238.119 174.693 238.144 174.603C238.195 173.329 237.752 170.207 237.398 169.341C237.195 168.857 236.98 167.926 236.702 166.754C236.386 165.365 235.728 162.498 235.247 161.988C234.855 162.256 234.285 163.721 234.399 164.652C234.45 165.059 234.576 165.569 234.69 166.053C235.032 167.455 235.348 168.793 234.361 169.213C233.69 169.506 233.172 169.073 230.299 166.206C228.819 164.741 226.086 162.027 225.314 161.848ZM232.957 180.962C232.716 180.962 232.463 180.924 232.235 180.847C230.704 180.376 227.212 178.209 225.517 176.183C220.797 170.551 218.975 166.461 219.962 163.696C220.835 161.262 223.555 160.74 224.719 160.523C224.859 160.498 224.96 160.485 225.048 160.459C226.061 160.217 227.49 161.428 231.286 165.2C232.046 165.951 232.931 166.831 233.539 167.378C233.475 167.047 233.387 166.665 233.324 166.385C233.197 165.862 233.058 165.314 232.995 164.83C232.83 163.505 233.526 161.351 234.576 160.74C235.07 160.447 235.601 160.485 236.057 160.816C236.879 161.428 237.385 163.441 238.081 166.436C238.322 167.455 238.549 168.411 238.701 168.806C239.169 169.94 239.6 173.278 239.549 174.693C239.536 175.024 239.397 175.585 238.322 176.642L234.665 180.261C234.209 180.72 233.589 180.962 232.957 180.962Z" fill="black"/>
<path d="M273.143 183.74C270.182 183.74 267.626 183.485 265.867 183.013C265.487 182.924 265.26 182.529 265.361 182.159C265.462 181.777 265.842 181.548 266.221 181.65C273.231 183.485 294.286 181.866 301.309 172.45C301.537 172.131 301.979 172.08 302.296 172.31C302.612 172.539 302.675 172.985 302.435 173.304C296.703 180.974 282.746 183.74 273.143 183.74Z" fill="white"/>
<path d="M315.367 163.11L308.889 150.61L301.879 159.67L305.763 167.672C306.674 169.443 308.674 169.723 308.674 169.723C311.204 170.208 313.722 168.704 315.026 166.461L315.317 165.939C315.823 165.072 315.835 164.002 315.367 163.11Z" fill="white"/>
<path d="M302.701 159.76L306.396 167.367C307.13 168.769 308.749 169.011 308.762 169.011C310.888 169.431 313.191 168.233 314.405 166.105L314.709 165.583C315.089 164.92 315.101 164.118 314.747 163.442H314.734L308.762 151.91L302.701 159.76ZM309.648 170.527C309.281 170.527 308.901 170.489 308.534 170.412C308.471 170.412 306.206 170.068 305.131 168.004L301.233 159.976C301.12 159.734 301.145 159.454 301.309 159.237L308.332 150.165C308.471 149.986 308.712 149.872 308.952 149.897C309.192 149.923 309.395 150.063 309.509 150.279L315.987 162.78C316.582 163.901 316.557 165.201 315.924 166.297L315.633 166.819C314.304 169.125 312.001 170.527 309.648 170.527Z" fill="black"/>
<path d="M288.605 142.366C291.009 141.067 289.099 145.055 296.956 138.085C300.082 135.32 300.234 140.404 301.043 139.69C304.055 137.04 303.941 137.116 305.852 136.76C307.104 136.53 308.813 138.238 309.331 139.881C310.015 142.048 308.572 143.373 309.104 148.393C309.483 151.91 310.597 153.618 309.597 154.637C308.572 155.669 306.889 154.446 305.7 155.491C304.156 156.842 305.953 159.747 304.814 161.849C304.106 163.175 301.739 164.755 296.716 164.716C295.906 164.704 295.21 164.117 295.071 163.315C294.894 162.283 294.679 160.983 294.578 159.721C294.084 153.707 295.362 151.694 294.072 150.687C292.11 149.132 288.808 152.127 287.391 150.763C285.923 149.349 285.328 144.163 288.605 142.366Z" fill="black"/>
<path d="M301.335 147.08L301.246 148.736C301.208 149.501 301.221 150.278 301.284 151.056C301.411 152.508 301.525 155.006 301.6 156.407C301.866 160.918 295.236 158.969 295.236 158.969L294.413 158.077L293.667 158.128C293.528 158.128 293.376 158.102 293.249 158.038C292.933 157.873 292.768 157.541 292.819 157.197C293.11 155.375 293.604 151.336 292.996 148.214C292.996 148.214 296.514 145.283 301.335 147.08Z" fill="white"/>
<path d="M300.74 147.475C300.702 147.513 300.689 147.564 300.677 147.59V147.615C300.677 147.615 300.677 147.615 300.664 147.615L300.613 147.59C300.449 147.551 300.284 147.5 300.12 147.462C299.791 147.386 299.462 147.335 299.12 147.296C298.462 147.207 297.779 147.22 297.121 147.309C296.45 147.398 295.805 147.564 295.172 147.819C294.856 147.946 294.552 148.087 294.261 148.239C293.97 148.405 293.667 148.596 293.439 148.762L293.679 148.087C294.021 150.036 293.932 151.96 293.755 153.846C293.654 154.789 293.54 155.732 293.401 156.675L293.3 157.312C293.3 157.401 293.325 157.49 293.401 157.541C293.515 157.592 293.515 157.567 293.692 157.503C293.92 157.439 294.147 157.388 294.375 157.376C294.578 157.363 294.78 157.439 294.907 157.567L294.932 157.605C295.223 157.885 295.489 158.191 295.767 158.484L295.438 158.28C296.729 158.599 298.209 158.79 299.399 158.51C299.981 158.357 300.436 158.077 300.651 157.656C300.765 157.439 300.828 157.185 300.841 156.904C300.866 156.764 300.841 156.598 300.854 156.458L300.816 155.898C300.74 154.445 300.677 152.98 300.575 151.527C300.512 150.826 300.474 150.011 300.499 149.259L300.525 148.698C300.537 148.558 300.55 148.431 300.575 148.29C300.613 148.036 300.677 147.768 300.74 147.475ZM301.929 146.698C301.967 147.131 301.992 147.602 301.992 148.074C301.992 148.303 301.98 148.545 301.98 148.775L301.954 149.297C301.954 150.011 301.992 150.673 302.068 151.412C302.182 152.903 302.246 154.356 302.334 155.821L302.359 156.369C302.359 156.586 302.385 156.802 302.359 157.019C302.321 157.465 302.208 157.936 301.98 158.37C301.739 158.803 301.385 159.172 300.98 159.44C300.588 159.695 300.158 159.848 299.74 159.95C298.905 160.154 298.108 160.141 297.336 160.077C296.552 160.001 295.805 159.873 295.033 159.657C294.907 159.618 294.793 159.542 294.717 159.453C294.438 159.147 294.173 158.854 293.907 158.548L294.464 158.777C294.223 158.79 293.996 158.765 293.755 158.726C293.629 158.714 293.401 158.688 293.224 158.612C293.034 158.535 292.869 158.433 292.743 158.293C292.465 158.038 292.3 157.656 292.313 157.274C292.313 157.223 292.325 157.185 292.325 157.134L292.363 156.866L292.414 156.535C292.528 155.617 292.616 154.687 292.654 153.77C292.692 152.852 292.68 151.935 292.629 151.03C292.578 150.113 292.49 149.221 292.3 148.354C292.249 148.099 292.351 147.832 292.54 147.679C292.907 147.386 293.211 147.195 293.565 146.991C293.907 146.8 294.274 146.621 294.628 146.481C295.362 146.175 296.134 145.959 296.918 145.857C297.703 145.742 298.513 145.742 299.297 145.831C299.69 145.895 300.082 145.959 300.461 146.06C300.651 146.111 300.841 146.175 301.031 146.226L301.094 146.252L301.221 146.29C301.309 146.328 301.385 146.366 301.474 146.405C301.638 146.494 301.803 146.596 301.929 146.698Z" fill="black"/>
<path d="M302.498 152.139C302.498 152.139 302.7 148.176 304.472 148.647C306.243 149.119 305.914 153.477 302.498 152.139Z" fill="white"/>
<path d="M294.502 152.317C294.426 152.419 294.426 152.725 294.654 153.311C295.147 154.521 295.565 154.776 295.729 154.827C295.78 154.853 295.894 154.891 296.109 154.776C296.235 154.483 296.223 153.323 294.97 152.138C294.932 152.113 294.717 152.087 294.502 152.317ZM295.856 156.267C295.653 156.267 295.463 156.241 295.274 156.178C294.502 155.91 293.869 155.146 293.35 153.846C293.186 153.451 292.705 152.228 293.452 151.387C293.819 150.966 294.299 150.737 294.805 150.711C295.248 150.699 295.666 150.839 295.944 151.106C297.298 152.381 297.665 153.833 297.551 154.776C297.488 155.337 297.26 155.757 296.893 155.974C296.552 156.165 296.197 156.267 295.856 156.267Z" fill="black"/>
<path d="M294.615 152.139C294.324 152.139 294.046 151.948 293.945 151.642C293.831 151.272 294.033 150.877 294.4 150.75L302.549 148.074C302.916 147.959 303.321 148.163 303.447 148.533C303.561 148.902 303.359 149.31 302.992 149.425L294.843 152.101C294.767 152.126 294.691 152.139 294.615 152.139Z" fill="black"/>
<path d="M292.655 156.944C292.503 156.944 292.111 156.905 291.491 156.23C291.187 155.899 290.2 154.701 290.327 153.197C290.365 152.713 290.58 152.305 290.959 152.038C291.769 151.452 292.996 151.694 293.224 151.745C293.604 151.834 293.844 152.216 293.756 152.598C293.667 152.981 293.3 153.223 292.92 153.134C292.579 153.044 291.997 153.032 291.794 153.185C291.769 153.197 291.744 153.223 291.731 153.325C291.643 154.344 292.528 155.351 292.807 155.529C293.123 155.606 293.363 155.886 293.363 156.217C293.363 156.612 293.06 156.931 292.667 156.944C292.655 156.944 292.655 156.944 292.655 156.944Z" fill="black"/>
<path d="M305.586 223.038C305.295 223.038 305.017 222.847 304.915 222.553C304.802 222.171 305.004 221.776 305.371 221.649C315.468 218.323 320.099 212.079 319.53 202.548C319.505 202.166 319.808 201.822 320.188 201.809C320.568 201.771 320.909 202.076 320.934 202.471C321.542 212.589 316.455 219.495 305.814 222.999C305.738 223.025 305.662 223.038 305.586 223.038Z" fill="white"/>
<path d="M51.6355 143.83C51.4078 143.83 51.18 143.716 51.0408 143.499L49.32 140.798C49.1049 140.466 49.2061 140.033 49.5351 139.817C49.8641 139.613 50.2943 139.702 50.5094 140.033L52.2302 142.735C52.4453 143.066 52.3441 143.512 52.0151 143.716C51.9013 143.792 51.7621 143.83 51.6355 143.83Z" fill="black"/>
<path d="M57.659 153.298C57.4186 153.298 57.1908 153.17 57.0643 152.966L55.3434 150.265C55.1283 149.934 55.2296 149.488 55.5585 149.284C55.8875 149.067 56.3177 149.169 56.5328 149.5L58.2537 152.202C58.4561 152.533 58.3676 152.966 58.0386 153.183C57.9247 153.259 57.7855 153.298 57.659 153.298Z" fill="black"/>
<path d="M57.1647 145.067C56.9369 145.067 56.6965 144.952 56.57 144.736C56.3549 144.404 56.4561 143.971 56.7851 143.767L59.4929 142.047C59.8219 141.843 60.2647 141.945 60.4672 142.276C60.6696 142.608 60.5811 143.041 60.2521 143.245L57.5443 144.965C57.4304 145.041 57.2912 145.067 57.1647 145.067Z" fill="black"/>
<path d="M47.7013 151.056C47.4736 151.056 47.2458 150.941 47.1066 150.724C46.8915 150.393 46.9927 149.96 47.3217 149.756L50.0295 148.036C50.3585 147.832 50.8014 147.934 51.0038 148.265C51.2063 148.596 51.1177 149.03 50.7887 149.233L48.0809 150.954C47.967 151.03 47.8279 151.056 47.7013 151.056Z" fill="black"/>
<path d="M137.88 366.708C137.526 366.708 137.172 366.784 136.843 366.937C136.236 367.218 135.78 367.715 135.552 368.339C135.325 368.963 135.337 369.639 135.616 370.238C135.894 370.849 136.387 371.308 137.007 371.537C137.64 371.767 138.311 371.741 138.905 371.474C139.513 371.193 139.968 370.696 140.209 370.072C140.436 369.448 140.411 368.772 140.133 368.161C139.854 367.562 139.361 367.103 138.741 366.874C138.463 366.759 138.171 366.708 137.88 366.708ZM137.88 373.117C137.425 373.117 136.957 373.028 136.527 372.863C135.54 372.506 134.768 371.779 134.338 370.836C133.907 369.881 133.857 368.823 134.224 367.842C134.591 366.861 135.312 366.084 136.248 365.65C137.197 365.217 138.26 365.179 139.234 365.536C140.209 365.905 140.981 366.619 141.411 367.574C141.854 368.517 141.892 369.588 141.525 370.569C141.17 371.537 140.449 372.315 139.5 372.761C138.981 372.99 138.425 373.117 137.88 373.117Z" fill="black"/>
<path d="M271.042 32.3478C271.371 33.0741 272.244 33.3926 272.966 33.0613C273.699 32.73 274.016 31.8635 273.687 31.1245C273.522 30.7677 273.231 30.5001 272.877 30.3727C272.51 30.2325 272.105 30.2453 271.764 30.4109C271.03 30.7422 270.713 31.6087 271.042 32.3478ZM272.371 34.6159C271.283 34.6159 270.245 33.9915 269.764 32.9339C269.106 31.494 269.739 29.7865 271.169 29.1239C271.865 28.8054 272.637 28.7671 273.358 29.0347C274.079 29.3023 274.648 29.8375 274.965 30.5383C275.635 31.9782 274.99 33.6857 273.56 34.3483C273.168 34.5267 272.763 34.6159 272.371 34.6159Z" fill="black"/>
<path d="M228.845 39.3944C228.642 39.3944 228.44 39.3052 228.301 39.1396C228.048 38.8338 228.098 38.3878 228.389 38.1329L231.73 35.3678C232.033 35.1257 232.476 35.1639 232.717 35.4698C232.97 35.7628 232.919 36.2088 232.628 36.4637L229.288 39.2288C229.161 39.3434 228.997 39.3944 228.845 39.3944Z" fill="black"/>
<path d="M240.511 29.7099C240.308 29.7099 240.106 29.6207 239.967 29.4423C239.726 29.1492 239.764 28.7032 240.068 28.4484L243.396 25.6833C243.7 25.4284 244.142 25.4794 244.395 25.7725C244.649 26.0783 244.598 26.5243 244.294 26.7791L240.966 29.5442C240.827 29.6461 240.675 29.7099 240.511 29.7099Z" fill="black"/>
<path d="M232.918 28.9713C232.716 28.9713 232.513 28.8821 232.374 28.7037L229.641 25.3397C229.388 25.0339 229.439 24.5879 229.742 24.3458C230.033 24.0909 230.476 24.1419 230.729 24.4477L233.462 27.8117C233.715 28.1048 233.665 28.5635 233.374 28.8056C233.235 28.9076 233.083 28.9713 232.918 28.9713Z" fill="black"/>
<path d="M242.497 40.7321C242.295 40.7321 242.105 40.6429 241.953 40.4645L239.22 37.1132C238.967 36.8074 239.018 36.3614 239.321 36.1066C239.625 35.8645 240.068 35.9027 240.308 36.2085L243.054 39.5725C243.294 39.8783 243.257 40.3243 242.953 40.5664C242.814 40.6811 242.662 40.7321 242.497 40.7321Z" fill="black"/>
<path d="M164.287 20.6507C163.958 20.6507 163.654 20.4213 163.591 20.0645C163.515 19.6823 163.768 19.3127 164.16 19.2363C166.932 18.7266 169.766 18.2551 172.562 17.8601C172.954 17.7964 173.321 18.0767 173.372 18.4717C173.435 18.854 173.157 19.2235 172.765 19.2745C169.981 19.6695 167.172 20.141 164.426 20.6507C164.376 20.6507 164.338 20.6507 164.287 20.6507Z" fill="#FF9F78"/>
<path d="M66.2749 72.7542C66.0977 72.7542 65.9206 72.6905 65.7814 72.5631C65.503 72.2955 65.4904 71.8495 65.7561 71.5564C78.2068 58.2151 93.0491 46.9254 109.865 38.0057C126.58 29.137 144.851 22.8295 164.16 19.2489C164.552 19.1725 164.919 19.4273 164.983 19.8096C165.059 20.1919 164.805 20.5614 164.413 20.6378C126.023 27.7608 91.3535 46.1991 66.781 72.5248C66.6418 72.6777 66.452 72.7542 66.2749 72.7542Z" fill="#FF9F78"/>
<path d="M83.8125 71.0083C83.6227 71.0083 83.4329 70.9318 83.2937 70.7916C83.028 70.4986 83.0406 70.0526 83.319 69.785C102.78 51.5506 127.618 38.1584 155.177 31.0481C155.556 30.9462 155.936 31.1756 156.037 31.5578C156.138 31.9401 155.91 32.3224 155.531 32.4243C128.2 39.4709 103.564 52.7484 84.2933 70.8171C84.1541 70.9573 83.977 71.0083 83.8125 71.0083Z" fill="#FF9F78"/>
<path d="M181.749 15.0562C181.344 15.0562 180.926 15.1581 180.546 15.3748C179.344 16.0374 178.914 17.5664 179.585 18.7642C180.255 19.9748 181.774 20.3953 182.963 19.7326C184.165 19.0573 184.596 17.541 183.925 16.3304C183.469 15.5149 182.622 15.0562 181.749 15.0562ZM181.761 21.4656C180.395 21.4656 179.066 20.7393 178.357 19.4523C177.307 17.5664 177.978 15.1836 179.863 14.1387C181.736 13.0811 184.115 13.7565 185.165 15.6423C186.202 17.5282 185.532 19.911 183.659 20.9687C183.052 21.3 182.407 21.4656 181.761 21.4656Z" fill="#FF9F78"/>
<path d="M59.6581 77.4176C59.7467 78.3096 59.8985 79.6603 60.1136 81.1002L63.3402 78.7556L59.6581 77.4176ZM59.6075 83.0625C59.5189 83.0625 59.4177 83.037 59.3418 82.9988C59.114 82.9096 58.9495 82.7057 58.9116 82.4636C58.4054 79.4946 58.1524 76.4492 58.1397 76.4237C58.1271 76.1816 58.2283 75.9523 58.4181 75.7993C58.6079 75.6592 58.861 75.621 59.0887 75.6974L65.0737 77.8636C65.3141 77.9655 65.4913 78.1822 65.5292 78.437C65.5672 78.6919 65.4533 78.9595 65.2508 79.1124L60.0251 82.9223C59.8985 83.0115 59.7467 83.0625 59.6075 83.0625Z" fill="#FF9F78"/>
</svg>
