<svg width="390" height="392" viewBox="0 0 390 392" fill="none" xmlns="http://www.w3.org/2000/svg">
<path d="M141.746 11.5209C133.493 14.1739 105.79 25.7031 69.2647 58.4314C60.4179 66.3655 24.6473 98.4119 9.36654 141.504C-16.6417 214.845 14.4766 326.431 104.132 371.271C208.549 423.5 353.289 357.325 383.381 271.289C396.719 233.131 384.482 171.741 350.876 130.012C323.816 96.4408 277.566 80.4734 279.348 48.7121C280.214 33.4141 287.143 31.0091 284.049 21.3766C276.687 -1.47122 200.011 -7.23586 141.746 11.5209Z" fill="#CADDFF"/>
<path d="M130.821 62.2736L124.152 56.5833C118.745 51.9716 110.826 51.9344 105.394 56.4966L78.1362 79.3567L105.79 102.936L114.018 93.2043L130.821 62.2736Z" fill="#99B9FF"/>
<path d="M79.2248 79.3569L105.703 101.944L113.424 92.8077L129.93 62.4349L123.694 57.1166C118.534 52.7156 111.036 52.6908 105.839 57.0422L79.2248 79.3569ZM105.79 103.655C105.617 103.655 105.456 103.593 105.332 103.482L77.6781 79.89C77.5173 79.766 77.4307 79.5677 77.4307 79.3569C77.4307 79.1462 77.5173 78.9478 77.6781 78.8114L104.936 55.9513C110.652 51.166 118.93 51.1908 124.609 56.038L131.278 61.7283C131.538 61.9514 131.6 62.3109 131.439 62.6085L114.637 93.5515C114.612 93.5887 114.587 93.6259 114.55 93.6631L106.322 103.395C106.198 103.544 106.025 103.63 105.839 103.643C105.827 103.643 105.802 103.655 105.79 103.655Z" fill="black"/>
<path d="M105.79 102.937C104.825 104.077 97.8589 99.7134 90.2247 93.205C82.5905 86.6841 77.1711 80.4856 78.1362 79.3574C79.0889 78.2169 86.055 82.5807 93.7015 89.0891C101.336 95.61 106.743 101.809 105.79 102.937Z" fill="#99B9FF"/>
<path d="M78.7425 79.8784C79.0271 81.242 83.1845 86.2752 90.6826 92.6597C98.1683 99.0566 103.786 102.354 105.171 102.429C104.887 101.065 100.73 96.0193 93.2438 89.6349C85.7581 83.2504 80.1283 79.9403 78.7425 79.8784ZM105.308 103.842C104.441 103.842 102.932 103.296 100.136 101.536C97.1661 99.6889 93.4789 96.9119 89.767 93.7383C86.0427 90.577 82.7267 87.3662 80.4253 84.7256C76.9484 80.7586 77.0474 79.5436 77.5918 78.899C78.1486 78.2543 79.3117 77.9568 83.7784 80.7586C86.7479 82.6181 90.4351 85.3827 94.147 88.5563C97.8713 91.73 101.187 94.9284 103.489 97.569C106.966 101.548 106.879 102.751 106.322 103.396C106.112 103.644 105.827 103.842 105.308 103.842Z" fill="black"/>
<path d="M92.6748 90.3042C90.4971 88.4447 88.3813 86.7587 86.4264 85.333C84.1869 87.7132 81.8855 90.4034 79.6336 93.4655C71.8014 104.152 67.9039 114.689 65.8623 122.189C68.8442 120.962 72.2097 119.326 75.7484 117.156C80.6358 114.144 84.5086 110.945 87.4781 108.119C86.0428 109.544 84.1992 111.726 82.7021 114.751C81.7865 116.586 81.2173 118.309 80.8461 119.747C84.4343 117.293 88.6041 114.007 92.7985 109.693C96.4362 105.962 99.3192 102.243 101.608 98.8582C99.4305 96.416 96.3001 93.3911 92.6748 90.3042Z" fill="white"/>
<path d="M86.5124 86.2752C84.2604 88.6927 82.1323 91.2588 80.2021 93.887C74.2506 102.007 69.7839 111.107 66.9381 120.962C69.8458 119.685 72.6792 118.198 75.3766 116.549C79.5339 113.995 83.4438 110.983 86.9949 107.598C87.2795 107.338 87.7125 107.35 87.9847 107.623C88.257 107.908 88.2446 108.342 87.9724 108.615C86.0793 110.511 84.5079 112.681 83.3325 115.061C82.8623 116.016 82.454 116.995 82.1075 117.999C85.7452 115.371 89.1726 112.421 92.303 109.197C95.3715 106.036 98.2049 102.577 100.717 98.9202C98.5019 96.4904 95.5076 93.6391 92.2163 90.8373C90.2861 89.1885 88.3683 87.6513 86.5124 86.2752ZM65.8616 122.896C65.6884 122.896 65.5276 122.834 65.3915 122.723C65.1935 122.549 65.1069 122.264 65.1811 122.004C68.0517 111.441 72.7287 101.697 79.0761 93.044C81.1548 90.2051 83.4562 87.4406 85.9184 84.8496C86.1659 84.5892 86.5618 84.552 86.8464 84.7628C88.8756 86.2504 90.9914 87.9364 93.132 89.7588C96.6459 92.7589 99.8506 95.821 102.127 98.3872C102.35 98.6227 102.375 98.9822 102.189 99.255C99.566 103.16 96.5717 106.83 93.3052 110.189C89.6427 113.945 85.5844 117.367 81.2538 120.33C81.0063 120.504 80.6846 120.491 80.4495 120.33C80.2021 120.156 80.1031 119.859 80.1649 119.574C80.6228 117.801 81.2538 116.065 82.0704 114.429C82.2931 113.983 82.5158 113.549 82.7633 113.127C80.6351 114.801 78.408 116.338 76.1066 117.751C72.9391 119.698 69.5859 121.421 66.1339 122.847C66.0472 122.884 65.9483 122.896 65.8616 122.896Z" fill="black"/>
<path d="M166.517 92.7222L173.199 98.4124C178.594 103.024 179.917 110.859 176.317 116.996L158.277 147.716L130.623 124.136L138.864 114.392L166.517 92.7222Z" fill="#99B9FF"/>
<path d="M131.625 124.048L158.103 146.635L175.71 116.635C179.137 110.783 177.888 103.345 172.74 98.9563L166.504 93.6256L139.345 114.911L131.625 124.048ZM158.276 148.421C158.115 148.421 157.954 148.371 157.818 148.259L130.177 124.668C129.88 124.42 129.843 123.974 130.09 123.676L138.318 113.944C138.355 113.907 138.38 113.87 138.417 113.833L166.084 92.1627C166.343 91.952 166.727 91.9644 166.974 92.1751L173.656 97.8778C179.335 102.713 180.709 110.907 176.922 117.354L158.882 148.073C158.783 148.259 158.598 148.383 158.4 148.408C158.363 148.421 158.326 148.421 158.276 148.421Z" fill="black"/>
<path d="M130.623 124.136C129.67 125.264 135.077 131.463 142.711 137.984C150.358 144.492 157.324 148.856 158.276 147.715C159.241 146.575 153.822 140.376 146.188 133.868C138.554 127.359 131.588 122.996 130.623 124.136Z" fill="#99B9FF"/>
<path d="M130.622 124.136H130.635H130.622ZM131.241 124.656C131.526 126.02 135.683 131.053 143.169 137.438C150.654 143.822 156.284 147.132 157.67 147.194C157.385 145.83 153.228 140.797 145.73 134.413C138.244 128.016 132.627 124.718 131.241 124.656ZM157.806 148.607C156.94 148.607 155.43 148.074 152.634 146.314C149.665 144.467 145.977 141.69 142.266 138.516C138.541 135.343 135.225 132.144 132.924 129.504C129.447 125.524 129.546 124.322 130.09 123.677C130.647 123.02 131.81 122.735 136.277 125.536C139.246 127.384 142.934 130.161 146.646 133.334C150.37 136.495 153.686 139.706 155.987 142.347C159.464 146.326 159.365 147.529 158.821 148.174C158.61 148.421 158.326 148.607 157.806 148.607Z" fill="black"/>
<path d="M145.174 135.07C147.352 136.93 149.344 138.765 151.064 140.463C149.096 143.079 146.82 145.794 144.172 148.509C134.954 158.017 125.229 163.596 118.188 166.832C118.918 163.67 119.982 160.075 121.541 156.22C123.694 150.889 126.218 146.513 128.507 143.116C127.344 144.777 125.501 146.959 122.779 148.93C121.121 150.133 119.525 150.976 118.164 151.571C119.995 147.616 122.544 142.967 126.107 138.095C129.176 133.893 132.356 130.434 135.313 127.607C138.072 129.38 141.549 131.984 145.174 135.07Z" fill="white"/>
<path d="M128.507 142.409C128.656 142.409 128.792 142.447 128.916 142.533C129.225 142.757 129.311 143.19 129.089 143.513C126.354 147.579 124.028 151.943 122.197 156.48C121.009 159.418 120.007 162.468 119.227 165.555C128.445 161.141 136.661 155.24 143.677 148.025C145.941 145.682 148.119 143.166 150.123 140.525C148.477 138.913 146.659 137.265 144.716 135.616C141.437 132.814 138.146 130.31 135.399 128.512C132.219 131.587 129.274 134.946 126.664 138.517C124.016 142.137 121.665 146.005 119.673 150.046C120.613 149.538 121.504 148.98 122.358 148.36C124.511 146.798 126.379 144.901 127.938 142.707C128.074 142.509 128.297 142.409 128.507 142.409ZM118.188 167.538C118.04 167.538 117.879 167.476 117.743 167.377C117.545 167.204 117.446 166.931 117.508 166.671C118.349 163.013 119.487 159.406 120.885 155.947C121.9 153.443 123.063 150.988 124.362 148.596C123.979 148.918 123.583 149.215 123.187 149.501C121.714 150.579 120.118 151.484 118.448 152.216C118.176 152.34 117.866 152.278 117.656 152.067C117.458 151.856 117.396 151.546 117.52 151.273C119.735 146.488 122.432 141.914 125.538 137.674C128.297 133.893 131.427 130.335 134.83 127.099C135.065 126.876 135.424 126.839 135.696 127.012C138.591 128.859 142.118 131.537 145.632 134.537C147.772 136.36 149.764 138.182 151.558 139.955C151.818 140.203 151.843 140.599 151.633 140.885C149.467 143.748 147.141 146.476 144.679 149.005C137.218 156.703 128.408 162.914 118.485 167.464C118.398 167.514 118.287 167.538 118.188 167.538Z" fill="black"/>
<path d="M201.732 53.2736L211.408 11.3591C212.496 6.69785 207.869 2.75558 203.464 4.57795L163.87 20.9793C152.932 25.5042 143.232 32.5953 135.573 41.6452C130.463 47.6949 126.342 54.5257 123.373 61.8896L110.48 92.374C109.453 93.6013 115.281 100.271 123.497 107.275C131.712 114.292 139.21 118.978 140.25 117.763L168.102 100.048C174.845 95.9071 180.895 90.7127 186.006 84.663C193.664 75.6131 199.047 64.8401 201.732 53.2736Z" fill="#5479F7"/>
<path d="M111.061 92.7719C110.999 93.9496 115.503 99.5407 123.954 106.743C132.404 113.946 138.603 117.492 139.754 117.256C139.791 117.219 139.828 117.194 139.865 117.169L167.73 99.4539C174.423 95.3381 180.387 90.2181 185.473 84.2055C193.02 75.2797 198.403 64.5314 201.038 53.1137L201.718 53.2749L201.038 53.1137L210.726 11.1992C211.172 9.27769 210.541 7.35615 209.043 6.07925C207.534 4.80235 205.554 4.48003 203.735 5.23625L164.129 21.6376C153.352 26.1005 143.652 33.1792 136.104 42.1175C131.031 48.1177 126.96 54.8617 124.015 62.1512L111.135 92.6603C111.11 92.6975 111.086 92.7347 111.061 92.7719ZM139.729 118.669C138.801 118.669 137.205 118.099 134.186 116.215C130.994 114.219 127.034 111.231 123.038 107.822C119.041 104.413 115.466 100.966 112.991 98.1274C109.452 94.0736 109.366 92.7347 109.873 92.0157L122.716 61.6181C125.723 54.1923 129.856 47.3119 135.027 41.2001C142.724 32.0883 152.61 24.8732 163.597 20.3235L203.191 3.93455C205.48 2.97998 208.066 3.38909 209.947 5.0007C211.827 6.59993 212.656 9.10413 212.1 11.5216L202.411 53.436C199.726 65.0645 194.233 76.0235 186.537 85.1229C181.365 91.2471 175.29 96.4662 168.472 100.656L140.694 118.31C140.484 118.521 140.199 118.669 139.729 118.669Z" fill="black"/>
<path d="M139.062 117.02C138.096 118.148 131.13 113.796 123.496 107.276C115.862 100.767 110.443 94.5685 111.408 93.428C112.36 92.2999 119.339 96.6512 126.973 103.172C134.607 109.681 140.014 115.879 139.062 117.02Z" fill="#99B9FF"/>
<path d="M112.013 93.9487C112.298 95.3124 116.467 100.358 123.953 106.742C131.439 113.127 137.056 116.437 138.442 116.499C138.157 115.135 134 110.102 126.514 103.718C119.029 97.3207 113.399 94.0231 112.013 93.9487ZM138.578 117.912C137.712 117.912 136.202 117.367 133.406 115.619C130.437 113.759 126.762 110.995 123.037 107.821C119.313 104.647 115.997 101.449 113.696 98.8084C110.219 94.8289 110.318 93.6264 110.862 92.9818C111.419 92.3247 112.582 92.0396 117.061 94.8289C120.018 96.6885 123.706 99.4654 127.418 102.627C131.142 105.8 134.458 108.999 136.759 111.639C140.236 115.619 140.149 116.821 139.593 117.478C139.382 117.726 139.098 117.912 138.578 117.912Z" fill="black"/>
<path d="M134.063 112.345C131.91 110.002 128.978 107.188 125.612 104.312C122.172 101.374 118.869 98.8823 116.196 97.1343C111.717 101.163 106.929 106.147 102.338 112.234C89.198 129.677 84.2488 147.417 82.1948 158.326C94.3328 144.057 101.101 137.412 102.462 138.392C103.353 139.024 101.992 142.83 98.3788 149.822C103.316 147.479 109.453 143.896 115.577 138.404C125.451 129.54 130.994 119.585 134.063 112.345Z" fill="white"/>
<path d="M116.257 98.0279C111.358 102.491 106.866 107.412 102.907 112.656C93.3549 125.339 86.7971 139.843 83.4193 155.823C88.6407 149.724 92.8352 145.137 95.879 142.137C100.432 137.661 101.967 137.178 102.87 137.822C103.736 138.43 104.194 139.781 99.9745 148.248C105.468 145.447 110.553 141.963 115.107 137.872C122.877 130.905 128.977 122.363 133.233 112.495C131.068 110.165 128.21 107.462 125.154 104.859C122.048 102.206 118.918 99.8007 116.257 98.0279ZM82.1943 159.046C82.083 159.046 81.984 159.021 81.885 158.972C81.6004 158.835 81.4396 158.513 81.5014 158.203C84.7432 140.959 91.5732 125.351 101.781 111.801C105.901 106.334 110.591 101.226 115.725 96.6022C115.961 96.3915 116.307 96.3667 116.579 96.5403C119.376 98.375 122.741 100.941 126.069 103.768C129.323 106.545 132.343 109.421 134.582 111.863C134.768 112.074 134.817 112.371 134.706 112.619C130.363 122.872 124.077 131.723 116.035 138.938C110.863 143.575 105.023 147.455 98.6877 150.467C98.4031 150.591 98.0814 150.542 97.8711 150.319C97.6607 150.096 97.6112 149.773 97.7597 149.501C101.88 141.517 102.09 139.496 102.028 139.013C101.088 139.149 97.3761 141.579 82.7264 158.798C82.5903 158.959 82.3923 159.046 82.1943 159.046Z" fill="black"/>
<path d="M180.634 75.7879C172.32 85.6312 157.633 86.8337 147.846 78.4781C138.046 70.1225 136.846 55.37 145.161 45.5391C153.488 35.6958 168.162 34.4933 177.962 42.8489C187.749 51.2045 188.949 65.9447 180.634 75.7879Z" fill="#99B9FF"/>
<path d="M177.207 72.8627C170.501 80.8092 158.648 81.7761 150.754 75.0321C142.847 68.3005 141.882 56.3993 148.588 48.4528C155.294 40.5187 167.148 39.5517 175.054 46.2833C182.948 53.0273 183.913 64.9285 177.207 72.8627Z" fill="white"/>
<path d="M151.447 57.998C151.075 57.998 150.766 57.7129 150.741 57.341C150.704 56.9567 151.001 56.6219 151.385 56.5847L175.228 54.626C175.624 54.6012 175.958 54.8864 175.995 55.2831C176.02 55.6674 175.735 56.0145 175.352 56.0393L151.496 57.998C151.484 57.998 151.459 57.998 151.447 57.998Z" fill="#99B9FF"/>
<path d="M148.106 65.0501C147.735 65.0501 147.438 64.765 147.401 64.393C147.376 64.0087 147.661 63.6616 148.044 63.6368L165.478 62.1988C165.874 62.174 166.208 62.4591 166.245 62.8558C166.27 63.2401 165.985 63.5872 165.589 63.612L148.168 65.0501C148.143 65.0501 148.119 65.0501 148.106 65.0501Z" fill="#99B9FF"/>
<path d="M140.62 54.612C140.558 54.612 140.484 54.5996 140.422 54.5748C140.051 54.4632 139.841 54.0665 139.952 53.6946C140.905 50.5209 142.476 47.62 144.629 45.0786C148.564 40.4173 154.057 37.4668 160.096 36.7478C160.479 36.6982 160.826 36.9833 160.875 37.3677C160.912 37.752 160.64 38.1115 160.256 38.1487C154.577 38.8305 149.405 41.6074 145.706 45.996C143.676 48.3886 142.192 51.116 141.301 54.1037C141.202 54.4136 140.93 54.612 140.62 54.612Z" fill="black"/>
<path d="M162.891 84.7371C160.986 84.7371 159.08 84.514 157.237 84.0677C156.866 83.9685 156.631 83.5842 156.717 83.2123C156.816 82.828 157.187 82.5925 157.571 82.6916C159.303 83.1131 161.097 83.3239 162.891 83.3239H162.904C163.287 83.3239 163.609 83.6462 163.609 84.0305C163.609 84.4272 163.287 84.7371 162.904 84.7371C162.891 84.7371 162.891 84.7371 162.891 84.7371Z" fill="black"/>
<path d="M169.561 83.7584C169.264 83.7584 168.979 83.56 168.893 83.2625C168.781 82.8782 168.992 82.4815 169.363 82.3823C173.05 81.279 176.428 79.2211 179.1 76.4317C179.373 76.1466 179.818 76.1466 180.103 76.4193C180.375 76.6921 180.387 77.1384 180.115 77.4111C177.269 80.374 173.693 82.5559 169.759 83.7336C169.697 83.7584 169.635 83.7584 169.561 83.7584Z" fill="black"/>
<path d="M184.768 69.3776C184.681 69.3776 184.607 69.3528 184.52 69.328C184.161 69.1916 183.976 68.7949 184.099 68.423C187.316 59.5591 184.669 49.4927 177.505 43.3809C176.651 42.6619 175.748 41.9925 174.807 41.4098C174.485 41.199 174.374 40.7651 174.584 40.4304C174.795 40.0957 175.228 39.9965 175.55 40.2073C176.552 40.8271 177.517 41.5338 178.42 42.3024C186.03 48.7984 188.851 59.4847 185.423 68.9065C185.324 69.1916 185.052 69.3776 184.768 69.3776Z" fill="black"/>
<path d="M95.9908 134.574C95.83 134.574 95.6691 134.525 95.533 134.401C95.236 134.153 95.2113 133.706 95.4588 133.409L118.052 106.668C118.312 106.371 118.757 106.334 119.054 106.594C119.351 106.842 119.388 107.288 119.129 107.586L96.5352 134.326C96.3867 134.487 96.1888 134.574 95.9908 134.574Z" fill="#99B9FF"/>
<path d="M114.798 118.272C114.637 118.272 114.476 118.223 114.353 118.099C114.056 117.851 114.019 117.404 114.266 117.107L123.447 106.247C123.694 105.949 124.14 105.912 124.437 106.173C124.734 106.421 124.771 106.867 124.511 107.164L115.342 118.024C115.206 118.185 115.008 118.272 114.798 118.272Z" fill="#FF9F78"/>
<path d="M76.1806 107.288C76.0197 107.288 75.8589 107.238 75.7228 107.127C75.4258 106.866 75.3887 106.42 75.6361 106.122L88.8877 90.4402C89.1476 90.1427 89.593 90.1179 89.8899 90.3658C90.1869 90.6138 90.224 91.0601 89.9642 91.3576L76.7126 107.04C76.5765 107.213 76.3785 107.288 76.1806 107.288Z" fill="#FF9F78"/>
<path d="M82.8752 104.709C82.7144 104.709 82.5535 104.647 82.4174 104.535C82.1205 104.275 82.0834 103.841 82.3432 103.543L89.0494 95.5968C89.2969 95.2992 89.7423 95.2621 90.0393 95.51C90.3362 95.7703 90.3733 96.2166 90.1259 96.5142L83.4073 104.448C83.2712 104.622 83.0732 104.709 82.8752 104.709Z" fill="#99B9FF"/>
<path d="M135.375 140.141C135.214 140.141 135.053 140.079 134.917 139.967C134.62 139.719 134.583 139.273 134.843 138.975L138.666 134.45C138.913 134.153 139.359 134.116 139.656 134.364C139.953 134.624 139.99 135.07 139.73 135.368L135.907 139.893C135.771 140.054 135.573 140.141 135.375 140.141Z" fill="#FF9F78"/>
<path d="M127.951 157.682C127.79 157.682 127.629 157.62 127.493 157.509C127.196 157.261 127.159 156.814 127.419 156.517L141.264 140.128C141.512 139.83 141.957 139.793 142.254 140.041C142.551 140.302 142.588 140.748 142.341 141.045L128.495 157.434C128.347 157.595 128.149 157.682 127.951 157.682Z" fill="#99B9FF"/>
<path d="M54.12 134.786C53.9096 134.786 53.6993 134.686 53.5632 134.5C53.3281 134.178 53.39 133.744 53.6993 133.509C55.2212 132.368 56.8297 131.302 58.4753 130.347C58.8218 130.161 59.2548 130.273 59.4404 130.608C59.6384 130.955 59.5146 131.389 59.1806 131.575C57.5844 132.504 56.0254 133.533 54.5407 134.637C54.4169 134.736 54.2685 134.786 54.12 134.786ZM45.9537 142.546C45.7929 142.546 45.632 142.497 45.4959 142.385C45.199 142.125 45.1619 141.678 45.4093 141.381C46.6466 139.918 47.9582 138.505 49.3316 137.203C49.6162 136.943 50.0616 136.955 50.3214 137.228C50.5936 137.513 50.5813 137.959 50.2967 138.232C48.9728 139.496 47.686 140.86 46.4858 142.298C46.3497 142.459 46.1517 142.546 45.9537 142.546ZM39.6558 151.906C39.5445 151.906 39.4331 151.881 39.3217 151.819C38.9753 151.633 38.8516 151.212 39.0372 150.865C39.9404 149.166 40.9303 147.517 41.982 145.955C42.1923 145.633 42.6377 145.546 42.9594 145.769C43.2811 145.992 43.3678 146.426 43.145 146.749C42.1304 148.274 41.1653 149.873 40.2745 151.534C40.1507 151.77 39.9033 151.906 39.6558 151.906ZM35.251 162.307C35.1768 162.307 35.1025 162.295 35.0283 162.27C34.6571 162.146 34.4591 161.749 34.5829 161.377C35.1768 159.555 35.8449 157.757 36.5749 156.022C36.7234 155.662 37.1441 155.489 37.5029 155.65C37.8493 155.799 38.0226 156.22 37.8741 156.58C37.1565 158.266 36.5007 160.026 35.9191 161.811C35.8202 162.121 35.548 162.307 35.251 162.307ZM32.6279 173.303C32.5908 173.303 32.5537 173.303 32.5165 173.291C32.133 173.229 31.8731 172.869 31.935 172.485C32.232 170.601 32.6032 168.716 33.0362 166.882C33.1228 166.497 33.5064 166.262 33.89 166.361C34.2612 166.448 34.4962 166.832 34.4096 167.204C33.9766 169.001 33.6177 170.849 33.3208 172.708C33.2713 173.055 32.9743 173.303 32.6279 173.303ZM31.6875 184.572H31.6752C31.2916 184.572 30.9699 184.25 30.9823 183.866C31.007 181.956 31.0936 180.035 31.2545 178.163C31.2792 177.766 31.6133 177.481 32.0092 177.506C32.3928 177.543 32.6898 177.89 32.6526 178.274C32.5042 180.122 32.4052 182.006 32.3928 183.878C32.3804 184.262 32.0711 184.572 31.6875 184.572ZM166.468 189.915C166.381 189.915 166.294 189.903 166.208 189.866C165.849 189.729 165.663 189.32 165.812 188.948C166.393 187.448 166.827 186.023 167.099 184.684C167.173 184.299 167.544 184.051 167.928 184.138C168.311 184.213 168.559 184.585 168.472 184.969C168.188 186.382 167.73 187.895 167.123 189.469C167.012 189.742 166.752 189.915 166.468 189.915ZM32.3557 195.878C32.0092 195.878 31.6999 195.618 31.6504 195.258C31.4153 193.386 31.2297 191.465 31.1184 189.568C31.0936 189.184 31.3906 188.849 31.7742 188.824C32.1577 188.787 32.5042 189.097 32.5165 189.481C32.6279 191.353 32.8135 193.225 33.0486 195.072C33.0981 195.457 32.8259 195.816 32.4423 195.866C32.4176 195.878 32.3804 195.878 32.3557 195.878ZM161.123 199.883C160.986 199.883 160.85 199.833 160.739 199.759C160.405 199.548 160.318 199.102 160.541 198.779C161.63 197.118 162.607 195.506 163.436 193.994C163.622 193.647 164.043 193.523 164.389 193.709C164.735 193.895 164.859 194.329 164.674 194.663C163.82 196.225 162.818 197.874 161.716 199.56C161.58 199.771 161.358 199.883 161.123 199.883ZM34.6447 206.949C34.3354 206.949 34.0632 206.75 33.9642 206.441C33.4445 204.631 32.9867 202.771 32.6032 200.887C32.5289 200.502 32.764 200.13 33.1476 200.056C33.5311 199.982 33.9023 200.217 33.9889 200.602C34.3601 202.449 34.8179 204.271 35.3252 206.044C35.4242 206.428 35.2139 206.812 34.8427 206.924C34.7808 206.949 34.7066 206.949 34.6447 206.949ZM154.379 208.957C154.218 208.957 154.07 208.908 153.934 208.796C153.637 208.548 153.587 208.102 153.835 207.804C155.072 206.292 156.235 204.804 157.299 203.366C157.534 203.056 157.98 202.994 158.289 203.23C158.598 203.465 158.66 203.912 158.438 204.221C157.349 205.672 156.173 207.172 154.924 208.697C154.788 208.87 154.577 208.957 154.379 208.957ZM146.918 217.462C146.745 217.462 146.572 217.4 146.436 217.276C146.151 217.003 146.139 216.557 146.411 216.271C147.71 214.871 148.985 213.47 150.197 212.094C150.445 211.796 150.89 211.771 151.187 212.032C151.484 212.292 151.509 212.738 151.249 213.036C150.036 214.412 148.749 215.825 147.438 217.238C147.289 217.387 147.104 217.462 146.918 217.462ZM38.6289 217.536C38.369 217.536 38.1216 217.387 37.9978 217.139C37.1936 215.441 36.4388 213.668 35.7583 211.87C35.6222 211.511 35.8078 211.102 36.1666 210.953C36.5378 210.817 36.9461 211.003 37.0822 211.375C37.738 213.135 38.4804 214.871 39.2723 216.519C39.4331 216.879 39.2846 217.3 38.9382 217.462C38.8392 217.511 38.7402 217.536 38.6289 217.536ZM138.999 225.532C138.814 225.532 138.628 225.458 138.492 225.309C138.22 225.024 138.22 224.577 138.505 224.305C139.853 223.003 141.202 221.664 142.501 220.338C142.786 220.065 143.231 220.053 143.503 220.325C143.775 220.61 143.775 221.057 143.503 221.329C142.192 222.668 140.843 224.007 139.482 225.334C139.346 225.458 139.173 225.532 138.999 225.532ZM44.4442 227.23C44.2215 227.23 44.0112 227.131 43.875 226.945C42.7491 225.433 41.685 223.834 40.6952 222.172C40.4972 221.85 40.6085 221.404 40.9426 221.205C41.2767 221.007 41.7098 221.119 41.9077 221.453C42.8728 223.065 43.9122 224.627 45.001 226.09C45.2361 226.4 45.1742 226.846 44.8649 227.082C44.7288 227.181 44.5803 227.23 44.4442 227.23ZM130.685 233.206C130.487 233.206 130.301 233.119 130.153 232.958C129.905 232.673 129.93 232.214 130.227 231.966C131.588 230.764 132.998 229.499 134.409 228.185C134.694 227.925 135.139 227.937 135.411 228.222C135.671 228.52 135.646 228.966 135.362 229.226C133.939 230.54 132.528 231.817 131.155 233.032C131.019 233.144 130.858 233.206 130.685 233.206ZM52.1898 235.4C52.0413 235.4 51.8804 235.351 51.7567 235.239C50.4823 234.235 49.2945 233.169 48.218 232.053C47.9953 231.817 47.7602 231.582 47.5375 231.334C47.2777 231.049 47.29 230.602 47.5746 230.342C47.8592 230.069 48.3046 230.082 48.5645 230.367C48.7872 230.602 49.0099 230.838 49.2326 231.061C50.2596 232.127 51.4103 233.169 52.6352 234.136C52.9322 234.384 52.9817 234.83 52.7466 235.127C52.6105 235.301 52.4001 235.4 52.1898 235.4ZM121.739 240.074C121.504 240.074 121.269 239.95 121.133 239.727C120.935 239.392 121.046 238.958 121.38 238.76C123.013 237.793 124.548 236.739 125.933 235.611C126.23 235.363 126.676 235.412 126.923 235.71C127.171 236.02 127.121 236.466 126.824 236.714C125.377 237.88 123.793 238.983 122.098 239.987C121.986 240.049 121.863 240.074 121.739 240.074ZM61.816 241.252C61.7171 241.252 61.6181 241.227 61.5191 241.177C59.7497 240.359 58.0546 239.466 56.4709 238.512C56.1368 238.301 56.0254 237.867 56.2234 237.532C56.4214 237.198 56.8544 237.098 57.1885 237.297C58.7351 238.227 60.3808 239.094 62.113 239.9C62.4594 240.061 62.6203 240.483 62.4471 240.83C62.3357 241.09 62.0759 241.252 61.816 241.252ZM111.42 244.562C111.123 244.562 110.838 244.363 110.752 244.066C110.628 243.694 110.838 243.297 111.209 243.173C113.028 242.615 114.785 241.971 116.431 241.264C116.79 241.115 117.21 241.276 117.359 241.636C117.507 241.995 117.347 242.404 116.988 242.566C115.293 243.297 113.486 243.954 111.63 244.537C111.556 244.549 111.482 244.562 111.42 244.562ZM72.4322 245.008C72.3703 245.008 72.3084 245.008 72.2589 244.983C70.3906 244.5 68.5594 243.942 66.8024 243.322C66.4436 243.198 66.2456 242.789 66.3693 242.429C66.5054 242.057 66.9014 241.859 67.2726 241.995C68.9801 242.59 70.7865 243.136 72.6054 243.619C72.9889 243.719 73.2117 244.103 73.1127 244.487C73.0261 244.797 72.7415 245.008 72.4322 245.008ZM100.395 246.88C100.049 246.88 99.7396 246.607 99.6901 246.26C99.653 245.863 99.9252 245.516 100.309 245.467C102.177 245.243 104.033 244.933 105.815 244.562C106.198 244.487 106.57 244.735 106.656 245.107C106.73 245.491 106.483 245.863 106.099 245.95C104.281 246.322 102.387 246.632 100.482 246.867C100.457 246.88 100.42 246.88 100.395 246.88ZM83.5185 247.004C83.4937 247.004 83.469 246.991 83.4442 246.991C81.5635 246.805 79.6704 246.533 77.8145 246.198C77.4309 246.136 77.1711 245.764 77.2453 245.38C77.3072 244.995 77.6784 244.747 78.0619 244.809C79.8808 245.132 81.7367 245.392 83.5927 245.59C83.9763 245.628 84.2608 245.975 84.2237 246.359C84.1866 246.731 83.8773 247.004 83.5185 247.004ZM91.4744 247.413C90.6949 247.413 89.903 247.4 89.1235 247.376C88.7275 247.363 88.4306 247.041 88.4306 246.644C88.443 246.26 88.7894 245.938 89.1606 245.962C91.0413 246.012 92.9096 246 94.7409 245.925C95.1244 245.888 95.4585 246.21 95.4832 246.595C95.4956 246.991 95.1987 247.314 94.8027 247.338C93.7015 247.388 92.5756 247.413 91.4744 247.413Z" fill="white"/>
<path d="M40.0392 128.412C39.8165 128.412 39.6062 128.313 39.4701 128.127C39.235 127.817 39.2968 127.37 39.6062 127.135C41.1404 125.994 42.7489 124.928 44.3946 123.986C44.7286 123.788 45.1617 123.899 45.3473 124.246C45.5453 124.581 45.4339 125.015 45.0875 125.213C43.4913 126.131 41.9323 127.16 40.4475 128.275C40.3238 128.362 40.1753 128.412 40.0392 128.412ZM31.8606 136.172C31.6998 136.172 31.5389 136.123 31.4152 136.011C31.1059 135.751 31.0687 135.317 31.3286 135.007C32.5535 133.544 33.8774 132.143 35.2385 130.829C35.5231 130.569 35.9685 130.581 36.2407 130.866C36.5005 131.151 36.4882 131.598 36.2036 131.858C34.8796 133.123 33.6052 134.499 32.405 135.924C32.2689 136.086 32.0586 136.172 31.8606 136.172ZM25.5627 145.532C25.4513 145.532 25.34 145.507 25.2286 145.445C24.8946 145.259 24.7585 144.838 24.944 144.491C25.8597 142.792 26.8495 141.144 27.8888 139.594C28.1116 139.259 28.5446 139.185 28.8663 139.396C29.188 139.619 29.2746 140.053 29.0643 140.375C28.0373 141.9 27.0722 143.511 26.1814 145.16C26.0576 145.396 25.8102 145.532 25.5627 145.532ZM21.1579 155.933C21.0836 155.933 21.0094 155.921 20.9352 155.896C20.5763 155.784 20.366 155.375 20.4897 155.003C21.0836 153.181 21.7518 151.383 22.4818 149.648C22.6303 149.288 23.051 149.127 23.4098 149.276C23.7686 149.425 23.9295 149.846 23.781 150.206C23.0633 151.904 22.4076 153.665 21.826 155.45C21.727 155.747 21.4548 155.933 21.1579 155.933ZM18.5348 166.929C18.4977 166.929 18.4605 166.929 18.4234 166.929C18.0399 166.867 17.78 166.496 17.8419 166.111C18.1388 164.227 18.51 162.343 18.9431 160.508C19.0421 160.123 19.4256 159.888 19.7968 159.987C20.1804 160.074 20.4031 160.458 20.3165 160.842C19.8958 162.64 19.5246 164.487 19.24 166.334C19.1782 166.681 18.8812 166.929 18.5348 166.929ZM17.5944 178.211C17.5944 178.211 17.5944 178.211 17.5821 178.211C17.1985 178.198 16.8892 177.876 16.8892 177.492C16.9139 175.583 17.0005 173.673 17.1614 171.789C17.1985 171.392 17.5326 171.107 17.9161 171.132C18.3121 171.169 18.5966 171.516 18.5595 171.901C18.411 173.748 18.3244 175.645 18.2997 177.504C18.2997 177.901 17.978 178.211 17.5944 178.211ZM17.8171 185.227C17.4583 185.227 17.149 184.942 17.1242 184.57C17.0871 184.112 17.05 183.653 17.0253 183.194C17.0005 182.81 17.2975 182.475 17.6934 182.451C18.077 182.426 18.411 182.723 18.4358 183.12C18.4605 183.566 18.4853 184.013 18.5224 184.459C18.5595 184.856 18.2626 185.19 17.879 185.215C17.8543 185.227 17.8419 185.227 17.8171 185.227Z" fill="white"/>
<path d="M242.748 141.281H256.136C259.984 141.281 262.36 136.93 260.355 133.533L227.208 77.3369C225.302 74.1012 220.662 74.1012 218.757 77.3369L185.622 133.533C183.617 136.93 185.993 141.281 189.841 141.281H201.051C204.082 141.281 206.408 144.07 205.926 147.17C200.197 184.014 170.836 299.17 41.9575 290.678C48.0698 304.662 57.758 320.121 72.0242 333.857C85.3252 346.675 101.769 355.725 119.586 360.486C126.924 362.457 134.211 364.428 135.585 364.912C225.797 306.211 237.143 180.89 237.811 146.265C237.861 143.488 240.063 141.281 242.748 141.281Z" fill="#FF9F78"/>
<path d="M149.517 338.903L113.09 371.805C113.066 371.842 113.029 371.854 112.979 371.854L22.7916 371.544C22.6555 371.544 22.5812 371.383 22.6802 371.309L58.8344 338.63C58.8592 338.605 58.8963 338.593 58.9458 338.593L149.406 338.667C149.542 338.667 149.603 338.816 149.517 338.903Z" fill="#5479F7"/>
<path d="M24.2515 370.838L112.781 371.136L147.933 339.374L59.1436 339.3L24.2515 370.838ZM112.979 372.561L22.7915 372.251C22.4326 372.239 22.1109 372.028 21.9872 371.694C21.8635 371.371 21.9501 371.012 22.2099 370.776L58.3641 338.11C58.525 337.973 58.7229 337.887 58.9457 337.887L149.405 337.961C149.764 337.961 150.074 338.172 150.21 338.507C150.333 338.829 150.247 339.188 149.987 339.424L113.561 372.338C113.4 372.475 113.202 372.561 112.979 372.561Z" fill="black"/>
<path d="M149.591 338.691V358.526L113.425 391.23C113.276 391.354 113.041 391.267 113.041 391.093V371.853C113.041 371.853 149.071 338.716 149.591 338.691Z" fill="#99B9FF"/>
<path d="M113.746 372.164V389.979L148.886 358.218V340.168C144.32 344.147 126.243 360.672 113.746 372.164ZM113.264 392C113.14 392 113.004 391.975 112.88 391.913C112.559 391.777 112.336 391.442 112.336 391.095V371.854C112.336 371.656 112.423 371.458 112.571 371.321C112.658 371.247 121.678 362.953 130.648 354.759C148.985 338.011 149.183 337.998 149.567 337.986C149.765 337.973 149.938 338.048 150.086 338.184C150.222 338.32 150.297 338.494 150.297 338.692V358.528C150.297 358.726 150.21 358.924 150.062 359.048L113.895 391.764C113.722 391.913 113.499 392 113.264 392Z" fill="black"/>
<path d="M113.04 391.292L22.5684 390.982L22.655 371.605L113.04 371.853C113.04 371.853 113.04 391.403 113.04 391.292Z" fill="white"/>
<path d="M23.2869 390.275L112.336 390.585V372.56L23.3487 372.312L23.2869 390.275ZM113.041 391.998L22.5692 391.688C22.3836 391.688 22.2104 391.614 22.0743 391.478C21.9382 391.354 21.864 391.168 21.8763 390.982L21.9506 371.605C21.9506 371.208 22.2599 370.898 22.6558 370.898L113.054 371.146C113.437 371.146 113.747 371.456 113.747 371.853V391.292C113.747 391.478 113.672 391.664 113.549 391.787C113.413 391.924 113.227 391.998 113.041 391.998Z" fill="black"/>
<path d="M266.394 314.915L230.004 347.792L129.225 347.482C129.114 347.482 129.065 347.358 129.139 347.296L165.392 314.53L266.258 314.605C266.431 314.605 266.517 314.803 266.394 314.915Z" fill="#5479F7"/>
<path d="M266.393 314.915H266.405H266.393ZM130.771 346.775L229.743 347.085L264.895 315.311L165.663 315.237L130.771 346.775ZM230.003 348.498L129.224 348.188C128.878 348.188 128.581 347.978 128.457 347.655C128.334 347.345 128.42 346.998 128.668 346.775L164.921 314.01C165.057 313.898 165.218 313.849 165.391 313.824L266.256 313.898C266.628 313.898 266.962 314.121 267.098 314.468C267.234 314.815 267.135 315.187 266.863 315.435L230.473 348.312C230.35 348.436 230.177 348.498 230.003 348.498Z" fill="black"/>
<path d="M266.554 314.628V358.278L230.288 391.081C230.177 391.168 230.004 391.106 230.004 390.97V347.791C230.004 347.791 266.034 314.653 266.554 314.628Z" fill="#99B9FF"/>
<path d="M230.709 348.101V389.742L265.849 357.969V316.104C261.271 320.083 243.206 336.609 230.709 348.101ZM230.165 391.825C230.041 391.825 229.93 391.8 229.806 391.751C229.497 391.614 229.299 391.304 229.299 390.97V347.791C229.299 347.592 229.385 347.394 229.534 347.27C229.621 347.183 238.641 338.89 247.611 330.695C265.948 313.947 266.134 313.934 266.529 313.922C266.715 313.922 266.901 313.984 267.037 314.12C267.185 314.257 267.259 314.443 267.259 314.629V358.279C267.259 358.489 267.173 358.675 267.024 358.812L230.759 391.602C230.598 391.751 230.388 391.825 230.165 391.825Z" fill="black"/>
<path d="M230.003 391.292L129.088 390.982C129.311 391.18 129.162 347.542 129.162 347.542L230.003 347.79C230.003 347.79 230.003 391.403 230.003 391.292Z" fill="white"/>
<path d="M129.83 390.275L229.298 390.585V348.497L129.88 348.261C129.88 350.84 129.905 360.026 129.917 369.225C129.917 375.522 129.917 380.555 129.905 384.163C129.88 387.485 129.88 389.283 129.83 390.275ZM230.003 391.998L129.113 391.688C128.94 391.713 128.754 391.638 128.618 391.514C128.42 391.329 128.346 391.056 128.407 390.808C128.544 389.159 128.519 364.142 128.469 347.554C128.457 347.356 128.544 347.183 128.667 347.046C128.803 346.91 128.977 346.835 129.175 346.835L230.003 347.083C230.399 347.083 230.708 347.393 230.708 347.79V391.291C230.708 391.477 230.634 391.663 230.498 391.787C230.374 391.924 230.189 391.998 230.003 391.998Z" fill="black"/>
<path d="M198.662 373.528C198.464 373.528 198.279 373.441 198.13 373.292C197.87 372.994 197.895 372.548 198.192 372.288L207.373 363.994C207.658 363.734 208.103 363.759 208.363 364.044C208.635 364.341 208.61 364.788 208.313 365.048L199.133 373.342C198.996 373.466 198.823 373.528 198.662 373.528Z" fill="#CADDFF"/>
<path d="M384.556 273.558L347.833 306.745L248.39 306.435C248.242 306.435 248.168 306.274 248.267 306.174L284.446 273.483L384.556 273.558Z" fill="#5479F7"/>
<path d="M249.813 305.728L347.56 306.038L382.725 274.264L284.717 274.19L249.813 305.728ZM347.832 307.451L248.377 307.141C248.019 307.141 247.697 306.918 247.573 306.583C247.449 306.248 247.536 305.889 247.796 305.653L283.975 272.962C284.099 272.838 284.272 272.776 284.445 272.776L384.568 272.851C384.853 272.851 385.113 273.024 385.224 273.297C385.323 273.57 385.249 273.88 385.038 274.078L348.303 307.265C348.179 307.389 348.006 307.451 347.832 307.451Z" fill="black"/>
<path d="M384.556 273.583V358.528L348.39 391.231C348.254 391.355 348.006 391.268 348.006 391.095V306.745C348.006 306.745 384.037 273.608 384.556 273.583Z" fill="#99B9FF"/>
<path d="M348.723 307.055V389.979L383.863 358.218V275.071C379.285 279.038 361.207 295.563 348.723 307.055ZM348.228 392C348.104 392 347.968 391.975 347.845 391.913C347.523 391.764 347.312 391.442 347.312 391.095V306.745C347.312 306.547 347.387 306.349 347.535 306.225C347.622 306.138 356.642 297.844 365.612 289.65C383.949 272.901 384.147 272.901 384.531 272.876C384.729 272.876 384.914 272.938 385.05 273.075C385.187 273.211 385.261 273.397 385.261 273.583V358.528C385.261 358.726 385.187 358.924 385.038 359.048L348.859 391.764C348.686 391.913 348.463 392 348.228 392Z" fill="black"/>
<path d="M348.006 391.293L248.143 390.983C248.353 391.181 248.217 306.497 248.217 306.497L348.006 306.745C348.006 306.745 348.006 391.405 348.006 391.293Z" fill="white"/>
<path d="M248.873 390.277L347.301 390.587V307.452L248.922 307.217C248.935 311.06 248.959 329.879 248.959 348.71C248.972 360.97 248.959 370.739 248.947 377.744C248.935 381.711 248.922 385.021 248.91 387.327C248.898 388.74 248.898 389.67 248.873 390.277ZM348.006 392L248.155 391.69C247.982 391.703 247.809 391.641 247.673 391.504C247.475 391.343 247.4 391.083 247.45 390.835C247.611 388.616 247.561 334.825 247.512 306.498C247.512 306.312 247.586 306.138 247.722 306.002C247.846 305.865 248.031 305.791 248.217 305.791L348.006 306.039C348.402 306.039 348.711 306.349 348.711 306.746V391.294C348.711 391.48 348.637 391.665 348.501 391.789C348.377 391.926 348.192 392 348.006 392Z" fill="black"/>
<path d="M290.632 358.639C290.434 358.639 290.248 358.552 290.112 358.404C289.852 358.118 289.877 357.66 290.161 357.399L319.077 331.279C319.362 331.018 319.82 331.031 320.08 331.328C320.339 331.614 320.315 332.06 320.018 332.32L291.102 358.453C290.966 358.577 290.805 358.639 290.632 358.639Z" fill="#FF9F78"/>
<path d="M289.604 338.964C289.419 338.964 289.221 338.877 289.085 338.729C288.825 338.443 288.85 337.985 289.134 337.724L298.327 329.431C298.612 329.17 299.057 329.195 299.317 329.48C299.577 329.778 299.552 330.224 299.268 330.484L290.075 338.778C289.951 338.902 289.778 338.964 289.604 338.964Z" fill="#FF9F78"/>
<path d="M311.604 73.9649C311.555 73.9649 311.518 73.9649 311.481 73.9525L309.266 73.5682C308.882 73.4938 308.623 73.1343 308.697 72.75C308.759 72.3657 309.13 72.1053 309.513 72.1673L311.728 72.564C312.112 72.6384 312.359 72.9979 312.297 73.3822C312.235 73.7294 311.939 73.9649 311.604 73.9649Z" fill="black"/>
<path d="M322.182 75.8484C322.145 75.8484 322.108 75.8484 322.059 75.836L319.856 75.4393C319.473 75.3773 319.213 75.0054 319.287 74.6211C319.349 74.2367 319.72 73.9764 320.104 74.0508L322.306 74.4475C322.69 74.5095 322.95 74.8814 322.875 75.2657C322.826 75.6004 322.529 75.8484 322.182 75.8484Z" fill="black"/>
<path d="M314.648 81.0936C314.611 81.0936 314.574 81.0936 314.524 81.0936C314.141 81.0192 313.893 80.6473 313.955 80.263L314.351 78.0563C314.425 77.672 314.784 77.4241 315.168 77.486C315.551 77.5604 315.811 77.9199 315.737 78.3042L315.341 80.5109C315.279 80.858 314.982 81.0936 314.648 81.0936Z" fill="black"/>
<path d="M316.541 70.5309C316.491 70.5309 316.454 70.5309 316.404 70.5185C316.033 70.4441 315.773 70.0846 315.835 69.7003L316.231 67.4936C316.305 67.1093 316.664 66.849 317.048 66.9233C317.431 66.9853 317.691 67.3572 317.617 67.7416L317.233 69.9482C317.172 70.283 316.875 70.5309 316.541 70.5309Z" fill="black"/>
<path d="M262.347 214.634C262.26 214.634 262.173 214.622 262.087 214.584C261.728 214.448 261.555 214.027 261.691 213.667C261.74 213.543 266.566 201.282 267.766 185.6C267.803 185.203 268.137 184.906 268.521 184.943C268.917 184.968 269.201 185.315 269.177 185.699C267.952 201.617 263.052 214.076 263.002 214.2C262.891 214.473 262.631 214.634 262.347 214.634Z" fill="#5479F7"/>
<path d="M275.673 195.915C275.611 195.915 275.537 195.902 275.475 195.878C275.104 195.778 274.881 195.382 274.992 195.01C275.054 194.787 281.352 172.038 278.197 157.447C278.11 157.062 278.358 156.691 278.729 156.604C279.112 156.517 279.484 156.765 279.57 157.149C282.8 172.088 276.613 194.452 276.341 195.394C276.254 195.704 275.982 195.915 275.673 195.915Z" fill="#5479F7"/>
<path d="M156.322 158.055C156.198 158.055 156.062 158.017 155.938 157.943C155.616 157.732 155.517 157.298 155.728 156.964C155.765 156.914 159.365 151.249 163.486 143.959C163.671 143.612 164.104 143.5 164.438 143.686C164.772 143.885 164.896 144.319 164.698 144.653C160.566 151.992 156.953 157.67 156.915 157.732C156.779 157.943 156.557 158.055 156.322 158.055Z" fill="#5479F7"/>
<path d="M319.944 19.133C325.673 20.3851 329.323 26.0382 328.073 31.7532C326.824 37.4559 321.169 41.0634 315.428 39.7989C309.699 38.5344 306.062 32.8814 307.299 27.1787C308.549 21.4761 314.203 17.8685 319.944 19.133ZM291.709 19.6165L294.617 22.0339C295.099 22.4182 295.309 23.0505 295.149 23.6332C294.988 24.253 294.852 24.8853 294.753 25.5051C294.641 26.1002 294.196 26.5837 293.614 26.7448L289.977 27.749C289.259 27.9473 288.776 28.6168 288.814 29.3606L288.974 32.3731C289.011 33.1045 289.568 33.7244 290.298 33.8483L294.035 34.5054C294.641 34.6046 295.124 35.0509 295.297 35.6335C295.47 36.241 295.656 36.8484 295.879 37.4435C296.089 38.0138 295.953 38.6584 295.532 39.0923L292.884 41.7825C292.365 42.3031 292.278 43.1213 292.686 43.7536L294.332 46.2826C294.74 46.9148 295.532 47.1752 296.225 46.9148L299.764 45.6256C300.345 45.4148 300.989 45.5512 301.422 45.9727C301.88 46.419 302.35 46.8405 302.845 47.2496C303.315 47.6339 303.513 48.2661 303.364 48.8612L302.436 52.5059C302.251 53.225 302.597 53.9812 303.253 54.3159L305.95 55.692C306.618 56.0267 307.423 55.8655 307.893 55.3077L310.318 52.4067C310.702 51.9481 311.333 51.7373 311.926 51.8985C312.545 52.0596 313.176 52.196 313.795 52.2952C314.401 52.4067 314.884 52.853 315.045 53.4357L316.071 57.068C316.269 57.7747 316.938 58.2582 317.68 58.221L320.711 58.0722C321.454 58.035 322.072 57.4895 322.196 56.7705L322.827 53.0514C322.939 52.4563 323.372 51.9604 323.953 51.7993C324.572 51.6257 325.178 51.4398 325.784 51.2166C326.354 51.0059 326.997 51.1546 327.43 51.5761L330.14 54.2167C330.672 54.7374 331.488 54.8242 332.119 54.4275L334.656 52.7911C335.287 52.3943 335.547 51.6133 335.287 50.9191L333.975 47.3735C333.765 46.8033 333.889 46.1586 334.322 45.7247C334.767 45.2784 335.188 44.8073 335.596 44.3239C335.98 43.8528 336.611 43.6544 337.205 43.8032L340.867 44.7454C341.597 44.9313 342.352 44.5966 342.686 43.9396L344.059 41.2618C344.393 40.5923 344.233 39.7865 343.651 39.3154L340.743 36.898C340.273 36.5013 340.063 35.8815 340.224 35.2988C340.385 34.6665 340.521 34.0467 340.62 33.4268C340.731 32.8318 341.176 32.3483 341.758 32.1871L345.396 31.183C346.113 30.9846 346.596 30.3152 346.546 29.5714L346.398 26.5589C346.348 25.815 345.804 25.2076 345.074 25.0712L341.337 24.4266C340.743 24.315 340.249 23.8811 340.075 23.2984C339.902 22.691 339.704 22.0835 339.481 21.4761C339.271 20.9058 339.42 20.2736 339.84 19.8397L342.488 17.1495C343.008 16.6164 343.082 15.7982 342.686 15.1784L341.04 12.637C340.632 12.0171 339.853 11.7568 339.147 12.0171L335.609 13.3064C335.027 13.5172 334.384 13.3808 333.951 12.9469C333.493 12.513 333.023 12.0915 332.528 11.6824C332.058 11.2857 331.86 10.6658 332.008 10.0708L332.936 6.42604C333.122 5.70701 332.775 4.95078 332.119 4.61607L329.422 3.23999C328.754 2.89287 327.95 3.05403 327.467 3.6243L325.054 6.51282C324.671 6.9839 324.04 7.19466 323.458 7.03349C322.827 6.87233 322.196 6.73596 321.565 6.62439C320.971 6.52521 320.489 6.07892 320.328 5.49626L319.301 1.86392C319.103 1.15729 318.422 0.673799 317.68 0.710991L314.661 0.847361C313.919 0.88455 313.3 1.43002 313.176 2.16145L312.533 5.88057C312.434 6.47563 311.988 6.97151 311.407 7.13267C310.788 7.30623 310.194 7.49219 309.6 7.71533C309.019 7.91368 308.375 7.77732 307.942 7.35582L305.233 4.70285C304.701 4.19457 303.872 4.10779 303.253 4.50449L300.716 6.1409C300.085 6.53761 299.826 7.31863 300.085 8.01286L301.397 11.546C301.607 12.1287 301.471 12.7609 301.051 13.2072C300.605 13.6535 300.184 14.1246 299.776 14.6081C299.393 15.0792 298.761 15.2775 298.155 15.1288L294.493 14.1866C293.775 14.0006 293.02 14.3354 292.686 14.9924L291.313 17.6702C290.979 18.3396 291.14 19.133 291.709 19.6165Z" fill="#99B9FF"/>
<path d="M317.642 19.5788C313.089 19.5788 308.993 22.7277 307.991 27.327C306.828 32.6453 310.231 37.9265 315.576 39.1166C320.921 40.2819 326.217 36.9223 327.38 31.604C327.949 29.0254 327.466 26.3848 326.031 24.1533C324.596 21.9342 322.381 20.3846 319.795 19.8144C319.065 19.6532 318.348 19.5788 317.642 19.5788ZM317.729 40.7654C316.912 40.7654 316.096 40.6786 315.279 40.4927C309.167 39.1538 305.294 33.104 306.605 27.0294C307.942 20.9425 313.98 17.087 320.092 18.4383C323.049 19.0829 325.573 20.8433 327.219 23.3847C328.852 25.9261 329.397 28.951 328.753 31.9015C327.615 37.1702 322.926 40.7654 317.729 40.7654ZM311.53 51.1417C311.716 51.1417 311.914 51.1541 312.099 51.2037C312.705 51.3649 313.312 51.5012 313.918 51.6004C314.772 51.7492 315.489 52.3938 315.724 53.2492L316.751 56.8692C316.863 57.2659 317.246 57.5262 317.655 57.5138L320.674 57.3651C321.094 57.3527 321.428 57.0551 321.503 56.646L322.134 52.9269C322.295 52.0591 322.926 51.3525 323.767 51.1169C324.361 50.9558 324.955 50.7574 325.536 50.5467C326.353 50.2491 327.293 50.4599 327.924 51.0673L330.634 53.7079C330.931 54.0055 331.389 54.0426 331.735 53.8319L334.284 52.1955C334.618 51.9723 334.767 51.5508 334.618 51.1541L333.307 47.621C333.01 46.7904 333.208 45.8606 333.826 45.2283C334.247 44.7944 334.655 44.3357 335.051 43.8647C335.608 43.1952 336.524 42.8977 337.377 43.1208L341.052 44.063C341.448 44.1622 341.869 43.9762 342.054 43.6167L343.428 40.9265C343.613 40.567 343.527 40.1207 343.205 39.8604L340.297 37.443C339.617 36.8727 339.32 35.9553 339.543 35.1123C339.691 34.5173 339.827 33.9098 339.926 33.3024C340.075 32.447 340.718 31.7403 341.572 31.5048L345.21 30.5006C345.605 30.389 345.865 30.0171 345.853 29.608L345.692 26.5955C345.667 26.1864 345.358 25.8393 344.95 25.7773L341.225 25.1203C340.347 24.9715 339.642 24.3269 339.394 23.4963C339.233 22.9012 339.035 22.3062 338.825 21.7235C338.516 20.9053 338.726 19.9755 339.345 19.3433L341.98 16.6531C342.277 16.3556 342.314 15.9093 342.092 15.5622L340.446 13.0332C340.223 12.686 339.778 12.5373 339.394 12.6736L335.843 13.9753C335.026 14.2729 334.086 14.0745 333.455 13.4547C333.022 13.0332 332.552 12.6241 332.082 12.2273C331.401 11.6695 331.104 10.7521 331.315 9.8967L332.255 6.23957C332.354 5.84286 332.168 5.43376 331.797 5.2478L329.1 3.85933C328.729 3.67337 328.271 3.77255 328.011 4.08248L325.598 6.97099C325.029 7.65283 324.126 7.93796 323.272 7.71482C322.666 7.56605 322.047 7.42968 321.453 7.33051C320.587 7.16935 319.882 6.53709 319.647 5.6817L318.62 2.06175C318.508 1.66505 318.125 1.39231 317.716 1.41711L314.697 1.56587C314.277 1.57827 313.943 1.8758 313.868 2.2849L313.225 6.00402C313.077 6.87181 312.433 7.57845 311.592 7.81399C310.998 7.97515 310.416 8.16111 309.835 8.37186C309.018 8.66939 308.078 8.47104 307.447 7.86358L304.737 5.21061C304.44 4.92548 303.982 4.87589 303.636 5.09904L301.087 6.73545C300.741 6.9586 300.605 7.38009 300.753 7.7644L302.052 11.31C302.361 12.1282 302.164 13.0703 301.545 13.7026C301.124 14.1365 300.716 14.5828 300.32 15.0663C299.763 15.7357 298.835 16.0332 297.994 15.8101L294.319 14.8679C293.911 14.7687 293.502 14.9423 293.317 15.3142L291.931 18.0044C291.745 18.3639 291.844 18.7978 292.166 19.0705L295.074 21.488C295.754 22.0582 296.051 22.9632 295.828 23.8186C295.68 24.4137 295.544 25.0211 295.445 25.6286C295.296 26.484 294.653 27.1906 293.799 27.4261L290.162 28.4303C289.766 28.5419 289.506 28.9014 289.518 29.3229L289.679 32.3354C289.704 32.7445 290.013 33.0792 290.421 33.1536L294.158 33.8106C295.024 33.9594 295.73 34.604 295.965 35.447C296.138 36.0297 296.336 36.6248 296.534 37.195C296.843 38.0132 296.645 38.9554 296.026 39.5877L293.379 42.2778C293.094 42.5754 293.057 43.0217 293.28 43.3688L294.925 45.8978C295.148 46.2449 295.593 46.3937 295.977 46.2449L299.528 44.9556C300.345 44.6581 301.285 44.8564 301.916 45.4763C302.349 45.8978 302.807 46.3069 303.289 46.7036C303.97 47.2615 304.267 48.1788 304.057 49.0342L303.116 52.6914C303.017 53.0881 303.203 53.4972 303.574 53.6831L306.271 55.0592C306.643 55.2576 307.1 55.1584 307.36 54.8485L309.773 51.9599C310.218 51.4269 310.862 51.1417 311.53 51.1417ZM317.605 58.9271C316.578 58.9271 315.675 58.2576 315.39 57.2535L314.376 53.6211C314.277 53.2988 314.005 53.0509 313.683 53.0013C313.039 52.8897 312.384 52.741 311.74 52.5798C311.419 52.493 311.072 52.6046 310.849 52.8649L308.437 55.7534C307.744 56.584 306.593 56.8196 305.628 56.3237L302.931 54.9476C301.966 54.4517 301.483 53.3732 301.755 52.3319L302.683 48.6871C302.77 48.3524 302.658 48.0053 302.399 47.7945C301.891 47.373 301.396 46.9391 300.939 46.4804C300.691 46.2449 300.332 46.1705 300.011 46.2945L296.46 47.5838C295.457 47.9433 294.331 47.5714 293.75 46.6664L292.092 44.1374C291.51 43.2324 291.622 42.0547 292.376 41.2861L295.024 38.5959C295.259 38.348 295.334 38.0008 295.222 37.6909C294.999 37.0835 294.789 36.4512 294.616 35.8314C294.529 35.509 294.245 35.2611 293.911 35.1991L290.174 34.5545C289.11 34.3685 288.33 33.4883 288.281 32.4098L288.12 29.3973C288.058 28.3187 288.751 27.3642 289.79 27.0666L293.428 26.0625C293.75 25.9757 293.997 25.703 294.059 25.3806C294.158 24.7484 294.307 24.0913 294.467 23.4591C294.554 23.1368 294.43 22.802 294.17 22.5789L291.263 20.1615C290.434 19.4672 290.186 18.3143 290.681 17.3473L292.055 14.6696C292.55 13.715 293.626 13.2315 294.665 13.4918L298.34 14.4464C298.674 14.5208 299.021 14.4092 299.231 14.1613C299.652 13.653 300.097 13.1695 300.543 12.6984C300.778 12.4629 300.852 12.1158 300.741 11.7935L299.429 8.26029C299.045 7.24373 299.417 6.12799 300.332 5.54533L302.869 3.90892C303.772 3.32626 304.947 3.45023 305.715 4.19405L308.424 6.84702C308.672 7.08257 309.043 7.15695 309.352 7.04537C309.971 6.82223 310.59 6.62388 311.221 6.45032C311.542 6.36354 311.79 6.0908 311.839 5.75608L312.483 2.04936C312.668 0.983209 313.547 0.202195 314.623 0.15261L317.655 0.00383911C318.731 -0.0581454 319.684 0.636092 319.981 1.67745L320.995 5.29739C321.094 5.61971 321.367 5.86765 321.688 5.92964C322.332 6.04121 322.975 6.17758 323.631 6.35114C323.953 6.43792 324.299 6.32634 324.522 6.06601L326.934 3.16509C327.627 2.34689 328.778 2.11134 329.743 2.59483L332.44 3.9833C333.393 4.47918 333.888 5.54533 333.616 6.59908L332.688 10.2438C332.601 10.5661 332.713 10.9257 332.973 11.1364C333.48 11.5455 333.975 11.9918 334.433 12.4381C334.68 12.686 335.039 12.7604 335.361 12.6365L338.912 11.3472C339.914 10.9752 341.04 11.3472 341.621 12.2521L343.279 14.7935C343.861 15.6985 343.749 16.8762 342.995 17.6449L340.347 20.335C340.112 20.5706 340.038 20.9301 340.149 21.2276C340.372 21.8475 340.582 22.4797 340.755 23.112C340.842 23.4219 341.126 23.6698 341.46 23.7318L345.185 24.3765C346.261 24.5624 347.041 25.4426 347.09 26.5212L347.251 29.5336C347.313 30.6122 346.62 31.5668 345.581 31.8643L341.943 32.8685C341.621 32.9552 341.374 33.2156 341.312 33.5379C341.201 34.1825 341.065 34.8272 340.904 35.4718C340.817 35.7818 340.941 36.1289 341.201 36.352L344.108 38.7695C344.937 39.4637 345.172 40.6166 344.677 41.5712L343.316 44.2614C342.822 45.2159 341.745 45.6994 340.706 45.4267L337.031 44.4845C336.697 44.4101 336.35 44.5217 336.128 44.7696C335.719 45.2779 335.274 45.7614 334.828 46.2201C334.593 46.4556 334.519 46.8152 334.631 47.1251L335.942 50.6706C336.326 51.6872 335.954 52.8029 335.039 53.3856L332.502 55.022C331.587 55.6047 330.424 55.4807 329.644 54.7245L326.934 52.0839C326.699 51.8484 326.341 51.7616 326.019 51.8732C325.4 52.1087 324.769 52.3071 324.138 52.4806C323.829 52.5674 323.581 52.8401 323.532 53.1749L322.888 56.8816C322.703 57.9477 321.824 58.7287 320.748 58.7783L317.716 58.9271C317.679 58.9271 317.642 58.9271 317.605 58.9271Z" fill="#FF9F78"/>
<path d="M361.27 62.82C367.283 63.0804 371.948 68.2499 371.675 74.3617C371.403 80.4859 366.318 85.2215 360.317 84.9612C354.304 84.7008 349.639 79.5313 349.911 73.4071C350.183 67.2954 355.269 62.5473 361.27 62.82ZM332.861 68.4235L336.226 70.3946C336.758 70.717 337.08 71.3244 337.031 71.9567C336.981 72.6261 336.944 73.2955 336.944 73.9526C336.944 74.5972 336.585 75.1675 336.016 75.4402L332.527 77.1386C331.834 77.4734 331.463 78.242 331.636 78.9982L332.317 82.0851C332.477 82.8413 333.146 83.3744 333.913 83.3744H337.785C338.416 83.3744 338.986 83.7339 339.258 84.3165C339.53 84.9116 339.839 85.4943 340.161 86.0645C340.47 86.61 340.446 87.3042 340.087 87.8249L337.884 91.0853C337.451 91.7176 337.513 92.5854 338.033 93.1556L340.136 95.4739C340.656 96.0442 341.497 96.1681 342.153 95.7838L345.506 93.8003C346.051 93.478 346.731 93.5028 347.239 93.8747C347.771 94.2466 348.327 94.5937 348.897 94.9284C349.441 95.2384 349.75 95.8458 349.701 96.4905L349.391 100.42C349.342 101.201 349.812 101.908 350.542 102.144L353.499 103.073C354.229 103.296 355.021 102.987 355.392 102.317L357.335 98.8955C357.644 98.35 358.238 98.0153 358.869 98.0649C359.525 98.1269 360.181 98.1517 360.837 98.1517C361.468 98.1517 362.024 98.5236 362.297 99.0938L363.955 102.652C364.289 103.358 365.043 103.73 365.786 103.557L368.817 102.863C369.56 102.689 370.092 102.007 370.092 101.239V97.2839C370.092 96.6516 370.438 96.069 371.007 95.7962C371.601 95.5111 372.183 95.2012 372.739 94.854C373.284 94.5441 373.964 94.5813 374.472 94.9408L377.664 97.1723C378.295 97.6186 379.136 97.5442 379.706 97.0235L381.982 94.8788C382.539 94.3582 382.663 93.5028 382.292 92.8333L380.349 89.4241C380.04 88.8663 380.064 88.1844 380.411 87.6513C380.782 87.1059 381.128 86.548 381.45 85.9777C381.772 85.4199 382.366 85.0975 382.997 85.1471L386.857 85.4571C387.624 85.5191 388.317 85.0356 388.552 84.2917L389.468 81.2793C389.691 80.5354 389.381 79.7296 388.726 79.3453L385.372 77.3742C384.828 77.0643 384.506 76.4568 384.556 75.8246C384.618 75.1551 384.642 74.4857 384.642 73.8162C384.642 73.184 385.001 72.6013 385.57 72.3286L389.072 70.6426C389.752 70.3079 390.124 69.5268 389.963 68.7706L389.27 65.6962C389.109 64.9399 388.441 64.3945 387.686 64.3945L383.801 64.4069C383.182 64.4069 382.601 64.0473 382.341 63.4771C382.056 62.8696 381.747 62.287 381.425 61.7043C381.104 61.1588 381.141 60.4646 381.5 59.9439L383.702 56.6959C384.135 56.0512 384.073 55.1958 383.554 54.6256L381.45 52.3073C380.93 51.7371 380.089 51.6131 379.433 51.9974L376.08 53.9685C375.536 54.2909 374.855 54.2661 374.348 53.9065C373.816 53.5346 373.259 53.1875 372.69 52.8528C372.146 52.5305 371.836 51.923 371.886 51.2908L372.195 47.3485C372.257 46.5799 371.787 45.8732 371.057 45.6377L368.087 44.7079C367.357 44.4724 366.578 44.7823 366.194 45.4641L364.252 48.8733C363.942 49.4312 363.348 49.7659 362.717 49.7039C362.061 49.6544 361.406 49.6296 360.75 49.6296C360.131 49.6296 359.562 49.2576 359.302 48.675L357.632 45.1294C357.298 44.4228 356.543 44.0509 355.801 44.2244L352.769 44.9187C352.027 45.0922 351.495 45.7617 351.495 46.5427L351.507 50.485C351.507 51.1296 351.148 51.7123 350.579 51.985C349.985 52.2701 349.416 52.5801 348.859 52.9148C348.303 53.2371 347.634 53.1999 347.115 52.8404L343.923 50.6089C343.291 50.1626 342.45 50.2246 341.893 50.7577L339.604 52.9024C339.048 53.4231 338.924 54.2785 339.295 54.9479L341.238 58.3571C341.547 58.915 341.535 59.5968 341.176 60.1175C340.804 60.6629 340.458 61.2332 340.136 61.8035C339.827 62.3613 339.221 62.6837 338.59 62.6341L334.729 62.3242C333.962 62.2622 333.269 62.7457 333.047 63.4771L332.119 66.502C331.896 67.2458 332.205 68.0392 332.861 68.4235Z" fill="#5479F7"/>
<path d="M78.4205 343.651C77.9255 342.919 77.9255 341.989 78.4205 341.27C79.101 340.266 79.4846 339.188 79.4846 338.06C79.4846 332.84 71.4297 328.601 61.4817 328.601C51.5461 328.601 43.4912 332.84 43.4912 338.06C43.4912 339.188 43.8748 340.266 44.5553 341.27C45.0502 341.989 45.0502 342.919 44.5553 343.651C43.8748 344.642 43.4912 345.721 43.4912 346.849C43.4912 349.328 45.3101 351.585 48.2796 353.271C48.2177 353.543 48.1682 353.829 48.1682 354.126C48.1682 357.994 54.1321 361.118 61.4817 361.118C68.8437 361.118 74.8075 357.994 74.8075 354.126C74.8075 353.829 74.7704 353.543 74.6962 353.271C77.6657 351.585 79.4846 349.328 79.4846 346.849C79.4846 345.721 79.101 344.642 78.4205 343.651Z" fill="#99B9FF"/>
<path d="M61.4822 329.319C52.1158 329.319 44.197 333.323 44.197 338.059C44.197 339.014 44.5187 339.956 45.1373 340.861C45.7931 341.828 45.7931 343.08 45.1373 344.047C44.5187 344.952 44.197 345.894 44.197 346.849C44.197 348.969 45.7684 351.026 48.6266 352.65L49.0844 352.911L48.9606 353.432C48.9111 353.667 48.874 353.903 48.874 354.126C48.874 357.535 54.6523 360.411 61.4822 360.411C68.3245 360.411 74.1028 357.535 74.1028 354.126C74.1028 353.903 74.0657 353.667 74.0162 353.432L73.8924 352.911L74.3502 352.65C77.2084 351.026 78.7798 348.969 78.7798 346.849C78.7798 345.894 78.4581 344.952 77.8394 344.047C77.1837 343.08 77.1837 341.828 77.8394 340.861C78.4581 339.956 78.7798 339.014 78.7798 338.059C78.7798 333.323 70.861 329.319 61.4822 329.319ZM61.4822 361.824C53.6253 361.824 47.4759 358.44 47.4759 354.126C47.4759 353.965 47.4759 353.791 47.5006 353.63C44.4568 351.783 42.7988 349.378 42.7988 346.849C42.7988 345.609 43.1948 344.394 43.9743 343.241C44.3083 342.77 44.3083 342.15 43.9743 341.667C43.1948 340.514 42.7988 339.311 42.7988 338.059C42.7988 332.356 51.0022 327.894 61.4822 327.894C71.9746 327.894 80.178 332.356 80.178 338.059C80.178 339.311 79.782 340.514 79.0025 341.667C78.6684 342.15 78.6684 342.77 79.0025 343.241C79.782 344.394 80.178 345.609 80.178 346.849C80.178 349.378 78.52 351.783 75.4762 353.63C75.5009 353.791 75.5009 353.965 75.5009 354.126C75.5009 358.44 69.3515 361.824 61.4822 361.824Z" fill="black"/>
<path d="M110.319 265.561C110.319 238.771 88.1341 215.923 61.4701 215.923C34.8556 215.923 12.9057 238.151 12.7201 264.879C12.6335 278.491 19.1665 291.161 28.0875 300.025C34.5091 306.409 39.1985 314.356 41.4752 323.145L41.5865 323.579C43.7889 332.108 51.4603 338.071 60.2452 338.071H63.8457C72.6183 338.071 80.2896 332.108 82.5044 323.579L82.5662 323.319C84.8305 314.591 89.322 306.57 95.756 300.272C104.739 291.458 110.319 279.16 110.319 265.561Z" fill="white"/>
<path d="M61.469 216.63C35.1514 216.63 13.5974 238.275 13.4242 264.891C13.3376 277.239 18.8684 289.859 28.5813 299.516C35.1885 306.099 39.8903 314.207 42.1545 322.972L42.2659 323.393C44.3941 331.625 51.7808 337.365 60.244 337.365H63.8446C72.2954 337.365 79.6945 331.625 81.8227 323.393L81.8846 323.145C84.2107 314.132 88.8383 306.05 95.2599 299.764C104.515 290.69 109.613 278.541 109.613 265.561C109.613 239.031 87.5638 216.63 61.469 216.63ZM63.8446 338.778H60.244C51.1374 338.778 43.1939 332.604 40.9049 323.753L40.7935 323.331C38.5787 314.802 34.013 306.917 27.5914 300.521C17.6063 290.603 11.9271 277.611 12.0137 264.879C12.1003 251.738 17.3094 239.316 26.6758 229.882C36.067 220.423 48.4277 215.216 61.469 215.216C88.331 215.216 111.023 238.275 111.023 265.561C111.023 278.925 105.777 291.433 96.2497 300.768C90.0137 306.88 85.5099 314.74 83.2456 323.492L83.1837 323.753C80.8947 332.604 72.9388 338.778 63.8446 338.778Z" fill="black"/>
<path d="M69.1163 256.611C68.3368 257.28 67.6315 258.123 67.05 259.164C63.5237 265.413 64.6867 268.785 65.7013 270.235C66.7778 271.772 68.6461 272.578 70.4526 272.268C71.925 272.02 72.9891 271.103 73.3727 269.727C74.6966 265.09 72.3952 259.697 69.1163 256.611ZM54.5903 257.082C52.9694 258.879 51.6702 261.346 50.7299 264.446C49.7029 267.818 50.0494 270.694 51.6702 272.33C52.7343 273.409 54.2438 273.793 55.6791 273.359C57.4361 272.826 58.6982 271.214 59.156 268.933C59.8489 265.524 57.9929 258.842 54.5903 257.082ZM64.2042 331.836C63.8082 331.824 63.4989 331.514 63.4989 331.117C63.6103 305.083 78.755 275.665 81.7864 270.024C83.6547 266.578 84.3228 263.85 83.9269 261.47C83.5186 259.065 82.2689 255.954 78.6188 254.776C76.4659 254.082 73.0757 254.044 70.267 255.768C73.7686 259.214 76.169 265.065 74.7337 270.123C74.1893 272.008 72.6798 273.334 70.6877 273.669C68.3492 274.066 65.9364 273.037 64.5506 271.041C63.3504 269.318 61.9152 265.388 65.8251 258.458C66.4437 257.354 67.1861 256.437 68.0151 255.693C67.8171 255.557 67.6192 255.42 67.4212 255.297C65.3549 253.982 61.9399 253.028 58.5744 254.292C57.5227 254.677 56.5452 255.272 55.642 256.053C59.4158 258.408 61.3213 265.351 60.5417 269.218C59.9726 272.02 58.3517 274.028 56.0874 274.71C54.1696 275.293 52.0909 274.76 50.668 273.322C48.6759 271.314 48.2058 267.929 49.3812 264.024C50.4082 260.664 51.7568 258.259 53.1798 256.549C47.3644 254.776 43.2936 257.565 42.1924 260.28C40.9551 263.367 41.4006 267.037 43.3803 269.863C47.8222 276.235 58.1909 294.843 58.6982 329.927C58.7105 330.324 58.4012 330.633 58.0053 330.646C57.6341 330.658 57.3 330.336 57.2876 329.952C56.7927 295.252 46.5849 276.942 42.2296 270.681C39.9529 267.408 39.4456 263.317 40.8933 259.747C42.477 255.805 47.8717 253.177 54.2438 255.408C55.5801 254.144 56.9164 253.4 58.0919 252.966C61.9275 251.528 65.8251 252.606 68.1759 254.106C68.51 254.317 68.8441 254.54 69.1658 254.801C72.4447 252.582 76.503 252.606 79.0395 253.425C83.3701 254.825 84.8425 258.445 85.3127 261.235C85.7705 263.95 85.0405 266.95 83.0237 270.706C80.017 276.285 65.0084 305.418 64.9095 331.129C64.9095 331.514 64.5878 331.836 64.2042 331.836Z" fill="#FF9F78"/>
<path d="M83.8527 296.703C83.6176 296.703 83.3949 296.579 83.2588 296.368C83.0485 296.033 83.1475 295.6 83.4815 295.389C92.1675 289.909 98.4159 280.996 100.631 270.954C100.717 270.57 101.088 270.334 101.472 270.409C101.843 270.495 102.091 270.88 102.004 271.252C99.7027 281.678 93.2315 290.901 84.2239 296.591C84.1126 296.666 83.9888 296.703 83.8527 296.703Z" fill="black"/>
<path d="M31.3035 291.075C31.1179 291.075 30.9199 291.001 30.7838 290.839C24.2755 283.488 20.6997 274.029 20.6997 264.186C20.6997 248.826 29.2 235.04 42.897 228.209C43.2435 228.036 43.6642 228.185 43.8374 228.532C44.0106 228.879 43.8745 229.313 43.5157 229.486C30.3136 236.069 22.0979 249.371 22.0979 264.186C22.0979 273.682 25.5623 282.819 31.8355 289.91C32.0953 290.195 32.0706 290.641 31.7736 290.901C31.6375 291.025 31.4767 291.075 31.3035 291.075Z" fill="black"/>
<path d="M64.5627 343.823C64.2286 343.823 63.9317 343.588 63.8698 343.241C63.8079 342.857 64.0554 342.485 64.439 342.423C66.0846 342.137 67.6807 341.778 69.1902 341.356C69.5614 341.245 69.9574 341.468 70.0687 341.84C70.1677 342.224 69.9574 342.609 69.5738 342.72C68.0148 343.154 66.3692 343.526 64.6864 343.823C64.6369 343.823 64.5998 343.823 64.5627 343.823Z" fill="white"/>
<path d="M56.9782 353.122C56.5946 353.122 56.2729 352.812 56.2729 352.416C56.2729 352.031 56.5823 351.709 56.9782 351.709C60.6901 351.672 66.1591 351.151 71.0464 348.858C71.3929 348.697 71.8136 348.845 71.9868 349.205C72.1476 349.552 71.9992 349.973 71.6403 350.135C66.5302 352.54 60.851 353.085 56.9906 353.122C56.9782 353.122 56.9782 353.122 56.9782 353.122Z" fill="white"/>
<path d="M62.6578 204.94C62.2866 204.94 61.9772 204.655 61.9525 204.283L60.542 182.898C60.5172 182.513 60.8142 182.166 61.1977 182.142C61.5937 182.117 61.9278 182.414 61.9525 182.799L63.363 204.184C63.3878 204.568 63.0908 204.915 62.7073 204.94C62.6949 204.94 62.6701 204.94 62.6578 204.94Z" fill="black"/>
<path d="M12.0022 244.462C11.866 244.462 11.7299 244.424 11.6186 244.35L0.309574 236.713C-0.0121283 236.503 -0.09874 236.056 0.123977 235.734C0.334319 235.412 0.77975 235.325 1.10145 235.548L12.3981 243.172C12.7198 243.383 12.8064 243.829 12.5961 244.152C12.46 244.362 12.2372 244.462 12.0022 244.462Z" fill="black"/>
<path d="M26.6642 213.779C26.4662 213.779 26.2683 213.692 26.1322 213.531L14.8232 200.155C14.5757 199.857 14.6128 199.411 14.9098 199.151C15.2067 198.903 15.6521 198.94 15.8996 199.237L27.2086 212.614C27.4561 212.911 27.419 213.358 27.122 213.606C26.9859 213.717 26.8251 213.779 26.6642 213.779Z" fill="black"/>
<path d="M114.872 248.167C114.624 248.167 114.377 248.031 114.253 247.783C114.068 247.436 114.204 247.014 114.55 246.829L126.676 240.593C127.022 240.419 127.443 240.556 127.616 240.903C127.802 241.25 127.666 241.671 127.319 241.857L115.193 248.093C115.094 248.143 114.983 248.167 114.872 248.167Z" fill="black"/>
<path d="M101.089 216.94C100.891 216.94 100.693 216.865 100.557 216.704C100.297 216.419 100.321 215.973 100.618 215.712L113.635 204.022C113.932 203.762 114.377 203.786 114.637 204.072C114.897 204.369 114.872 204.815 114.575 205.076L101.559 216.766C101.423 216.878 101.249 216.94 101.089 216.94Z" fill="black"/>
<path d="M348.203 257.28C348.203 257.28 351.729 261.991 351.482 265.09L351.556 266.293L358.931 259.549L357.904 259.127C356.27 258.012 354.538 257.342 353.598 255.594L348.203 257.28Z" fill="#99B9FF"/>
<path d="M350.221 263.542L350.332 265.004C350.555 267.893 350.085 270.806 348.946 273.472L348.068 275.517C347.981 275.703 348.006 275.939 348.117 276.112L348.167 276.199C348.822 277.216 351.644 278.083 355.232 275.641C357.447 274.141 361.95 269.938 365.019 262.624C365.217 262.153 365.093 261.62 364.71 261.298C363.311 260.12 359.859 257.43 357.174 257.132C356.877 257.095 356.605 257.331 356.605 257.628L356.58 260.529C356.568 261.843 355.504 262.885 354.205 262.872L350.889 262.823C350.493 262.823 350.184 263.157 350.221 263.542Z" fill="white"/>
<path d="M348.723 275.763L348.76 275.825C348.896 276.036 349.317 276.297 349.936 276.433C350.604 276.569 352.41 276.706 354.836 275.057C355.813 274.387 360.886 270.631 364.375 262.337C364.449 262.164 364.4 261.966 364.251 261.842C362.965 260.763 359.785 258.259 357.31 257.862L357.285 260.54C357.273 261.358 356.951 262.127 356.37 262.697C355.788 263.28 355.009 263.59 354.192 263.577L350.926 263.528L351.037 264.953C351.26 267.941 350.765 270.978 349.589 273.743L348.723 275.763ZM350.765 277.933C350.319 277.933 349.948 277.883 349.651 277.821C348.711 277.623 347.956 277.177 347.573 276.582L347.523 276.495C347.276 276.111 347.238 275.639 347.412 275.23L348.29 273.185C349.379 270.631 349.849 267.829 349.626 265.065L349.515 263.602C349.478 263.218 349.614 262.833 349.874 262.548C350.146 262.263 350.517 262.127 350.901 262.114L354.217 262.164C354.65 262.164 355.071 262.003 355.38 261.693C355.702 261.383 355.875 260.974 355.875 260.527L355.9 257.627C355.912 257.279 356.048 256.957 356.308 256.734C356.568 256.498 356.914 256.387 357.248 256.424C360.032 256.746 363.398 259.275 365.155 260.751C365.786 261.284 365.984 262.139 365.662 262.895C362.037 271.548 356.667 275.528 355.627 276.235C353.623 277.598 351.94 277.933 350.765 277.933Z" fill="black"/>
<path d="M348.439 275.479C348.167 275.479 347.907 275.318 347.796 275.057C347.635 274.698 347.796 274.276 348.155 274.115L348.612 273.917C350.852 272.95 352.609 271.078 353.45 268.784L353.747 267.941C353.92 267.47 354.354 267.148 354.848 267.123C355.356 267.086 355.814 267.359 356.036 267.805L356.395 268.499C358.474 266.354 360.058 263.85 361.122 261.061L361.753 259.4C361.889 259.04 362.285 258.854 362.656 258.991C363.015 259.127 363.2 259.536 363.064 259.908L362.433 261.557C361.295 264.569 359.575 267.272 357.335 269.565C357.026 269.875 356.593 270.012 356.172 269.95C355.739 269.888 355.381 269.615 355.183 269.231L354.947 268.772L354.774 269.268C353.797 271.921 351.755 274.09 349.169 275.218L348.711 275.417C348.625 275.466 348.526 275.479 348.439 275.479Z" fill="black"/>
<path d="M321.33 270.508C321.33 270.508 321.725 275.144 319.82 277.351L319.226 278.293L328.197 277.809L327.764 276.83C326.996 275.07 326.402 272.243 326.551 270.396L321.33 270.508Z" fill="#99B9FF"/>
<path d="M320.092 274.35L319.189 275.28C317.407 277.127 315.205 278.503 312.767 279.309L310.899 279.917C310.714 279.979 310.577 280.115 310.528 280.301L310.503 280.4C310.206 281.417 311.283 283.822 315.007 284.789C317.247 285.371 322.431 285.917 328.828 283.884C329.595 283.648 330.09 282.917 330.053 282.123C329.966 280.276 329.644 276.979 328.407 275.231C328.259 275.007 327.962 274.983 327.764 275.156C327.318 275.54 326.539 276.222 325.821 276.842C324.943 277.598 323.631 277.499 322.876 276.619L320.958 274.375C320.736 274.115 320.34 274.102 320.092 274.35Z" fill="white"/>
<path d="M311.183 280.574V280.587C311.133 280.735 311.146 281.132 311.455 281.677C311.752 282.186 312.692 283.463 315.179 284.107C316.157 284.355 321.366 285.508 328.616 283.215C329.074 283.066 329.371 282.632 329.346 282.149C329.223 279.384 328.74 277.14 327.998 275.888L326.278 277.376C325.709 277.872 324.991 278.107 324.249 278.045C323.506 277.996 322.826 277.648 322.343 277.078L320.512 274.933L319.695 275.776C317.839 277.698 315.513 279.148 312.989 279.979L311.183 280.574ZM319.881 286.029C317.184 286.029 315.377 285.62 314.833 285.471C311.925 284.715 310.7 283.202 310.23 282.372C309.797 281.603 309.648 280.81 309.822 280.202L309.846 280.103C309.97 279.694 310.279 279.384 310.675 279.248L312.544 278.628C314.87 277.872 316.986 276.545 318.681 274.785L319.584 273.855C319.844 273.595 320.19 273.446 320.562 273.458C320.92 273.471 321.267 273.644 321.502 273.917L323.42 276.161C323.655 276.446 323.989 276.607 324.36 276.644C324.731 276.669 325.078 276.545 325.362 276.31L327.305 274.624C327.552 274.4 327.874 274.301 328.196 274.351C328.505 274.388 328.802 274.562 328.988 274.822C330.262 276.632 330.646 279.768 330.757 282.087C330.806 283.215 330.101 284.231 329.037 284.566C325.449 285.707 322.306 286.029 319.881 286.029Z" fill="black"/>
<path d="M321.416 282.744C321.033 282.744 320.649 282.732 320.266 282.707C319.857 282.695 319.486 282.472 319.264 282.124C319.053 281.777 319.004 281.356 319.152 280.972L319.264 280.724L318.991 280.823C316.64 281.74 313.98 281.641 311.704 280.562L311.308 280.376C310.961 280.203 310.8 279.781 310.974 279.434C311.134 279.075 311.555 278.926 311.902 279.087L312.31 279.286C314.24 280.203 316.492 280.277 318.484 279.496L319.214 279.211C319.659 279.05 320.167 279.149 320.488 279.484C320.823 279.831 320.934 280.327 320.761 280.773L320.538 281.306C323.124 281.43 325.673 281.021 328.098 280.116L329.57 279.558C329.929 279.422 330.337 279.608 330.474 279.98C330.61 280.339 330.424 280.748 330.065 280.885L328.593 281.43C326.279 282.31 323.879 282.744 321.416 282.744Z" fill="black"/>
<path d="M337.439 194.638C337.439 194.638 341.064 206.676 334.89 215.217C326.576 226.734 331.327 253.289 327.157 271.153C327.083 271.488 326.773 271.736 326.427 271.723L321.379 271.674C321.045 271.674 320.748 271.438 320.661 271.116C319.473 266.665 311.517 236.516 311.765 230.515C311.827 229.139 312 227.54 312.235 225.866C313.398 217.722 315.848 209.825 319.412 202.411L324.955 190.845L337.439 194.638Z" fill="black"/>
<path d="M341.349 193.273C341.349 193.273 345.903 201.778 343.898 210.729C341.881 219.679 344.913 227.105 347.041 230.589C349.157 234.047 353.03 242.75 354.378 255.693C354.415 256.015 354.304 256.325 354.081 256.548C353.364 257.23 351.607 258.618 348.946 258.73C348.637 258.742 348.34 258.618 348.13 258.383C346.039 255.99 333.963 241.944 329.682 230.762C324.98 218.501 324.089 198.145 324.089 198.145C324.089 198.145 335.806 199.385 341.349 193.273Z" fill="black"/>
<path d="M330.262 234.805C330.238 234.805 330.225 234.805 330.213 234.805C329.817 234.78 329.532 234.433 329.557 234.049C330.089 226.747 331.03 219.358 334.321 214.808C336.573 211.697 337.736 207.742 337.798 203.068C337.798 202.672 338.107 202.362 338.503 202.362C338.899 202.374 339.208 202.684 339.196 203.081C339.146 208.064 337.884 212.279 335.459 215.639C332.378 219.904 331.475 227.057 330.968 234.148C330.931 234.52 330.634 234.805 330.262 234.805Z" fill="#CADDFF"/>
<path d="M332.07 145.384C334.247 146.202 334.73 148.83 336.264 150.355C338.182 152.239 340.941 151.892 343.218 150.963C345.779 149.934 348.13 147.901 350.951 149.202C353.252 150.268 353.945 152.438 354.057 154.806C354.106 155.611 354.18 156.454 354.453 157.223C354.675 157.855 355.047 158.45 355.603 158.81C356.482 159.393 357.62 159.318 358.672 159.318C363.757 159.331 361.406 164.376 359.687 166.93C357.546 170.116 354.007 172.273 350.283 173.054C348.811 173.364 347.227 173.339 345.866 172.682C344.814 172.174 343.96 171.331 343.045 170.587C340.644 168.666 337.341 169.645 334.73 167.984C330.758 165.442 328.915 160.422 326.131 156.802C324.411 154.545 322.295 152.066 321.478 149.301C320.909 147.38 321.454 141.504 324.831 142.905C325.463 143.165 325.957 143.661 326.514 144.057C328.345 145.372 330.164 144.665 332.07 145.384Z" fill="black"/>
<path d="M342.104 164.214C342.104 164.214 331.29 158.822 321.33 161.053C321.33 161.053 315.366 164.574 316.393 171.256C317.37 177.579 317.581 182.649 317.605 186.095C317.618 189.071 318.632 197.86 319.35 198.901C320.897 201.121 323.804 200.104 331.129 199.459C339.728 198.716 340.768 197.054 342.537 195.145C343.713 193.868 342.847 189.058 342.71 188.19C342.005 183.802 339.654 176.847 342.104 164.214Z" fill="#5479F7"/>
<path d="M325.759 166.496L323.024 162.914C321.366 160.199 317.728 159.182 314.784 158.017C302.584 153.207 301.779 141.442 300.802 136.248L296.447 136.483C296.447 136.483 290.854 165.269 318.533 173.662L325.759 166.496Z" fill="#5479F7"/>
<path d="M356.58 132.889C352.361 147.269 347.177 155.427 338.441 164.352C338.441 164.352 335.459 187.597 354.6 159.642C361.22 149.997 359.513 133.843 359.513 133.843L356.58 132.889Z" fill="#5479F7"/>
<path d="M356.643 133.744C356.42 133.608 356.197 133.422 355.987 133.211C354.935 132.145 353.215 129.492 354.811 128.178C355.999 127.186 358.127 127.719 359.327 128.389C360.825 129.232 360.466 131.488 359.835 132.802C359.13 134.265 357.806 134.476 356.643 133.744Z" fill="white"/>
<path d="M357.013 133.149C357.446 133.422 357.904 133.508 358.275 133.397C358.646 133.285 358.968 132.975 359.203 132.504C359.735 131.401 360.007 129.591 358.98 129.008C357.966 128.45 356.147 127.979 355.256 128.723C355.009 128.922 354.885 129.169 354.873 129.517C354.823 130.471 355.664 131.872 356.493 132.715C356.654 132.889 356.84 133.037 357.013 133.149ZM357.953 134.86C357.384 134.86 356.815 134.686 356.271 134.351C355.999 134.178 355.726 133.955 355.491 133.707C354.699 132.901 353.375 131.091 353.462 129.442C353.499 128.711 353.809 128.079 354.353 127.632C355.961 126.293 358.535 127.136 359.661 127.769C361.616 128.86 361.208 131.562 360.465 133.112C359.958 134.19 359.203 134.599 358.671 134.761C358.436 134.823 358.201 134.86 357.953 134.86Z" fill="black"/>
<path d="M298.006 136.73C297.759 136.706 297.499 136.644 297.214 136.532C295.903 136.049 293.972 134.102 294.331 132.553C294.863 130.321 299.676 129.912 300.889 131.598C302.361 133.631 300.543 137.065 298.006 136.73Z" fill="white"/>
<path d="M298.08 131.264C297.734 131.264 297.375 131.301 297.016 131.376C295.927 131.599 295.16 132.107 295.024 132.715C294.764 133.793 296.36 135.467 297.462 135.876C297.672 135.95 297.895 136.012 298.093 136.037C298.934 136.149 299.763 135.677 300.283 134.797C300.84 133.855 300.864 132.752 300.32 132.008C299.986 131.549 299.083 131.264 298.08 131.264ZM298.328 137.463C298.192 137.463 298.056 137.45 297.92 137.438C297.61 137.401 297.288 137.314 296.979 137.202C295.532 136.669 293.168 134.438 293.651 132.392C293.923 131.215 295.086 130.322 296.744 129.987C298.365 129.665 300.543 129.9 301.471 131.177C302.324 132.392 302.337 134.091 301.495 135.516C300.765 136.744 299.59 137.463 298.328 137.463Z" fill="black"/>
<path d="M335.225 162.529L325.128 165.443L323.928 160.794L327.17 160.31L327.133 159.058C325.339 159.095 324.163 158.364 323.656 157.967C323.483 157.818 323.396 157.595 323.421 157.372L323.73 154.558C323.384 154.347 322.889 153.703 323.495 153.157C324.101 152.624 325.19 149.636 325.19 149.636C326.712 147.157 327.739 150.145 329.174 150.182C330.164 150.207 330.783 150.715 330.622 152.041C330.449 153.368 331.043 152.624 331.698 152.153C332.354 151.67 332.886 151.88 332.676 153.095C332.466 154.31 331.154 155.227 331.154 155.227L331.018 155.624C331.451 157.285 332.478 161.6 332.478 161.6L335.225 162.529Z" fill="white"/>
<path d="M324.807 161.376L325.636 164.562L332.849 162.467L332.255 162.269C332.02 162.194 331.847 162.008 331.797 161.76C331.785 161.723 330.758 157.434 330.337 155.797C330.313 155.673 330.313 155.537 330.35 155.401L330.486 155.004C330.535 154.868 330.622 154.731 330.746 154.645C331.043 154.434 331.847 153.727 331.983 152.971C331.995 152.909 331.995 152.859 332.008 152.81C331.934 152.859 331.872 152.909 331.797 152.971C331.402 153.293 330.907 153.702 330.35 153.392C329.781 153.07 329.88 152.314 329.917 151.954C329.966 151.545 329.929 151.248 329.805 151.099C329.669 150.938 329.372 150.901 329.162 150.888C328.395 150.876 327.801 150.368 327.281 149.934C326.997 149.686 326.588 149.339 326.403 149.363C326.366 149.363 326.155 149.425 325.821 149.946C325.524 150.764 324.633 153.095 323.965 153.69C323.928 153.727 323.916 153.752 323.916 153.752C323.928 153.777 324.015 153.888 324.089 153.938C324.324 154.087 324.473 154.359 324.435 154.632L324.126 157.434C324.51 157.731 325.537 158.364 327.12 158.351C327.516 158.351 327.813 158.649 327.838 159.033L327.875 160.285C327.888 160.645 327.628 160.955 327.281 161.004L324.807 161.376ZM325.128 166.149C325.017 166.149 324.893 166.124 324.782 166.062C324.621 165.963 324.497 165.802 324.448 165.616L323.248 160.967C323.198 160.769 323.235 160.558 323.347 160.397C323.458 160.236 323.631 160.112 323.829 160.087L326.242 159.727C324.745 159.554 323.73 158.922 323.223 158.512C322.852 158.227 322.666 157.769 322.716 157.298L322.988 154.855C322.753 154.607 322.555 154.273 322.518 153.864C322.468 153.405 322.654 152.971 323.037 152.636C323.322 152.376 324.04 150.739 324.522 149.388C324.547 149.351 324.559 149.301 324.584 149.264C325.066 148.483 325.586 148.062 326.18 147.963C327.009 147.839 327.64 148.372 328.197 148.855C328.543 149.14 328.927 149.463 329.187 149.475C329.929 149.487 330.498 149.723 330.869 150.169C331.166 150.516 331.327 150.975 331.352 151.533C332.107 151.012 332.651 151.248 332.862 151.372C333.356 151.682 333.53 152.301 333.369 153.219C333.158 154.409 332.193 155.302 331.76 155.649C332.132 157.099 332.824 160.012 333.072 161.054L335.448 161.86C335.744 161.946 335.942 162.232 335.93 162.541C335.918 162.851 335.72 163.124 335.423 163.199L325.326 166.124C325.264 166.149 325.203 166.149 325.128 166.149Z" fill="black"/>
<path d="M327.318 159.777C327.231 159.777 327.145 159.777 327.058 159.765C326.662 159.728 326.39 159.381 326.427 158.984C326.477 158.6 326.823 158.327 327.207 158.364C328.122 158.463 328.753 157.075 328.753 157.062C328.914 156.703 329.323 156.542 329.681 156.69C330.04 156.852 330.213 157.261 330.053 157.62C330.015 157.719 329.112 159.777 327.318 159.777Z" fill="black"/>
<path d="M233.332 308.196L237.081 320.593L242.575 319.006L238.578 305.977L233.332 308.196Z" fill="white"/>
<path d="M234.198 308.604L237.563 319.724L241.684 318.522L238.133 306.931L234.198 308.604ZM236.611 321.472L232.478 307.786L239.023 305.021L243.453 319.489L236.611 321.472Z" fill="black"/>
<path d="M236.573 318.72L242.042 316.984C242.438 316.86 242.859 316.984 243.119 317.294C243.973 318.323 245.841 320.778 246.534 323.455C246.732 324.174 246.311 324.931 245.593 325.154L237.823 327.633C236.116 328.179 234.359 328.538 232.565 328.699C232.565 328.699 226.823 329.307 226.762 327.472C226.663 324.831 230.535 324.298 231.055 323.765C233.035 321.72 235.126 319.811 235.881 319.129C236.091 318.943 236.326 318.806 236.573 318.72Z" fill="white"/>
<path d="M236.796 319.402C236.635 319.452 236.487 319.539 236.351 319.65C235.559 320.369 233.517 322.254 231.562 324.262C231.315 324.51 230.919 324.659 230.337 324.882C228.791 325.477 227.417 326.109 227.467 327.448C227.467 327.461 227.467 327.498 227.541 327.56C228.222 328.155 230.845 328.167 232.503 327.994C234.235 327.832 235.955 327.485 237.613 326.965L245.383 324.485C245.742 324.374 245.952 323.989 245.853 323.63C245.185 321.064 243.342 318.659 242.574 317.754C242.5 317.654 242.376 317.617 242.265 317.654L236.796 319.402ZM230.573 329.506C229.162 329.506 227.442 329.345 226.613 328.626C226.267 328.316 226.069 327.932 226.056 327.498C225.97 325.043 228.482 324.076 229.843 323.568C230.115 323.456 230.486 323.32 230.573 323.246C232.528 321.237 234.619 319.328 235.41 318.597C235.695 318.349 236.004 318.163 236.363 318.051L241.832 316.316C242.5 316.092 243.218 316.303 243.663 316.836C244.69 318.064 246.509 320.531 247.214 323.27C247.499 324.361 246.88 325.489 245.804 325.837L238.034 328.304C236.289 328.861 234.47 329.233 232.639 329.407C232.33 329.432 231.513 329.506 230.573 329.506Z" fill="black"/>
<path d="M236.822 324.597C236.661 324.597 236.512 324.547 236.376 324.436L233.159 321.845C232.862 321.597 232.813 321.163 233.048 320.853C233.295 320.543 233.741 320.493 234.038 320.741L237.267 323.332C237.564 323.58 237.613 324.026 237.366 324.324C237.23 324.51 237.032 324.597 236.822 324.597Z" fill="black"/>
<path d="M235.101 326.518C234.953 326.518 234.792 326.469 234.668 326.37L231.439 323.766C231.142 323.531 231.092 323.084 231.34 322.774C231.575 322.477 232.02 322.427 232.329 322.663L235.546 325.266C235.843 325.502 235.893 325.948 235.658 326.258C235.509 326.432 235.311 326.518 235.101 326.518Z" fill="black"/>
<path d="M202.276 311.306L202.536 320.157L208.747 320.145L208.302 310.909L202.276 311.306Z" fill="white"/>
<path d="M203.005 311.964L203.228 319.452L208.004 319.439L207.633 311.666L203.005 311.964ZM201.855 320.865L201.558 310.637L208.969 310.154L209.476 320.865H201.855Z" fill="black"/>
<path d="M202.783 320.021H208.536C208.945 320.021 209.316 320.269 209.477 320.653C209.984 321.905 211.023 324.843 210.887 327.645C210.85 328.401 210.219 328.996 209.464 328.996L192.575 329.009C191.795 329.009 191.202 328.29 191.362 327.521C191.548 326.591 192.191 325.377 194.047 324.286C197.042 322.513 200.815 320.74 202.003 320.195C202.251 320.083 202.511 320.021 202.783 320.021Z" fill="white"/>
<path d="M202.782 320.728C202.609 320.728 202.448 320.765 202.287 320.839C201.198 321.348 197.388 323.133 194.393 324.893C193.069 325.674 192.253 326.629 192.055 327.658C192.005 327.868 192.104 328.03 192.166 328.104C192.265 328.228 192.414 328.302 192.574 328.302L209.464 328.29C209.847 328.29 210.169 327.992 210.181 327.608C210.317 324.918 209.278 322.029 208.82 320.914C208.771 320.802 208.659 320.728 208.536 320.728H202.782ZM192.574 329.716C191.993 329.716 191.436 329.455 191.077 328.997C190.706 328.538 190.558 327.955 190.669 327.373C190.867 326.381 191.56 324.93 193.688 323.666C196.732 321.881 200.592 320.058 201.706 319.55C202.04 319.389 202.411 319.314 202.782 319.314H208.536C209.241 319.314 209.86 319.724 210.119 320.381C210.726 321.881 211.728 324.819 211.592 327.67C211.53 328.811 210.602 329.703 209.464 329.703L192.574 329.716Z" fill="black"/>
<path d="M201.459 325.786C201.224 325.786 201.001 325.675 200.878 325.464L198.576 321.98C198.353 321.646 198.452 321.212 198.774 321.001C199.096 320.778 199.529 320.865 199.752 321.199L202.041 324.683C202.263 325.018 202.177 325.452 201.843 325.675C201.731 325.749 201.595 325.786 201.459 325.786Z" fill="black"/>
<path d="M199.231 327.113C199.008 327.113 198.786 327.001 198.649 326.803L196.348 323.307C196.138 322.984 196.224 322.538 196.546 322.327C196.868 322.104 197.313 322.203 197.524 322.526L199.825 326.022C200.035 326.344 199.949 326.79 199.627 327.001C199.503 327.075 199.367 327.113 199.231 327.113Z" fill="black"/>
<path d="M228.271 236.031C228.271 236.031 231.104 243.122 231.649 250.399C232.205 257.676 239.728 301.611 241.98 312.694C241.98 312.694 236.932 315.521 234.049 315.062C234.049 315.062 217.803 282.545 215.155 258.321C212.508 234.097 213.275 236.031 213.275 236.031H228.271Z" fill="black"/>
<path d="M223.285 238.758C223.285 238.758 224.201 251.874 219.66 261.147C215.131 270.432 209.687 306.483 210.071 315.657C210.071 315.657 204.329 317.182 201.607 316.115C201.607 316.115 193.367 264.135 203.872 238.572L223.285 238.758Z" fill="black"/>
<path d="M216.9 271.673C216.863 271.673 216.813 271.673 216.776 271.661C216.393 271.599 216.133 271.227 216.207 270.843C216.244 270.682 216.962 266.863 218.743 263.677C221.23 259.264 222.171 253.747 222.183 253.698C222.245 253.313 222.616 253.053 223 253.115C223.383 253.177 223.643 253.537 223.581 253.933C223.532 254.169 222.579 259.735 219.968 264.384C218.298 267.359 217.605 271.066 217.593 271.103C217.531 271.438 217.234 271.673 216.9 271.673Z" fill="#CADDFF"/>
<path d="M222.827 206.762L225.524 203.762C226.688 200.774 229.929 198.196 232.639 196.522C243.923 189.604 242.34 176.451 242.401 171.133L246.695 171.79C246.695 171.79 257.274 199.411 231.253 212.613L222.827 206.762Z" fill="white"/>
<path d="M223.891 206.637L231.303 211.782C241.61 206.439 247.227 198.183 248.031 187.248C248.551 180.058 246.695 173.984 246.175 172.434L243.107 171.95C243.119 172.298 243.119 172.669 243.131 173.054C243.243 179.227 243.441 190.72 233.01 197.129C230.981 198.381 227.38 200.935 226.18 204.022C226.143 204.096 226.106 204.17 226.044 204.232L223.891 206.637ZM231.253 213.319C231.105 213.319 230.969 213.27 230.845 213.183L222.431 207.344C222.258 207.232 222.147 207.047 222.134 206.848C222.109 206.65 222.171 206.439 222.307 206.29L224.918 203.377C226.316 199.968 230.115 197.253 232.28 195.926C242.018 189.939 241.82 178.967 241.721 173.079C241.708 172.347 241.696 171.69 241.708 171.12C241.708 170.909 241.795 170.723 241.956 170.587C242.104 170.45 242.315 170.401 242.513 170.426L246.806 171.095C247.054 171.132 247.264 171.306 247.363 171.541C247.474 171.826 250.048 178.694 249.429 187.298C248.86 195.294 245.297 206.265 231.563 213.233C231.464 213.295 231.365 213.319 231.253 213.319Z" fill="black"/>
<path d="M245.198 172.323C245.445 172.249 245.693 172.137 245.94 171.988C247.165 171.282 248.749 169.001 248.118 167.525C247.202 165.393 242.34 165.839 241.437 167.736C240.335 170.017 242.736 173.092 245.198 172.323Z" fill="white"/>
<path d="M245.124 166.82C243.75 166.82 242.402 167.353 242.068 168.035C241.659 168.878 241.87 169.969 242.587 170.812C243.268 171.593 244.159 171.915 244.988 171.655C245.186 171.593 245.384 171.493 245.594 171.382C246.621 170.787 247.908 168.828 247.462 167.799C247.215 167.216 246.361 166.845 245.235 166.82C245.198 166.82 245.161 166.82 245.124 166.82ZM244.418 173.155C243.367 173.155 242.315 172.646 241.523 171.729C240.434 170.464 240.15 168.766 240.806 167.415C241.486 165.989 243.602 165.382 245.272 165.406C246.98 165.444 248.279 166.126 248.761 167.241C249.603 169.2 247.635 171.828 246.299 172.609C246.002 172.77 245.705 172.907 245.408 173.006C245.087 173.105 244.753 173.155 244.418 173.155Z" fill="black"/>
<path d="M179.954 197.488C168.2 205.199 174.844 229.473 193.045 221.005L194.245 208.695C178.519 215.513 179.596 206.166 183.679 196.1L179.954 197.488Z" fill="white"/>
<path d="M180.275 198.122C174.237 202.151 173.483 210.816 176.576 216.432C179.682 222.036 185.559 223.548 192.376 220.523L193.428 209.812C187.613 212.168 183.814 212.366 181.822 210.407C179.719 208.325 179.917 204.035 182.441 197.316L180.275 198.122ZM185.905 223.474C180.832 223.474 177.256 220.573 175.351 217.114C171.936 210.928 172.814 201.333 179.57 196.895C179.62 196.87 179.669 196.845 179.719 196.833L183.431 195.444C183.703 195.345 183.987 195.407 184.185 195.618C184.383 195.816 184.433 196.114 184.334 196.374C180.857 204.953 181.587 208.188 182.812 209.391C184.42 210.978 188.281 210.519 193.96 208.052C194.195 207.953 194.455 207.978 194.653 208.126C194.863 208.275 194.962 208.523 194.938 208.771L193.737 221.069C193.713 221.317 193.564 221.54 193.341 221.639C190.582 222.928 188.108 223.474 185.905 223.474Z" fill="black"/>
<path d="M182.541 197.651C182.813 197.576 183.085 197.452 183.357 197.291C184.706 196.51 186.438 194.018 185.733 192.394C184.743 190.064 179.41 190.559 178.421 192.617C177.208 195.122 179.844 198.494 182.541 197.651Z" fill="white"/>
<path d="M182.454 191.55C180.907 191.55 179.435 192.145 179.051 192.926C178.593 193.868 178.829 195.083 179.633 196.025C180.388 196.918 181.402 197.265 182.33 196.98C182.553 196.906 182.776 196.806 183.011 196.67C184.149 196.013 185.597 193.856 185.089 192.666C184.755 191.885 183.58 191.575 182.59 191.55C182.54 191.55 182.503 191.55 182.454 191.55ZM182.54 197.649H182.553H182.54ZM181.687 198.492C180.548 198.492 179.422 197.947 178.569 196.955C177.393 195.579 177.084 193.757 177.789 192.306C178.532 190.757 180.808 190.1 182.615 190.137C184.458 190.174 185.869 190.918 186.389 192.108C187.292 194.215 185.164 197.054 183.716 197.897C183.394 198.083 183.073 198.232 182.751 198.331C182.404 198.443 182.046 198.492 181.687 198.492Z" fill="black"/>
<path d="M191.474 209.006C191.486 208.672 191.635 208.374 191.895 208.163C192.81 207.42 196.114 205.758 198.96 204.122C202.102 202.312 204.886 201.184 208.499 201.233L220.749 200.564C224.164 200.552 226.131 199.907 228.964 198.209C232.28 196.237 234.384 193.46 235.213 192.543C235.374 192.37 235.646 192.407 235.745 192.605L242.884 206.329C242.884 206.329 237.366 211.399 230.09 217.027C229.855 217.201 229.546 222.804 229.583 223.089L231.86 243.966C232.045 245.417 199.714 247.76 199.813 246.247C200.11 241.363 201.818 237.321 201.1 221.974C201.076 221.428 200.568 221.019 200.036 221.131C198.477 221.428 195.359 222.023 192.204 222.569C191.486 222.693 190.831 222.11 190.868 221.379L191.474 209.006Z" fill="#5479F7"/>
<path d="M231.154 244.039C231.154 244.039 231.166 244.051 231.166 244.064L231.154 244.039ZM200.543 245.861C203.97 246.642 227.962 244.919 231.117 243.667L228.877 223.162C228.853 222.89 228.964 220.943 229.026 219.964C229.249 216.778 229.372 216.679 229.657 216.468C235.72 211.77 240.607 207.431 242.005 206.178L235.373 193.422C235.349 193.459 235.324 193.484 235.299 193.521C234.235 194.761 232.243 197.079 229.323 198.827C226.242 200.662 224.151 201.257 220.748 201.269L208.536 201.939C205.01 201.889 202.288 203.03 199.306 204.74C198.254 205.335 197.165 205.931 196.113 206.513C194.443 207.418 192.859 208.286 192.34 208.707C192.241 208.794 192.179 208.906 192.179 209.042L191.573 221.402C191.56 221.588 191.659 221.712 191.721 221.762C191.783 221.811 191.907 221.898 192.092 221.873C195.21 221.34 198.316 220.745 199.9 220.435C200.357 220.348 200.828 220.46 201.186 220.745C201.558 221.03 201.78 221.476 201.805 221.935C202.325 233.179 201.558 238.46 200.988 242.316C200.803 243.593 200.642 244.721 200.543 245.861ZM204.403 247.411C201.867 247.411 200.073 247.287 199.578 247.002C199.269 246.828 199.083 246.519 199.108 246.196C199.194 244.845 199.38 243.568 199.59 242.105C200.147 238.312 200.914 233.117 200.395 222.01C200.395 221.923 200.345 221.873 200.32 221.861C200.283 221.836 200.234 221.811 200.172 221.824C198.588 222.133 195.458 222.729 192.327 223.262C191.771 223.361 191.214 223.2 190.793 222.815C190.36 222.443 190.137 221.91 190.162 221.34L190.768 208.968C190.793 208.447 191.041 207.951 191.449 207.617C192.08 207.096 193.565 206.29 195.433 205.261C196.485 204.691 197.574 204.108 198.613 203.513C201.78 201.678 204.688 200.451 208.511 200.525L220.711 199.856C223.903 199.844 225.735 199.31 228.605 197.6C231.327 195.976 233.22 193.781 234.235 192.591C234.421 192.381 234.569 192.195 234.693 192.058C234.916 191.81 235.25 191.686 235.584 191.736C235.918 191.773 236.215 191.984 236.376 192.281L243.515 206.005C243.663 206.29 243.601 206.637 243.366 206.86C243.304 206.91 237.823 211.918 230.684 217.447C230.511 218.39 230.263 222.543 230.276 223.038L232.565 243.89C232.577 244.039 232.577 244.436 232.132 244.733C230.3 245.961 213.089 247.411 204.403 247.411Z" fill="black"/>
<path d="M217.668 191.911L218.657 201.779C218.794 202.994 217.878 204.06 216.678 204.11L213.745 204.221C212.558 204.271 211.58 203.316 211.58 202.126L211.654 192.692L217.668 191.911Z" fill="white"/>
<path d="M212.359 193.323L212.285 202.125C212.285 202.509 212.433 202.857 212.705 203.129C212.978 203.39 213.336 203.538 213.72 203.514L216.652 203.402C217.036 203.39 217.382 203.216 217.642 202.918C217.89 202.621 218.001 202.249 217.952 201.865L217.036 192.703L212.359 193.323ZM213.658 204.939C212.928 204.939 212.248 204.654 211.728 204.146C211.171 203.613 210.874 202.881 210.887 202.113L210.948 192.691C210.961 192.331 211.221 192.034 211.567 191.997L217.58 191.216C217.766 191.191 217.952 191.24 218.1 191.364C218.249 191.476 218.348 191.65 218.36 191.848L219.362 201.716C219.449 202.472 219.214 203.253 218.706 203.836C218.199 204.431 217.469 204.79 216.702 204.815L213.77 204.927C213.732 204.939 213.695 204.939 213.658 204.939Z" fill="black"/>
<path d="M212.941 179.761C215.292 180.083 215.613 182.761 218.434 183.071C219.721 183.207 220.364 182.724 221.503 183.282C222.27 183.641 223.359 184.521 223.483 185.687C223.619 187.174 222.01 187.484 220.352 190.336C219.201 192.344 219.127 193.683 218.199 193.832C217.271 193.98 216.851 192.679 215.824 192.766C214.487 192.877 214.314 195.109 212.904 195.778C212.013 196.199 210.157 196.113 207.534 194.142C207.113 193.819 206.964 193.237 207.212 192.766C207.509 192.158 207.892 191.377 208.325 190.67C210.379 187.311 211.839 186.741 211.555 185.712C211.109 184.125 208.226 184.422 208.004 183.158C207.769 181.831 210.515 179.439 212.941 179.761Z" fill="black"/>
<path d="M216.171 186.195C216.171 186.195 214.104 190.572 213.312 191.663C212.521 192.753 208.969 190.534 208.969 190.534L208.883 189.741L208.45 189.468C208.326 189.381 208.239 189.245 208.227 189.084C208.202 188.935 208.264 188.774 208.376 188.662C209.229 187.807 211.048 185.873 211.927 183.989C211.927 183.989 214.327 183.369 216.171 186.195Z" fill="white"/>
<path d="M209.625 190.112C210.962 190.893 212.422 191.414 212.756 191.228C213.313 190.459 214.686 187.67 215.367 186.269C214.228 184.744 212.954 184.608 212.397 184.633C211.494 186.356 209.984 188.042 209.032 188.997L209.267 189.158C209.44 189.269 209.551 189.455 209.576 189.666L209.625 190.112ZM212.558 192.666C211.234 192.666 209.477 191.687 208.599 191.129C208.413 191.017 208.289 190.831 208.264 190.608L208.215 190.162L208.066 190.063C207.757 189.864 207.559 189.53 207.522 189.158C207.485 188.786 207.609 188.426 207.881 188.154C208.623 187.422 210.442 185.501 211.296 183.691C211.382 183.492 211.556 183.356 211.754 183.294C211.877 183.269 214.674 182.6 216.765 185.811C216.901 186.021 216.913 186.282 216.814 186.505C216.728 186.678 214.711 190.943 213.882 192.071C213.573 192.505 213.102 192.666 212.558 192.666Z" fill="black"/>
<path d="M215.428 189.754C215.428 189.754 217.061 187.745 217.816 188.688C218.571 189.617 216.715 191.787 215.428 189.754Z" fill="white"/>
</svg>
