<svg width="390" height="389" viewBox="0 0 390 389" fill="none" xmlns="http://www.w3.org/2000/svg">
<path d="M18.8618 120.556C10.4669 139.173 -1.95805 174.816 3.03426 219.147C9.44895 276.015 41.1877 320.862 72.0619 346.06C174.502 429.661 362.048 375.652 386.884 296.89C391.388 282.597 390.119 268.819 388.571 251.862C383.607 197.937 357.488 181.9 339.931 124.628C323.95 72.5156 339.708 66.6587 324.759 43.4822C292.337 -6.77556 198.752 -9.2996 134.354 14.7834C109.63 24.0429 49.5966 52.4348 18.8618 120.556Z" fill="#CADDFF"/>
<path d="M314.496 281.802L387.526 202.413C390.036 199.694 388.098 195.301 384.402 195.301L238.245 195.399C234.55 195.399 232.625 199.792 235.135 202.511L308.249 281.802C309.936 283.629 312.823 283.629 314.496 281.802Z" fill="#FF9F78"/>
<path d="M113.297 55.3775C112.948 55.6704 112.516 55.8238 112.097 55.7122C111.316 55.517 110.842 54.5966 111.079 53.6344C111.191 53.1882 111.247 52.8117 111.721 52.5746C147.253 28.1709 188.823 18.2002 229.43 28.1848C312.124 48.4887 360.416 143.984 341.186 245.015L273.483 224.976C293.298 144.235 257.139 60.3977 191.291 44.2355C164.768 37.7232 137.603 42.325 113.324 55.4194L113.297 55.3775Z" fill="#FF9F78"/>
<path d="M81.4189 362.265C81.4189 362.265 79.9407 370.841 82.5903 374.564L83.3712 376.126L69.4541 374.006L70.2769 372.528C71.7411 369.907 72.5359 367.034 72.5778 364.119L81.4189 362.265Z" fill="white"/>
<path d="M70.5563 373.462L82.1446 375.233L81.9912 374.926C79.76 371.733 80.276 365.597 80.5828 363.157L73.2617 364.704C73.1222 367.521 72.3134 370.338 70.891 372.876L70.5563 373.462ZM84.6129 377.032L68.353 374.55L69.6639 372.193C71.0723 369.683 71.8253 366.894 71.8672 364.119L71.8811 363.547L82.2841 361.372L82.1028 362.39C82.0888 362.473 80.7083 370.715 83.1626 374.159L83.2184 374.243L84.6129 377.032Z" fill="black"/>
<path d="M83.0093 369.809L84.348 371.497C86.9975 374.843 90.428 377.493 94.3187 379.208L97.3168 380.533C97.6097 380.658 97.8049 380.909 97.8607 381.216L97.8886 381.384C98.2233 383.113 96.0478 386.92 89.7447 387.924C85.8401 388.537 76.8038 388.579 66.1498 383.796C65.4804 383.503 65.076 382.792 65.1736 382.053C65.4944 379.375 66.4984 372.989 69.0922 369.949C69.385 369.6 69.887 369.586 70.1938 369.907L73.1362 373.003C74.461 374.411 76.6504 374.453 78.0309 373.114L81.559 369.712C81.9774 369.307 82.6467 369.349 83.0093 369.809Z" fill="white"/>
<path d="M69.6914 370.38L69.6217 370.394C67.1534 373.309 66.1773 379.57 65.8705 382.136C65.8147 382.568 66.0518 382.973 66.4422 383.154C78.5883 388.606 87.8896 387.505 89.6328 387.226C93.8581 386.556 95.7407 384.688 96.4937 383.628C97.1352 382.708 97.2886 381.927 97.2049 381.508L97.177 381.355C97.1631 381.271 97.1073 381.202 97.0375 381.174L94.0394 379.849C90.0511 378.092 86.5091 375.359 83.7898 371.942L82.4511 370.241C82.3814 370.157 82.2977 370.143 82.2559 370.143C82.214 370.143 82.1164 370.143 82.0467 370.213L78.5186 373.629C77.7237 374.396 76.6639 374.801 75.5483 374.787C74.4327 374.759 73.4008 374.299 72.6338 373.49L69.6914 370.38ZM85.5329 388.913C81.196 388.913 74.1538 388.16 65.8705 384.437C64.9083 384.005 64.3505 383.014 64.476 381.969C64.7967 379.277 65.8426 372.695 68.5619 369.488C68.8268 369.181 69.2173 368.986 69.6217 368.972C70.0401 368.958 70.4305 369.125 70.7094 369.418L73.6518 372.528C74.1538 373.058 74.8371 373.364 75.5762 373.392C76.3153 373.406 77.0126 373.127 77.5425 372.611L81.0705 369.209C81.4052 368.888 81.8654 368.707 82.3395 368.735C82.8137 368.777 83.2599 369 83.5527 369.376L84.8915 371.064C87.4713 374.299 90.832 376.907 94.6111 378.566L97.5953 379.891C98.0974 380.1 98.4599 380.56 98.5575 381.09L98.5854 381.243C98.7528 382.178 98.4042 383.335 97.6372 384.437C96.7586 385.678 94.5832 387.867 89.8559 388.62C89.2423 388.718 87.7362 388.913 85.5329 388.913Z" fill="black"/>
<path d="M81.475 383.154C81.4471 383.154 81.4192 383.154 81.4053 383.154C76.7197 382.959 72.2295 381.801 68.0181 379.737L65.6753 378.58C65.3406 378.413 65.1872 377.994 65.3685 377.646C65.5359 377.297 65.9542 377.158 66.3028 377.325L68.6456 378.482C72.6618 380.463 76.9847 381.564 81.461 381.746C81.5726 381.759 81.6284 381.704 81.6563 381.662C81.6842 381.62 81.726 381.55 81.6981 381.439L81.3355 380.198C81.1682 379.612 81.3495 379.012 81.8236 378.622C82.2977 378.231 82.9253 378.162 83.4552 378.427L84.6265 379.026C87.9176 380.686 91.7803 380.937 95.2387 379.696L95.9359 379.445C96.2985 379.305 96.7029 379.5 96.8284 379.863C96.9679 380.226 96.7726 380.63 96.4101 380.755L95.7128 381.006C91.8919 382.387 87.6247 382.122 83.999 380.281L82.8276 379.682C82.8137 379.682 82.7719 379.654 82.7161 379.696C82.6603 379.737 82.6742 379.793 82.6882 379.807L83.0368 381.048C83.1902 381.564 83.0787 382.108 82.7579 382.526C82.4511 382.917 81.9631 383.154 81.475 383.154Z" fill="black"/>
<path d="M27.4521 342.728C27.4521 342.728 21.1351 349.199 20.9119 353.982L20.5633 355.795L10.6484 344.025L12.3079 343.593C15.0132 342.212 17.7743 341.543 19.5593 339.061L27.4521 342.728Z" fill="white"/>
<path d="M11.9032 344.416L20.1447 354.219L20.2144 353.898C20.4375 349.826 24.621 344.806 26.2804 342.951L19.7681 339.939C18.3597 341.627 16.5329 342.435 14.5945 343.3C13.9531 343.579 13.2837 343.886 12.6283 344.22L12.4889 344.262L11.9032 344.416ZM20.9674 357.37L9.39307 343.621L12.0566 342.923C12.7259 342.589 13.3813 342.296 14.0228 342.017C16.0309 341.125 17.7601 340.358 19.0012 338.656L19.3358 338.182L28.6511 342.505L27.9538 343.216C27.8981 343.272 21.818 349.561 21.6089 354.01L21.5949 354.107L20.9674 357.37Z" fill="black"/>
<path d="M23.1435 351.876L22.6833 354.08C21.7629 358.444 21.9163 362.977 23.1295 367.272L24.0499 370.577C24.1475 370.883 24.0778 371.232 23.8686 371.469L23.757 371.608C22.5857 373.017 18.0814 373.77 13.1031 369.335C10.0352 366.588 3.997 359.281 0.761763 347.484C0.566531 346.745 0.859377 345.95 1.51479 345.531C3.87149 344.011 9.65866 340.609 13.8143 340.692C14.2745 340.706 14.6231 341.097 14.5673 341.557L14.0374 346.005C13.8003 348 15.2088 349.812 17.2029 350.036L22.2649 350.635C22.8646 350.705 23.269 351.291 23.1435 351.876Z" fill="white"/>
<path d="M13.661 341.389C9.68664 341.389 4.12259 344.694 1.89139 346.116C1.50093 346.367 1.31964 346.841 1.44515 347.301C5.14057 360.758 12.1967 367.577 13.5773 368.804C16.9241 371.803 19.6991 372.082 21.0518 371.984C22.2092 371.9 22.9344 371.496 23.2133 371.147L23.3248 371.022C23.3806 370.952 23.4085 370.854 23.3806 370.757L22.4463 367.466C21.2191 363.073 21.0657 358.402 22.0001 353.939L22.4602 351.736C22.4881 351.61 22.4324 351.513 22.4045 351.471C22.3766 351.429 22.3068 351.345 22.1813 351.331L17.1193 350.732C15.9758 350.606 14.9578 350.035 14.2327 349.128C13.5215 348.208 13.2008 347.064 13.3402 345.921L13.8841 341.472C13.8841 341.458 13.8841 341.444 13.8562 341.417C13.8562 341.417 13.8283 341.389 13.8004 341.389C13.7446 341.389 13.7028 341.389 13.661 341.389ZM20.6056 373.406C18.9043 373.406 15.9898 372.849 12.643 369.85C11.2066 368.581 3.88552 361.511 0.0924849 347.664C-0.200359 346.618 0.217991 345.53 1.12441 344.945C3.49506 343.425 9.44957 339.91 13.8283 339.994C14.2466 339.994 14.6511 340.189 14.916 340.496C15.1949 340.817 15.3204 341.235 15.2646 341.64L14.7347 346.088C14.6371 346.869 14.8602 347.636 15.3483 348.25C15.8224 348.863 16.5057 349.254 17.2727 349.337L22.3487 349.937C22.8228 349.993 23.2551 350.258 23.548 350.648C23.8269 351.039 23.9245 351.541 23.8269 352.015L23.3667 354.232C22.4742 358.471 22.6276 362.906 23.799 367.075L24.7333 370.38C24.8867 370.924 24.7612 371.496 24.3986 371.928L24.301 372.054C23.6735 372.793 22.53 373.281 21.1494 373.378C20.9821 373.392 20.8008 373.406 20.6056 373.406Z" fill="black"/>
<path d="M23.6307 370.059C23.5191 370.059 23.3936 370.031 23.2821 369.961L22.6127 369.571C18.987 367.382 16.3793 363.756 15.445 359.6L15.1382 358.276C15.1382 358.248 15.1242 358.178 15.0406 358.164C14.943 358.136 14.9151 358.192 14.9011 358.22L14.1342 359.335C13.8413 359.782 13.3393 360.047 12.7954 360.06C12.2516 360.074 11.7356 359.823 11.4149 359.391C8.47249 355.473 6.40863 351.08 5.27909 346.297L4.65156 343.647C4.56789 343.271 4.80496 342.894 5.18147 342.797C5.55799 342.713 5.9345 342.95 6.01817 343.326L6.64569 345.976C7.73341 350.564 9.71359 354.789 12.5305 358.554C12.6141 358.652 12.7118 358.666 12.7675 358.666C12.8094 358.666 12.907 358.638 12.9767 358.54L13.7437 357.425C14.0923 356.909 14.692 356.672 15.2916 356.783C15.9052 356.895 16.3793 357.355 16.5187 357.955L16.8116 359.293C17.6622 363.073 20.0468 366.378 23.3378 368.372L23.9933 368.762C24.3279 368.957 24.4395 369.39 24.2443 369.724C24.1048 369.947 23.8678 370.059 23.6307 370.059Z" fill="black"/>
<path d="M51.2 220.235L73.6654 216.428L92.3377 222.647C92.3377 222.647 110.759 275.819 98.4177 320.011C90.999 346.618 85.5465 359.629 83.5942 363.896C83.134 364.9 82.116 365.528 81.0144 365.472L73.2052 365.109C71.6852 365.039 70.5277 363.715 70.6393 362.181C71.7967 347.873 73.0099 306.01 75.1854 284.702C75.1854 284.688 75.1575 284.674 75.1575 284.702C74.3626 288.468 65.5076 325.185 28.5254 348.389C27.8143 348.835 26.852 348.543 26.3082 347.901L18.2619 339.534C17.746 338.92 17.6623 338.056 18.0528 337.359C22.3897 329.87 47.6301 292.219 50.0286 254.818C50.5585 246.758 44.5482 242.365 51.2 220.235Z" fill="#FF9F78"/>
<path d="M73.4706 294.269C73.4148 294.269 73.373 294.269 73.3172 294.255C72.9407 294.171 72.7036 293.795 72.7873 293.418C73.3312 290.936 73.8332 288.328 74.3213 285.804C76.3572 275.136 78.2956 265.054 83.7481 260.857C84.0549 260.62 84.4871 260.676 84.7242 260.982C84.9613 261.289 84.9055 261.735 84.5987 261.972C79.5785 265.849 77.5983 276.127 75.6879 286.069C75.1998 288.593 74.6978 291.215 74.1539 293.725C74.0842 294.046 73.7913 294.269 73.4706 294.269Z" fill="#CADDFF"/>
<path d="M209.322 379.249C210.521 382.247 209.476 385.483 206.966 386.501C204.469 387.505 201.457 385.915 200.244 382.931C199.045 379.932 200.091 376.697 202.601 375.679C205.097 374.675 208.109 376.265 209.322 379.249Z" fill="#68ADF2"/>
<path d="M206.422 380.435C206.855 381.509 206.478 382.681 205.572 383.043C204.665 383.406 203.578 382.834 203.145 381.76C202.713 380.673 203.09 379.501 203.996 379.139C204.902 378.776 205.99 379.348 206.422 380.435Z" fill="white"/>
<path d="M230.031 379.249C231.244 382.247 230.198 385.483 227.688 386.501C225.192 387.505 222.18 385.915 220.967 382.931C219.754 379.932 220.813 376.697 223.309 375.679C225.82 374.675 228.832 376.265 230.031 379.249Z" fill="#68ADF2"/>
<path d="M227.145 380.421C227.577 381.508 227.2 382.68 226.294 383.042C225.388 383.419 224.3 382.833 223.868 381.759C223.421 380.672 223.798 379.5 224.704 379.138C225.611 378.761 226.698 379.347 227.145 380.421Z" fill="white"/>
<path d="M162.663 379.249C163.876 382.247 162.817 385.483 160.32 386.501C157.81 387.505 154.798 385.915 153.599 382.931C152.386 379.932 153.432 376.697 155.942 375.679C158.438 374.675 161.45 376.265 162.663 379.249Z" fill="#68ADF2"/>
<path d="M159.748 380.435C160.18 381.509 159.803 382.666 158.911 383.029C158.018 383.391 156.945 382.819 156.512 381.746C156.08 380.686 156.443 379.514 157.349 379.152C158.241 378.789 159.315 379.361 159.748 380.435Z" fill="white"/>
<path d="M182.952 379.249C184.165 382.247 183.119 385.483 180.609 386.501C178.113 387.505 175.101 385.915 173.888 382.931C172.674 379.932 173.734 376.697 176.23 375.679C178.74 374.675 181.753 376.265 182.952 379.249Z" fill="#68ADF2"/>
<path d="M180.065 380.421C180.512 381.509 180.121 382.694 179.215 383.057C178.308 383.433 177.207 382.848 176.774 381.76C176.328 380.672 176.719 379.487 177.625 379.124C178.532 378.762 179.633 379.334 180.065 380.421Z" fill="white"/>
<path d="M228.093 374.536H148.383C148.104 374.536 147.853 374.383 147.742 374.132L86.3003 242.533C86.133 242.184 86.2864 241.766 86.635 241.612C86.9836 241.445 87.402 241.598 87.5693 241.947L148.83 373.141H228.093C228.469 373.141 228.79 373.448 228.79 373.839C228.79 374.229 228.469 374.536 228.093 374.536Z" fill="black"/>
<path d="M197.413 374.537C197.148 374.537 196.897 374.383 196.772 374.132L134.647 241.515C134.48 241.167 134.633 240.748 134.982 240.581C135.33 240.414 135.749 240.567 135.916 240.916L198.041 373.547C198.208 373.895 198.055 374.313 197.706 374.467C197.609 374.523 197.511 374.537 197.413 374.537Z" fill="black"/>
<path d="M175.366 244.457L167.431 244.234C167.431 244.234 164.405 244.095 156.847 246.326C136.64 252.294 126.168 274.648 130.881 296.291C136.627 322.591 165.158 325.784 165.158 325.784L173.093 326.008C176.955 326.119 180.916 325.603 184.834 324.39C205.194 318.087 216.964 295.454 211.107 273.825C206.365 256.366 191.598 244.904 175.366 244.457Z" fill="#68ADF2"/>
<path d="M156.847 246.326C176.97 240.107 197.985 252.378 203.772 273.742C209.559 295.12 197.943 317.488 177.806 323.721C157.684 329.94 136.683 317.655 130.881 296.291C125.094 274.913 136.724 252.546 156.847 246.326Z" fill="white"/>
<path d="M157.057 246.996C137.325 253.104 125.89 275.137 131.566 296.111C134.41 306.625 141.02 315.187 150.154 320.207C158.647 324.893 168.394 325.897 177.598 323.038C197.344 316.944 208.779 294.911 203.089 273.938C200.245 263.423 193.649 254.861 184.515 249.827C176.022 245.156 166.261 244.152 157.057 246.996ZM167.167 326.036C161.059 326.036 155.007 324.489 149.471 321.435C140.002 316.233 133.155 307.364 130.213 296.473C124.328 274.775 136.195 251.975 156.639 245.658C166.219 242.687 176.357 243.733 185.198 248.6C194.667 253.815 201.5 262.684 204.442 273.562C210.327 295.26 198.474 318.06 178.016 324.391C174.446 325.493 170.793 326.036 167.167 326.036Z" fill="#68ADF2"/>
<path d="M156.193 263.674L159.079 267.899C161.394 266.268 163.374 265.347 165.062 264.831C165.647 264.65 166.191 264.511 166.721 264.413L169.106 270.842C168.534 270.995 167.767 271.148 166.875 271.427C165.382 271.887 163.514 272.668 161.478 274.244C158.535 276.517 158.508 278.609 159.414 279.948C160.502 281.523 162.775 281.314 167.655 279.878C167.753 279.85 167.837 279.822 167.92 279.794C174.516 277.758 178.435 278.748 181.335 283.002C184.25 287.269 183.887 293.126 179.341 298.104L182.688 302.999L178.254 306.415L175.144 301.869C172.927 303.417 170.528 304.574 168.45 305.216C167.572 305.481 166.763 305.662 166.038 305.746L163.57 299.08C164.532 298.955 165.578 298.732 166.665 298.397C168.59 297.797 170.64 296.835 172.522 295.385C175.102 293.391 176.148 290.978 174.837 289.068C173.666 287.352 171.616 287.213 167.906 288.356C167.669 288.44 167.432 288.51 167.181 288.594C166.902 288.691 166.61 288.775 166.331 288.872C160.697 290.616 156.081 290.532 153.055 286.111C150.168 281.886 150.712 276.406 154.868 271.664L151.758 267.104L156.193 263.674Z" fill="#68ADF2"/>
<path d="M84.431 244.109C82.7437 244.067 81.391 242.812 81.3771 241.278C81.3631 239.702 82.7437 238.433 84.4728 238.419L138.775 238.182C140.504 238.168 141.912 239.451 141.926 241.013C141.94 242.589 140.56 243.872 138.83 243.872L84.5286 244.109C84.4868 244.109 84.4589 244.109 84.431 244.109Z" fill="black"/>
<path d="M104.288 277.758L126.573 325.617L205.864 325.519C206.561 325.519 207.202 325.129 207.537 324.515L229.724 283.322C230.505 281.858 230.254 280.087 229.082 278.887C228.399 278.176 227.367 277.758 226.265 277.758H104.288ZM126.126 327.025C125.861 327.025 125.61 326.858 125.499 326.621L102.545 277.353C102.448 277.144 102.462 276.893 102.601 276.684C102.727 276.489 102.95 276.363 103.187 276.363H226.265C227.743 276.363 229.138 276.921 230.1 277.911C231.69 279.543 232.039 281.983 230.951 283.977L208.778 325.185C208.193 326.258 207.077 326.914 205.864 326.928L126.126 327.025Z" fill="black"/>
<path d="M188.21 326.719C188.14 326.719 188.07 326.705 188.001 326.691C187.624 326.58 187.429 326.189 187.541 325.813L196.619 296.417C196.73 296.054 197.121 295.845 197.497 295.956C197.86 296.068 198.069 296.458 197.957 296.835L188.879 326.231C188.782 326.524 188.503 326.719 188.21 326.719Z" fill="black"/>
<path d="M198.864 292.219C198.794 292.219 198.725 292.205 198.655 292.191C198.292 292.08 198.083 291.675 198.195 291.313L201.151 281.76C201.262 281.384 201.653 281.175 202.029 281.286C202.392 281.412 202.601 281.802 202.49 282.165L199.533 291.717C199.45 292.024 199.171 292.219 198.864 292.219Z" fill="black"/>
<path d="M95.1972 125.786C90.7627 121.407 84.4316 120.738 79.7601 122.244C73.8474 124.154 71.0723 129.467 69.12 133.219C65.6477 139.842 67.5721 142.088 64.7971 145.978C59.8606 152.853 42.8337 143.817 35.5684 147.233C17.8025 155.6 33.7834 184.717 50.4059 188.65C60.9762 191.16 71.407 192.736 74.6004 191.578C84.334 188.078 95.0298 184.201 96.257 172.613C97.275 163.019 90.6371 155.391 95.5179 147.164C96.759 145.072 97.8467 144.458 98.7252 141.878C100.148 137.681 100.189 130.709 95.1972 125.786Z" fill="black"/>
<path d="M82.1575 128.128C84.3051 126.217 82.6456 120.946 81.0838 118.143C80.4981 117.083 77.8764 112.37 74.7528 112.704C71.5315 113.039 68.6867 118.603 70.0254 122.856C71.7267 128.156 79.6335 130.359 82.1575 128.128Z" fill="black"/>
<path d="M99.5758 172.919C99.5758 172.919 101.654 188.092 108.445 203.571C113.814 215.772 121.107 225.715 127.522 231.711C128.289 232.423 129.32 232.785 130.38 232.757C132.807 232.688 137.66 232.897 140.002 236.02C142.164 238.907 139.974 243.676 137.743 244.499C135.303 245.405 135.414 243.356 135.052 241.961C134.592 240.19 133.602 238.294 131.468 238.363H126.671C125.792 238.363 124.942 238.112 124.203 237.638C118.778 234.18 95.0577 218.603 91.3622 194.018C91.2367 193.237 99.5758 172.919 99.5758 172.919Z" fill="white"/>
<path d="M131.607 237.653C133.016 237.653 134.842 238.392 135.735 241.78C135.791 242.031 135.846 242.282 135.888 242.547C136.014 243.133 136.139 243.802 136.432 243.97C136.613 244.081 137.004 244.039 137.506 243.844C138.454 243.495 139.472 242.115 139.932 240.581C140.406 238.991 140.225 237.485 139.444 236.439C137.478 233.818 133.434 233.385 130.394 233.469C129.125 233.497 127.94 233.051 127.047 232.214C119.74 225.395 112.726 215.062 107.803 203.85C102.657 192.108 100.175 180.422 99.2827 175.472C96.2845 182.849 92.3102 192.792 92.0592 194.005C95.3363 215.452 113.827 230.178 124.579 237.053C125.206 237.443 125.932 237.653 126.671 237.653H131.468C131.51 237.653 131.565 237.653 131.607 237.653ZM136.697 245.434C136.335 245.434 136.014 245.35 135.735 245.197C134.884 244.709 134.689 243.691 134.522 242.812C134.466 242.575 134.424 242.352 134.368 242.143C133.824 240.051 132.862 239.019 131.496 239.061H126.671C125.653 239.061 124.677 238.768 123.826 238.224C112.865 231.224 93.9836 216.163 90.6647 194.13C90.6229 193.879 90.5113 193.154 98.9201 172.641C99.0456 172.348 99.3524 172.181 99.6592 172.223C99.98 172.251 100.231 172.502 100.273 172.822C100.287 172.962 102.42 188.078 109.086 203.292C113.939 214.323 120.828 224.502 127.995 231.196C128.623 231.782 129.446 232.088 130.352 232.061C133.727 231.963 138.245 232.507 140.56 235.603C141.606 236.997 141.871 238.963 141.271 240.971C140.685 242.966 139.375 244.653 137.994 245.169C137.506 245.336 137.088 245.434 136.697 245.434Z" fill="black"/>
<path d="M104.945 183.546C104.122 178.665 99.4368 157.455 81.9079 155.251C73.8617 154.247 63.4866 155.739 60.1956 156.688C40.5471 160.997 40.6029 186.251 40.1009 186.544C39.822 186.697 43.5034 186.697 47.0733 186.655C52.1493 216.777 45.3023 223.861 45.3023 230.429C45.3023 237.973 48.1471 241.626 48.1471 241.626C47.8543 221.155 60.7115 225.102 60.7115 225.102C84.0833 230.903 93.8588 228.644 97.6518 226.719C98.9905 226.036 99.7296 224.544 99.4647 223.052L98.7813 219.245C94.7652 207.043 94.5839 197.128 96.7175 186.223L96.9685 184.926L104.08 184.633C104.638 184.605 105.043 184.089 104.945 183.546Z" fill="white"/>
<path d="M39.7377 185.944C39.7377 185.944 39.7237 185.958 39.7098 185.958C39.7237 185.958 39.7377 185.944 39.7377 185.944ZM47.0728 185.958C47.4074 185.958 47.7003 186.195 47.7561 186.53C51.5073 208.716 48.8577 218.38 47.1006 224.767C46.4871 226.998 46.0129 228.755 46.0129 230.428C46.0129 234.277 46.7799 237.094 47.4911 238.865C47.7979 232.59 49.5131 228.239 52.6229 225.91C56.388 223.079 60.7249 224.362 60.9062 224.418C84.0967 230.177 93.6769 227.932 97.3305 226.091C98.4042 225.548 98.976 224.376 98.7668 223.177L98.0975 219.426C94.3323 207.921 93.7048 197.964 96.0336 186.097L96.2846 184.786C96.3404 184.466 96.6193 184.243 96.94 184.229L104.052 183.936C104.136 183.922 104.191 183.88 104.219 183.838C104.233 183.81 104.275 183.754 104.261 183.657C103.536 179.418 99.0597 158.11 81.8237 155.948C73.638 154.93 63.3187 156.52 60.3902 157.357C49.4016 159.769 42.9032 169.154 41.0206 185.233C40.9927 185.512 40.9649 185.749 40.937 185.944C41.7179 185.972 43.4192 186 47.0588 185.958H47.0728ZM48.1465 242.337C47.9373 242.337 47.7282 242.24 47.6027 242.058C47.4772 241.905 44.6045 238.126 44.6045 230.428C44.6045 228.574 45.1065 226.719 45.748 224.39C47.4493 218.185 50.0151 208.814 46.4731 187.366C39.5982 187.436 39.5843 187.394 39.403 186.753C39.3612 186.571 39.3891 186.376 39.4727 186.209C39.5146 186.028 39.5703 185.553 39.6261 185.079C41.5924 168.331 48.4533 158.542 60.0416 155.99C63.6673 154.958 74.1539 153.578 81.991 154.554C100.217 156.841 104.889 179.013 105.642 183.434C105.725 183.88 105.6 184.354 105.307 184.717C105.028 185.079 104.596 185.302 104.122 185.33L97.5536 185.609L97.4002 186.362C95.1272 197.992 95.7408 207.768 99.4501 219.021C99.4501 219.063 99.4641 219.091 99.4641 219.119L100.147 222.926C100.468 224.739 99.5896 226.51 97.958 227.347C94.1371 229.285 84.1943 231.656 60.5436 225.771C60.4599 225.757 56.639 224.641 53.4456 227.04C50.294 229.424 48.7462 234.333 48.8577 241.626C48.8577 241.919 48.6625 242.198 48.3836 242.296C48.3139 242.323 48.2302 242.337 48.1465 242.337Z" fill="black"/>
<path d="M60.1111 186.642C60.1111 186.642 59.4278 199.401 64.4341 210.362C68.0598 218.311 79.3273 226.803 86.4532 231.363C87.4433 231.991 88.6705 232.144 89.7721 231.754C91.8081 231.042 95.4059 230.359 98.2786 232.981C100.566 235.086 101.388 237.889 101.584 240.33C101.751 242.282 99.422 243.398 97.9997 242.045C96.2286 240.344 93.9974 238.782 91.2921 238.154C91.2921 238.154 88.8517 237.68 87.778 239.117C87.3736 239.646 86.6624 239.856 86.007 239.688C80.917 238.35 55.1746 226.719 48.8575 215.494C44.5904 207.936 43.9907 186.711 43.9907 186.711L60.1111 186.642Z" fill="white"/>
<path d="M90.4001 237.374C90.9719 237.374 91.3902 237.458 91.432 237.458C93.9282 238.043 96.2152 239.368 98.4882 241.53C99.0181 242.045 99.6596 242.004 100.092 241.794C100.51 241.585 100.956 241.111 100.887 240.386C100.65 237.472 99.6038 235.157 97.8049 233.497C95.1832 231.099 91.7946 231.796 90.0097 232.423C88.7128 232.884 87.2485 232.702 86.0772 231.949C81.9216 229.286 68.0184 219.901 63.7931 210.655C59.4143 201.047 59.3167 190.268 59.3865 187.353L44.7303 187.409C44.8697 191.16 45.7762 208.605 49.4716 215.16C55.7189 226.246 81.5729 237.792 86.1887 239.005C86.5792 239.117 86.9975 238.992 87.2207 238.699C88.0434 237.597 89.4379 237.374 90.4001 237.374ZM99.4783 243.342C98.7671 243.342 98.0699 243.063 97.5121 242.548C95.4342 240.567 93.3564 239.34 91.1392 238.838C90.6093 238.741 89.0056 238.657 88.3363 239.535C87.7645 240.288 86.7884 240.609 85.8262 240.358C80.4992 238.964 54.7149 227.32 48.2444 215.843C43.9494 208.215 43.3218 187.604 43.2939 186.726C43.2939 186.544 43.3637 186.349 43.4892 186.224C43.6286 186.084 43.8099 186.001 43.9912 186.001L60.1116 185.945C60.3068 185.945 60.4881 186.015 60.6136 186.154C60.7531 186.293 60.8228 186.489 60.8088 186.684C60.8088 186.809 60.2092 199.402 65.076 210.07C69.134 218.967 82.7583 228.156 86.8302 230.764C87.639 231.294 88.657 231.405 89.5355 231.099C91.6273 230.36 95.5876 229.565 98.7532 232.465C100.831 234.362 102.016 236.983 102.295 240.274C102.393 241.46 101.765 242.548 100.692 243.063C100.301 243.245 99.8827 243.342 99.4783 243.342Z" fill="black"/>
<path d="M63.625 187.339H59.9853C59.6088 187.339 59.2881 187.032 59.2881 186.642C59.2881 186.251 59.6088 185.944 59.9853 185.944H63.3461L63.4158 185.303C63.6668 183.211 64.0573 181.12 64.5732 179.084L64.894 177.856C64.9916 177.48 65.382 177.243 65.7446 177.354C66.1211 177.438 66.3582 177.828 66.2606 178.205L65.9398 179.432C65.4239 181.412 65.0474 183.434 64.8103 185.456L64.7127 186.377C64.643 186.921 64.1828 187.339 63.625 187.339Z" fill="black"/>
<path d="M94.9601 136.327C95.002 131.628 89.8423 130.917 85.0592 134.556C84.7385 134.807 84.2922 134.738 84.0412 134.417C83.4555 133.65 82.4654 132.771 81.9355 132.688C80.5829 132.465 79.1884 133.915 79.0907 136.272C79.035 137.527 79.9972 139.214 80.4574 140.023C80.1924 140.483 79.7183 141.278 79.4952 141.794C79.3696 142.045 76.0786 148.906 72.8573 154.874C72.1601 156.185 70.8911 157.105 69.4269 157.37L63.5839 159.072C62.8309 159.211 62.6636 160.076 63.1795 160.647C64.7692 162.446 67.7674 166.03 79.1465 166.267C91.2647 166.518 87.7227 160.912 84.8082 158.904C83.5113 158.012 82.9675 156.394 83.4416 154.888C83.9994 153.089 84.7245 150.788 85.1289 149.464C85.882 149.993 86.635 150.412 87.3741 150.719C88.3223 151.109 89.41 150.705 89.8842 149.798C90.6372 148.306 91.7667 146.41 92.1711 145.545C92.2688 145.322 92.464 145.169 92.7011 145.155C93.2589 145.099 93.8445 145.252 94.3466 144.764C94.5418 144.583 94.5976 144.276 94.5 144.039C93.5656 141.794 94.9462 138.21 94.9601 136.327Z" fill="white"/>
<path d="M93.8438 144.303H93.8577H93.8438ZM69.5934 158.053L63.7784 159.754C63.7505 159.754 63.7365 159.768 63.7086 159.768C63.611 159.782 63.5971 159.824 63.5971 159.838C63.5692 159.922 63.5831 160.061 63.6947 160.187L63.7784 160.27C65.3542 162.041 68.2826 165.346 79.1597 165.57C85.4907 165.695 86.6621 164.175 86.8713 163.52C87.2617 162.32 85.923 160.521 84.403 159.476C82.8551 158.416 82.1997 156.491 82.7714 154.679C83.3292 152.88 84.0544 150.579 84.4588 149.268C84.5285 149.045 84.6959 148.877 84.905 148.808C85.1142 148.738 85.3513 148.766 85.5325 148.891C86.2298 149.379 86.941 149.77 87.6522 150.077C88.2518 150.328 88.9491 150.063 89.2559 149.477C89.6184 148.738 90.0926 147.901 90.5109 147.162C90.9293 146.395 91.3337 145.67 91.5289 145.252C91.7381 144.805 92.1564 144.499 92.6305 144.457C92.7839 144.429 92.9373 144.429 93.1047 144.429C93.5091 144.429 93.6764 144.415 93.8438 144.276C93.1465 142.602 93.5649 140.441 93.9274 138.544C94.0948 137.694 94.2482 136.885 94.2621 136.313C94.2621 134.877 93.7322 133.845 92.7003 133.329C90.9153 132.436 88.0845 133.134 85.4768 135.114C84.8492 135.588 83.9568 135.476 83.4826 134.849C82.9109 134.082 82.0742 133.426 81.8232 133.371C81.4188 133.315 81.0702 133.51 80.847 133.691C80.2335 134.193 79.829 135.169 79.7872 136.299C79.7454 137.359 80.6657 138.976 81.0562 139.674C81.1817 139.883 81.1817 140.134 81.0702 140.357C80.9865 140.496 80.8889 140.664 80.7913 140.845C80.5542 141.277 80.2753 141.752 80.1219 142.086C79.9546 142.463 76.6775 149.268 73.4701 155.208C72.6753 156.714 71.2529 157.746 69.5934 158.053ZM79.8988 166.978C79.6478 166.978 79.3828 166.978 79.1318 166.964C67.6411 166.727 64.4477 163.143 62.7325 161.205L62.6488 161.107C62.2165 160.619 62.0631 159.964 62.2723 159.378C62.4396 158.876 62.8719 158.513 63.4158 158.402L69.2309 156.687C69.2588 156.687 69.2866 156.673 69.3006 156.673C70.5696 156.45 71.6294 155.683 72.243 154.553C75.3806 148.71 78.6995 141.835 78.8529 141.5C79.0342 141.11 79.3131 140.608 79.5641 140.162C79.592 140.106 79.6199 140.064 79.6478 140.022C79.1179 139.074 78.3369 137.54 78.3927 136.243C78.4485 134.695 79.0202 133.371 79.9685 132.604C80.5821 132.088 81.3212 131.878 82.0463 131.99C83.0085 132.143 84.2217 133.496 84.5982 133.998C87.6522 131.697 91.0687 130.93 93.3278 132.074C94.8478 132.827 95.6706 134.347 95.6566 136.327C95.6566 137.024 95.4893 137.889 95.308 138.809C94.9733 140.524 94.6107 142.477 95.1406 143.76C95.3638 144.276 95.2383 144.875 94.8339 145.266C94.2482 145.837 93.5927 145.837 93.1047 145.837C93.0071 145.837 92.9094 145.837 92.7979 145.837C92.5887 146.325 92.1843 147.023 91.7381 147.845C91.3197 148.571 90.8595 149.393 90.497 150.105C89.8694 151.346 88.3773 151.903 87.1083 151.374C86.5784 151.15 86.0485 150.872 85.5325 150.565C85.1142 151.89 84.5564 153.647 84.1102 155.097C83.7197 156.31 84.1659 157.607 85.1979 158.318C87.1083 159.629 88.8515 161.958 88.21 163.952C87.5546 165.96 84.7656 166.978 79.8988 166.978Z" fill="black"/>
<path d="M219.21 167.536C219.21 194.994 196.94 217.25 169.482 217.25C142.024 217.25 119.768 194.994 119.768 167.536C119.768 140.065 142.024 117.809 169.482 117.809C196.94 117.809 219.21 140.065 219.21 167.536Z" fill="white"/>
<path d="M146.375 174.551L152.679 153.619H159.065L149.374 181.439H143.391L133.741 153.619H140.1L146.375 174.551Z" fill="#68ADF2"/>
<path d="M167.445 171.064H174.404L170.904 160.647L167.445 171.064ZM175.952 175.708H165.897L163.987 181.439H157.893L168.254 153.619H173.567L183.984 181.439H177.89L175.952 175.708Z" fill="#68ADF2"/>
<path d="M205.223 158.263H196.703V181.439H190.971V158.263H182.562V153.619H205.223V158.263Z" fill="#68ADF2"/>
<path d="M346.819 203.403C337.253 213.652 321.203 214.21 310.953 204.644C300.703 195.092 300.16 179.027 309.712 168.791C319.278 158.542 335.329 157.984 345.578 167.55C355.828 177.103 356.372 193.153 346.819 203.403Z" fill="white"/>
<path d="M328.259 212.161C321.886 212.161 315.499 209.846 310.479 205.16C299.965 195.357 299.393 178.818 309.196 168.304C319.013 157.803 335.538 157.217 346.053 167.035C349.553 170.298 352.077 174.44 353.36 179.027C353.472 179.39 353.248 179.78 352.872 179.892C352.509 179.99 352.119 179.767 352.007 179.404C350.794 175.067 348.41 171.149 345.091 168.053C335.148 158.779 319.502 159.323 310.228 169.266C300.941 179.209 301.485 194.855 311.427 204.142C321.384 213.416 337.016 212.872 346.304 202.929C350.487 198.453 352.844 192.61 352.928 186.488C352.942 186.098 353.248 185.791 353.639 185.805C354.029 185.805 354.336 186.125 354.336 186.516C354.239 192.986 351.742 199.15 347.322 203.891C342.204 209.386 335.232 212.161 328.259 212.161Z" fill="black"/>
<path d="M317.606 194.897L319.795 192.568C318.219 190.964 317.02 189.026 316.602 187.617L320.018 185.428C320.52 186.962 321.482 188.831 323.086 190.309C324.48 191.62 325.945 191.982 326.865 190.992C327.744 190.058 327.507 188.733 326.251 186.432C324.453 183.099 323.811 180.199 326.028 177.814C328.05 175.653 331.146 175.374 334.256 177.312L336.431 174.969L338.844 177.228L336.822 179.39C338.398 180.993 339.192 182.374 339.639 183.518L336.334 185.623C335.943 184.759 335.344 183.141 333.573 181.495C331.983 180.003 330.825 180.213 330.17 180.896C329.417 181.705 329.794 183.029 331.146 185.763C333.112 189.514 333.029 191.968 330.965 194.171C328.929 196.361 325.638 196.793 322.361 194.646L320.018 197.156L317.606 194.897Z" fill="#68ADF2"/>
<path d="M374.598 82.1654C374.598 112.05 350.362 136.272 320.478 136.272C290.594 136.272 266.371 112.05 266.371 82.1654C266.371 52.2813 290.594 28.0449 320.478 28.0449C350.362 28.0449 374.598 52.2813 374.598 82.1654Z" fill="white"/>
<path d="M320.477 136.984C290.259 136.984 265.66 112.385 265.66 82.1659C265.66 51.9471 290.259 27.3481 320.477 27.3481C324.075 27.3481 327.673 27.6968 331.173 28.394C331.55 28.4637 331.801 28.8403 331.717 29.2168C331.647 29.5933 331.271 29.8443 330.894 29.7746C327.492 29.0913 323.978 28.7566 320.477 28.7566C291.026 28.7566 267.068 52.7141 267.068 82.1659C267.068 111.618 291.026 135.575 320.477 135.575C349.929 135.575 373.887 111.618 373.887 82.1659C373.887 60.2444 360.151 40.2194 339.721 32.3265C339.359 32.1871 339.178 31.7826 339.317 31.4201C339.457 31.0575 339.861 30.8762 340.224 31.0157C350.431 34.9621 359.161 41.8091 365.45 50.8176C371.893 60.0352 375.295 70.8844 375.295 82.1659C375.295 112.385 350.71 136.984 320.477 136.984Z" fill="black"/>
<path d="M290.706 72.8779V107.406C290.706 109.623 292.505 111.422 294.722 111.422H346.235C348.452 111.422 350.251 109.623 350.251 107.406V72.8779H290.706Z" fill="white"/>
<path d="M291.416 73.5749V107.405C291.416 109.232 292.894 110.71 294.721 110.71H346.234C348.061 110.71 349.553 109.232 349.553 107.405V73.5749H291.416ZM346.234 112.119H294.721C292.127 112.119 290.008 109.999 290.008 107.405V72.8777C290.008 72.4872 290.315 72.1665 290.705 72.1665H350.25C350.641 72.1665 350.947 72.4872 350.947 72.8777V107.405C350.947 109.999 348.842 112.119 346.234 112.119Z" fill="black"/>
<path d="M337.365 101.814H303.605C302.517 101.814 301.652 100.95 301.652 99.8618V86.0563C301.652 84.9686 302.517 84.104 303.605 84.104H337.365C338.439 84.104 339.318 84.9686 339.318 86.0563V99.8618C339.318 100.95 338.439 101.814 337.365 101.814Z" fill="#99B9FF"/>
<path d="M356.191 70.9824H345.983L338.495 52.9097H345.983L356.191 70.9824Z" fill="#68ADF2"/>
<path d="M345.983 71.5117V73.478C345.983 75.737 348.27 77.5638 351.087 77.5638C353.904 77.5638 356.191 75.737 356.191 73.478V71.5117H345.983Z" fill="#68ADF2"/>
<path d="M345.984 70.9963H335.79L330.993 52.9097H338.496L345.984 70.9963Z" fill="#CADDFF"/>
<path d="M335.79 71.5117V73.478C335.79 75.737 338.077 77.5638 340.893 77.5638C343.71 77.5638 345.983 75.737 345.983 73.478V71.5117H335.79Z" fill="#CADDFF"/>
<path d="M335.79 70.9963H325.582L323.504 52.9097H330.993L335.79 70.9963Z" fill="#68ADF2"/>
<path d="M325.582 71.5117V73.478C325.582 75.7231 327.869 77.5638 330.686 77.5638C333.503 77.5638 335.79 75.7231 335.79 73.478V71.5117H325.582Z" fill="#68ADF2"/>
<path d="M325.582 70.9963H315.374L316.002 52.9097H323.504L325.582 70.9963Z" fill="#CADDFF"/>
<path d="M315.374 71.5117V73.478C315.374 75.7231 317.661 77.5638 320.478 77.5638C323.295 77.5638 325.582 75.7231 325.582 73.478V71.5117H315.374Z" fill="#CADDFF"/>
<path d="M315.374 70.9963H305.181L308.514 52.9097H316.002L315.374 70.9963Z" fill="#68ADF2"/>
<path d="M305.181 71.5117V73.478C305.181 75.737 307.454 77.5638 310.285 77.5638C313.101 77.5638 315.374 75.737 315.374 73.478V71.5117H305.181Z" fill="#68ADF2"/>
<path d="M305.181 70.9963H294.973L301.011 52.9097H308.514L305.181 70.9963Z" fill="#CADDFF"/>
<path d="M294.973 71.5117V73.478C294.973 75.737 297.26 77.5638 300.077 77.5638C302.894 77.5638 305.181 75.737 305.181 73.478V71.5117H294.973Z" fill="#CADDFF"/>
<path d="M294.973 70.9963H284.765L293.509 52.9097H301.011L294.973 70.9963Z" fill="#68ADF2"/>
<path d="M284.765 71.5117V73.478C284.765 75.737 287.052 77.5638 289.869 77.5638C292.686 77.5638 294.973 75.737 294.973 73.478V71.5117H284.765Z" fill="#68ADF2"/>
<path d="M356.191 71.6926H284.765C284.374 71.6926 284.067 71.3719 284.067 70.9954C284.067 70.6049 284.374 70.2842 284.765 70.2842H356.191C356.581 70.2842 356.888 70.6049 356.888 70.9954C356.888 71.3719 356.581 71.6926 356.191 71.6926Z" fill="white"/>
<path d="M211.051 38.4619C211.051 58.8495 194.527 75.3743 174.139 75.3743C153.751 75.3743 137.227 58.8495 137.227 38.4619C137.227 18.0883 153.751 1.56348 174.139 1.56348C194.527 1.56348 211.051 18.0883 211.051 38.4619Z" fill="white"/>
<path d="M174.139 76.0857C153.403 76.0857 136.53 59.2123 136.53 38.4622C136.53 17.726 153.403 0.852539 174.139 0.852539C194.876 0.852539 211.749 17.726 211.749 38.4622C211.749 47.2615 208.653 55.8237 203.019 62.573C202.768 62.8659 202.322 62.9077 202.029 62.6567C201.737 62.4057 201.695 61.9734 201.946 61.6666C207.37 55.1822 210.355 46.9407 210.355 38.4622C210.355 18.5069 194.109 2.26098 174.139 2.26098C154.17 2.26098 137.938 18.5069 137.938 38.4622C137.938 58.4314 154.17 74.6773 174.139 74.6773C181.865 74.6773 189.242 72.2788 195.461 67.7327C195.768 67.5096 196.214 67.5793 196.437 67.8861C196.675 68.2068 196.605 68.6391 196.284 68.8762C189.828 73.5896 182.172 76.0857 174.139 76.0857Z" fill="black"/>
<path d="M152.12 39.8149C151.478 39.8149 150.851 39.55 150.39 39.048C149.526 38.0857 149.596 36.6076 150.558 35.743L172.549 15.8296C173.441 15.0207 174.794 15.0207 175.687 15.8156L197.762 35.743C198.71 36.6076 198.793 38.0857 197.929 39.048C197.064 39.9962 195.586 40.0799 194.624 39.2153L174.125 20.7103L153.695 39.2153C153.249 39.6197 152.677 39.8149 152.12 39.8149Z" fill="#68ADF2"/>
<path d="M171.183 47.0527H163.123V38.9785H171.183V47.0527Z" fill="#99B9FF"/>
<path d="M185.142 59.38H177.068V38.9785H185.142V59.38Z" fill="#99B9FF"/>
<path d="M188.921 60.1746H159.315C157.642 60.1746 155.676 58.2362 155.676 56.5907V39.6057C155.676 39.2153 155.983 38.8945 156.373 38.8945C156.763 38.8945 157.07 39.2153 157.07 39.6057V56.5907C157.07 57.4693 158.423 58.7661 159.315 58.7661H188.921C189.743 58.7661 190.747 57.5669 190.747 56.5907V39.6057C190.747 39.2153 191.054 38.8945 191.445 38.8945C191.835 38.8945 192.156 39.2153 192.156 39.6057V56.5907C192.156 58.2083 190.664 60.1746 188.921 60.1746Z" fill="black"/>
<path d="M104.526 68.8064C104.526 89.194 88.0016 105.719 67.614 105.719C47.2265 105.719 30.7017 89.194 30.7017 68.8064C30.7017 48.4328 47.2265 31.894 67.614 31.894C88.0016 31.894 104.526 48.4328 104.526 68.8064Z" fill="white"/>
<path d="M67.613 106.417C46.8769 106.417 30.0034 89.557 30.0034 68.8069C30.0034 48.0707 46.8769 31.1973 67.613 31.1973C77.5419 31.1973 86.9129 35.0321 93.983 42.0046C94.2619 42.2696 94.2619 42.7158 93.997 42.9947C93.7181 43.2736 93.2858 43.2736 93.0069 43.0087C86.1878 36.3011 77.1654 32.6057 67.613 32.6057C47.6438 32.6057 31.3979 48.8516 31.3979 68.8069C31.3979 88.7761 47.6438 105.022 67.613 105.022C87.5823 105.022 103.814 88.7761 103.814 68.8069C103.814 62.0854 101.96 55.5313 98.4594 49.8417C98.2502 49.507 98.3617 49.0747 98.6825 48.8656C99.0172 48.6703 99.4494 48.7679 99.6447 49.1026C103.298 55.0153 105.223 61.8344 105.223 68.8069C105.223 89.557 88.3492 106.417 67.613 106.417Z" fill="black"/>
<path d="M49.053 51.751L48.4673 56.4225H56.1231L55.5234 51.751H49.053Z" fill="#68ADF2"/>
<path d="M46.2495 86.8233H88.8096V71.4001H79.2154C78.8389 71.4001 78.5182 71.0794 78.5182 70.6889V65.1667L68.8264 70.8563C68.6033 70.9818 68.3383 70.9957 68.1152 70.8702C67.8921 70.7447 67.7666 70.5077 67.7666 70.2566V65.097L58.1306 70.1311C57.9214 70.2427 57.6844 70.2427 57.4752 70.1311C57.28 70.0196 57.1405 69.8244 57.1126 69.6012L54.4631 48.4885H50.0704L46.2495 70.5077V86.8233ZM89.5068 88.2317H45.5522C45.1618 88.2317 44.855 87.911 44.855 87.5205V70.4519C44.855 70.41 44.855 70.3682 44.855 70.3264L48.7875 47.6658C48.8432 47.3311 49.1361 47.0801 49.4847 47.0801H55.0906C55.4392 47.0801 55.7321 47.345 55.7739 47.6937L58.3816 68.4159L68.1431 63.312C68.3523 63.2005 68.6172 63.2144 68.8264 63.3399C69.0356 63.4654 69.1611 63.6886 69.1611 63.9396V69.0295L78.8668 63.326C79.076 63.2005 79.3549 63.2005 79.564 63.326C79.7872 63.4515 79.9266 63.6886 79.9266 63.9396V69.9917H89.5068C89.8973 69.9917 90.2041 70.3124 90.2041 70.6889V87.5205C90.2041 87.911 89.8973 88.2317 89.5068 88.2317Z" fill="black"/>
<path d="M66.4562 82.2214H58.8423V74.6074H66.4562V82.2214Z" fill="#99B9FF"/>
<path d="M78.7563 82.2214H71.1562V74.6074H78.7563V82.2214Z" fill="#99B9FF"/>
<path d="M389.937 362.279L389.951 373.839C389.951 377.339 385.907 380.854 377.763 383.573C361.49 388.997 334.924 389.234 317.898 384.145C317.619 384.061 317.354 383.977 317.075 383.894C308.457 381.174 304.12 377.576 304.12 373.951L304.106 362.39C304.106 366.016 308.443 369.614 317.061 372.333C317.34 372.417 317.619 372.5 317.898 372.584C334.91 377.674 361.476 377.437 377.763 372.012C385.893 369.293 389.951 365.779 389.937 362.279Z" fill="#68ADF2"/>
<path d="M376.146 352.085C376.439 352.155 376.718 352.253 376.983 352.336C393.954 357.677 394.303 366.49 377.764 372.013C361.476 377.437 334.911 377.674 317.898 372.584C317.619 372.501 317.34 372.417 317.075 372.333C300.09 366.992 299.756 358.179 316.294 352.657C332.568 347.232 359.133 346.995 376.146 352.085Z" fill="#99B9FF"/>
<path d="M380.72 348.612V360.172C380.734 363.686 376.676 367.2 368.546 369.906C352.259 375.344 325.693 375.567 308.681 370.491C308.402 370.408 308.123 370.324 307.844 370.24C299.226 367.521 294.889 363.909 294.889 360.298L294.875 348.737C294.889 352.363 299.212 355.961 307.844 358.68C308.109 358.764 308.388 358.847 308.667 358.931C325.693 364.007 352.259 363.784 368.532 358.345C376.676 355.64 380.72 352.126 380.72 348.612Z" fill="#68ADF2"/>
<path d="M366.929 338.419C367.208 338.503 367.487 338.586 367.752 338.684C384.737 344.025 385.072 352.824 368.533 358.347C352.259 363.785 325.694 364.008 308.667 358.932C308.388 358.849 308.109 358.765 307.844 358.681C290.873 353.34 290.525 344.527 307.064 339.005C323.351 333.566 349.903 333.343 366.929 338.419Z" fill="#99B9FF"/>
<path d="M388.445 331.962V343.522C388.459 347.022 384.401 350.537 376.271 353.242C359.984 358.681 333.419 358.904 316.406 353.828C316.127 353.744 315.848 353.66 315.569 353.577C306.951 350.857 302.614 347.26 302.614 343.634L302.6 332.073C302.614 335.699 306.937 339.297 315.569 342.016C315.834 342.1 316.113 342.184 316.392 342.267C333.405 347.357 359.97 347.12 376.258 341.682C384.387 338.976 388.445 335.462 388.445 331.962Z" fill="#68ADF2"/>
<path d="M303.312 335.852V343.634C303.312 347.036 307.872 350.411 315.779 352.907C316.057 352.991 316.322 353.074 316.601 353.158C333.405 358.178 360.068 357.913 376.049 352.586C383.481 350.09 387.749 346.799 387.749 343.522V335.727C385.824 338.237 381.989 340.51 376.481 342.351C359.984 347.859 333.517 348.11 316.197 342.936C315.904 342.853 315.625 342.769 315.346 342.685C309.42 340.817 305.32 338.46 303.312 335.852ZM345.37 358.22C334.939 358.22 324.522 356.979 316.197 354.497C315.918 354.413 315.639 354.329 315.36 354.246C306.7 351.513 301.917 347.747 301.903 343.634V332.073C301.903 331.683 302.21 331.376 302.601 331.376C302.991 331.376 303.298 331.683 303.298 332.073C303.312 335.476 307.858 338.851 315.779 341.347C316.044 341.43 316.322 341.514 316.587 341.598C333.391 346.618 360.054 346.353 376.035 341.026C383.481 338.53 387.749 335.239 387.735 331.962C387.735 331.571 388.055 331.25 388.446 331.25C388.836 331.25 389.143 331.571 389.143 331.948C389.143 331.948 389.143 331.948 389.143 331.962L389.157 343.508C389.157 347.496 384.653 351.192 376.481 353.911C367.919 356.77 356.651 358.22 345.37 358.22Z" fill="black"/>
<path d="M374.654 321.755C374.933 321.839 375.212 321.936 375.477 322.02C392.448 327.361 392.797 336.16 376.258 341.682C359.97 347.121 333.405 347.358 316.392 342.268C316.113 342.184 315.835 342.101 315.57 342.017C298.599 336.676 298.25 327.863 314.789 322.341C331.076 316.916 357.628 316.679 374.654 321.755Z" fill="white"/>
<path d="M345.719 318.839C334.521 318.839 323.323 320.234 315.012 323.009C307.551 325.505 303.284 328.81 303.312 332.101C303.34 335.49 307.886 338.864 315.779 341.347C316.044 341.43 316.323 341.514 316.588 341.598C333.391 346.618 360.054 346.353 376.035 341.026C383.496 338.53 387.763 335.211 387.735 331.934C387.707 328.531 383.161 325.17 375.268 322.688C375.003 322.591 374.724 322.521 374.445 322.437C366.385 320.025 356.052 318.839 345.719 318.839ZM345.356 346.66C334.939 346.66 324.508 345.419 316.197 342.936C315.904 342.853 315.625 342.769 315.36 342.685C306.714 339.966 301.945 336.215 301.903 332.115C301.876 328.127 306.366 324.417 314.565 321.67C331.048 316.176 357.53 315.911 374.85 321.085C375.143 321.168 375.407 321.252 375.7 321.35C384.332 324.069 389.101 327.82 389.143 331.92C389.171 335.908 384.681 339.617 376.481 342.351C367.905 345.209 356.638 346.66 345.356 346.66Z" fill="black"/>
<path d="M369.425 328.392L370.903 330.177L365.743 330.902C366.58 332.143 366.44 333.078 365.994 333.817L358.924 334.207C359.175 333.65 359.83 332.618 358.743 331.307C358.296 330.763 357.641 330.442 356.902 330.261C356.037 330.066 355.047 330.08 354.169 330.205C352.216 330.47 351.519 331.279 350.934 333.092C350.264 335.602 347.754 336.941 342.483 337.68C339.025 338.168 335.482 338.098 332.638 337.429C331.187 337.094 329.918 336.606 328.928 335.95L322.946 336.787L321.468 335.002L327.046 334.221C326.209 332.98 326.279 331.641 326.99 330.763L334.311 330.359C333.6 331.307 333.251 332.562 334.241 333.747C334.688 334.277 335.413 334.695 336.347 334.905C337.184 335.1 338.216 335.142 339.331 334.988C341.562 334.668 342.483 333.887 342.831 332.339C343.32 330.094 345.16 328.35 350.85 327.542C354.266 327.067 357.599 327.151 360.305 327.779C361.671 328.099 362.884 328.56 363.847 329.173L369.425 328.392Z" fill="#68ADF2"/>
<path d="M303.493 315.215L311.832 324.014C314.37 326.692 313.813 332.284 309.573 340.232C301.081 356.115 281 375.457 264.364 383.866C264.099 384.005 263.834 384.131 263.555 384.27C255.035 388.412 249.122 388.789 246.514 386.041L238.161 377.242C240.769 379.989 246.682 379.613 255.202 375.457C255.481 375.332 255.746 375.192 256.025 375.053C272.661 366.658 292.742 347.316 301.22 331.433C305.474 323.484 306.017 317.878 303.493 315.215Z" fill="#68ADF2"/>
<path d="M241.326 379.556L247.015 385.552C249.484 388.16 255.396 387.449 263.247 383.642C263.512 383.503 263.777 383.377 264.056 383.238C280.483 374.94 300.62 355.501 308.945 339.897C312.836 332.617 313.7 327.011 311.33 324.501L305.64 318.505C306.017 321.796 304.748 326.328 301.847 331.753C293.257 347.831 273.26 367.131 256.345 375.679C256.066 375.819 255.787 375.958 255.508 376.098C249.595 378.97 244.742 380.142 241.326 379.556ZM251.506 388.509C249.121 388.509 247.253 387.853 245.997 386.529L237.658 377.715C237.658 377.715 237.658 377.715 237.644 377.715C237.379 377.437 237.393 376.99 237.672 376.725C237.951 376.46 238.397 376.474 238.662 376.753H238.676C241.145 379.347 247.057 378.65 254.894 374.829C255.159 374.703 255.438 374.564 255.703 374.438C272.13 366.127 292.267 346.688 300.606 331.097C304.483 323.818 305.361 318.212 302.991 315.702H302.977C302.712 315.423 302.726 314.977 303.005 314.712C303.283 314.447 303.73 314.447 303.995 314.74L312.348 323.539C315.206 326.551 314.439 332.603 310.186 340.566C301.596 356.645 281.613 375.93 264.684 384.493C264.405 384.632 264.14 384.758 263.861 384.897C258.938 387.296 254.741 388.509 251.506 388.509Z" fill="black"/>
<path d="M285.629 317.404C285.894 317.264 286.173 317.125 286.438 316.999C303.228 308.814 309.852 315.284 301.22 331.433C292.741 347.316 272.661 366.658 256.024 375.052C255.745 375.192 255.48 375.331 255.201 375.457C238.426 383.643 231.802 377.172 240.434 361.024C248.912 345.14 268.993 325.799 285.629 317.404Z" fill="white"/>
<path d="M298.487 314.154C295.489 314.154 291.472 315.326 286.745 317.627C286.48 317.752 286.215 317.892 285.936 318.031C269.509 326.328 249.373 345.768 241.047 361.358C237.143 368.665 236.292 374.285 238.691 376.781C241.159 379.347 247.072 378.636 254.895 374.829C255.174 374.704 255.439 374.564 255.704 374.439C272.131 366.127 292.267 346.688 300.606 331.098C304.511 323.79 305.362 318.171 302.963 315.674C301.973 314.657 300.453 314.154 298.487 314.154ZM243.167 379.696C240.796 379.696 238.928 379.054 237.673 377.744C234.786 374.745 235.539 368.679 239.806 360.703C248.396 344.624 268.38 325.324 285.309 316.776C285.588 316.637 285.853 316.497 286.132 316.358C294.666 312.202 300.997 311.617 303.967 314.712C306.868 317.71 306.115 323.763 301.848 331.753C293.257 347.832 273.26 367.131 256.345 375.68C256.066 375.819 255.787 375.959 255.508 376.098C250.586 378.497 246.402 379.696 243.167 379.696Z" fill="black"/>
<path d="M272.94 332.395L272.675 335.253C274.265 334.082 275.534 333.287 276.579 332.729C277.305 332.339 277.904 332.06 278.434 331.865L276.914 336.425C276.384 336.648 275.645 336.941 274.641 337.485C273.735 337.987 272.591 338.684 271.197 339.744C268.575 341.752 267.641 343.3 267.557 344.22C267.446 345.28 268.798 344.889 272.145 343.314C276.817 341.013 278.588 341.333 278.309 344.248C278.044 347.148 275.269 351.541 270.555 355.739L270.235 359.057L266.274 362.07L266.567 358.974C265.047 360.089 263.569 361.01 262.3 361.707C261.324 362.237 260.473 362.613 259.832 362.809L261.407 358.081C262.216 357.816 263.206 357.398 264.322 356.798C265.423 356.199 266.665 355.404 267.975 354.414C270.276 352.657 271.922 350.746 272.047 349.435C272.159 348.208 270.946 348.417 268.031 349.882C263.82 352.001 261.017 352.615 261.31 349.477C261.589 346.619 264.308 342.463 268.687 338.489L268.979 335.407L272.94 332.395Z" fill="#68ADF2"/>
<path d="M35.2195 28.7977C35.0522 28.7977 34.8709 28.7419 34.7315 28.6025C34.4526 28.3375 34.4526 27.8913 34.7175 27.6124L36.9208 25.3115C37.1858 25.0326 37.632 25.0186 37.9109 25.2836C38.1898 25.5485 38.2038 25.9948 37.9388 26.2737L35.7216 28.5885C35.596 28.728 35.4008 28.7977 35.2195 28.7977Z" fill="black"/>
<path d="M27.4944 36.8719C27.3271 36.8719 27.1458 36.8161 27.0064 36.6767C26.7275 36.4117 26.7275 35.9655 26.9924 35.6866L29.1957 33.3857C29.4607 33.1068 29.9069 33.0928 30.1858 33.3578C30.4647 33.6227 30.4787 34.069 30.2137 34.3479L27.9965 36.6627C27.871 36.8022 27.6757 36.8719 27.4944 36.8719Z" fill="black"/>
<path d="M29.6555 28.9233C29.4881 28.9233 29.3068 28.8535 29.1674 28.728L26.9222 26.5108C26.6573 26.2458 26.6433 25.7996 26.9222 25.5207C27.1872 25.2418 27.6334 25.2418 27.9123 25.5207L30.1575 27.724C30.4364 27.989 30.4364 28.4352 30.1575 28.7141C30.018 28.8535 29.8367 28.9233 29.6555 28.9233Z" fill="black"/>
<path d="M37.5062 36.6495C37.3249 36.6495 37.1436 36.5937 37.0042 36.4543L34.773 34.251C34.4941 33.9721 34.4941 33.5258 34.759 33.2469C35.0379 32.982 35.4842 32.968 35.7491 33.2469L37.9943 35.4503C38.2732 35.7292 38.2732 36.1754 38.0082 36.4403C37.8687 36.5798 37.6875 36.6495 37.5062 36.6495Z" fill="black"/>
<path d="M349.581 293.028C349.205 293.028 348.884 292.721 348.87 292.33L348.8 289.137C348.8 288.76 349.107 288.44 349.498 288.426C349.498 288.426 349.498 288.426 349.511 288.426C349.888 288.426 350.209 288.733 350.209 289.109L350.278 292.302C350.292 292.693 349.986 293.014 349.595 293.028H349.581Z" fill="black"/>
<path d="M349.832 304.198C349.442 304.198 349.135 303.891 349.135 303.514L349.051 300.321C349.051 299.93 349.358 299.61 349.749 299.596C350.139 299.61 350.446 299.902 350.46 300.279L350.529 303.472C350.543 303.863 350.237 304.184 349.846 304.198H349.832Z" fill="black"/>
<path d="M342.594 297.058C342.204 297.058 341.897 296.751 341.883 296.361C341.883 295.984 342.204 295.664 342.581 295.664L345.732 295.636C346.123 295.636 346.429 295.943 346.443 296.333C346.443 296.723 346.123 297.03 345.746 297.044L342.594 297.058Z" fill="black"/>
<path d="M353.597 296.989C353.221 296.989 352.9 296.668 352.9 296.291C352.9 295.901 353.207 295.58 353.597 295.58L356.735 295.552C356.749 295.552 356.749 295.552 356.749 295.552C357.139 295.552 357.446 295.873 357.446 296.249C357.446 296.64 357.139 296.961 356.749 296.961L353.611 296.989H353.597Z" fill="black"/>
<path d="M49.8894 15.8012C48.2578 15.8012 46.9331 17.14 46.9331 18.7576C46.9331 20.3891 48.2578 21.7139 49.8894 21.7139C51.521 21.7139 52.8457 20.3891 52.8457 18.7576C52.8457 17.14 51.521 15.8012 49.8894 15.8012ZM49.8894 23.1224C47.4909 23.1224 45.5386 21.1701 45.5386 18.7576C45.5386 16.359 47.4909 14.4067 49.8894 14.4067C52.2879 14.4067 54.2542 16.359 54.2542 18.7576C54.2542 21.1701 52.2879 23.1224 49.8894 23.1224Z" fill="black"/>
<path d="M225.136 119.497C225.136 122.328 222.849 124.629 220.004 124.629C217.173 124.629 214.872 122.328 214.872 119.497C214.872 116.652 217.173 114.365 220.004 114.365C222.849 114.365 225.136 116.652 225.136 119.497Z" fill="white"/>
</svg>
