<svg width="408" height="622" viewBox="0 0 408 622" fill="none" xmlns="http://www.w3.org/2000/svg">
<path d="M327.312 343.779C315.713 412.678 288.98 468.97 256.928 504.639C224.362 540.88 190.899 551.622 163.789 544.375C136.679 537.129 109.559 510.193 91.4746 460.413C73.6754 411.418 67.3818 346.297 78.9808 277.398C90.5798 208.499 117.313 152.207 149.365 116.537C181.931 80.2966 215.394 69.5549 242.504 76.8015C269.614 84.0482 296.734 110.984 314.818 160.764C332.618 209.759 338.911 274.88 327.312 343.779Z" stroke="url(#paint0_linear_244_1829)" stroke-width="70"/>
<path d="M290.82 603.059L372.08 484.059H382.11L300.85 603.059H290.82ZM300 547.809C294.673 547.809 289.97 546.505 285.89 543.899C281.81 541.179 278.637 537.382 276.37 532.509C274.217 527.635 273.14 521.969 273.14 515.509C273.14 509.049 274.217 503.382 276.37 498.509C278.637 493.635 281.81 489.895 285.89 487.289C289.97 484.569 294.673 483.209 300 483.209C305.327 483.209 309.973 484.569 313.94 487.289C318.02 489.895 321.193 493.635 323.46 498.509C325.727 503.382 326.86 509.049 326.86 515.509C326.86 521.969 325.727 527.635 323.46 532.509C321.193 537.382 318.02 541.179 313.94 543.899C309.973 546.505 305.327 547.809 300 547.809ZM300 540.159C305.553 540.159 309.973 538.005 313.26 533.699C316.66 529.279 318.36 523.215 318.36 515.509C318.36 507.802 316.66 501.795 313.26 497.489C309.973 493.069 305.553 490.859 300 490.859C294.333 490.859 289.857 493.069 286.57 497.489C283.283 501.795 281.64 507.802 281.64 515.509C281.64 523.215 283.283 529.279 286.57 533.699C289.857 538.005 294.333 540.159 300 540.159ZM372.93 603.909C367.717 603.909 363.07 602.605 358.99 599.999C354.91 597.279 351.737 593.482 349.47 588.609C347.203 583.735 346.07 578.069 346.07 571.609C346.07 565.149 347.203 559.482 349.47 554.609C351.737 549.735 354.91 545.995 358.99 543.389C363.07 540.669 367.717 539.309 372.93 539.309C378.37 539.309 383.073 540.669 387.04 543.389C391.12 545.995 394.237 549.735 396.39 554.609C398.657 559.482 399.79 565.149 399.79 571.609C399.79 578.069 398.657 583.735 396.39 588.609C394.237 593.482 391.12 597.279 387.04 599.999C383.073 602.605 378.37 603.909 372.93 603.909ZM372.93 596.259C378.483 596.259 382.903 594.105 386.19 589.799C389.59 585.379 391.29 579.315 391.29 571.609C391.29 563.902 389.59 557.895 386.19 553.589C382.903 549.169 378.483 546.959 372.93 546.959C367.377 546.959 362.9 549.169 359.5 553.589C356.213 557.895 354.57 563.902 354.57 571.609C354.57 579.315 356.213 585.379 359.5 589.799C362.9 594.105 367.377 596.259 372.93 596.259Z" fill="url(#paint1_linear_244_1829)"/>
<defs>
<linearGradient id="paint0_linear_244_1829" x1="409.987" y1="744.95" x2="30.6004" y2="8.00406" gradientUnits="userSpaceOnUse">
<stop offset="0.0904862" stop-color="white"/>
<stop offset="0.385417" stop-color="#9354E0"/>
<stop offset="0.973958" stop-color="#FF9F78"/>
</linearGradient>
<linearGradient id="paint1_linear_244_1829" x1="337" y1="463.059" x2="373.358" y2="593.636" gradientUnits="userSpaceOnUse">
<stop stop-color="white"/>
<stop offset="0.661458" stop-color="#FF9F78"/>
<stop offset="0.7888" stop-color="#9354E0"/>
</linearGradient>
</defs>
</svg>
